<?xml version="1.0" standalone="no"?>
<!DOCTYPE svg PUBLIC "-//W3C//DTD SVG 1.1//EN" "http://www.w3.org/Graphics/SVG/1.1/DTD/svg11.dtd" >
<svg xmlns="http://www.w3.org/2000/svg" xmlns:xlink="http://www.w3.org/1999/xlink" version="1.1">
<metadata>
Created by FontForge 20170731 at Wed Dec  7 18:00:43 2016
 By Aleksey,,,
(c) Copyright 2016 Reliance Jio Infocomm Ltd
</metadata>
<defs>
<font id="JioType-Black" horiz-adv-x="406" >
  <font-face 
    font-family="JioType Black"
    font-weight="900"
    font-stretch="normal"
    units-per-em="1000"
    panose-1="2 11 10 4 2 2 2 2 2 4"
    ascent="765"
    descent="-235"
    x-height="519"
    cap-height="691"
    bbox="-285 -233 1073 927"
    underline-thickness="50"
    underline-position="-175"
    unicode-range="U+000D-FEFF"
  />
<missing-glyph horiz-adv-x="517" 
d="M42 691h432v-691h-432v691zM405 648h-294l147 -259zM85 91l147 254l-147 255v-509zM431 91v509l-147 -255zM405 43l-147 258l-147 -258h294z" />
    <glyph glyph-name="ff" unicode="ff" horiz-adv-x="747" 
d="M639 522v-3h99v-122h-94v-397h-198v397h-160v-397h-198v397h-79v122h79v9q0 60 30 103t84 66t123 23q38 0 65 -8v-132q-7 3 -17.5 5t-23.5 2q-68 0 -68 -65v-3h165v9q0 60 30 103t84 66t123 23q38 0 65 -8v-132q-7 3 -17.5 5t-23.5 2q-68 0 -68 -65z" />
    <glyph glyph-name="fi" unicode="fi" horiz-adv-x="704" 
d="M88 397h-79v122h79v9q0 60 30 103t84 66t123 23q38 0 65 -8v-132q-7 3 -17.5 5t-23.5 2q-68 0 -68 -65v-3h99v-122h-94v-397h-198v397zM636.5 631.5q-13.5 -21.5 -37.5 -34t-54 -12.5t-54 12.5t-37.5 34t-13.5 48.5t13.5 48.5t37.5 34t54 12.5t54 -12.5t37.5 -34
t13.5 -48.5t-13.5 -48.5zM644 519v-519h-198v519h198z" />
    <glyph glyph-name="fl" unicode="fl" horiz-adv-x="704" 
d="M88 397h-79v122h79v9q0 60 30 103t84 66t123 23q38 0 65 -8v-132q-7 3 -17.5 5t-23.5 2q-68 0 -68 -65v-3h99v-122h-94v-397h-198v397zM644 714v-714h-198v714h198z" />
    <glyph glyph-name="ffi" unicode="ffi" horiz-adv-x="1062" 
d="M994.5 631.5q-13.5 -21.5 -37.5 -34t-54 -12.5t-54 12.5t-37.5 34t-13.5 48.5t13.5 48.5t37.5 34t54 12.5t54 -12.5t37.5 -34t13.5 -48.5t-13.5 -48.5zM1002 519v-519h-198v519h198zM639 522v-3h99v-122h-94v-397h-198v397h-160v-397h-198v397h-79v122h79v9q0 60 30 103
t84 66t123 23q38 0 65 -8v-132q-7 3 -17.5 5t-23.5 2q-68 0 -68 -65v-3h165v9q0 60 30 103t84 66t123 23q38 0 65 -8v-132q-7 3 -17.5 5t-23.5 2q-68 0 -68 -65z" />
    <glyph glyph-name="ffl" unicode="ffl" horiz-adv-x="1062" 
d="M1002 714v-714h-198v714h198zM639 522v-3h99v-122h-94v-397h-198v397h-160v-397h-198v397h-79v122h79v9q0 60 30 103t84 66t123 23q38 0 65 -8v-132q-7 3 -17.5 5t-23.5 2q-68 0 -68 -65v-3h165v9q0 60 30 103t84 66t123 23q38 0 65 -8v-132q-7 3 -17.5 5t-23.5 2
q-68 0 -68 -65z" />
    <glyph glyph-name=".notdef" horiz-adv-x="517" 
d="M42 691h432v-691h-432v691zM405 648h-294l147 -259zM85 91l147 254l-147 255v-509zM431 91v509l-147 -255zM405 43l-147 258l-147 -258h294z" />
    <glyph glyph-name=".null" horiz-adv-x="0" 
 />
    <glyph glyph-name="nonmarkingreturn" horiz-adv-x="333" 
 />
    <glyph glyph-name="NULL" horiz-adv-x="6" 
 />
    <glyph glyph-name="NULL" horiz-adv-x="6" 
 />
    <glyph glyph-name="CR" unicode="&#xd;" horiz-adv-x="336" 
 />
    <glyph glyph-name="space" unicode=" " horiz-adv-x="336" 
 />
    <glyph glyph-name="exclam" unicode="!" horiz-adv-x="315" 
d="M266 691l-31 -439h-154l-33 439h218zM213 182q25 -13 39 -36t14 -52t-14 -52t-39 -35.5t-56 -12.5t-56 12.5t-39 35.5t-14 52t14 52t39 36t56 13t56 -13z" />
    <glyph glyph-name="quotedbl" unicode="&#x22;" horiz-adv-x="515" 
d="M230 714v-379h-153v379h153zM440 714v-379h-154v379h154z" />
    <glyph glyph-name="numbersign" unicode="#" horiz-adv-x="666" 
d="M217 696h133l-24 -181h66l24 181h133l-24 -181h76l-18 -117h-74l-13 -96h75l-17 -117h-73l-25 -185h-133l25 185h-66l-25 -185h-133l25 185h-84l17 117h83l12 96h-83l17 117h82zM298 302h66l12 96h-66z" />
    <glyph glyph-name="dollar" unicode="$" horiz-adv-x="663" 
d="M360 785v-79q74 -2 132 -26t91 -70t35 -110h-195q-1 25 -17 38.5t-46 15.5v-111q7 -2 29 -7q86 -22 136.5 -42.5t84.5 -62.5t34 -114q0 -79 -38.5 -131t-102.5 -76t-143 -26v-97h-50v97q-86 1 -150 28.5t-100 77.5t-40 119h215q0 -32 19.5 -49.5t55.5 -19.5v132
q-101 27 -157 55t-81 67.5t-25 99.5q0 62 33 109.5t92.5 74t137.5 28.5v79h50zM310 554q-69 -4 -69 -45q0 -21 17.5 -34.5t51.5 -20.5v100zM417.5 156.5q19.5 14.5 19.5 39.5q0 22 -17.5 36.5t-59.5 26.5v-119q38 2 57.5 16.5z" />
    <glyph glyph-name="percent" unicode="%" horiz-adv-x="996" 
d="M637 722h109l-397 -748h-109zM365.5 374q-44.5 -50 -126.5 -50q-83 0 -127.5 50t-44.5 140q0 91 45 140.5t127 49.5q81 0 126 -49.5t45 -140.5q0 -90 -44.5 -140zM266 423.5q9 11.5 12 32t3 55.5t-2.5 56t-11.5 35.5t-28 14.5q-28 0 -35.5 -27.5t-7.5 -70.5t5 -66.5
t14 -32.5t24 -9q18 1 27 12.5zM886 41.5q-44 -49.5 -127 -49.5q-82 0 -127 50t-45 140q0 91 44.5 140.5t126.5 49.5t127 -49.5t45 -140.5t-44 -140.5zM783 87.5q9 8.5 13.5 31t4.5 63.5q0 42 -4.5 64t-14 30.5t-25.5 8.5q-19 0 -28 -16t-11 -37t-2 -50q0 -34 2.5 -55
t12 -34.5t28.5 -13.5q15 0 24 8.5z" />
    <glyph glyph-name="ampersand" unicode="&#x26;" horiz-adv-x="729" 
d="M534.5 431q-34.5 -46 -97.5 -77l58 -73q14 19 22 61h165q-13 -53 -35.5 -97.5t-50.5 -75.5l141 -169h-222l-39 51q-44 -36 -91 -51.5t-115 -15.5q-64 0 -117 28t-83.5 76.5t-30.5 106.5q0 51 18.5 88t53 65t88.5 52q-31 31 -46 63.5t-15 69.5q0 49 29 88.5t79.5 62
t112.5 22.5q64 0 111.5 -21t73 -61.5t25.5 -96.5q0 -50 -34.5 -96zM315 494q10 -16 33 -38q27 13 42.5 33.5t15.5 40.5q0 22 -14 36t-36 14q-21 0 -36 -14t-15 -37q0 -19 10 -35zM378 174l-85 106q-38 -19 -54 -39t-16 -47q0 -26 18 -43t44 -17q53 0 93 40z" />
    <glyph glyph-name="quotesingle" unicode="'" horiz-adv-x="295" 
d="M225 714v-379h-154v379h154z" />
    <glyph glyph-name="parenleft" unicode="(" horiz-adv-x="314" 
d="M252 509q-20 -108 -20 -231q0 -117 19.5 -221t64.5 -225h-171q-53 111 -77.5 219.5t-24.5 226.5q0 121 24.5 232t77.5 221h171q-44 -114 -64 -222z" />
    <glyph glyph-name="parenright" unicode=")" horiz-adv-x="314" 
d="M271 277q0 -122 -24 -225t-76 -220h-174q43 101 64 211t21 235q0 126 -19 225.5t-66 227.5h174q100 -212 100 -454z" />
    <glyph glyph-name="asterisk" unicode="*" horiz-adv-x="460" 
d="M286 691v-128l117 41l38 -103l-124 -40l77 -102l-89 -71l-76 111l-78 -111l-89 71l83 102l-125 40l36 103l121 -41v128h109z" />
    <glyph glyph-name="plus" unicode="+" horiz-adv-x="588" 
d="M371 505v-176h168v-153h-168v-176h-153v176h-168v153h168v176h153z" />
    <glyph glyph-name="comma" unicode="," horiz-adv-x="336" 
d="M283 161q0 -97 -31.5 -180.5t-91.5 -148.5h-144q35 58 56.5 144.5t21.5 175.5q0 20 -2 46h191v-37z" />
    <glyph glyph-name="hyphen" unicode="-" horiz-adv-x="401" 
d="M353 349v-164h-305v164h305z" />
    <glyph glyph-name="period" unicode="." horiz-adv-x="336" 
d="M224 201q25 -14 39 -39.5t14 -57.5t-14 -57t-39 -39t-56 -14t-56 14t-39 39t-14 57t14 57.5t39 39.5t56 14t56 -14z" />
    <glyph glyph-name="slash" unicode="/" horiz-adv-x="425" 
d="M426 731l-272 -748h-151l272 748h151z" />
    <glyph glyph-name="zero" unicode="0" horiz-adv-x="666" 
d="M585 155q-39 -82 -105 -124.5t-147 -42.5q-80 0 -146.5 42.5t-105.5 124t-39 193.5q0 109 39 189.5t105 123t146 42.5q82 0 148.5 -43t105 -123.5t38.5 -188.5q0 -111 -39 -193zM408 192q27 51 27 156q0 202 -102 202q-45 0 -67.5 -32t-28.5 -74.5t-6 -95.5
q0 -207 101 -207q49 0 76 51z" />
    <glyph glyph-name="one" unicode="1" horiz-adv-x="666" 
d="M485 0h-208v483q-35 -16 -76.5 -30.5t-80.5 -23.5v166q49 15 109 43t102 53h154v-691z" />
    <glyph glyph-name="two" unicode="2" horiz-adv-x="666" 
d="M573 338q-36 -56 -82.5 -89.5t-123.5 -76.5v-2h250v-170h-562v139q12 8 22.5 14.5t18.5 11.5q100 63 162 108t105.5 95t43.5 97q0 80 -73 80q-42 0 -66.5 -26t-24.5 -75v-2h-192v4q0 75 36.5 133.5t103.5 91t155 32.5q82 0 141.5 -28t90.5 -80t31 -123q0 -78 -36 -134z
" />
    <glyph glyph-name="three" unicode="3" horiz-adv-x="666" 
d="M487 681q56 -22 84 -62.5t28 -95.5q0 -46 -12.5 -76t-36 -48t-59.5 -31v-2q65 -14 100 -55t35 -105q0 -62 -32 -111.5t-97 -78t-161 -28.5q-143 0 -217 62t-74 175v14h189v-6q0 -26 11 -46.5t32 -32t49 -11.5q43 0 67.5 21.5t24.5 57.5q0 37 -21.5 57.5t-61.5 20.5h-49
v123h45q39 0 62 17.5t23 49.5q0 29 -21 46t-57 17q-41 0 -65.5 -19t-24.5 -51v-7h-188q1 72 37 123t101 77.5t151 26.5q82 0 138 -22z" />
    <glyph glyph-name="four" unicode="4" horiz-adv-x="666" 
d="M343 691h201v-383h91v-170h-91v-138h-209v138h-301v188zM171 308h164v190h-2z" />
    <glyph glyph-name="five" unicode="5" horiz-adv-x="666" 
d="M580 527h-323l-21 -109l2 -2q28 21 64.5 33t87.5 12q67 0 118.5 -26.5t80.5 -76.5t29 -120q0 -75 -36.5 -131.5t-105.5 -87.5t-165 -31q-94 0 -159.5 26.5t-99 75t-33.5 113.5h198q4 -27 30.5 -42t68.5 -15q48 0 75 24.5t27 67.5t-26.5 68t-71.5 25q-70 0 -96 -37h-186
l70 397h472v-164z" />
    <glyph glyph-name="six" unicode="6" horiz-adv-x="666" 
d="M430 521q-4 16 -23 27t-49 11q-60 0 -88.5 -41t-33.5 -118l2 -2q48 63 154 63q66 0 117.5 -27t81 -76t29.5 -113q0 -80 -34 -138t-97.5 -88.5t-150.5 -30.5q-91 0 -156.5 41t-100 116t-34.5 175q0 117 36.5 203t106.5 133t169 47q117 0 178.5 -48t74.5 -134h-182z
M260 191.5q12 -21.5 34 -33.5t49 -12t48.5 12.5t33.5 34.5t12 49q0 26 -11.5 47t-32.5 33t-49 12q-27 0 -49 -11.5t-34.5 -32.5t-12.5 -48q0 -29 12 -50.5z" />
    <glyph glyph-name="seven" unicode="7" horiz-adv-x="666" 
d="M595 529q-68 -130 -122 -264.5t-90 -264.5h-222q47 138 110 280.5t120 240.5h-323v170h527v-162z" />
    <glyph glyph-name="eight" unicode="8" horiz-adv-x="666" 
d="M576.5 417.5q-27.5 -39.5 -72.5 -50.5v-2q38 -5 67 -26t44.5 -53.5t15.5 -74.5q0 -69 -37.5 -118.5t-105 -75t-156.5 -25.5q-96 0 -163 25.5t-101.5 74.5t-34.5 119q0 62 34.5 102t95.5 52v2q-45 15 -72 52.5t-27 94.5q0 67 38.5 109.5t99.5 61.5t130 19q82 0 143.5 -24
t95 -67t33.5 -99q0 -57 -27.5 -96.5zM400.5 438.5q25.5 19.5 25.5 54.5q0 37 -25.5 58t-69.5 21q-42 0 -66 -21t-24 -58q0 -35 24 -54.5t66 -19.5q44 0 69.5 19.5zM406 155.5q27 20.5 27 57.5q0 43 -26.5 67t-73.5 24q-48 0 -75 -24t-27 -67q0 -37 27 -57.5t74 -20.5
t74 20.5z" />
    <glyph glyph-name="nine" unicode="9" horiz-adv-x="666" 
d="M584 168q-37 -86 -108 -133t-171 -47q-118 0 -179.5 48t-74.5 134h182q4 -16 23 -27t50 -11q62 0 91 40.5t34 118.5l-2 2q-44 -63 -161 -63q-65 0 -115.5 27t-79 76t-28.5 113q0 80 36.5 138t103.5 88.5t156 30.5t152 -41t95.5 -116t32.5 -175q0 -117 -37 -203z
M239.5 405q11.5 -21 33 -33t49.5 -12q27 0 49.5 11.5t35.5 32.5t13 48q0 29 -12 50.5t-33.5 33.5t-49.5 12q-27 0 -49 -12t-35 -34t-13 -50q0 -26 11.5 -47z" />
    <glyph glyph-name="colon" unicode=":" horiz-adv-x="336" 
d="M224 511q25 -14 39 -39.5t14 -57.5t-14 -57t-39 -39t-56 -14t-56 14t-39 39t-14 57t14 57.5t39 39.5t56 14t56 -14zM224 201q25 -14 39 -39.5t14 -57.5t-14 -57t-39 -39t-56 -14t-56 14t-39 39t-14 57t14 57.5t39 39.5t56 14t56 -14z" />
    <glyph glyph-name="semicolon" unicode=";" horiz-adv-x="336" 
d="M236 511q25 -14 39 -39.5t14 -57.5t-14 -57t-39 -39t-56 -14t-56 14t-39 39t-14 57t14 57.5t39 39.5t56 14t56 -14zM283 161q0 -97 -31.5 -180.5t-91.5 -148.5h-144q35 58 56.5 144.5t21.5 175.5q0 20 -2 46h191v-37z" />
    <glyph glyph-name="less" unicode="&#x3c;" horiz-adv-x="588" 
d="M539 352l-255 -99l255 -100v-161l-489 197v126l489 198v-161z" />
    <glyph glyph-name="equal" unicode="=" horiz-adv-x="588" 
d="M539 450v-153h-489v153h489zM539 209v-153h-489v153h489z" />
    <glyph glyph-name="greater" unicode="&#x3e;" horiz-adv-x="588" 
d="M50 513l489 -197v-126l-489 -198v161l254 99l-254 100v161z" />
    <glyph glyph-name="question" unicode="?" horiz-adv-x="564" 
d="M530 424q-17 -31 -40 -47.5t-59 -33.5q-15 -7 -29 -15t-22 -16q-10 -10 -14.5 -23.5t-4.5 -32.5v-5h-183l-1 21q0 42 7.5 71.5t27.5 49.5q13 13 27 20.5t37 18.5q21 9 32.5 16t19 17t7.5 26q0 24 -11.5 36t-36.5 12q-30 0 -46.5 -16t-17.5 -48h-206q6 71 39.5 123
t92.5 80.5t139 28.5q88 0 146 -31t85.5 -77.5t27.5 -93.5q0 -50 -17 -81zM325 182q25 -13 39 -36t14 -52t-14 -52t-39 -35.5t-56 -12.5t-56 12.5t-39 35.5t-14 52t14 52t39 36t56 13t56 -13z" />
    <glyph glyph-name="at" unicode="@" horiz-adv-x="826" 
d="M626.5 627.5q80.5 -38.5 126 -112t45.5 -174.5q0 -77 -32 -140.5t-86.5 -99.5t-118.5 -36q-40 0 -63.5 17.5t-28.5 42.5h-2q-47 -60 -129 -60q-40 0 -72 21t-51 62.5t-19 101.5q0 69 27.5 122t75 82t105.5 29q43 0 66 -16.5t34 -42.5l9 41h105l-46 -248q-1 -6 -1 -22
q0 -12 6 -18.5t17 -6.5q27 0 50.5 23.5t37 61t13.5 75.5q0 123 -70 182.5t-194 59.5q-86 0 -155 -38.5t-108.5 -109.5t-39.5 -166q0 -88 35.5 -152.5t101.5 -99t154 -34.5q73 0 124.5 13.5t84.5 43.5h123q-55 -77 -136.5 -114t-203.5 -37q-116 0 -203.5 46t-135 131.5
t-47.5 202.5q0 123 55 215.5t150 142.5t212 50q104 0 184.5 -38.5zM330.5 204q14.5 -23 43.5 -23q28 0 49.5 13.5t33 37.5t11.5 53q0 35 -16.5 58.5t-47.5 23.5q-28 0 -47.5 -14t-30 -38t-10.5 -53q0 -35 14.5 -58z" />
    <glyph glyph-name="A" unicode="A" horiz-adv-x="709" 
d="M462 691l250 -691h-226l-25 94h-220l-27 -94h-218l254 691h212zM355 479l-70 -234h136l-64 234h-2z" />
    <glyph glyph-name="B" unicode="B" horiz-adv-x="727" 
d="M561.5 670q48.5 -21 74 -60.5t25.5 -91.5q0 -47 -20.5 -79t-64.5 -56v-2q59 -20 89.5 -63t30.5 -107q0 -63 -32.5 -111t-87.5 -74t-120 -26h-398v691h388q67 0 115.5 -21zM439.5 430q15.5 13 15.5 45q0 30 -18 45t-49 15h-112v-118h112q36 0 51.5 13zM458.5 175.5
q19.5 19.5 19.5 55.5q0 33 -18.5 50t-50.5 17h-133v-142h124q39 0 58.5 19.5z" />
    <glyph glyph-name="C" unicode="C" horiz-adv-x="743" 
d="M487 456q-7 38 -35 57t-65 19q-63 0 -96.5 -48t-33.5 -138q0 -87 33 -137t95 -50q42 0 69.5 22t33.5 66h219q-4 -74 -46.5 -134t-113.5 -94.5t-158 -34.5q-106 0 -185.5 46t-122 128t-42.5 188q0 108 44.5 190t124.5 126.5t184 44.5q136 0 215 -63t95 -188h-215z" />
    <glyph glyph-name="D" unicode="D" horiz-adv-x="763" 
d="M580 649q69 -42 105.5 -120t36.5 -183q0 -114 -41.5 -191t-119.5 -116t-189 -39h-314v691h357q96 0 165 -42zM466 225.5q38 44.5 38 124.5q0 48 -19 84.5t-55.5 56t-85.5 19.5h-68v-329h82q70 0 108 44.5z" />
    <glyph glyph-name="E" unicode="E" horiz-adv-x="693" 
d="M634 691v-181h-358v-81h325v-168h-325v-80h369v-181h-587v691h576z" />
    <glyph glyph-name="F" unicode="F" horiz-adv-x="620" 
d="M596 691v-181h-320v-80h274v-168h-274v-262h-218v691h538z" />
    <glyph glyph-name="G" unicode="G" horiz-adv-x="749" 
d="M597 644q81 -63 103 -185h-209q-8 35 -33 54t-66 19q-75 0 -105 -49t-30 -133q0 -55 15 -98t45.5 -68t75.5 -25q46 0 76.5 19.5t34.5 55.5h-86v145h289v-64q0 -154 -79 -242.5t-246 -88.5q-109 0 -186 44.5t-117 125t-40 185.5q0 112 46 195.5t125 128t173 44.5
q133 0 214 -63z" />
    <glyph glyph-name="H" unicode="H" horiz-adv-x="743" 
d="M276 691v-238h192v238h218v-691h-218v272h-192v-272h-218v691h218z" />
    <glyph glyph-name="I" unicode="I" horiz-adv-x="333" 
d="M276 691v-691h-218v691h218z" />
    <glyph glyph-name="J" unicode="J" horiz-adv-x="603" 
d="M546 245q0 -131 -64 -196t-204 -65q-126 0 -188.5 64.5t-62.5 182.5v6h196q0 -47 12.5 -66.5t41.5 -19.5q26 0 38.5 20t12.5 66v454h218v-446z" />
    <glyph glyph-name="K" unicode="K" horiz-adv-x="734" 
d="M282 477h2l156 214h269l-267 -300q49 -8 84.5 -38t82 -108.5t128.5 -244.5h-270q-44 104 -71.5 156t-48.5 71.5t-48 22.5l-17 2v-252h-218v691h218v-214z" />
    <glyph glyph-name="L" unicode="L" horiz-adv-x="620" 
d="M276 691v-510h302v-181h-520v691h218z" />
    <glyph glyph-name="M" unicode="M" horiz-adv-x="923" 
d="M354 691l106 -401h2l107 401h297v-691h-201v456h-7l-115 -456h-163l-115 456h-7v-456h-201v691h297z" />
    <glyph glyph-name="N" unicode="N" horiz-adv-x="743" 
d="M282 691l193 -361h2v361h207v-691h-212l-205 371h-2v-371h-206v691h223z" />
    <glyph glyph-name="O" unicode="O" horiz-adv-x="778" 
d="M695.5 158.5q-44.5 -82.5 -124.5 -128.5t-182 -46q-103 0 -182.5 46t-123.5 128.5t-44 187.5t44 187t123.5 128t182.5 46q104 0 184 -46t123.5 -128.5t43.5 -186.5q0 -105 -44.5 -187.5zM458 180q30 21 47 63.5t17 102.5q0 61 -17.5 103t-48 62.5t-68.5 20.5
q-37 0 -66.5 -20.5t-47 -62.5t-17.5 -103q0 -60 17 -102.5t46.5 -63.5t68.5 -21t69 21z" />
    <glyph glyph-name="P" unicode="P" horiz-adv-x="691" 
d="M550.5 661q56.5 -30 89 -84t32.5 -123q0 -80 -33 -135.5t-95.5 -84t-151.5 -28.5h-116v-206h-218v691h367q69 0 125.5 -30zM444 380.5q22 21.5 22 59.5q0 36 -20 55.5t-71 19.5h-99v-156h86q60 0 82 21.5z" />
    <glyph glyph-name="Q" unicode="Q" horiz-adv-x="796" 
d="M697 166q18 -26 47 -48t62 -36l-112 -130q-32 13 -63.5 37t-51.5 49q-36 -27 -85.5 -40.5t-104.5 -13.5q-103 0 -182.5 46t-123.5 128.5t-44 187.5t44 187t123.5 128t182.5 46q104 0 184 -46t123.5 -128.5t43.5 -186.5q0 -107 -43 -180zM274 243.5q17 -42.5 46.5 -63.5
t68.5 -21t69 21t47 63.5t17 102.5q0 61 -17.5 103t-48 62.5t-68.5 20.5q-37 0 -66.5 -20.5t-47 -62.5t-17.5 -103q0 -60 17 -102.5z" />
    <glyph glyph-name="R" unicode="R" horiz-adv-x="725" 
d="M581.5 668q51.5 -23 81.5 -68t30 -107q0 -46 -15.5 -84t-41.5 -62.5t-55 -32.5v-2q41 -12 61.5 -37.5t34 -83t33.5 -191.5h-210q-11 82 -20 126t-16.5 62t-17.5 28q-23 23 -70 23h-100v-239h-218v691h409q63 0 114.5 -23zM452.5 397q22.5 22 22.5 59t-26.5 56.5
t-74.5 19.5h-98v-157h110q44 0 66.5 22z" />
    <glyph glyph-name="S" unicode="S" horiz-adv-x="654" 
d="M407 500q-1 24 -24.5 38t-58.5 14t-55.5 -11.5t-20.5 -32.5q0 -18 21.5 -34t75.5 -29l53 -13q92 -23 144.5 -52t75 -67.5t22.5 -90.5q0 -77 -40 -130.5t-112.5 -80.5t-167.5 -27q-83 0 -153 28t-111 78t-41 115v4h219v-2q0 -18 11 -33.5t33.5 -25t53.5 -9.5q42 0 66 14
t24 40q0 17 -10.5 28.5t-32 21t-60.5 20.5l-93 27q-93 27 -138.5 75t-45.5 121q0 71 37 121t102 75t148 25q135 0 206.5 -54t76.5 -153h-205z" />
    <glyph glyph-name="T" unicode="T" horiz-adv-x="658" 
d="M630 691v-181h-192v-510h-218v510h-192v181h602z" />
    <glyph glyph-name="U" unicode="U" horiz-adv-x="743" 
d="M273 310q0 -48 6.5 -79.5t28 -51.5t65.5 -20q51 0 74 33t23 100v399h218v-428q0 -140 -77.5 -209.5t-238.5 -69.5q-163 0 -240 70.5t-77 209.5v427h218v-381z" />
    <glyph glyph-name="V" unicode="V" horiz-adv-x="635" 
d="M206 691l110 -414h2l107 414h224l-215 -691h-243l-204 691h219z" />
    <glyph glyph-name="W" unicode="W" horiz-adv-x="940" 
d="M210 691l82 -423h2l80 423h191l78 -429h2l83 429h215l-193 -691h-212l-71 417h-2l-68 -417h-213l-188 691h214z" />
    <glyph glyph-name="X" unicode="X" horiz-adv-x="730" 
d="M270 691l102 -185l99 185h242l-222 -325l247 -366h-262l-115 204l-119 -204h-250l250 368l-228 323h256z" />
    <glyph glyph-name="Y" unicode="Y" horiz-adv-x="652" 
d="M214 691l110 -253l116 253h239l-246 -437v-254h-218v253l-242 438h241z" />
    <glyph glyph-name="Z" unicode="Z" horiz-adv-x="673" 
d="M631 533q-75 -74 -173.5 -182t-146.5 -170h336v-181h-620v170q55 68 151.5 171.5t164.5 168.5h-298v181h586v-158z" />
    <glyph glyph-name="bracketleft" unicode="[" horiz-adv-x="409" 
d="M366 731v-153h-153v-593h153v-153h-329v899h329z" />
    <glyph glyph-name="backslash" unicode="\" horiz-adv-x="425" 
d="M150 731l272 -748h-152l-271 748h151z" />
    <glyph glyph-name="bracketright" unicode="]" horiz-adv-x="409" 
d="M373 731v-899h-329v153h152v593h-152v153h329z" />
    <glyph glyph-name="asciicircum" unicode="^" horiz-adv-x="588" 
d="M235 696h118l169 -365h-153l-75 189l-75 -189h-153z" />
    <glyph glyph-name="underscore" unicode="_" horiz-adv-x="491" 
d="M488 -75v-50h-485v50h485z" />
    <glyph glyph-name="grave" unicode="`" horiz-adv-x="278" 
d="M144 721l98 -149h-138l-167 149h207z" />
    <glyph glyph-name="a" unicode="a" horiz-adv-x="602" 
d="M361 337q0 31 -7 48t-21 23.5t-38 6.5q-32 0 -47.5 -13t-16.5 -31h-183q10 80 71.5 120.5t190.5 40.5q87 0 139.5 -22.5t77 -69.5t24.5 -123v-317h-176l-9 55h-2q-25 -32 -63 -50t-98 -18q-54 0 -94.5 19.5t-62.5 56.5t-22 88q0 83 67.5 125t193.5 42h76v19zM309 229
q-36 0 -59 -16t-23 -45q0 -30 17 -45.5t43 -15.5q35 0 54.5 22t19.5 62v38h-52z" />
    <glyph glyph-name="b" unicode="b" horiz-adv-x="638" 
d="M253 462h2q24 34 59.5 52t76.5 18q107 0 161 -72t54 -197q0 -70 -23 -133t-71 -103t-119 -40q-48 0 -82.5 16t-62.5 54h-1v-57h-192v714h198v-252zM267 163.5q21 -32.5 60 -32.5t60 32.5t21 96.5t-21 96t-60 32q-38 0 -59.5 -31t-21.5 -97q0 -64 21 -96.5z" />
    <glyph glyph-name="c" unicode="c" horiz-adv-x="596" 
d="M379 339q-4 24 -21 36.5t-43 12.5q-39 0 -61.5 -28.5t-22.5 -94.5q0 -70 21.5 -102t61.5 -32q25 0 44 15t24 41h190q-10 -63 -46 -108t-93 -68.5t-128 -23.5q-78 0 -140 34.5t-97 96.5t-35 141q0 77 35.5 139.5t99 98t143.5 35.5q71 0 126.5 -22t89.5 -65.5t40 -105.5
h-188z" />
    <glyph glyph-name="d" unicode="d" horiz-adv-x="638" 
d="M583 0h-191v57h-2q-26 -38 -61 -54t-85 -16q-67 0 -114.5 39t-72 102.5t-24.5 134.5q0 82 24.5 142.5t72 93.5t115.5 33q43 0 78.5 -18t59.5 -52h2v252h198v-714zM371 163.5q21 32.5 21 96.5t-21 96t-61 32q-37 0 -58 -32t-21 -96t20.5 -96.5t59.5 -32.5t60 32.5z" />
    <glyph glyph-name="e" unicode="e" horiz-adv-x="623" 
d="M592 215h-369q2 -49 27.5 -75t69.5 -26q30 0 51.5 9t29.5 28h180q-23 -78 -93.5 -121t-177.5 -43q-80 0 -142.5 31.5t-98 92.5t-35.5 147q0 75 34.5 137.5t97.5 99.5t145 37q140 0 210.5 -78t70.5 -237v-2zM393.5 362.5q-10.5 19.5 -30 31t-45.5 11.5q-40 0 -64.5 -22
t-30.5 -65h180q1 25 -9.5 44.5z" />
    <glyph glyph-name="f" unicode="f" horiz-adv-x="389" 
d="M88 397h-79v122h79v9q0 60 30 103t84 66t123 23q38 0 65 -8v-132q-7 3 -17.5 5t-23.5 2q-68 0 -68 -65v-3h99v-122h-94v-397h-198v397z" />
    <glyph glyph-name="g" unicode="g" horiz-adv-x="619" 
d="M373 456v63h199v-477q0 -223 -274 -223q-121 0 -183 41.5t-72 122.5h196q8 -47 63 -47q36 0 53.5 19t17.5 67v81h-2q-15 -33 -50.5 -52.5t-88.5 -19.5q-64 0 -111 31t-72.5 88t-25.5 134q0 72 28 128.5t78.5 88t114.5 31.5q45 0 79 -21t48 -55h2zM242 189.5
q21 -31.5 62 -31.5q39 0 57 30.5t18 90.5q0 54 -21.5 81.5t-58.5 27.5t-57.5 -28.5t-20.5 -80.5q0 -58 21 -89.5z" />
    <glyph glyph-name="h" unicode="h" horiz-adv-x="640" 
d="M253 463h2q28 35 66.5 52t91.5 17q49 0 88.5 -22t61.5 -61t22 -89v-360h-198v287q0 45 -16.5 66t-49.5 21q-34 0 -51 -21t-17 -66v-287h-198v714h198v-251z" />
    <glyph glyph-name="i" unicode="i" horiz-adv-x="318" 
d="M250.5 631.5q-13.5 -21.5 -37.5 -34t-54 -12.5t-54 12.5t-37.5 34t-13.5 48.5t13.5 48.5t37.5 34t54 12.5t54 -12.5t37.5 -34t13.5 -48.5t-13.5 -48.5zM258 519v-519h-198v519h198z" />
    <glyph glyph-name="j" unicode="j" horiz-adv-x="315" 
d="M248.5 631.5q-13.5 -21.5 -37.5 -34t-54 -12.5t-54 12.5t-37.5 34t-13.5 48.5t13.5 48.5t37.5 34t54 12.5t54 -12.5t37.5 -34t13.5 -48.5t-13.5 -48.5zM256 39q0 -116 -73 -167.5t-210 -51.5v161q41 0 63 17.5t22 62.5v458h198v-480z" />
    <glyph glyph-name="k" unicode="k" horiz-adv-x="614" 
d="M256 370h2l133 149h223l-217 -220q27 -6 53 -31.5t65.5 -87t104.5 -180.5h-232q-36 79 -52.5 111.5t-30.5 47.5t-34 18l-15 2v-179h-198v714h198v-344z" />
    <glyph glyph-name="l" unicode="l" horiz-adv-x="318" 
d="M258 714v-714h-198v714h198z" />
    <glyph glyph-name="m" unicode="m" horiz-adv-x="949" 
d="M625 513.5q42 18.5 98 18.5q51 0 90 -21.5t60 -61t21 -92.5v-357h-198v294q1 42 -14 61t-46 19q-30 0 -46.5 -19.5t-16.5 -60.5v-294h-197v294q0 41 -15 60.5t-45 19.5q-63 0 -63 -80v-294h-198v519h191v-69h2q27 42 67.5 62t98.5 20q41 0 79.5 -22t55.5 -59
q34 44 76 62.5z" />
    <glyph glyph-name="n" unicode="n" horiz-adv-x="640" 
d="M585 0h-198v287q0 45 -16.5 66t-49.5 21q-34 0 -51 -21t-17 -66v-287h-198v519h192v-66h1q28 40 68.5 59.5t96.5 19.5q49 0 88.5 -22t61.5 -61t22 -89v-360z" />
    <glyph glyph-name="o" unicode="o" horiz-adv-x="619" 
d="M553 117.5q-33 -61.5 -95 -96t-148 -34.5t-148.5 34.5t-95.5 96t-33 142.5t33 142.5t95.5 95.5t148.5 34t148 -34.5t95 -96t33 -141.5q0 -81 -33 -142.5zM368.5 162q19.5 31 19.5 98t-20 97.5t-59 30.5q-38 0 -58 -30t-20 -98q0 -66 20 -97.5t59 -31.5t58.5 31z" />
    <glyph glyph-name="p" unicode="p" horiz-adv-x="638" 
d="M581 114.5q-24 -60.5 -71.5 -94t-117.5 -33.5q-42 0 -77.5 18t-59.5 52h-2v-225h-198v687h192v-57h1q26 37 61 53.5t86 16.5q67 0 114.5 -39.5t71.5 -103t24 -132.5q0 -82 -24 -142.5zM267 163q21 -32 60 -32q38 0 59 32.5t21 95.5t-21 96t-59 33q-39 0 -60 -32t-21 -97
q0 -64 21 -96z" />
    <glyph glyph-name="q" unicode="q" horiz-adv-x="638" 
d="M392 462v57h191v-687h-198v225h-2q-24 -34 -59 -52t-78 -18q-105 0 -159 72t-54 198q0 67 23 130t71 104t117 41q50 0 85.5 -16.5t60.5 -53.5h2zM371 163q21 32 21 96q0 68 -20.5 98.5t-61.5 30.5q-38 0 -58.5 -32.5t-20.5 -96.5t21 -96t60 -32q38 0 59 32z" />
    <glyph glyph-name="r" unicode="r" horiz-adv-x="442" 
d="M446 354q-10 4 -21 6t-29 2q-74 0 -108.5 -38.5t-34.5 -116.5v-207h-198v519h190v-83h2q19 49 58.5 72.5t90.5 23.5q31 0 50 -7v-171z" />
    <glyph glyph-name="s" unicode="s" horiz-adv-x="567" 
d="M345 377q-1 20 -19 32.5t-43 12.5q-55 0 -55 -38q0 -14 9.5 -24t27.5 -14l87 -17q98 -19 142.5 -57t44.5 -103q0 -90 -67 -136t-188 -46q-72 0 -129.5 19t-91.5 57.5t-35 94.5h189q5 -49 69 -49q63 0 63 38q0 21 -19 31.5t-63 19.5l-69 14q-82 16 -121 54.5t-39 99.5
q0 59 35.5 96t90 53.5t114.5 16.5q115 0 179.5 -39t66.5 -116h-179z" />
    <glyph glyph-name="t" unicode="t" horiz-adv-x="407" 
d="M292 519h103v-122h-103v-172q0 -39 14.5 -58.5t49.5 -19.5q21 0 39 4v-148q-36 -12 -92 -12q-96 0 -152.5 49.5t-56.5 155.5v201h-85v122h85v158h198v-158z" />
    <glyph glyph-name="u" unicode="u" horiz-adv-x="640" 
d="M253 232q0 -45 16.5 -66t49.5 -21q34 0 51 21t17 66v287h198v-519h-191v66h-2q-28 -40 -68 -59.5t-97 -19.5q-48 0 -87.5 21.5t-62 61t-22.5 90.5v359h198v-287z" />
    <glyph glyph-name="v" unicode="v" horiz-adv-x="549" 
d="M201 519l75 -316h2l77 316h202l-166 -519h-235l-164 519h209z" />
    <glyph glyph-name="w" unicode="w" horiz-adv-x="856" 
d="M198 519l73 -321h2l62 321h184l65 -321h4l68 321h206l-160 -519h-203l-71 319h-2l-74 -319h-202l-157 519h205z" />
    <glyph glyph-name="x" unicode="x" horiz-adv-x="547" 
d="M223 519l52 -103l53 103h211l-157 -246l177 -273h-217l-70 127l-67 -127h-217l175 273l-157 246h217z" />
    <glyph glyph-name="y" unicode="y" horiz-adv-x="549" 
d="M276 221h2l79 298h205l-155 -454q-37 -108 -89 -161t-117.5 -68.5t-168.5 -15.5v170q46 0 72 4t39 13t19 25l-174 487h211z" />
    <glyph glyph-name="z" unicode="z" horiz-adv-x="549" 
d="M505 367q-54 -48 -120.5 -113.5t-105.5 -109.5h247v-144h-507v153q46 49 113.5 113.5t119.5 108.5h-211v144h464v-152z" />
    <glyph glyph-name="braceleft" unicode="{" horiz-adv-x="409" 
d="M341 578q-30 0 -43.5 -12.5t-13.5 -45.5v-149q0 -39 -30 -62t-88 -27v-2q64 -2 91 -27t27 -68v-141q0 -26 11 -42.5t48 -16.5h22v-153h-113q-34 0 -65.5 16t-51 44.5t-19.5 64.5v185q0 28 -20.5 45t-60.5 18v153q37 0 59 14.5t22 40.5v193q0 37 20 65.5t51.5 44
t65.5 15.5h112v-153h-24z" />
    <glyph glyph-name="bar" unicode="|" horiz-adv-x="221" 
d="M188 -214h-153v1000h153v-1000z" />
    <glyph glyph-name="braceright" unicode="}" horiz-adv-x="409" 
d="M313.5 190q-20.5 -15 -20.5 -40v-193q0 -37 -19.5 -65.5t-51.5 -44t-67 -15.5h-111v153h26q26 0 40.5 14.5t14.5 43.5v148q0 81 117 90v2q-62 2 -89.5 26t-27.5 69v140q0 60 -55 60h-26v153h111q35 0 67 -15.5t51.5 -44t19.5 -65.5v-185q0 -28 19 -45t61 -18v-153
q-39 0 -59.5 -15z" />
    <glyph glyph-name="asciitilde" unicode="~" horiz-adv-x="588" 
d="M460 163q-28 -20 -63 -20q-23 0 -48.5 8.5t-49.5 24.5q-53 34 -113 34q-27 0 -46.5 -18t-34.5 -53l-35 138q20 42 50.5 64t70.5 22q27 0 57.5 -11t85.5 -36q43 -20 64 -20t40 15t45 56l35 -138q-30 -46 -58 -66z" />
    <glyph glyph-name="uni00A0" unicode="&#xa0;" horiz-adv-x="336" 
 />
    <glyph glyph-name="exclamdown" unicode="&#xa1;" horiz-adv-x="315" 
d="M101 350q-25 13 -39 36t-14 52t14 52t39 35.5t56 12.5t56 -12.5t39 -35.5t14 -52t-14 -52t-39 -36t-56 -13t-56 13zM48 -159l31 439h154l33 -439h-218z" />
    <glyph glyph-name="cent" unicode="&#xa2;" horiz-adv-x="666" 
d="M366 612v-81q63 -4 112.5 -27.5t79.5 -65.5t36 -99h-180q-4 18 -16.5 30t-31.5 16v-251q19 6 33 19.5t18 33.5h182q-9 -58 -40.5 -100.5t-81 -67.5t-111.5 -31v-97h-50v96q-74 4 -132 39.5t-91 96t-33 136.5q0 73 32.5 133.5t91 97t132.5 41.5v81h50zM316 385
q-32 -7 -49.5 -35.5t-17.5 -84.5q0 -115 67 -131v251z" />
    <glyph glyph-name="sterling" unicode="&#xa3;" horiz-adv-x="663" 
d="M418 493q-1 27 -18 42.5t-43 15.5q-29 0 -45 -13.5t-16 -40.5q0 -17 6 -33t17 -36q10 -20 13 -28h103v-126h-70q3 -12 3 -19q0 -27 -14.5 -53.5t-38.5 -43.5l2 -2q15 9 37 9q24 0 73 -13q21 -6 38 -9.5t28 -3.5q47 0 75 49l69 -125q-35 -39 -78.5 -59t-91.5 -20
q-47 0 -96 16q-27 8 -64 14.5t-65 6.5q-25 0 -49.5 -9t-51.5 -28l-78 109q42 29 65 51.5t32 44.5t9 51q0 19 -5 34h-114v126h75q-14 16 -24 42t-10 50q0 65 33.5 113.5t92 75t132.5 26.5q119 0 186.5 -55t74.5 -159h-192z" />
    <glyph glyph-name="currency" unicode="&#xa4;" horiz-adv-x="666" 
d="M204 560q20 17 57.5 28t72.5 11q36 0 71.5 -10.5t57.5 -28.5l56 56l76 -75l-58 -58q19 -22 30 -60t11 -75q0 -40 -11.5 -77t-29.5 -59l58 -58l-75 -75l-57 60q-21 -20 -53.5 -31t-75.5 -11t-77 10.5t-53 29.5l-58 -58l-76 75l59 58q-17 28 -28 66t-11 70q0 36 11.5 73.5
t27.5 61.5l-59 57l79 76zM385.5 254q23.5 13 37 37.5t13.5 56.5t-14 56.5t-37.5 37.5t-50.5 13t-50 -13.5t-37 -38t-14 -55.5t14 -55.5t37 -38t50 -13.5q28 0 51.5 13z" />
    <glyph glyph-name="yen" unicode="&#xa5;" horiz-adv-x="663" 
d="M224 691l107 -266l106 266h223l-144 -266h68v-120h-135l-20 -42v-42h155v-120h-155v-101h-196v101h-155v120h155v42l-20 42h-135v120h68l-144 266h222z" />
    <glyph glyph-name="brokenbar" unicode="&#xa6;" horiz-adv-x="221" 
d="M35 661h153v-250h-153v250zM35 161h153v-250h-153v250z" />
    <glyph glyph-name="section" unicode="&#xa7;" horiz-adv-x="662" 
d="M404 518q-4 24 -19.5 35.5t-41.5 11.5q-23 0 -36 -10t-13 -27t17.5 -30.5t44 -24t79.5 -27.5l30 -10q161 -52 161 -172q0 -102 -102 -139q23 -19 36.5 -45.5t13.5 -57.5q0 -61 -31 -105t-86.5 -67.5t-126.5 -23.5q-115 0 -178.5 50t-63.5 147h169q5 -29 22 -42t47 -13
q24 0 42 12t18 29q0 20 -10 32t-30 21t-65 26l-73 29q-66 27 -103.5 53.5t-53 55.5t-15.5 66q0 51 27 86.5t81 59.5q-19 18 -28.5 41.5t-9.5 50.5q0 58 32.5 98t85 59.5t110.5 19.5q69 0 123 -22t84.5 -64.5t32.5 -102.5h-170zM230 352q-12 -7 -19 -14.5t-7 -19.5
q0 -19 11 -30.5t32 -19.5l185 -68q11 5 18.5 13.5t7.5 20.5q0 19 -11 30.5t-32 18.5z" />
    <glyph glyph-name="dieresis" unicode="&#xa8;" horiz-adv-x="278" 
d="M89.5 594q-22.5 -20 -62.5 -20t-62.5 20t-22.5 57q0 36 23 56.5t62 20.5q40 0 62.5 -20t22.5 -57t-22.5 -57zM313.5 594q-22.5 -20 -62.5 -20t-62.5 20t-22.5 57q0 36 23 56.5t62 20.5q40 0 62.5 -20t22.5 -57t-22.5 -57z" />
    <glyph glyph-name="copyright" unicode="&#xa9;" horiz-adv-x="781" 
d="M703.5 164.5q-48.5 -82.5 -131.5 -131.5t-182 -49q-98 0 -180.5 48t-131.5 131t-49 182q0 97 48 180t131 132.5t182 49.5q97 0 180 -47.5t132.5 -130.5t49.5 -184q0 -98 -48.5 -180.5zM510.5 130q55.5 33 88.5 89.5t33 125.5q0 66 -31.5 123.5t-87 91.5t-124.5 34
q-65 0 -120.5 -34t-87.5 -91t-32 -124q0 -66 31.5 -123t87 -91t122.5 -34q65 0 120.5 33zM474 397q-12 50 -75 50q-42 0 -65.5 -27t-23.5 -74q0 -30 11.5 -53.5t31.5 -36.5t45 -13q70 0 76 56h96q-7 -47 -31 -81t-60 -51.5t-81 -17.5q-55 0 -99.5 25t-69.5 69.5t-25 100.5
q0 57 24 101.5t67.5 69.5t100.5 25q70 0 114 -37t56 -106h-92z" />
    <glyph glyph-name="ordfeminine" unicode="&#xaa;" horiz-adv-x="364" 
d="M222 589q0 27 -8 36t-26 9q-32 0 -34 -29h-124q6 50 44.5 74.5t121.5 24.5q56 0 90 -14t49.5 -42.5t15.5 -75.5v-189h-120l-5 32h-2q-15 -19 -37.5 -29.5t-58.5 -10.5q-51 0 -82 27t-31 73q0 50 42 75.5t120 25.5h45v13zM196 519q-22 0 -34 -8.5t-12 -23.5
q0 -16 9.5 -24.5t24.5 -8.5q18 0 28 11t10 32v22h-26z" />
    <glyph glyph-name="guillemotleft" unicode="&#xab;" horiz-adv-x="437" 
d="M202 483v-154l-74 -64l74 -60v-157l-158 129v177zM393 483v-154l-74 -64l74 -60v-157l-159 129v177z" />
    <glyph glyph-name="logicalnot" unicode="&#xac;" horiz-adv-x="588" 
d="M540 450v-342h-153v189h-337v153h490z" />
    <glyph glyph-name="uni00AD" unicode="&#xad;" horiz-adv-x="401" 
d="M353 349v-164h-305v164h305z" />
    <glyph glyph-name="registered" unicode="&#xae;" horiz-adv-x="781" 
d="M703.5 164q-48.5 -83 -131.5 -131.5t-182 -48.5q-96 0 -179 47.5t-132.5 130.5t-49.5 183q0 96 47.5 179.5t130 133t183.5 49.5q97 0 180 -48t132.5 -131t49.5 -183q0 -98 -48.5 -181zM511.5 130q55.5 33 88 90t32.5 125q0 66 -31 123t-86.5 91.5t-124.5 34.5
q-66 0 -121 -33.5t-87.5 -91t-32.5 -124.5q0 -66 31.5 -123t86.5 -91t123 -34q66 0 121.5 33zM514 501q37 -27 37 -88q0 -47 -25 -72t-72 -27l82 -152h-93l-74 146h-35v-146h-87v366h147q83 0 120 -27zM447 386.5q11 11.5 11 36.5q0 19 -16 28t-53 9h-55v-85h76
q26 0 37 11.5z" />
    <glyph glyph-name="macron" unicode="&#xaf;" horiz-adv-x="278" 
d="M303 692v-91h-327v91h327z" />
    <glyph glyph-name="degree" unicode="&#xb0;" horiz-adv-x="402" 
d="M330.5 478q-19.5 -34 -53.5 -53t-76 -19q-43 0 -77 19.5t-53 53.5t-19 76q0 43 19.5 77t53 53t76.5 19t77 -19t53 -53t19 -77t-19.5 -77zM236.5 493q16.5 9 26 25.5t9.5 36.5t-9.5 36t-26 25.5t-35.5 9.5t-35.5 -9.5t-26 -26t-9.5 -35.5t9.5 -35.5t25.5 -26t36 -9.5
q19 0 35.5 9z" />
    <glyph glyph-name="plusminus" unicode="&#xb1;" horiz-adv-x="588" 
d="M371 505v-81h168v-153h-168v-81h-153v81h-168v153h168v81h153zM539 153v-153h-489v153h489z" />
    <glyph glyph-name="twosuperior" unicode="&#xb2;" 
d="M360 599.5q-22 -34.5 -51.5 -54t-75.5 -43.5v-2h146v-103h-353v84l21 13q60 38 99 65t66.5 58.5t27.5 60.5q0 47 -41 47q-22 0 -34.5 -13t-12.5 -39v-1h-127v2q0 45 23 79.5t65.5 54t98.5 19.5q53 0 91.5 -17.5t58.5 -49.5t20 -76q0 -50 -22 -84.5z" />
    <glyph glyph-name="threesuperior" unicode="&#xb3;" 
d="M332 796q39 -31 39 -84q0 -39 -18.5 -59t-53.5 -29v-1q38 -6 61.5 -32t23.5 -74q0 -33 -19 -62t-58 -47t-98 -18q-94 0 -141.5 36t-47.5 100v6h125v-2q0 -16 14 -28t37 -12q25 0 38.5 11.5t13.5 30.5t-12.5 30.5t-38.5 11.5h-38v80h43q19 0 29.5 11t10.5 30
q0 16 -10 26.5t-29 10.5q-25 0 -37 -11.5t-12 -28.5v-5h-125q1 68 51.5 104t135.5 36q77 0 116 -31z" />
    <glyph glyph-name="acute" unicode="&#xb4;" horiz-adv-x="278" 
d="M341 721l-169 -149h-136l96 149h209z" />
    <glyph glyph-name="mu" unicode="&#xb5;" horiz-adv-x="640" 
d="M585 519v-519h-191v66h-2q-25 -35 -59 -54.5t-80 -23.5v-156h-198v687h198v-287q0 -45 16.5 -66t49.5 -21q34 0 51 21t17 66v287h198z" />
    <glyph glyph-name="paragraph" unicode="&#xb6;" horiz-adv-x="607" 
d="M432 -169v759h-59v-759h-134v523q-104 0 -160 42.5t-56 123.5q0 88 56.5 129.5t175.5 41.5h311v-860h-134z" />
    <glyph glyph-name="periodcentered" unicode="&#xb7;" horiz-adv-x="336" 
d="M224 334q25 -14 39 -39.5t14 -57.5t-14 -57t-39 -39t-56 -14t-56 14t-39 39t-14 57t14 57.5t39 39.5t56 14t56 -14z" />
    <glyph glyph-name="cedilla" unicode="&#xb8;" horiz-adv-x="278" 
d="M64.5 -226q-29.5 7 -61.5 22l20 46q44 -20 83 -20q24 0 38.5 9.5t14.5 29.5q0 33 -45 33q-22 0 -42 -10l-30 24l56 92h93l-36 -60l1 -1q8 2 20 2q42 0 66.5 -21.5t24.5 -59.5q0 -44 -36.5 -68.5t-102.5 -24.5q-34 0 -63.5 7z" />
    <glyph glyph-name="onesuperior" unicode="&#xb9;" 
d="M294 397h-144v286q-44 -20 -96 -32v110q31 9 68.5 26t63.5 33h108v-423z" />
    <glyph glyph-name="ordmasculine" unicode="&#xba;" horiz-adv-x="374" 
d="M353 455q-21 -38 -62 -59t-98 -21t-98 21.5t-62 59t-21 85.5q0 47 21.5 84t62 58t97.5 21q56 0 97 -20.5t62.5 -57.5t21.5 -85t-21 -86zM226.5 480q12.5 18 12.5 62q0 41 -12.5 58t-34.5 17q-21 0 -33 -17t-12 -58q0 -44 12.5 -62t33.5 -18t33.5 18z" />
    <glyph glyph-name="guillemotright" unicode="&#xbb;" horiz-adv-x="437" 
d="M202 354v-177l-158 -129v157l74 60l-74 61v157zM393 354v-177l-159 -129v157l75 60l-75 61v157z" />
    <glyph glyph-name="onequarter" unicode="&#xbc;" horiz-adv-x="993" 
d="M298 269h-144v286q-44 -20 -96 -32v110q31 9 68.5 26t63.5 33h108v-423zM342 -26h-109l374 748h109zM912 74h-56v-74h-131v74h-191v96l200 253h122v-252h56v-97zM725 288h-2l-88 -117h90v117z" />
    <glyph glyph-name="onehalf" unicode="&#xbd;" horiz-adv-x="993" 
d="M298 269h-144v286q-44 -20 -96 -32v110q31 9 68.5 26t63.5 33h108v-423zM311 -26h-109l374 748h109zM881 202.5q-22 -34.5 -51.5 -54t-75.5 -43.5v-2h146v-103h-353v84l21 13q60 38 99 65t66.5 58.5t27.5 60.5q0 47 -41 47q-22 0 -34.5 -13t-12.5 -39v-1h-127v2
q0 45 23 79.5t65.5 54t98.5 19.5q53 0 91.5 -17.5t58.5 -49.5t20 -76q0 -50 -22 -84.5z" />
    <glyph glyph-name="threequarters" unicode="&#xbe;" horiz-adv-x="993" 
d="M362 668q39 -31 39 -84q0 -39 -18.5 -59t-53.5 -29v-1q38 -6 61.5 -32t23.5 -74q0 -33 -19 -62t-58 -47t-98 -18q-94 0 -141.5 36t-47.5 100v6h125v-2q0 -16 14 -28t37 -12q25 0 38.5 11.5t13.5 30.5t-12.5 30.5t-38.5 11.5h-38v80h43q19 0 29.5 11t10.5 30
q0 16 -10 26.5t-29 10.5q-25 0 -37 -11.5t-12 -28.5v-5h-125q1 68 51.5 104t135.5 36q77 0 116 -31zM385 -26h-109l374 748h109zM916 74h-56v-74h-131v74h-191v96l200 253h122v-252h56v-97zM729 288h-2l-88 -117h90v117z" />
    <glyph glyph-name="questiondown" unicode="&#xbf;" horiz-adv-x="564" 
d="M239 350q-25 13 -39 36t-14 52t14 52t39 35.5t56 12.5t56 -12.5t39 -35.5t14 -52t-14 -52t-39 -36t-56 -13t-56 13zM34 108q17 31 40 47.5t59 33.5q15 7 29 15t22 16q10 10 14.5 23.5t4.5 32.5v5h183l1 -21q0 -42 -7.5 -71.5t-27.5 -49.5q-13 -13 -27 -20.5t-37 -18.5
q-21 -9 -32.5 -16t-19 -17t-7.5 -26q0 -24 11.5 -36t36.5 -12q30 0 46.5 16t17.5 48h206q-6 -71 -39.5 -123t-92.5 -80.5t-139 -28.5q-88 0 -146 31t-85.5 77.5t-27.5 93.5q0 50 17 81z" />
    <glyph glyph-name="Agrave" unicode="&#xc0;" horiz-adv-x="709" 
d="M462 691l250 -691h-226l-25 94h-220l-27 -94h-218l254 691h212zM355 479l-70 -234h136l-64 234h-2zM348 885l97 -145h-137l-165 145h205z" />
    <glyph glyph-name="Aacute" unicode="&#xc1;" horiz-adv-x="709" 
d="M462 691l250 -691h-226l-25 94h-220l-27 -94h-218l254 691h212zM355 479l-70 -234h136l-64 234h-2zM566 885l-167 -145h-135l96 145h206z" />
    <glyph glyph-name="Acircumflex" unicode="&#xc2;" horiz-adv-x="709" 
d="M462 691l250 -691h-226l-25 94h-220l-27 -94h-218l254 691h212zM355 479l-70 -234h136l-64 234h-2zM438 885l119 -145h-145l-55 74l-53 -74h-145l117 145h162z" />
    <glyph glyph-name="Atilde" unicode="&#xc3;" horiz-adv-x="709" 
d="M462 691l250 -691h-226l-25 94h-220l-27 -94h-218l254 691h212zM355 479l-70 -234h136l-64 234h-2zM422 842q19 0 29 10.5t14 31.5h80q-1 -43 -16 -74t-40 -47t-57 -16q-40 0 -85 18q-24 9 -38.5 13.5t-25.5 4.5q-13 0 -23.5 -10.5t-16.5 -30.5h-77q0 41 12.5 72.5t37 49
t57.5 17.5q46 0 107 -26q29 -13 42 -13z" />
    <glyph glyph-name="Adieresis" unicode="&#xc4;" horiz-adv-x="709" 
d="M462 691l250 -691h-226l-25 94h-220l-27 -94h-218l254 691h212zM355 479l-70 -234h136l-64 234h-2zM306.5 758.5q-22.5 -18.5 -62.5 -18.5t-62.5 18.5t-22.5 52.5q0 33 23 52t62 19q40 0 62.5 -18.5t22.5 -52.5t-22.5 -52.5zM530.5 758.5q-22.5 -18.5 -62.5 -18.5
t-62.5 18.5t-22.5 52.5q0 33 23 52t62 19q40 0 62.5 -18.5t22.5 -52.5t-22.5 -52.5z" />
    <glyph glyph-name="Aring" unicode="&#xc5;" horiz-adv-x="709" 
d="M462 691l250 -691h-226l-25 94h-220l-27 -94h-218l254 691h212zM355 479l-70 -234h136l-64 234h-2zM450 766q-14 -24 -38.5 -38t-55.5 -14q-30 0 -55 14t-39.5 38t-14.5 54q0 29 14 53.5t38.5 39t56.5 14.5q31 0 56 -14.5t38.5 -39t13.5 -53.5q0 -30 -14 -54zM391 783
q14 14 14 37q0 22 -14 35.5t-35 13.5q-22 0 -36 -13.5t-14 -35.5q0 -23 14 -37t36 -14q21 0 35 14z" />
    <glyph glyph-name="AE" unicode="&#xc6;" horiz-adv-x="1035" 
d="M974 691v-181h-312v-81h291v-168h-291v-80h324v-181h-530v98h-202l-39 -98h-227l313 691h673zM429 510l-118 -271h145v271h-27z" />
    <glyph glyph-name="Ccedilla" unicode="&#xc7;" horiz-adv-x="743" 
d="M665.5 120.5q-37.5 -57.5 -101.5 -93.5t-144 -42l-27 -45l1 -1q8 2 20 2q42 0 66.5 -21.5t24.5 -59.5q0 -44 -36.5 -68.5t-102.5 -24.5q-34 0 -63.5 7t-61.5 22l20 46q44 -20 83 -20q24 0 38.5 9.5t14.5 29.5q0 33 -45 33q-22 0 -42 -10l-30 24l49 80q-89 12 -154.5 60.5
t-100.5 125t-35 172.5q0 108 44.5 190t124.5 126.5t184 44.5q136 0 215 -63t95 -188h-215q-7 38 -35 57t-65 19q-63 0 -96.5 -48t-33.5 -138q0 -87 33 -137t95 -50q42 0 69.5 22t33.5 66h219q-4 -69 -41.5 -126.5z" />
    <glyph glyph-name="Egrave" unicode="&#xc8;" horiz-adv-x="693" 
d="M371 885l97 -145h-137l-165 145h205zM634 691v-181h-358v-81h325v-168h-325v-80h369v-181h-587v691h576z" />
    <glyph glyph-name="Eacute" unicode="&#xc9;" horiz-adv-x="693" 
d="M558 885l-167 -145h-135l96 145h206zM634 691v-181h-358v-81h325v-168h-325v-80h369v-181h-587v691h576z" />
    <glyph glyph-name="Ecircumflex" unicode="&#xca;" horiz-adv-x="693" 
d="M634 691v-181h-358v-81h325v-168h-325v-80h369v-181h-587v691h576zM425 885l119 -145h-145l-55 74l-53 -74h-145l117 145h162z" />
    <glyph glyph-name="Edieresis" unicode="&#xcb;" horiz-adv-x="693" 
d="M291.5 758.5q-22.5 -18.5 -62.5 -18.5t-62.5 18.5t-22.5 52.5q0 33 23 52t62 19q40 0 62.5 -18.5t22.5 -52.5t-22.5 -52.5zM515.5 758.5q-22.5 -18.5 -62.5 -18.5t-62.5 18.5t-22.5 52.5q0 33 23 52t62 19q40 0 62.5 -18.5t22.5 -52.5t-22.5 -52.5zM634 691v-181h-358
v-81h325v-168h-325v-80h369v-181h-587v691h576z" />
    <glyph glyph-name="Igrave" unicode="&#xcc;" horiz-adv-x="333" 
d="M276 691v-691h-218v691h218zM180 885l97 -145h-137l-165 145h205z" />
    <glyph glyph-name="Iacute" unicode="&#xcd;" horiz-adv-x="333" 
d="M276 691v-691h-218v691h218zM360 885l-167 -145h-135l96 145h206z" />
    <glyph glyph-name="Icircumflex" unicode="&#xce;" horiz-adv-x="333" 
d="M276 691v-691h-218v691h218zM249 885l119 -145h-145l-55 74l-53 -74h-145l117 145h162z" />
    <glyph glyph-name="Idieresis" unicode="&#xcf;" horiz-adv-x="333" 
d="M276 691v-691h-218v691h218zM118.5 758.5q-22.5 -18.5 -62.5 -18.5t-62.5 18.5t-22.5 52.5q0 33 23 52t62 19q40 0 62.5 -18.5t22.5 -52.5t-22.5 -52.5zM342.5 758.5q-22.5 -18.5 -62.5 -18.5t-62.5 18.5t-22.5 52.5q0 33 23 52t62 19q40 0 62.5 -18.5t22.5 -52.5
t-22.5 -52.5z" />
    <glyph glyph-name="Eth" unicode="&#xd0;" horiz-adv-x="763" 
d="M581.5 648q68.5 -43 104.5 -121t36 -182q0 -113 -41.5 -190t-120 -116t-188.5 -39h-314v299h-53v120h53v272h361q94 0 162.5 -43zM405 299h-129v-118h82q69 0 107.5 44.5t38.5 124.5q0 48 -19 84.5t-55 56t-86 19.5h-68v-91h129v-120z" />
    <glyph glyph-name="Ntilde" unicode="&#xd1;" horiz-adv-x="743" 
d="M443 842q19 0 29 10.5t14 31.5h80q-1 -43 -16 -74t-40 -47t-57 -16q-40 0 -85 18q-24 9 -38.5 13.5t-25.5 4.5q-13 0 -23.5 -10.5t-16.5 -30.5h-77q0 41 12.5 72.5t37 49t57.5 17.5q46 0 107 -26q29 -13 42 -13zM282 691l193 -361h2v361h207v-691h-212l-205 371h-2v-371
h-206v691h223z" />
    <glyph glyph-name="Ograve" unicode="&#xd2;" horiz-adv-x="778" 
d="M376 885l97 -145h-137l-165 145h205zM695.5 158.5q-44.5 -82.5 -124.5 -128.5t-182 -46q-103 0 -182.5 46t-123.5 128.5t-44 187.5t44 187t123.5 128t182.5 46q104 0 184 -46t123.5 -128.5t43.5 -186.5q0 -105 -44.5 -187.5zM458 180q30 21 47 63.5t17 102.5
q0 61 -17.5 103t-48 62.5t-68.5 20.5q-37 0 -66.5 -20.5t-47 -62.5t-17.5 -103q0 -60 17 -102.5t46.5 -63.5t68.5 -21t69 21z" />
    <glyph glyph-name="Oacute" unicode="&#xd3;" horiz-adv-x="778" 
d="M605 885l-167 -145h-135l96 145h206zM695.5 158.5q-44.5 -82.5 -124.5 -128.5t-182 -46q-103 0 -182.5 46t-123.5 128.5t-44 187.5t44 187t123.5 128t182.5 46q104 0 184 -46t123.5 -128.5t43.5 -186.5q0 -105 -44.5 -187.5zM458 180q30 21 47 63.5t17 102.5
q0 61 -17.5 103t-48 62.5t-68.5 20.5q-37 0 -66.5 -20.5t-47 -62.5t-17.5 -103q0 -60 17 -102.5t46.5 -63.5t68.5 -21t69 21z" />
    <glyph glyph-name="Ocircumflex" unicode="&#xd4;" horiz-adv-x="778" 
d="M695.5 158.5q-44.5 -82.5 -124.5 -128.5t-182 -46q-103 0 -182.5 46t-123.5 128.5t-44 187.5t44 187t123.5 128t182.5 46q104 0 184 -46t123.5 -128.5t43.5 -186.5q0 -105 -44.5 -187.5zM458 180q30 21 47 63.5t17 102.5q0 61 -17.5 103t-48 62.5t-68.5 20.5
q-37 0 -66.5 -20.5t-47 -62.5t-17.5 -103q0 -60 17 -102.5t46.5 -63.5t68.5 -21t69 21zM472 885l119 -145h-145l-55 74l-53 -74h-145l117 145h162z" />
    <glyph glyph-name="Otilde" unicode="&#xd5;" horiz-adv-x="778" 
d="M458 842q19 0 29 10.5t14 31.5h80q-1 -43 -16 -74t-40 -47t-57 -16q-40 0 -85 18q-24 9 -38.5 13.5t-25.5 4.5q-13 0 -23.5 -10.5t-16.5 -30.5h-77q0 41 12.5 72.5t37 49t57.5 17.5q46 0 107 -26q29 -13 42 -13zM695.5 158.5q-44.5 -82.5 -124.5 -128.5t-182 -46
q-103 0 -182.5 46t-123.5 128.5t-44 187.5t44 187t123.5 128t182.5 46q104 0 184 -46t123.5 -128.5t43.5 -186.5q0 -105 -44.5 -187.5zM458 180q30 21 47 63.5t17 102.5q0 61 -17.5 103t-48 62.5t-68.5 20.5q-37 0 -66.5 -20.5t-47 -62.5t-17.5 -103q0 -60 17 -102.5
t46.5 -63.5t68.5 -21t69 21z" />
    <glyph glyph-name="Odieresis" unicode="&#xd6;" horiz-adv-x="778" 
d="M340.5 758.5q-22.5 -18.5 -62.5 -18.5t-62.5 18.5t-22.5 52.5q0 33 23 52t62 19q40 0 62.5 -18.5t22.5 -52.5t-22.5 -52.5zM564.5 758.5q-22.5 -18.5 -62.5 -18.5t-62.5 18.5t-22.5 52.5q0 33 23 52t62 19q40 0 62.5 -18.5t22.5 -52.5t-22.5 -52.5zM695.5 158.5
q-44.5 -82.5 -124.5 -128.5t-182 -46q-103 0 -182.5 46t-123.5 128.5t-44 187.5t44 187t123.5 128t182.5 46q104 0 184 -46t123.5 -128.5t43.5 -186.5q0 -105 -44.5 -187.5zM458 180q30 21 47 63.5t17 102.5q0 61 -17.5 103t-48 62.5t-68.5 20.5q-37 0 -66.5 -20.5
t-47 -62.5t-17.5 -103q0 -60 17 -102.5t46.5 -63.5t68.5 -21t69 21z" />
    <glyph glyph-name="multiply" unicode="&#xd7;" horiz-adv-x="588" 
d="M159 502l135 -141l134 142l109 -108l-135 -142l135 -141l-110 -108l-133 141l-135 -141l-109 108l136 141l-136 141z" />
    <glyph glyph-name="Oslash" unicode="&#xd8;" horiz-adv-x="778" 
d="M695 721l44 -37l-84 -92q85 -98 85 -246q0 -105 -43.5 -187t-123 -128.5t-184.5 -46.5q-125 0 -219 71l-83 -91l-43 40l83 91q-88 101 -88 251q0 104 43.5 186t123 128.5t183.5 46.5q133 0 225 -75zM482 488q-19 21 -43.5 32.5t-50.5 11.5q-36 0 -65.5 -20.5t-47.5 -62.5
t-18 -103q0 -51 13 -93zM338.5 170.5q24.5 -11.5 50.5 -11.5q37 0 67.5 21t48 63t17.5 103q0 43 -12 86l-210 -233q14 -17 38.5 -28.5z" />
    <glyph glyph-name="Ugrave" unicode="&#xd9;" horiz-adv-x="743" 
d="M350 885l97 -145h-137l-165 145h205zM273 310q0 -48 6.5 -79.5t28 -51.5t65.5 -20q51 0 74 33t23 100v399h218v-428q0 -140 -77.5 -209.5t-238.5 -69.5q-163 0 -240 70.5t-77 209.5v427h218v-381z" />
    <glyph glyph-name="Uacute" unicode="&#xda;" horiz-adv-x="743" 
d="M602 885l-167 -145h-135l96 145h206zM273 310q0 -48 6.5 -79.5t28 -51.5t65.5 -20q51 0 74 33t23 100v399h218v-428q0 -140 -77.5 -209.5t-238.5 -69.5q-163 0 -240 70.5t-77 209.5v427h218v-381z" />
    <glyph glyph-name="Ucircumflex" unicode="&#xdb;" horiz-adv-x="743" 
d="M273 310q0 -48 6.5 -79.5t28 -51.5t65.5 -20q51 0 74 33t23 100v399h218v-428q0 -140 -77.5 -209.5t-238.5 -69.5q-163 0 -240 70.5t-77 209.5v427h218v-381zM449 885l119 -145h-145l-55 74l-53 -74h-145l117 145h162z" />
    <glyph glyph-name="Udieresis" unicode="&#xdc;" horiz-adv-x="743" 
d="M323.5 758.5q-22.5 -18.5 -62.5 -18.5t-62.5 18.5t-22.5 52.5q0 33 23 52t62 19q40 0 62.5 -18.5t22.5 -52.5t-22.5 -52.5zM547.5 758.5q-22.5 -18.5 -62.5 -18.5t-62.5 18.5t-22.5 52.5q0 33 23 52t62 19q40 0 62.5 -18.5t22.5 -52.5t-22.5 -52.5zM273 310
q0 -48 6.5 -79.5t28 -51.5t65.5 -20q51 0 74 33t23 100v399h218v-428q0 -140 -77.5 -209.5t-238.5 -69.5q-163 0 -240 70.5t-77 209.5v427h218v-381z" />
    <glyph glyph-name="Yacute" unicode="&#xdd;" horiz-adv-x="652" 
d="M214 691l110 -253l116 253h239l-246 -437v-254h-218v253l-242 438h241zM561 885l-167 -145h-135l96 145h206z" />
    <glyph glyph-name="Thorn" unicode="&#xde;" horiz-adv-x="691" 
d="M276 611h146q69 0 126 -29.5t90.5 -84t33.5 -124.5q0 -79 -33.5 -134.5t-94 -84t-140.5 -28.5h-128v-126h-218v691h218v-80zM442 299q24 20 24 60q0 37 -20 56.5t-71 19.5h-99v-156h84q58 0 82 20z" />
    <glyph glyph-name="germandbls" unicode="&#xdf;" horiz-adv-x="638" 
d="M490 395v-2q36 -8 63 -31.5t42 -60.5t15 -84q0 -74 -32.5 -124t-88 -74.5t-126.5 -24.5q-27 0 -57 5v150q8 -2 28 -2q36 0 57 24t21 66q0 48 -25.5 71t-78.5 23h-4v110h4q32 0 49 7.5t23.5 21.5t6.5 38q0 31 -16.5 48t-46.5 17q-34 0 -50.5 -22.5t-16.5 -64.5v-486h-198
v470q0 79 31.5 138t91 91t142.5 32q73 0 129.5 -24.5t87 -68.5t30.5 -100q0 -100 -81 -143z" />
    <glyph glyph-name="agrave" unicode="&#xe0;" horiz-adv-x="602" 
d="M361 337q0 31 -7 48t-21 23.5t-38 6.5q-32 0 -47.5 -13t-16.5 -31h-183q10 80 71.5 120.5t190.5 40.5q87 0 139.5 -22.5t77 -69.5t24.5 -123v-317h-176l-9 55h-2q-25 -32 -63 -50t-98 -18q-54 0 -94.5 19.5t-62.5 56.5t-22 88q0 83 67.5 125t193.5 42h76v19zM309 229
q-36 0 -59 -16t-23 -45q0 -30 17 -45.5t43 -15.5q35 0 54.5 22t19.5 62v38h-52zM343 721l98 -149h-138l-167 149h207z" />
    <glyph glyph-name="aacute" unicode="&#xe1;" horiz-adv-x="602" 
d="M361 337q0 31 -7 48t-21 23.5t-38 6.5q-32 0 -47.5 -13t-16.5 -31h-183q10 80 71.5 120.5t190.5 40.5q87 0 139.5 -22.5t77 -69.5t24.5 -123v-317h-176l-9 55h-2q-25 -32 -63 -50t-98 -18q-54 0 -94.5 19.5t-62.5 56.5t-22 88q0 83 67.5 125t193.5 42h76v19zM309 229
q-36 0 -59 -16t-23 -45q0 -30 17 -45.5t43 -15.5q35 0 54.5 22t19.5 62v38h-52zM532 721l-169 -149h-136l96 149h209z" />
    <glyph glyph-name="acircumflex" unicode="&#xe2;" horiz-adv-x="602" 
d="M361 337q0 31 -7 48t-21 23.5t-38 6.5q-32 0 -47.5 -13t-16.5 -31h-183q10 80 71.5 120.5t190.5 40.5q87 0 139.5 -22.5t77 -69.5t24.5 -123v-317h-176l-9 55h-2q-25 -32 -63 -50t-98 -18q-54 0 -94.5 19.5t-62.5 56.5t-22 88q0 83 67.5 125t193.5 42h76v19zM309 229
q-36 0 -59 -16t-23 -45q0 -30 17 -45.5t43 -15.5q35 0 54.5 22t19.5 62v38h-52zM395 721l120 -149h-146l-55 76l-54 -76h-146l118 149h163z" />
    <glyph glyph-name="atilde" unicode="&#xe3;" horiz-adv-x="602" 
d="M361 337q0 31 -7 48t-21 23.5t-38 6.5q-32 0 -47.5 -13t-16.5 -31h-183q10 80 71.5 120.5t190.5 40.5q87 0 139.5 -22.5t77 -69.5t24.5 -123v-317h-176l-9 55h-2q-25 -32 -63 -50t-98 -18q-54 0 -94.5 19.5t-62.5 56.5t-22 88q0 83 67.5 125t193.5 42h76v19zM309 229
q-36 0 -59 -16t-23 -45q0 -30 17 -45.5t43 -15.5q35 0 54.5 22t19.5 62v38h-52zM358 681.5q15 -5.5 21 -5.5q17 0 28 10t15 33h81q-1 -43 -15.5 -74.5t-40 -48t-58.5 -16.5q-41 0 -85 19q-45 18 -65 18q-13 0 -23.5 -10.5t-15.5 -32.5h-79q1 64 29 103t80 39q44 0 92 -20
q21 -9 36 -14.5z" />
    <glyph glyph-name="adieresis" unicode="&#xe4;" horiz-adv-x="602" 
d="M361 337q0 31 -7 48t-21 23.5t-38 6.5q-32 0 -47.5 -13t-16.5 -31h-183q10 80 71.5 120.5t190.5 40.5q87 0 139.5 -22.5t77 -69.5t24.5 -123v-317h-176l-9 55h-2q-25 -32 -63 -50t-98 -18q-54 0 -94.5 19.5t-62.5 56.5t-22 88q0 83 67.5 125t193.5 42h76v19zM309 229
q-36 0 -59 -16t-23 -45q0 -30 17 -45.5t43 -15.5q35 0 54.5 22t19.5 62v38h-52zM263.5 594q-22.5 -20 -62.5 -20t-62.5 20t-22.5 57q0 36 23 56.5t62 20.5q40 0 62.5 -20t22.5 -57t-22.5 -57zM487.5 594q-22.5 -20 -62.5 -20t-62.5 20t-22.5 57q0 36 23 56.5t62 20.5
q40 0 62.5 -20t22.5 -57t-22.5 -57z" />
    <glyph glyph-name="aring" unicode="&#xe5;" horiz-adv-x="602" 
d="M361 337q0 31 -7 48t-21 23.5t-38 6.5q-32 0 -47.5 -13t-16.5 -31h-183q10 80 71.5 120.5t190.5 40.5q87 0 139.5 -22.5t77 -69.5t24.5 -123v-317h-176l-9 55h-2q-25 -32 -63 -50t-98 -18q-54 0 -94.5 19.5t-62.5 56.5t-22 88q0 83 67.5 125t193.5 42h76v19zM309 229
q-36 0 -59 -16t-23 -45q0 -30 17 -45.5t43 -15.5q35 0 54.5 22t19.5 62v38h-52zM401 610q-15 -25 -40.5 -39.5t-56.5 -14.5q-32 0 -58 14.5t-40.5 40t-14.5 55.5t14.5 55.5t40 40.5t58.5 15q32 0 57.5 -15t40 -40.5t14.5 -55.5q0 -31 -15 -56zM341.5 628.5
q14.5 14.5 14.5 38.5q0 23 -14.5 37.5t-37.5 14.5t-38 -14.5t-15 -37.5q0 -24 15 -38.5t38 -14.5t37.5 14.5z" />
    <glyph glyph-name="ae" unicode="&#xe6;" horiz-adv-x="934" 
d="M903 215h-363q2 -49 27 -75t67 -26q29 0 49.5 9t28.5 28h180q-23 -78 -92.5 -121t-175.5 -43q-127 0 -186 76h-2q-22 -26 -48 -42.5t-62.5 -25t-89.5 -8.5q-61 0 -109 19.5t-75.5 57t-27.5 87.5q0 83 67 125t191 42h73v19q0 31 -6.5 48t-20 23.5t-36.5 6.5
q-31 0 -45.5 -13t-15.5 -31h-183q10 80 69.5 120.5t180.5 40.5q63 0 106 -17.5t64 -47.5h2q25 28 70.5 46.5t99.5 18.5q130 0 196.5 -78.5t66.5 -236.5v-2zM705 363q-10 20 -29 31.5t-44 11.5q-38 0 -62 -22.5t-30 -65.5h174q1 25 -9 45zM355 229h-49q-34 0 -56.5 -16
t-22.5 -45q0 -30 16 -45.5t41 -15.5q33 0 52 22t19 62v38z" />
    <glyph glyph-name="ccedilla" unicode="&#xe7;" horiz-adv-x="596" 
d="M532.5 88q-30.5 -42 -78 -67t-107.5 -32l-30 -49l1 -1q8 2 20 2q42 0 66.5 -21.5t24.5 -59.5q0 -44 -36.5 -68.5t-102.5 -24.5q-34 0 -63.5 7t-61.5 22l20 46q44 -20 83 -20q24 0 38.5 9.5t14.5 29.5q0 33 -45 33q-22 0 -42 -10l-30 24l51 83q-65 10 -115.5 47t-78.5 94
t-28 127q0 77 35.5 139.5t99 98t143.5 35.5q71 0 126.5 -22t89.5 -65.5t40 -105.5h-188q-4 24 -21 36.5t-43 12.5q-39 0 -61.5 -28.5t-22.5 -94.5q0 -70 21.5 -102t61.5 -32q25 0 44 15t24 41h190q-9 -57 -39.5 -99z" />
    <glyph glyph-name="egrave" unicode="&#xe8;" horiz-adv-x="623" 
d="M592 215h-369q2 -49 27.5 -75t69.5 -26q30 0 51.5 9t29.5 28h180q-23 -78 -93.5 -121t-177.5 -43q-80 0 -142.5 31.5t-98 92.5t-35.5 147q0 75 34.5 137.5t97.5 99.5t145 37q140 0 210.5 -78t70.5 -237v-2zM393.5 362.5q-10.5 19.5 -30 31t-45.5 11.5q-40 0 -64.5 -22
t-30.5 -65h180q1 25 -9.5 44.5zM287 721l98 -149h-138l-167 149h207z" />
    <glyph glyph-name="eacute" unicode="&#xe9;" horiz-adv-x="623" 
d="M534 721l-169 -149h-136l96 149h209zM592 215h-369q2 -49 27.5 -75t69.5 -26q30 0 51.5 9t29.5 28h180q-23 -78 -93.5 -121t-177.5 -43q-80 0 -142.5 31.5t-98 92.5t-35.5 147q0 75 34.5 137.5t97.5 99.5t145 37q140 0 210.5 -78t70.5 -237v-2zM393.5 362.5
q-10.5 19.5 -30 31t-45.5 11.5q-40 0 -64.5 -22t-30.5 -65h180q1 25 -9.5 44.5z" />
    <glyph glyph-name="ecircumflex" unicode="&#xea;" horiz-adv-x="623" 
d="M397 721l120 -149h-146l-55 76l-54 -76h-146l118 149h163zM592 215h-369q2 -49 27.5 -75t69.5 -26q30 0 51.5 9t29.5 28h180q-23 -78 -93.5 -121t-177.5 -43q-80 0 -142.5 31.5t-98 92.5t-35.5 147q0 75 34.5 137.5t97.5 99.5t145 37q140 0 210.5 -78t70.5 -237v-2z
M393.5 362.5q-10.5 19.5 -30 31t-45.5 11.5q-40 0 -64.5 -22t-30.5 -65h180q1 25 -9.5 44.5z" />
    <glyph glyph-name="edieresis" unicode="&#xeb;" horiz-adv-x="623" 
d="M265.5 594q-22.5 -20 -62.5 -20t-62.5 20t-22.5 57q0 36 23 56.5t62 20.5q40 0 62.5 -20t22.5 -57t-22.5 -57zM489.5 594q-22.5 -20 -62.5 -20t-62.5 20t-22.5 57q0 36 23 56.5t62 20.5q40 0 62.5 -20t22.5 -57t-22.5 -57zM592 215h-369q2 -49 27.5 -75t69.5 -26
q30 0 51.5 9t29.5 28h180q-23 -78 -93.5 -121t-177.5 -43q-80 0 -142.5 31.5t-98 92.5t-35.5 147q0 75 34.5 137.5t97.5 99.5t145 37q140 0 210.5 -78t70.5 -237v-2zM393.5 362.5q-10.5 19.5 -30 31t-45.5 11.5q-40 0 -64.5 -22t-30.5 -65h180q1 25 -9.5 44.5z" />
    <glyph glyph-name="igrave" unicode="&#xec;" horiz-adv-x="318" 
d="M258 519v-519h-198v519h198zM158 721l98 -149h-138l-167 149h207z" />
    <glyph glyph-name="iacute" unicode="&#xed;" horiz-adv-x="318" 
d="M364 721l-169 -149h-136l96 149h209zM258 519v-519h-198v519h198z" />
    <glyph glyph-name="icircumflex" unicode="&#xee;" horiz-adv-x="318" 
d="M240 721l120 -149h-146l-55 76l-54 -76h-146l118 149h163zM258 519v-519h-198v519h198z" />
    <glyph glyph-name="idieresis" unicode="&#xef;" horiz-adv-x="318" 
d="M110.5 594q-22.5 -20 -62.5 -20t-62.5 20t-22.5 57q0 36 23 56.5t62 20.5q40 0 62.5 -20t22.5 -57t-22.5 -57zM334.5 594q-22.5 -20 -62.5 -20t-62.5 20t-22.5 57q0 36 23 56.5t62 20.5q40 0 62.5 -20t22.5 -57t-22.5 -57zM258 519v-519h-198v519h198z" />
    <glyph glyph-name="eth" unicode="&#xf0;" horiz-adv-x="619" 
d="M304 720.5q31 -15.5 47 -27.5l88 50l55 -62l-72 -40q87 -78 125.5 -160.5t38.5 -182.5q0 -96 -31 -165.5t-93 -107.5t-153 -38q-87 0 -149 30.5t-94.5 89t-32.5 141.5q0 77 33 133t86.5 85t112.5 29q29 0 49.5 -3.5t38.5 -11.5l2 2q-11 20 -32.5 44t-40.5 37l-95 -54
l-53 61l78 44q-11 8 -33.5 20t-52.5 25l121 87q26 -10 57 -25.5zM367.5 161.5q20.5 30.5 20.5 90.5q0 57 -20 86.5t-60 29.5q-38 0 -57.5 -29t-19.5 -87q0 -60 20 -90.5t58 -30.5t58.5 30.5z" />
    <glyph glyph-name="ntilde" unicode="&#xf1;" horiz-adv-x="640" 
d="M585 0h-198v287q0 45 -16.5 66t-49.5 21q-34 0 -51 -21t-17 -66v-287h-198v519h192v-66h1q28 40 68.5 59.5t96.5 19.5q49 0 88.5 -22t61.5 -61t22 -89v-360zM364 681.5q15 -5.5 21 -5.5q17 0 28 10t15 33h81q-1 -43 -15.5 -74.5t-40 -48t-58.5 -16.5q-41 0 -85 19
q-45 18 -65 18q-13 0 -23.5 -10.5t-15.5 -32.5h-79q1 64 29 103t80 39q44 0 92 -20q21 -9 36 -14.5z" />
    <glyph glyph-name="ograve" unicode="&#xf2;" horiz-adv-x="619" 
d="M553 117.5q-33 -61.5 -95 -96t-148 -34.5t-148.5 34.5t-95.5 96t-33 142.5t33 142.5t95.5 95.5t148.5 34t148 -34.5t95 -96t33 -141.5q0 -81 -33 -142.5zM368.5 162q19.5 31 19.5 98t-20 97.5t-59 30.5q-38 0 -58 -30t-20 -98q0 -66 20 -97.5t59 -31.5t58.5 31zM291 721
l98 -149h-138l-167 149h207z" />
    <glyph glyph-name="oacute" unicode="&#xf3;" horiz-adv-x="619" 
d="M534 721l-169 -149h-136l96 149h209zM553 117.5q-33 -61.5 -95 -96t-148 -34.5t-148.5 34.5t-95.5 96t-33 142.5t33 142.5t95.5 95.5t148.5 34t148 -34.5t95 -96t33 -141.5q0 -81 -33 -142.5zM368.5 162q19.5 31 19.5 98t-20 97.5t-59 30.5q-38 0 -58 -30t-20 -98
q0 -66 20 -97.5t59 -31.5t58.5 31z" />
    <glyph glyph-name="ocircumflex" unicode="&#xf4;" horiz-adv-x="619" 
d="M392 721l120 -149h-146l-55 76l-54 -76h-146l118 149h163zM553 117.5q-33 -61.5 -95 -96t-148 -34.5t-148.5 34.5t-95.5 96t-33 142.5t33 142.5t95.5 95.5t148.5 34t148 -34.5t95 -96t33 -141.5q0 -81 -33 -142.5zM368.5 162q19.5 31 19.5 98t-20 97.5t-59 30.5
q-38 0 -58 -30t-20 -98q0 -66 20 -97.5t59 -31.5t58.5 31z" />
    <glyph glyph-name="otilde" unicode="&#xf5;" horiz-adv-x="619" 
d="M553 117.5q-33 -61.5 -95 -96t-148 -34.5t-148.5 34.5t-95.5 96t-33 142.5t33 142.5t95.5 95.5t148.5 34t148 -34.5t95 -96t33 -141.5q0 -81 -33 -142.5zM368.5 162q19.5 31 19.5 98t-20 97.5t-59 30.5q-38 0 -58 -30t-20 -98q0 -66 20 -97.5t59 -31.5t58.5 31z
M356 681.5q15 -5.5 21 -5.5q17 0 28 10t15 33h81q-1 -43 -15.5 -74.5t-40 -48t-58.5 -16.5q-41 0 -85 19q-45 18 -65 18q-13 0 -23.5 -10.5t-15.5 -32.5h-79q1 64 29 103t80 39q44 0 92 -20q21 -9 36 -14.5z" />
    <glyph glyph-name="odieresis" unicode="&#xf6;" horiz-adv-x="619" 
d="M259.5 594q-22.5 -20 -62.5 -20t-62.5 20t-22.5 57q0 36 23 56.5t62 20.5q40 0 62.5 -20t22.5 -57t-22.5 -57zM483.5 594q-22.5 -20 -62.5 -20t-62.5 20t-22.5 57q0 36 23 56.5t62 20.5q40 0 62.5 -20t22.5 -57t-22.5 -57zM553 117.5q-33 -61.5 -95 -96t-148 -34.5
t-148.5 34.5t-95.5 96t-33 142.5t33 142.5t95.5 95.5t148.5 34t148 -34.5t95 -96t33 -141.5q0 -81 -33 -142.5zM368.5 162q19.5 31 19.5 98t-20 97.5t-59 30.5q-38 0 -58 -30t-20 -98q0 -66 20 -97.5t59 -31.5t58.5 31z" />
    <glyph glyph-name="divide" unicode="&#xf7;" horiz-adv-x="588" 
d="M381 408q-14 -23 -37 -36.5t-49 -13.5q-25 0 -48.5 13.5t-37.5 36.5t-14 51q0 27 14 50.5t37 37.5t49 14t49 -14t37 -37.5t14 -50.5q0 -28 -14 -51zM539 329v-153h-489v153h489zM381.5 -4.5q-13.5 -23.5 -36.5 -37.5t-50 -14q-25 0 -48 13.5t-37.5 37t-14.5 51.5t14 51
t37 36.5t49 13.5t49 -13.5t37 -36.5t14 -51q0 -27 -13.5 -50.5z" />
    <glyph glyph-name="oslash" unicode="&#xf8;" horiz-adv-x="619" 
d="M522 546l34 -31l-46 -56q37 -36 56.5 -88t19.5 -111q0 -82 -33 -143.5t-95 -95.5t-148 -34q-98 0 -162 42l-52 -64l-35 33l50 61q-38 36 -58 87.5t-20 113.5q0 81 33 142.5t95.5 95.5t148.5 34q50 0 91.5 -11.5t72.5 -32.5zM364 362q-7 12 -21.5 19t-33.5 7
q-38 0 -58 -30.5t-20 -97.5q0 -18 1.5 -33.5t3.5 -24.5zM310 131q39 0 58.5 31t19.5 98q0 30 -4 54l-127 -159q18 -24 53 -24z" />
    <glyph glyph-name="ugrave" unicode="&#xf9;" horiz-adv-x="640" 
d="M253 232q0 -45 16.5 -66t49.5 -21q34 0 51 21t17 66v287h198v-519h-191v66h-2q-28 -40 -68 -59.5t-97 -19.5q-48 0 -87.5 21.5t-62 61t-22.5 90.5v359h198v-287zM288 721l98 -149h-138l-167 149h207z" />
    <glyph glyph-name="uacute" unicode="&#xfa;" horiz-adv-x="640" 
d="M551 721l-169 -149h-136l96 149h209zM253 232q0 -45 16.5 -66t49.5 -21q34 0 51 21t17 66v287h198v-519h-191v66h-2q-28 -40 -68 -59.5t-97 -19.5q-48 0 -87.5 21.5t-62 61t-22.5 90.5v359h198v-287z" />
    <glyph glyph-name="ucircumflex" unicode="&#xfb;" horiz-adv-x="640" 
d="M400 721l120 -149h-146l-55 76l-54 -76h-146l118 149h163zM253 232q0 -45 16.5 -66t49.5 -21q34 0 51 21t17 66v287h198v-519h-191v66h-2q-28 -40 -68 -59.5t-97 -19.5q-48 0 -87.5 21.5t-62 61t-22.5 90.5v359h198v-287z" />
    <glyph glyph-name="udieresis" unicode="&#xfc;" horiz-adv-x="640" 
d="M271.5 594q-22.5 -20 -62.5 -20t-62.5 20t-22.5 57q0 36 23 56.5t62 20.5q40 0 62.5 -20t22.5 -57t-22.5 -57zM495.5 594q-22.5 -20 -62.5 -20t-62.5 20t-22.5 57q0 36 23 56.5t62 20.5q40 0 62.5 -20t22.5 -57t-22.5 -57zM253 232q0 -45 16.5 -66t49.5 -21q34 0 51 21
t17 66v287h198v-519h-191v66h-2q-28 -40 -68 -59.5t-97 -19.5q-48 0 -87.5 21.5t-62 61t-22.5 90.5v359h198v-287z" />
    <glyph glyph-name="yacute" unicode="&#xfd;" horiz-adv-x="549" 
d="M276 221h2l79 298h205l-155 -454q-37 -108 -89 -161t-117.5 -68.5t-168.5 -15.5v170q46 0 72 4t39 13t19 25l-174 487h211zM517 721l-169 -149h-136l96 149h209z" />
    <glyph glyph-name="thorn" unicode="&#xfe;" horiz-adv-x="638" 
d="M581 117q-24 -62 -71.5 -96t-117.5 -34q-42 0 -77.5 18t-59.5 52h-2v-225h-198v882h198v-252h2q24 34 60 52t77 18q69 0 116.5 -33t72 -94t24.5 -143q0 -83 -24 -145zM267 163q21 -32 60 -32q38 0 59 32.5t21 95.5t-21 96t-59 33t-59.5 -32.5t-21.5 -96.5t21 -96z" />
    <glyph glyph-name="ydieresis" unicode="&#xff;" horiz-adv-x="549" 
d="M276 221h2l79 298h205l-155 -454q-37 -108 -89 -161t-117.5 -68.5t-168.5 -15.5v170q46 0 72 4t39 13t19 25l-174 487h211zM227.5 594q-22.5 -20 -62.5 -20t-62.5 20t-22.5 57q0 36 23 56.5t62 20.5q40 0 62.5 -20t22.5 -57t-22.5 -57zM451.5 594q-22.5 -20 -62.5 -20
t-62.5 20t-22.5 57q0 36 23 56.5t62 20.5q40 0 62.5 -20t22.5 -57t-22.5 -57z" />
    <glyph glyph-name="Amacron" unicode="&#x100;" horiz-adv-x="709" 
d="M462 691l250 -691h-226l-25 94h-220l-27 -94h-218l254 691h212zM355 479l-70 -234h136l-64 234h-2zM520 858v-90h-326v90h326z" />
    <glyph glyph-name="amacron" unicode="&#x101;" horiz-adv-x="602" 
d="M361 337q0 31 -7 48t-21 23.5t-38 6.5q-32 0 -47.5 -13t-16.5 -31h-183q10 80 71.5 120.5t190.5 40.5q87 0 139.5 -22.5t77 -69.5t24.5 -123v-317h-176l-9 55h-2q-25 -32 -63 -50t-98 -18q-54 0 -94.5 19.5t-62.5 56.5t-22 88q0 83 67.5 125t193.5 42h76v19zM309 229
q-36 0 -59 -16t-23 -45q0 -30 17 -45.5t43 -15.5q35 0 54.5 22t19.5 62v38h-52zM477 692v-91h-327v91h327z" />
    <glyph glyph-name="Abreve" unicode="&#x102;" horiz-adv-x="709" 
d="M462 691l250 -691h-226l-25 94h-220l-27 -94h-218l254 691h212zM355 479l-70 -234h136l-64 234h-2zM274 852.5q15 -14.5 38 -22t48 -7.5q37 0 64.5 17.5t31.5 46.5h77q-2 -47 -25.5 -80.5t-63 -51t-88.5 -17.5q-82 0 -127.5 37.5t-48.5 111.5h77q2 -20 17 -34.5z" />
    <glyph glyph-name="abreve" unicode="&#x103;" horiz-adv-x="602" 
d="M361 337q0 31 -7 48t-21 23.5t-38 6.5q-32 0 -47.5 -13t-16.5 -31h-183q10 80 71.5 120.5t190.5 40.5q87 0 139.5 -22.5t77 -69.5t24.5 -123v-317h-176l-9 55h-2q-25 -32 -63 -50t-98 -18q-54 0 -94.5 19.5t-62.5 56.5t-22 88q0 83 67.5 125t193.5 42h76v19zM309 229
q-36 0 -59 -16t-23 -45q0 -30 17 -45.5t43 -15.5q35 0 54.5 22t19.5 62v38h-52zM236.5 675q29.5 -18 70.5 -18q37 0 65 18t32 48h77q-2 -48 -25.5 -82.5t-63.5 -52.5t-89 -18q-81 0 -128 39t-49 114h77q4 -30 33.5 -48z" />
    <glyph glyph-name="Aogonek" unicode="&#x104;" horiz-adv-x="709" 
d="M462 691l250 -691h-226l-25 94h-220l-27 -94h-218l254 691h212zM355 479l-70 -234h136l-64 234h-2zM530.5 -65.5q-21.5 -26.5 -27.5 -38.5t-6 -23q0 -14 8 -22t23 -8q22 0 52 30l63 -29q-30 -40 -63 -58.5t-79 -18.5q-49 0 -77 24.5t-28 64.5q0 31 20 62.5t68 81.5h100
q-32 -39 -53.5 -65.5z" />
    <glyph glyph-name="aogonek" unicode="&#x105;" horiz-adv-x="602" 
d="M473 0q-32 -39 -53.5 -65.5t-27.5 -38.5t-6 -23q0 -14 8 -22t23 -8q22 0 52 30l63 -29q-30 -40 -63 -58.5t-79 -18.5q-49 0 -77 24.5t-28 64.5q0 31 20 62.5t68 81.5h2l-9 55h-2q-25 -32 -63 -50t-98 -18q-54 0 -94.5 19.5t-62.5 56.5t-22 88q0 83 67.5 125t193.5 42h76
v19q0 31 -7 48t-21 23.5t-38 6.5q-32 0 -47.5 -13t-16.5 -31h-183q10 80 71.5 120.5t190.5 40.5q87 0 139.5 -22.5t77 -69.5t24.5 -123v-317h-78zM361 229h-52q-36 0 -59 -16t-23 -45q0 -30 17 -45.5t43 -15.5q35 0 54.5 22t19.5 62v38z" />
    <glyph glyph-name="Cacute" unicode="&#x106;" horiz-adv-x="743" 
d="M487 456q-7 38 -35 57t-65 19q-63 0 -96.5 -48t-33.5 -138q0 -87 33 -137t95 -50q42 0 69.5 22t33.5 66h219q-4 -74 -46.5 -134t-113.5 -94.5t-158 -34.5q-106 0 -185.5 46t-122 128t-42.5 188q0 108 44.5 190t124.5 126.5t184 44.5q136 0 215 -63t95 -188h-215zM622 885
l-167 -145h-135l96 145h206z" />
    <glyph glyph-name="cacute" unicode="&#x107;" horiz-adv-x="596" 
d="M543 721l-169 -149h-136l96 149h209zM379 339q-4 24 -21 36.5t-43 12.5q-39 0 -61.5 -28.5t-22.5 -94.5q0 -70 21.5 -102t61.5 -32q25 0 44 15t24 41h190q-10 -63 -46 -108t-93 -68.5t-128 -23.5q-78 0 -140 34.5t-97 96.5t-35 141q0 77 35.5 139.5t99 98t143.5 35.5
q71 0 126.5 -22t89.5 -65.5t40 -105.5h-188z" />
    <glyph glyph-name="Ccircumflex" unicode="&#x108;" horiz-adv-x="743" 
d="M487 456q-7 38 -35 57t-65 19q-63 0 -96.5 -48t-33.5 -138q0 -87 33 -137t95 -50q42 0 69.5 22t33.5 66h219q-4 -74 -46.5 -134t-113.5 -94.5t-158 -34.5q-106 0 -185.5 46t-122 128t-42.5 188q0 108 44.5 190t124.5 126.5t184 44.5q136 0 215 -63t95 -188h-215zM465 885
l119 -145h-145l-55 74l-53 -74h-145l117 145h162z" />
    <glyph glyph-name="ccircumflex" unicode="&#x109;" horiz-adv-x="596" 
d="M391 721l120 -149h-146l-55 76l-54 -76h-146l118 149h163zM379 339q-4 24 -21 36.5t-43 12.5q-39 0 -61.5 -28.5t-22.5 -94.5q0 -70 21.5 -102t61.5 -32q25 0 44 15t24 41h190q-10 -63 -46 -108t-93 -68.5t-128 -23.5q-78 0 -140 34.5t-97 96.5t-35 141q0 77 35.5 139.5
t99 98t143.5 35.5q71 0 126.5 -22t89.5 -65.5t40 -105.5h-188z" />
    <glyph glyph-name="Cdotaccent" unicode="&#x10a;" horiz-adv-x="743" 
d="M445.5 761.5q-22.5 -18.5 -62.5 -18.5t-62.5 18.5t-22.5 52.5q0 33 23 52t62 19q40 0 62.5 -18.5t22.5 -52.5t-22.5 -52.5zM487 456q-7 38 -35 57t-65 19q-63 0 -96.5 -48t-33.5 -138q0 -87 33 -137t95 -50q42 0 69.5 22t33.5 66h219q-4 -74 -46.5 -134t-113.5 -94.5
t-158 -34.5q-106 0 -185.5 46t-122 128t-42.5 188q0 108 44.5 190t124.5 126.5t184 44.5q136 0 215 -63t95 -188h-215z" />
    <glyph glyph-name="cdotaccent" unicode="&#x10b;" horiz-adv-x="596" 
d="M379 339q-4 24 -21 36.5t-43 12.5q-39 0 -61.5 -28.5t-22.5 -94.5q0 -70 21.5 -102t61.5 -32q25 0 44 15t24 41h190q-10 -63 -46 -108t-93 -68.5t-128 -23.5q-78 0 -140 34.5t-97 96.5t-35 141q0 77 35.5 139.5t99 98t143.5 35.5q71 0 126.5 -22t89.5 -65.5t40 -105.5
h-188zM376.5 594q-22.5 -20 -62.5 -20t-62.5 20t-22.5 57q0 36 23 56.5t62 20.5q40 0 62.5 -20t22.5 -57t-22.5 -57z" />
    <glyph glyph-name="Ccaron" unicode="&#x10c;" horiz-adv-x="743" 
d="M487 456q-7 38 -35 57t-65 19q-63 0 -96.5 -48t-33.5 -138q0 -87 33 -137t95 -50q42 0 69.5 22t33.5 66h219q-4 -74 -46.5 -134t-113.5 -94.5t-158 -34.5q-106 0 -185.5 46t-122 128t-42.5 188q0 108 44.5 190t124.5 126.5t184 44.5q136 0 215 -63t95 -188h-215zM330 885
l54 -73l54 73h146l-119 -145h-162l-117 145h144z" />
    <glyph glyph-name="ccaron" unicode="&#x10d;" horiz-adv-x="596" 
d="M257 721l54 -76l54 76h147l-120 -149h-162l-119 149h146zM379 339q-4 24 -21 36.5t-43 12.5q-39 0 -61.5 -28.5t-22.5 -94.5q0 -70 21.5 -102t61.5 -32q25 0 44 15t24 41h190q-10 -63 -46 -108t-93 -68.5t-128 -23.5q-78 0 -140 34.5t-97 96.5t-35 141q0 77 35.5 139.5
t99 98t143.5 35.5q71 0 126.5 -22t89.5 -65.5t40 -105.5h-188z" />
    <glyph glyph-name="Dcaron" unicode="&#x10e;" horiz-adv-x="763" 
d="M287 885l54 -73l54 73h146l-119 -145h-162l-117 145h144zM580 649q69 -42 105.5 -120t36.5 -183q0 -114 -41.5 -191t-119.5 -116t-189 -39h-314v691h357q96 0 165 -42zM466 225.5q38 44.5 38 124.5q0 48 -19 84.5t-55.5 56t-85.5 19.5h-68v-329h82q70 0 108 44.5z" />
    <glyph glyph-name="dcaron" unicode="&#x10f;" horiz-adv-x="638" 
d="M838 714l-93 -149h-120l37 149h176zM583 0h-191v57h-2q-26 -38 -61 -54t-85 -16q-67 0 -114.5 39t-72 102.5t-24.5 134.5q0 82 24.5 142.5t72 93.5t115.5 33q43 0 78.5 -18t59.5 -52h2v252h198v-714zM371 163.5q21 32.5 21 96.5t-21 96t-61 32q-37 0 -58 -32t-21 -96
t20.5 -96.5t59.5 -32.5t60 32.5z" />
    <glyph glyph-name="Dcroat" unicode="&#x110;" horiz-adv-x="763" 
d="M581.5 648q68.5 -43 104.5 -121t36 -182q0 -113 -41.5 -190t-120 -116t-188.5 -39h-314v299h-53v120h53v272h361q94 0 162.5 -43zM405 299h-129v-118h82q69 0 107.5 44.5t38.5 124.5q0 48 -19 84.5t-55 56t-86 19.5h-68v-91h129v-120z" />
    <glyph glyph-name="dcroat" unicode="&#x111;" horiz-adv-x="637" 
d="M583 652h73v-89h-73v-563h-191v57h-2q-26 -38 -61 -54t-85 -16q-66 0 -114 38.5t-72.5 102t-24.5 135.5q0 82 24.5 142.5t72 93.5t115.5 33q43 0 78.5 -18t59.5 -52h2v101h-144v89h144v62h198v-62zM371 163.5q21 32.5 21 96.5t-21 96t-61 32q-37 0 -58 -32t-21 -96
t20.5 -96.5t59.5 -32.5t60 32.5z" />
    <glyph glyph-name="Emacron" unicode="&#x112;" horiz-adv-x="693" 
d="M504 858v-90h-326v90h326zM634 691v-181h-358v-81h325v-168h-325v-80h369v-181h-587v691h576z" />
    <glyph glyph-name="emacron" unicode="&#x113;" horiz-adv-x="623" 
d="M592 215h-369q2 -49 27.5 -75t69.5 -26q30 0 51.5 9t29.5 28h180q-23 -78 -93.5 -121t-177.5 -43q-80 0 -142.5 31.5t-98 92.5t-35.5 147q0 75 34.5 137.5t97.5 99.5t145 37q140 0 210.5 -78t70.5 -237v-2zM393.5 362.5q-10.5 19.5 -30 31t-45.5 11.5q-40 0 -64.5 -22
t-30.5 -65h180q1 25 -9.5 44.5zM487 692v-91h-327v91h327z" />
    <glyph glyph-name="Ebreve" unicode="&#x114;" horiz-adv-x="693" 
d="M258 852.5q15 -14.5 38 -22t48 -7.5q37 0 64.5 17.5t31.5 46.5h77q-2 -47 -25.5 -80.5t-63 -51t-88.5 -17.5q-82 0 -127.5 37.5t-48.5 111.5h77q2 -20 17 -34.5zM634 691v-181h-358v-81h325v-168h-325v-80h369v-181h-587v691h576z" />
    <glyph glyph-name="ebreve" unicode="&#x115;" horiz-adv-x="623" 
d="M592 215h-369q2 -49 27.5 -75t69.5 -26q30 0 51.5 9t29.5 28h180q-23 -78 -93.5 -121t-177.5 -43q-80 0 -142.5 31.5t-98 92.5t-35.5 147q0 75 34.5 137.5t97.5 99.5t145 37q140 0 210.5 -78t70.5 -237v-2zM393.5 362.5q-10.5 19.5 -30 31t-45.5 11.5q-40 0 -64.5 -22
t-30.5 -65h180q1 25 -9.5 44.5zM251.5 675q29.5 -18 70.5 -18q37 0 65 18t32 48h77q-2 -48 -25.5 -82.5t-63.5 -52.5t-89 -18q-81 0 -128 39t-49 114h77q4 -30 33.5 -48z" />
    <glyph glyph-name="Edotaccent" unicode="&#x116;" horiz-adv-x="693" 
d="M412.5 761.5q-22.5 -18.5 -62.5 -18.5t-62.5 18.5t-22.5 52.5q0 33 23 52t62 19q40 0 62.5 -18.5t22.5 -52.5t-22.5 -52.5zM634 691v-181h-358v-81h325v-168h-325v-80h369v-181h-587v691h576z" />
    <glyph glyph-name="edotaccent" unicode="&#x117;" horiz-adv-x="623" 
d="M592 215h-369q2 -49 27.5 -75t69.5 -26q30 0 51.5 9t29.5 28h180q-23 -78 -93.5 -121t-177.5 -43q-80 0 -142.5 31.5t-98 92.5t-35.5 147q0 75 34.5 137.5t97.5 99.5t145 37q140 0 210.5 -78t70.5 -237v-2zM393.5 362.5q-10.5 19.5 -30 31t-45.5 11.5q-40 0 -64.5 -22
t-30.5 -65h180q1 25 -9.5 44.5zM383.5 594q-22.5 -20 -62.5 -20t-62.5 20t-22.5 57q0 36 23 56.5t62 20.5q40 0 62.5 -20t22.5 -57t-22.5 -57z" />
    <glyph glyph-name="Eogonek" unicode="&#x118;" horiz-adv-x="693" 
d="M634 691v-181h-358v-81h325v-168h-325v-80h369v-181h-587v691h576zM556.5 -65.5q-21.5 -26.5 -27.5 -38.5t-6 -23q0 -14 8 -22t23 -8q22 0 52 30l63 -29q-30 -40 -63 -58.5t-79 -18.5q-49 0 -77 24.5t-28 64.5q0 31 20 62.5t68 81.5h100q-32 -39 -53.5 -65.5z" />
    <glyph glyph-name="eogonek" unicode="&#x119;" horiz-adv-x="623" 
d="M592 215h-369q2 -49 27.5 -75t69.5 -26q30 0 51.5 9t29.5 28h180q-18 -62 -65.5 -102t-120.5 -54l-16 -20q-25 -30 -41 -50.5t-21 -31t-5 -20.5q0 -14 8 -22t23 -8q22 0 52 30l63 -29q-30 -40 -63 -58.5t-79 -18.5q-49 0 -77 24.5t-28 64.5q0 29 17.5 58.5t58.5 73.5
q-74 4 -131.5 36.5t-89.5 92t-32 141.5q0 75 34.5 137.5t97.5 99.5t145 37q140 0 210.5 -78t70.5 -237v-2zM393.5 362.5q-10.5 19.5 -30 31t-45.5 11.5q-40 0 -64.5 -22t-30.5 -65h180q1 25 -9.5 44.5z" />
    <glyph glyph-name="Ecaron" unicode="&#x11a;" horiz-adv-x="693" 
d="M288 885l54 -73l54 73h146l-119 -145h-162l-117 145h144zM634 691v-181h-358v-81h325v-168h-325v-80h369v-181h-587v691h576z" />
    <glyph glyph-name="ecaron" unicode="&#x11b;" horiz-adv-x="623" 
d="M261 721l54 -76l54 76h147l-120 -149h-162l-119 149h146zM592 215h-369q2 -49 27.5 -75t69.5 -26q30 0 51.5 9t29.5 28h180q-23 -78 -93.5 -121t-177.5 -43q-80 0 -142.5 31.5t-98 92.5t-35.5 147q0 75 34.5 137.5t97.5 99.5t145 37q140 0 210.5 -78t70.5 -237v-2z
M393.5 362.5q-10.5 19.5 -30 31t-45.5 11.5q-40 0 -64.5 -22t-30.5 -65h180q1 25 -9.5 44.5z" />
    <glyph glyph-name="Gcircumflex" unicode="&#x11c;" horiz-adv-x="749" 
d="M597 644q81 -63 103 -185h-209q-8 35 -33 54t-66 19q-75 0 -105 -49t-30 -133q0 -55 15 -98t45.5 -68t75.5 -25q46 0 76.5 19.5t34.5 55.5h-86v145h289v-64q0 -154 -79 -242.5t-246 -88.5q-109 0 -186 44.5t-117 125t-40 185.5q0 112 46 195.5t125 128t173 44.5
q133 0 214 -63zM465 885l119 -145h-145l-55 74l-53 -74h-145l117 145h162z" />
    <glyph glyph-name="gcircumflex" unicode="&#x11d;" horiz-adv-x="619" 
d="M399 721l120 -149h-146l-55 76l-54 -76h-146l118 149h163zM373 456v63h199v-477q0 -223 -274 -223q-121 0 -183 41.5t-72 122.5h196q8 -47 63 -47q36 0 53.5 19t17.5 67v81h-2q-15 -33 -50.5 -52.5t-88.5 -19.5q-64 0 -111 31t-72.5 88t-25.5 134q0 72 28 128.5t78.5 88
t114.5 31.5q45 0 79 -21t48 -55h2zM242 189.5q21 -31.5 62 -31.5q39 0 57 30.5t18 90.5q0 54 -21.5 81.5t-58.5 27.5t-57.5 -28.5t-20.5 -80.5q0 -58 21 -89.5z" />
    <glyph glyph-name="Gbreve" unicode="&#x11e;" horiz-adv-x="749" 
d="M300 852.5q15 -14.5 38 -22t48 -7.5q37 0 64.5 17.5t31.5 46.5h77q-2 -47 -25.5 -80.5t-63 -51t-88.5 -17.5q-82 0 -127.5 37.5t-48.5 111.5h77q2 -20 17 -34.5zM597 644q81 -63 103 -185h-209q-8 35 -33 54t-66 19q-75 0 -105 -49t-30 -133q0 -55 15 -98t45.5 -68
t75.5 -25q46 0 76.5 19.5t34.5 55.5h-86v145h289v-64q0 -154 -79 -242.5t-246 -88.5q-109 0 -186 44.5t-117 125t-40 185.5q0 112 46 195.5t125 128t173 44.5q133 0 214 -63z" />
    <glyph glyph-name="gbreve" unicode="&#x11f;" horiz-adv-x="619" 
d="M373 456v63h199v-477q0 -223 -274 -223q-121 0 -183 41.5t-72 122.5h196q8 -47 63 -47q36 0 53.5 19t17.5 67v81h-2q-15 -33 -50.5 -52.5t-88.5 -19.5q-64 0 -111 31t-72.5 88t-25.5 134q0 72 28 128.5t78.5 88t114.5 31.5q45 0 79 -21t48 -55h2zM242 189.5
q21 -31.5 62 -31.5q39 0 57 30.5t18 90.5q0 54 -21.5 81.5t-58.5 27.5t-57.5 -28.5t-20.5 -80.5q0 -58 21 -89.5zM257.5 675q29.5 -18 70.5 -18q37 0 65 18t32 48h77q-2 -48 -25.5 -82.5t-63.5 -52.5t-89 -18q-81 0 -128 39t-49 114h77q4 -30 33.5 -48z" />
    <glyph glyph-name="Gdotaccent" unicode="&#x120;" horiz-adv-x="749" 
d="M446.5 761.5q-22.5 -18.5 -62.5 -18.5t-62.5 18.5t-22.5 52.5q0 33 23 52t62 19q40 0 62.5 -18.5t22.5 -52.5t-22.5 -52.5zM597 644q81 -63 103 -185h-209q-8 35 -33 54t-66 19q-75 0 -105 -49t-30 -133q0 -55 15 -98t45.5 -68t75.5 -25q46 0 76.5 19.5t34.5 55.5h-86
v145h289v-64q0 -154 -79 -242.5t-246 -88.5q-109 0 -186 44.5t-117 125t-40 185.5q0 112 46 195.5t125 128t173 44.5q133 0 214 -63z" />
    <glyph glyph-name="gdotaccent" unicode="&#x121;" horiz-adv-x="619" 
d="M373 456v63h199v-477q0 -223 -274 -223q-121 0 -183 41.5t-72 122.5h196q8 -47 63 -47q36 0 53.5 19t17.5 67v81h-2q-15 -33 -50.5 -52.5t-88.5 -19.5q-64 0 -111 31t-72.5 88t-25.5 134q0 72 28 128.5t78.5 88t114.5 31.5q45 0 79 -21t48 -55h2zM242 189.5
q21 -31.5 62 -31.5q39 0 57 30.5t18 90.5q0 54 -21.5 81.5t-58.5 27.5t-57.5 -28.5t-20.5 -80.5q0 -58 21 -89.5zM389.5 594q-22.5 -20 -62.5 -20t-62.5 20t-22.5 57q0 36 23 56.5t62 20.5q40 0 62.5 -20t22.5 -57t-22.5 -57z" />
    <glyph glyph-name="Gcommaaccent" unicode="&#x122;" horiz-adv-x="749" 
d="M453 -69q0 -50 -17.5 -92.5t-53.5 -71.5h-119q18 29 29 72t11 87v24h150v-19zM597 644q81 -63 103 -185h-209q-8 35 -33 54t-66 19q-75 0 -105 -49t-30 -133q0 -55 15 -98t45.5 -68t75.5 -25q46 0 76.5 19.5t34.5 55.5h-86v145h289v-64q0 -154 -79 -242.5t-246 -88.5
q-109 0 -186 44.5t-117 125t-40 185.5q0 112 46 195.5t125 128t173 44.5q133 0 214 -63z" />
    <glyph glyph-name="gcommaaccent" unicode="&#x123;" horiz-adv-x="619" 
d="M240 628q0 50 17.5 92.5t53.5 71.5h119q-18 -29 -29 -72t-11 -87v-24h-150v19zM373 456v63h199v-477q0 -223 -274 -223q-121 0 -183 41.5t-72 122.5h196q8 -47 63 -47q36 0 53.5 19t17.5 67v81h-2q-15 -33 -50.5 -52.5t-88.5 -19.5q-64 0 -111 31t-72.5 88t-25.5 134
q0 72 28 128.5t78.5 88t114.5 31.5q45 0 79 -21t48 -55h2zM242 189.5q21 -31.5 62 -31.5q39 0 57 30.5t18 90.5q0 54 -21.5 81.5t-58.5 27.5t-57.5 -28.5t-20.5 -80.5q0 -58 21 -89.5z" />
    <glyph glyph-name="Hcircumflex" unicode="&#x124;" horiz-adv-x="743" 
d="M276 691v-238h192v238h218v-691h-218v272h-192v-272h-218v691h218zM451 885l119 -145h-145l-55 74l-53 -74h-145l117 145h162z" />
    <glyph glyph-name="hcircumflex" unicode="&#x125;" horiz-adv-x="640" 
d="M253 463h2q28 35 66.5 52t91.5 17q49 0 88.5 -22t61.5 -61t22 -89v-360h-198v287q0 45 -16.5 66t-49.5 21q-34 0 -51 -21t-17 -66v-287h-198v714h198v-251zM235 885l119 -145h-145l-55 74l-53 -74h-145l117 145h162z" />
    <glyph glyph-name="Hbar" unicode="&#x126;" horiz-adv-x="743" 
d="M276 691v-87h192v87h218v-691h-218v245h-192v-245h-218v691h218zM468 416v85h-192v-85h192z" />
    <glyph glyph-name="hbar" unicode="&#x127;" horiz-adv-x="639" 
d="M252 652h144v-89h-144v-100h2q28 35 67 52t91 17q50 0 89 -21.5t61 -61t22 -89.5v-360h-198v287q0 45 -16.5 66t-49.5 21q-34 0 -51 -21t-17 -66v-287h-198v563h-73v89h73v62h198v-62z" />
    <glyph glyph-name="Itilde" unicode="&#x128;" horiz-adv-x="333" 
d="M276 691v-691h-218v691h218zM235 842q19 0 29 10.5t14 31.5h80q-1 -43 -16 -74t-40 -47t-57 -16q-40 0 -85 18q-24 9 -38.5 13.5t-25.5 4.5q-13 0 -23.5 -10.5t-16.5 -30.5h-77q0 41 12.5 72.5t37 49t57.5 17.5q46 0 107 -26q29 -13 42 -13z" />
    <glyph glyph-name="itilde" unicode="&#x129;" horiz-adv-x="318" 
d="M258 519v-519h-198v519h198zM205 681.5q15 -5.5 21 -5.5q17 0 28 10t15 33h81q-1 -43 -15.5 -74.5t-40 -48t-58.5 -16.5q-41 0 -85 19q-45 18 -65 18q-13 0 -23.5 -10.5t-15.5 -32.5h-79q1 64 29 103t80 39q44 0 92 -20q21 -9 36 -14.5z" />
    <glyph glyph-name="Imacron" unicode="&#x12a;" horiz-adv-x="333" 
d="M276 691v-691h-218v691h218zM332 858v-90h-326v90h326z" />
    <glyph glyph-name="imacron" unicode="&#x12b;" horiz-adv-x="318" 
d="M258 519v-519h-198v519h198zM322 692v-91h-327v91h327z" />
    <glyph glyph-name="Ibreve" unicode="&#x12c;" horiz-adv-x="333" 
d="M276 691v-691h-218v691h218zM87 852.5q15 -14.5 38 -22t48 -7.5q37 0 64.5 17.5t31.5 46.5h77q-2 -47 -25.5 -80.5t-63 -51t-88.5 -17.5q-82 0 -127.5 37.5t-48.5 111.5h77q2 -20 17 -34.5z" />
    <glyph glyph-name="ibreve" unicode="&#x12d;" horiz-adv-x="318" 
d="M93.5 675q29.5 -18 70.5 -18q37 0 65 18t32 48h77q-2 -48 -25.5 -82.5t-63.5 -52.5t-89 -18q-81 0 -128 39t-49 114h77q4 -30 33.5 -48zM258 519v-519h-198v519h198z" />
    <glyph glyph-name="Iogonek" unicode="&#x12e;" horiz-adv-x="333" 
d="M276 691v-691h-218v691h218zM200.5 -65.5q-21.5 -26.5 -27.5 -38.5t-6 -23q0 -14 8 -22t23 -8q22 0 52 30l63 -29q-30 -40 -63 -58.5t-79 -18.5q-49 0 -77 24.5t-28 64.5q0 31 20 62.5t68 81.5h100q-32 -39 -53.5 -65.5z" />
    <glyph glyph-name="iogonek" unicode="&#x12f;" horiz-adv-x="318" 
d="M250.5 631.5q-13.5 -21.5 -37.5 -34t-54 -12.5t-54 12.5t-37.5 34t-13.5 48.5t13.5 48.5t37.5 34t54 12.5t54 -12.5t37.5 -34t13.5 -48.5t-13.5 -48.5zM258 519v-519h-198v519h198zM190.5 -65.5q-21.5 -26.5 -27.5 -38.5t-6 -23q0 -14 8 -22t23 -8q22 0 52 30l63 -29
q-30 -40 -63 -58.5t-79 -18.5q-49 0 -77 24.5t-28 64.5q0 31 20 62.5t68 81.5h100q-32 -39 -53.5 -65.5z" />
    <glyph glyph-name="Idotaccent" unicode="&#x130;" horiz-adv-x="333" 
d="M276 691v-691h-218v691h218zM231.5 761.5q-22.5 -18.5 -62.5 -18.5t-62.5 18.5t-22.5 52.5q0 33 23 52t62 19q40 0 62.5 -18.5t22.5 -52.5t-22.5 -52.5z" />
    <glyph glyph-name="dotlessi" unicode="&#x131;" horiz-adv-x="318" 
d="M258 519v-519h-198v519h198z" />
    <glyph glyph-name="IJ" unicode="&#x132;" horiz-adv-x="919" 
d="M276 691v-691h-218v691h218zM861 245q0 -131 -64 -196t-204 -65q-126 0 -188.5 64.5t-62.5 182.5v6h196q0 -47 12.5 -66.5t41.5 -19.5q26 0 38.5 20t12.5 66v454h218v-446z" />
    <glyph glyph-name="ij" unicode="&#x133;" horiz-adv-x="624" 
d="M250.5 631.5q-13.5 -21.5 -37.5 -34t-54 -12.5t-54 12.5t-37.5 34t-13.5 48.5t13.5 48.5t37.5 34t54 12.5t54 -12.5t37.5 -34t13.5 -48.5t-13.5 -48.5zM258 519v-519h-198v519h198zM557.5 631.5q-13.5 -21.5 -37.5 -34t-54 -12.5t-54 12.5t-37.5 34t-13.5 48.5t13.5 48.5
t37.5 34t54 12.5t54 -12.5t37.5 -34t13.5 -48.5t-13.5 -48.5zM565 39q0 -116 -73 -167.5t-210 -51.5v161q41 0 63 17.5t22 62.5v458h198v-480z" />
    <glyph glyph-name="Jcircumflex" unicode="&#x134;" horiz-adv-x="603" 
d="M546 245q0 -131 -64 -196t-204 -65q-126 0 -188.5 64.5t-62.5 182.5v6h196q0 -47 12.5 -66.5t41.5 -19.5q26 0 38.5 20t12.5 66v454h218v-446zM512 885l119 -145h-145l-55 74l-53 -74h-145l117 145h162z" />
    <glyph glyph-name="jcircumflex" unicode="&#x135;" horiz-adv-x="315" 
d="M256 39q0 -116 -73 -167.5t-210 -51.5v161q41 0 63 17.5t22 62.5v458h198v-480zM236 721l120 -149h-146l-55 76l-54 -76h-146l118 149h163z" />
    <glyph glyph-name="Kcommaaccent" unicode="&#x136;" horiz-adv-x="734" 
d="M450 -69q0 -50 -17.5 -92.5t-53.5 -71.5h-119q18 29 29 72t11 87v24h150v-19zM282 477h2l156 214h269l-267 -300q49 -8 84.5 -38t82 -108.5t128.5 -244.5h-270q-44 104 -71.5 156t-48.5 71.5t-48 22.5l-17 2v-252h-218v691h218v-214z" />
    <glyph glyph-name="kcommaaccent" unicode="&#x137;" horiz-adv-x="614" 
d="M396 -69q0 -50 -17.5 -92.5t-53.5 -71.5h-119q18 29 29 72t11 87v24h150v-19zM256 370h2l133 149h223l-217 -220q27 -6 53 -31.5t65.5 -87t104.5 -180.5h-232q-36 79 -52.5 111.5t-30.5 47.5t-34 18l-15 2v-179h-198v714h198v-344z" />
    <glyph glyph-name="kgreenlandic" unicode="&#x138;" horiz-adv-x="614" 
d="M256 364h2l133 155h223l-216 -226q25 -5 51 -30t66.5 -86.5t104.5 -176.5h-232q-35 78 -51.5 110t-32.5 47t-37 15h-11v-172h-198v519h198v-155z" />
    <glyph glyph-name="Lacute" unicode="&#x139;" horiz-adv-x="620" 
d="M396 885l-167 -145h-135l96 145h206zM276 691v-510h302v-181h-520v691h218z" />
    <glyph glyph-name="lacute" unicode="&#x13a;" horiz-adv-x="318" 
d="M365 885l-167 -145h-135l96 145h206zM258 714v-714h-198v714h198z" />
    <glyph glyph-name="Lcommaaccent" unicode="&#x13b;" horiz-adv-x="620" 
d="M386 -69q0 -50 -17.5 -92.5t-53.5 -71.5h-119q18 29 29 72t11 87v24h150v-19zM276 691v-510h302v-181h-520v691h218z" />
    <glyph glyph-name="lcommaaccent" unicode="&#x13c;" horiz-adv-x="318" 
d="M233 -69q0 -50 -17.5 -92.5t-53.5 -71.5h-119q18 29 29 72t11 87v24h150v-19zM258 714v-714h-198v714h198z" />
    <glyph glyph-name="Lcaron" unicode="&#x13d;" horiz-adv-x="620" 
d="M529 714l-93 -149h-120l37 149h176zM276 691v-510h302v-181h-520v691h218z" />
    <glyph glyph-name="lcaron" unicode="&#x13e;" horiz-adv-x="318" 
d="M512 714l-93 -149h-120l37 149h176zM258 714v-714h-198v714h198z" />
    <glyph glyph-name="Ldot" unicode="&#x13f;" horiz-adv-x="620" 
d="M276 691v-510h302v-181h-520v691h218zM499.5 356q-22.5 -20 -62.5 -20t-62.5 20t-22.5 57q0 36 23 56.5t62 20.5q40 0 62.5 -20t22.5 -57t-22.5 -57z" />
    <glyph glyph-name="ldot" unicode="&#x140;" horiz-adv-x="477" 
d="M258 714v-714h-198v714h198zM454.5 347q-22.5 -20 -62.5 -20t-62.5 20t-22.5 57q0 36 23 56.5t62 20.5q40 0 62.5 -20t22.5 -57t-22.5 -57z" />
    <glyph glyph-name="Lslash" unicode="&#x141;" horiz-adv-x="620" 
d="M276 691v-221l174 120v-127l-174 -120v-162h302v-181h-520v194l-79 -56v127l79 56v370h218z" />
    <glyph glyph-name="lslash" unicode="&#x142;" horiz-adv-x="318" 
d="M257 714v-194l58 46v-102l-58 -46v-418h-198v265l-57 -46v102l57 46v347h198z" />
    <glyph glyph-name="Nacute" unicode="&#x143;" horiz-adv-x="743" 
d="M593 885l-167 -145h-135l96 145h206zM282 691l193 -361h2v361h207v-691h-212l-205 371h-2v-371h-206v691h223z" />
    <glyph glyph-name="nacute" unicode="&#x144;" horiz-adv-x="640" 
d="M543 721l-169 -149h-136l96 149h209zM585 0h-198v287q0 45 -16.5 66t-49.5 21q-34 0 -51 -21t-17 -66v-287h-198v519h192v-66h1q28 40 68.5 59.5t96.5 19.5q49 0 88.5 -22t61.5 -61t22 -89v-360z" />
    <glyph glyph-name="Ncommaaccent" unicode="&#x145;" horiz-adv-x="743" 
d="M444 -69q0 -50 -17.5 -92.5t-53.5 -71.5h-119q18 29 29 72t11 87v24h150v-19zM282 691l193 -361h2v361h207v-691h-212l-205 371h-2v-371h-206v691h223z" />
    <glyph glyph-name="ncommaaccent" unicode="&#x146;" horiz-adv-x="640" 
d="M398 -69q0 -50 -17.5 -92.5t-53.5 -71.5h-119q18 29 29 72t11 87v24h150v-19zM585 0h-198v287q0 45 -16.5 66t-49.5 21q-34 0 -51 -21t-17 -66v-287h-198v519h192v-66h1q28 40 68.5 59.5t96.5 19.5q49 0 88.5 -22t61.5 -61t22 -89v-360z" />
    <glyph glyph-name="Ncaron" unicode="&#x147;" horiz-adv-x="743" 
d="M315 885l54 -73l54 73h146l-119 -145h-162l-117 145h144zM282 691l193 -361h2v361h207v-691h-212l-205 371h-2v-371h-206v691h223z" />
    <glyph glyph-name="ncaron" unicode="&#x148;" horiz-adv-x="640" 
d="M261 721l54 -76l54 76h147l-120 -149h-162l-119 149h146zM585 0h-198v287q0 45 -16.5 66t-49.5 21q-34 0 -51 -21t-17 -66v-287h-198v519h192v-66h1q28 40 68.5 59.5t96.5 19.5q49 0 88.5 -22t61.5 -61t22 -89v-360z" />
    <glyph glyph-name="napostrophe" unicode="&#x149;" horiz-adv-x="821" 
d="M210 677q0 -93 -31.5 -174.5t-91.5 -144.5h-117q35 57 56.5 140t21.5 170q0 20 -2 46h164v-37zM766 0h-198v287q0 45 -16.5 66t-49.5 21q-34 0 -51 -21t-17 -66v-287h-198v519h192v-66h1q28 40 68.5 59.5t96.5 19.5q49 0 88.5 -22t61.5 -61t22 -89v-360z" />
    <glyph glyph-name="Eng" unicode="&#x14a;" horiz-adv-x="743" 
d="M684 691v-652q0 -116 -76 -167.5t-218 -51.5v161q35 0 58 7t35 24l-216 359h-2v-371h-206v691h223l193 -352h2v352h207z" />
    <glyph glyph-name="eng" unicode="&#x14b;" horiz-adv-x="640" 
d="M247 453h1q28 40 68.5 59.5t96.5 19.5q49 0 88.5 -22t61.5 -61t22 -89v-321q0 -116 -73 -167.5t-210 -51.5v161q41 0 63 17.5t22 62.5v226q0 45 -16.5 66t-49.5 21q-34 0 -51 -21t-17 -66v-287h-198v519h192v-66z" />
    <glyph glyph-name="Omacron" unicode="&#x14c;" horiz-adv-x="778" 
d="M552 858v-90h-326v90h326zM695.5 158.5q-44.5 -82.5 -124.5 -128.5t-182 -46q-103 0 -182.5 46t-123.5 128.5t-44 187.5t44 187t123.5 128t182.5 46q104 0 184 -46t123.5 -128.5t43.5 -186.5q0 -105 -44.5 -187.5zM458 180q30 21 47 63.5t17 102.5q0 61 -17.5 103
t-48 62.5t-68.5 20.5q-37 0 -66.5 -20.5t-47 -62.5t-17.5 -103q0 -60 17 -102.5t46.5 -63.5t68.5 -21t69 21z" />
    <glyph glyph-name="omacron" unicode="&#x14d;" horiz-adv-x="619" 
d="M474 692v-91h-327v91h327zM553 117.5q-33 -61.5 -95 -96t-148 -34.5t-148.5 34.5t-95.5 96t-33 142.5t33 142.5t95.5 95.5t148.5 34t148 -34.5t95 -96t33 -141.5q0 -81 -33 -142.5zM368.5 162q19.5 31 19.5 98t-20 97.5t-59 30.5q-38 0 -58 -30t-20 -98q0 -66 20 -97.5
t59 -31.5t58.5 31z" />
    <glyph glyph-name="Obreve" unicode="&#x14e;" horiz-adv-x="778" 
d="M307 852.5q15 -14.5 38 -22t48 -7.5q37 0 64.5 17.5t31.5 46.5h77q-2 -47 -25.5 -80.5t-63 -51t-88.5 -17.5q-82 0 -127.5 37.5t-48.5 111.5h77q2 -20 17 -34.5zM695.5 158.5q-44.5 -82.5 -124.5 -128.5t-182 -46q-103 0 -182.5 46t-123.5 128.5t-44 187.5t44 187
t123.5 128t182.5 46q104 0 184 -46t123.5 -128.5t43.5 -186.5q0 -105 -44.5 -187.5zM458 180q30 21 47 63.5t17 102.5q0 61 -17.5 103t-48 62.5t-68.5 20.5q-37 0 -66.5 -20.5t-47 -62.5t-17.5 -103q0 -60 17 -102.5t46.5 -63.5t68.5 -21t69 21z" />
    <glyph glyph-name="obreve" unicode="&#x14f;" horiz-adv-x="619" 
d="M553 117.5q-33 -61.5 -95 -96t-148 -34.5t-148.5 34.5t-95.5 96t-33 142.5t33 142.5t95.5 95.5t148.5 34t148 -34.5t95 -96t33 -141.5q0 -81 -33 -142.5zM368.5 162q19.5 31 19.5 98t-20 97.5t-59 30.5q-38 0 -58 -30t-20 -98q0 -66 20 -97.5t59 -31.5t58.5 31z
M243.5 675q29.5 -18 70.5 -18q37 0 65 18t32 48h77q-2 -48 -25.5 -82.5t-63.5 -52.5t-89 -18q-81 0 -128 39t-49 114h77q4 -30 33.5 -48z" />
    <glyph glyph-name="Ohungarumlaut" unicode="&#x150;" horiz-adv-x="778" 
d="M695.5 158.5q-44.5 -82.5 -124.5 -128.5t-182 -46q-103 0 -182.5 46t-123.5 128.5t-44 187.5t44 187t123.5 128t182.5 46q104 0 184 -46t123.5 -128.5t43.5 -186.5q0 -105 -44.5 -187.5zM458 180q30 21 47 63.5t17 102.5q0 61 -17.5 103t-48 62.5t-68.5 20.5
q-37 0 -66.5 -20.5t-47 -62.5t-17.5 -103q0 -60 17 -102.5t46.5 -63.5t68.5 -21t69 21zM478 885l-154 -145h-107l96 145h165zM697 885l-154 -145h-107l96 145h165z" />
    <glyph glyph-name="ohungarumlaut" unicode="&#x151;" horiz-adv-x="619" 
d="M401 721l-155 -149h-107l97 149h165zM621 721l-154 -149h-108l97 149h165zM553 117.5q-33 -61.5 -95 -96t-148 -34.5t-148.5 34.5t-95.5 96t-33 142.5t33 142.5t95.5 95.5t148.5 34t148 -34.5t95 -96t33 -141.5q0 -81 -33 -142.5zM368.5 162q19.5 31 19.5 98t-20 97.5
t-59 30.5q-38 0 -58 -30t-20 -98q0 -66 20 -97.5t59 -31.5t58.5 31z" />
    <glyph glyph-name="OE" unicode="&#x152;" horiz-adv-x="1103" 
d="M1055 181v-181h-535v32h-2q-19 -22 -65 -35t-91 -13q-92 0 -165.5 47t-115.5 127.5t-42 179.5q0 98 40.5 182.5t116 135.5t176.5 51q94 0 146 -52h2v36h525v-181h-326v-81h298v-168h-298v-80h336zM505 256q13 40 14 94q-1 50 -13 87t-34 59q-34 36 -86 36q-38 0 -67 -20
t-45.5 -60.5t-16.5 -100.5q0 -62 16.5 -105.5t45.5 -65t68 -21.5q48 0 82 34q23 23 36 63z" />
    <glyph glyph-name="oe" unicode="&#x153;" horiz-adv-x="957" 
d="M479 465q32 32 79 49.5t104 17.5q127 0 195.5 -79t68.5 -236v-2h-363q2 -49 27 -75t67 -26q30 0 51.5 9t29.5 28h180q-23 -78 -93.5 -121t-177.5 -43q-52 0 -96 16t-76 47h-2q-33 -31 -73.5 -47t-92.5 -16q-85 0 -147 34.5t-94.5 96t-32.5 142.5t32.5 142.5t94.5 95.5
t147 34q54 0 95.5 -17t74.5 -50h2zM727.5 362q-9.5 20 -28.5 31.5t-44 11.5q-38 0 -62 -22t-30 -65h174q0 24 -9.5 44zM363 162q19 31 19 98t-19 97.5t-57 30.5q-36 0 -55.5 -30t-19.5 -98q0 -66 19 -97.5t57 -31.5q37 0 56 31z" />
    <glyph glyph-name="Racute" unicode="&#x154;" horiz-adv-x="725" 
d="M581.5 668q51.5 -23 81.5 -68t30 -107q0 -46 -15.5 -84t-41.5 -62.5t-55 -32.5v-2q41 -12 61.5 -37.5t34 -83t33.5 -191.5h-210q-11 82 -20 126t-16.5 62t-17.5 28q-23 23 -70 23h-100v-239h-218v691h409q63 0 114.5 -23zM452.5 397q22.5 22 22.5 59t-26.5 56.5
t-74.5 19.5h-98v-157h110q44 0 66.5 22zM565 885l-167 -145h-135l96 145h206z" />
    <glyph glyph-name="racute" unicode="&#x155;" horiz-adv-x="442" 
d="M454 721l-169 -149h-136l96 149h209zM446 354q-10 4 -21 6t-29 2q-74 0 -108.5 -38.5t-34.5 -116.5v-207h-198v519h190v-83h2q19 49 58.5 72.5t90.5 23.5q31 0 50 -7v-171z" />
    <glyph glyph-name="Rcommaaccent" unicode="&#x156;" horiz-adv-x="725" 
d="M462 -69q0 -50 -17.5 -92.5t-53.5 -71.5h-119q18 29 29 72t11 87v24h150v-19zM581.5 668q51.5 -23 81.5 -68t30 -107q0 -46 -15.5 -84t-41.5 -62.5t-55 -32.5v-2q41 -12 61.5 -37.5t34 -83t33.5 -191.5h-210q-11 82 -20 126t-16.5 62t-17.5 28q-23 23 -70 23h-100v-239
h-218v691h409q63 0 114.5 -23zM452.5 397q22.5 22 22.5 59t-26.5 56.5t-74.5 19.5h-98v-157h110q44 0 66.5 22z" />
    <glyph glyph-name="rcommaaccent" unicode="&#x157;" horiz-adv-x="442" 
d="M229 -69q0 -50 -17.5 -92.5t-53.5 -71.5h-119q18 29 29 72t11 87v24h150v-19zM446 354q-10 4 -21 6t-29 2q-74 0 -108.5 -38.5t-34.5 -116.5v-207h-198v519h190v-83h2q19 49 58.5 72.5t90.5 23.5q31 0 50 -7v-171z" />
    <glyph glyph-name="Rcaron" unicode="&#x158;" horiz-adv-x="725" 
d="M295 885l54 -73l54 73h146l-119 -145h-162l-117 145h144zM581.5 668q51.5 -23 81.5 -68t30 -107q0 -46 -15.5 -84t-41.5 -62.5t-55 -32.5v-2q41 -12 61.5 -37.5t34 -83t33.5 -191.5h-210q-11 82 -20 126t-16.5 62t-17.5 28q-23 23 -70 23h-100v-239h-218v691h409
q63 0 114.5 -23zM452.5 397q22.5 22 22.5 59t-26.5 56.5t-74.5 19.5h-98v-157h110q44 0 66.5 22z" />
    <glyph glyph-name="rcaron" unicode="&#x159;" horiz-adv-x="442" 
d="M193 721l54 -76l54 76h147l-120 -149h-162l-119 149h146zM446 354q-10 4 -21 6t-29 2q-74 0 -108.5 -38.5t-34.5 -116.5v-207h-198v519h190v-83h2q19 49 58.5 72.5t90.5 23.5q31 0 50 -7v-171z" />
    <glyph glyph-name="Sacute" unicode="&#x15a;" horiz-adv-x="654" 
d="M407 500q-1 24 -24.5 38t-58.5 14t-55.5 -11.5t-20.5 -32.5q0 -18 21.5 -34t75.5 -29l53 -13q92 -23 144.5 -52t75 -67.5t22.5 -90.5q0 -77 -40 -130.5t-112.5 -80.5t-167.5 -27q-83 0 -153 28t-111 78t-41 115v4h219v-2q0 -18 11 -33.5t33.5 -25t53.5 -9.5q42 0 66 14
t24 40q0 17 -10.5 28.5t-32 21t-60.5 20.5l-93 27q-93 27 -138.5 75t-45.5 121q0 71 37 121t102 75t148 25q135 0 206.5 -54t76.5 -153h-205zM553 885l-167 -145h-135l96 145h206z" />
    <glyph glyph-name="sacute" unicode="&#x15b;" horiz-adv-x="567" 
d="M510 721l-169 -149h-136l96 149h209zM345 377q-1 20 -19 32.5t-43 12.5q-55 0 -55 -38q0 -14 9.5 -24t27.5 -14l87 -17q98 -19 142.5 -57t44.5 -103q0 -90 -67 -136t-188 -46q-72 0 -129.5 19t-91.5 57.5t-35 94.5h189q5 -49 69 -49q63 0 63 38q0 21 -19 31.5t-63 19.5
l-69 14q-82 16 -121 54.5t-39 99.5q0 59 35.5 96t90 53.5t114.5 16.5q115 0 179.5 -39t66.5 -116h-179z" />
    <glyph glyph-name="Scircumflex" unicode="&#x15c;" horiz-adv-x="654" 
d="M407 500q-1 24 -24.5 38t-58.5 14t-55.5 -11.5t-20.5 -32.5q0 -18 21.5 -34t75.5 -29l53 -13q92 -23 144.5 -52t75 -67.5t22.5 -90.5q0 -77 -40 -130.5t-112.5 -80.5t-167.5 -27q-83 0 -153 28t-111 78t-41 115v4h219v-2q0 -18 11 -33.5t33.5 -25t53.5 -9.5q42 0 66 14
t24 40q0 17 -10.5 28.5t-32 21t-60.5 20.5l-93 27q-93 27 -138.5 75t-45.5 121q0 71 37 121t102 75t148 25q135 0 206.5 -54t76.5 -153h-205zM411 885l119 -145h-145l-55 74l-53 -74h-145l117 145h162z" />
    <glyph glyph-name="scircumflex" unicode="&#x15d;" horiz-adv-x="567" 
d="M369 721l120 -149h-146l-55 76l-54 -76h-146l118 149h163zM345 377q-1 20 -19 32.5t-43 12.5q-55 0 -55 -38q0 -14 9.5 -24t27.5 -14l87 -17q98 -19 142.5 -57t44.5 -103q0 -90 -67 -136t-188 -46q-72 0 -129.5 19t-91.5 57.5t-35 94.5h189q5 -49 69 -49q63 0 63 38
q0 21 -19 31.5t-63 19.5l-69 14q-82 16 -121 54.5t-39 99.5q0 59 35.5 96t90 53.5t114.5 16.5q115 0 179.5 -39t66.5 -116h-179z" />
    <glyph glyph-name="Scedilla" unicode="&#x15e;" horiz-adv-x="654" 
d="M606 100q-34 -51 -95.5 -79.5t-144.5 -34.5l-27 -46l1 -1q8 2 20 2q42 0 66.5 -21.5t24.5 -59.5q0 -44 -36.5 -68.5t-102.5 -24.5q-34 0 -63.5 7t-61.5 22l20 46q44 -20 83 -20q24 0 38.5 9.5t14.5 29.5q0 33 -45 33q-22 0 -42 -10l-30 24l48 78q-73 8 -132 37t-93 76.5
t-34 105.5v4h219v-2q0 -18 11 -33.5t33.5 -25t53.5 -9.5q42 0 66 14t24 40q0 17 -10.5 28.5t-32 21t-60.5 20.5l-93 27q-93 27 -138.5 75t-45.5 121q0 71 37 121t102 75t148 25q135 0 206.5 -54t76.5 -153h-205q-1 24 -24.5 38t-58.5 14t-55.5 -11.5t-20.5 -32.5
q0 -18 21.5 -34t75.5 -29l53 -13q92 -23 144.5 -52t75 -67.5t22.5 -90.5q0 -71 -34 -122z" />
    <glyph glyph-name="scedilla" unicode="&#x15f;" horiz-adv-x="567" 
d="M483.5 42q-55.5 -45 -156.5 -53l-29 -49l1 -1q8 2 20 2q42 0 66.5 -21.5t24.5 -59.5q0 -44 -36.5 -68.5t-102.5 -24.5q-34 0 -63.5 7t-61.5 22l20 46q44 -20 83 -20q24 0 38.5 9.5t14.5 29.5q0 33 -45 33q-22 0 -42 -10l-30 24l50 81q-92 9 -148.5 52t-58.5 117h189
q5 -49 69 -49q63 0 63 38q0 21 -19 31.5t-63 19.5l-69 14q-82 16 -121 54.5t-39 99.5q0 59 35.5 96t90 53.5t114.5 16.5q115 0 179.5 -39t66.5 -116h-179q-1 20 -19 32.5t-43 12.5q-55 0 -55 -38q0 -14 9.5 -24t27.5 -14l87 -17q98 -19 142.5 -57t44.5 -103
q0 -82 -55.5 -127z" />
    <glyph glyph-name="Scaron" unicode="&#x160;" horiz-adv-x="654" 
d="M407 500q-1 24 -24.5 38t-58.5 14t-55.5 -11.5t-20.5 -32.5q0 -18 21.5 -34t75.5 -29l53 -13q92 -23 144.5 -52t75 -67.5t22.5 -90.5q0 -77 -40 -130.5t-112.5 -80.5t-167.5 -27q-83 0 -153 28t-111 78t-41 115v4h219v-2q0 -18 11 -33.5t33.5 -25t53.5 -9.5q42 0 66 14
t24 40q0 17 -10.5 28.5t-32 21t-60.5 20.5l-93 27q-93 27 -138.5 75t-45.5 121q0 71 37 121t102 75t148 25q135 0 206.5 -54t76.5 -153h-205zM276 885l54 -73l54 73h146l-119 -145h-162l-117 145h144z" />
    <glyph glyph-name="scaron" unicode="&#x161;" horiz-adv-x="567" 
d="M233 721l54 -76l54 76h147l-120 -149h-162l-119 149h146zM345 377q-1 20 -19 32.5t-43 12.5q-55 0 -55 -38q0 -14 9.5 -24t27.5 -14l87 -17q98 -19 142.5 -57t44.5 -103q0 -90 -67 -136t-188 -46q-72 0 -129.5 19t-91.5 57.5t-35 94.5h189q5 -49 69 -49q63 0 63 38
q0 21 -19 31.5t-63 19.5l-69 14q-82 16 -121 54.5t-39 99.5q0 59 35.5 96t90 53.5t114.5 16.5q115 0 179.5 -39t66.5 -116h-179z" />
    <glyph glyph-name="uni0162" unicode="&#x162;" horiz-adv-x="658" 
d="M403 -69q0 -50 -17.5 -92.5t-53.5 -71.5h-119q18 29 29 72t11 87v24h150v-19zM630 691v-181h-192v-510h-218v510h-192v181h602z" />
    <glyph glyph-name="uni0163" unicode="&#x163;" horiz-adv-x="407" 
d="M319 -69q0 -50 -17.5 -92.5t-53.5 -71.5h-119q18 29 29 72t11 87v24h150v-19zM292 519h103v-122h-103v-172q0 -39 14.5 -58.5t49.5 -19.5q21 0 39 4v-148q-36 -12 -92 -12q-96 0 -152.5 49.5t-56.5 155.5v201h-85v122h85v158h198v-158z" />
    <glyph glyph-name="Tcaron" unicode="&#x164;" horiz-adv-x="658" 
d="M278 885l54 -73l54 73h146l-119 -145h-162l-117 145h144zM630 691v-181h-192v-510h-218v510h-192v181h602z" />
    <glyph glyph-name="tcaron" unicode="&#x165;" horiz-adv-x="407" 
d="M558 714l-93 -149h-120l37 149h176zM292 519h103v-122h-103v-172q0 -39 14.5 -58.5t49.5 -19.5q21 0 39 4v-148q-36 -12 -92 -12q-96 0 -152.5 49.5t-56.5 155.5v201h-85v122h85v158h198v-158z" />
    <glyph glyph-name="Tbar" unicode="&#x166;" horiz-adv-x="658" 
d="M630 691v-181h-192v-92h129v-120h-129v-298h-218v298h-129v120h129v92h-192v181h602z" />
    <glyph glyph-name="tbar" unicode="&#x167;" horiz-adv-x="407" 
d="M292 519h103v-122h-103v-63h90v-89h-90v-20q0 -39 14.5 -58.5t49.5 -19.5q21 0 39 4v-148q-36 -12 -92 -12q-96 0 -152.5 49.5t-56.5 155.5v49h-77v89h77v63h-85v122h85v158h198v-158z" />
    <glyph glyph-name="Utilde" unicode="&#x168;" horiz-adv-x="743" 
d="M439 842q19 0 29 10.5t14 31.5h80q-1 -43 -16 -74t-40 -47t-57 -16q-40 0 -85 18q-24 9 -38.5 13.5t-25.5 4.5q-13 0 -23.5 -10.5t-16.5 -30.5h-77q0 41 12.5 72.5t37 49t57.5 17.5q46 0 107 -26q29 -13 42 -13zM273 310q0 -48 6.5 -79.5t28 -51.5t65.5 -20q51 0 74 33
t23 100v399h218v-428q0 -140 -77.5 -209.5t-238.5 -69.5q-163 0 -240 70.5t-77 209.5v427h218v-381z" />
    <glyph glyph-name="utilde" unicode="&#x169;" horiz-adv-x="640" 
d="M253 232q0 -45 16.5 -66t49.5 -21q34 0 51 21t17 66v287h198v-519h-191v66h-2q-28 -40 -68 -59.5t-97 -19.5q-48 0 -87.5 21.5t-62 61t-22.5 90.5v359h198v-287zM371 681.5q15 -5.5 21 -5.5q17 0 28 10t15 33h81q-1 -43 -15.5 -74.5t-40 -48t-58.5 -16.5q-41 0 -85 19
q-45 18 -65 18q-13 0 -23.5 -10.5t-15.5 -32.5h-79q1 64 29 103t80 39q44 0 92 -20q21 -9 36 -14.5z" />
    <glyph glyph-name="Umacron" unicode="&#x16a;" horiz-adv-x="743" 
d="M535 858v-90h-326v90h326zM273 310q0 -48 6.5 -79.5t28 -51.5t65.5 -20q51 0 74 33t23 100v399h218v-428q0 -140 -77.5 -209.5t-238.5 -69.5q-163 0 -240 70.5t-77 209.5v427h218v-381z" />
    <glyph glyph-name="umacron" unicode="&#x16b;" horiz-adv-x="640" 
d="M253 232q0 -45 16.5 -66t49.5 -21q34 0 51 21t17 66v287h198v-519h-191v66h-2q-28 -40 -68 -59.5t-97 -19.5q-48 0 -87.5 21.5t-62 61t-22.5 90.5v359h198v-287zM488 692v-91h-327v91h327z" />
    <glyph glyph-name="Ubreve" unicode="&#x16c;" horiz-adv-x="743" 
d="M290 852.5q15 -14.5 38 -22t48 -7.5q37 0 64.5 17.5t31.5 46.5h77q-2 -47 -25.5 -80.5t-63 -51t-88.5 -17.5q-82 0 -127.5 37.5t-48.5 111.5h77q2 -20 17 -34.5zM273 310q0 -48 6.5 -79.5t28 -51.5t65.5 -20q51 0 74 33t23 100v399h218v-428q0 -140 -77.5 -209.5
t-238.5 -69.5q-163 0 -240 70.5t-77 209.5v427h218v-381z" />
    <glyph glyph-name="ubreve" unicode="&#x16d;" horiz-adv-x="640" 
d="M253 232q0 -45 16.5 -66t49.5 -21q34 0 51 21t17 66v287h198v-519h-191v66h-2q-28 -40 -68 -59.5t-97 -19.5q-48 0 -87.5 21.5t-62 61t-22.5 90.5v359h198v-287zM253.5 675q29.5 -18 70.5 -18q37 0 65 18t32 48h77q-2 -48 -25.5 -82.5t-63.5 -52.5t-89 -18q-81 0 -128 39
t-49 114h77q4 -30 33.5 -48z" />
    <glyph glyph-name="Uring" unicode="&#x16e;" horiz-adv-x="743" 
d="M273 310q0 -48 6.5 -79.5t28 -51.5t65.5 -20q51 0 74 33t23 100v399h218v-428q0 -140 -77.5 -209.5t-238.5 -69.5q-163 0 -240 70.5t-77 209.5v427h218v-381zM464 766q-14 -24 -38.5 -38t-55.5 -14q-30 0 -55 14t-39.5 38t-14.5 54q0 29 14 53.5t38.5 39t56.5 14.5
q31 0 56 -14.5t38.5 -39t13.5 -53.5q0 -30 -14 -54zM405 783q14 14 14 37q0 22 -14 35.5t-35 13.5q-22 0 -36 -13.5t-14 -35.5q0 -23 14 -37t36 -14q21 0 35 14z" />
    <glyph glyph-name="uring" unicode="&#x16f;" horiz-adv-x="640" 
d="M423 610q-15 -25 -40.5 -39.5t-56.5 -14.5q-32 0 -58 14.5t-40.5 40t-14.5 55.5t14.5 55.5t40 40.5t58.5 15q32 0 57.5 -15t40 -40.5t14.5 -55.5q0 -31 -15 -56zM363.5 628.5q14.5 14.5 14.5 38.5q0 23 -14.5 37.5t-37.5 14.5t-38 -14.5t-15 -37.5q0 -24 15 -38.5
t38 -14.5t37.5 14.5zM253 232q0 -45 16.5 -66t49.5 -21q34 0 51 21t17 66v287h198v-519h-191v66h-2q-28 -40 -68 -59.5t-97 -19.5q-48 0 -87.5 21.5t-62 61t-22.5 90.5v359h198v-287z" />
    <glyph glyph-name="Uhungarumlaut" unicode="&#x170;" horiz-adv-x="743" 
d="M273 310q0 -48 6.5 -79.5t28 -51.5t65.5 -20q51 0 74 33t23 100v399h218v-428q0 -140 -77.5 -209.5t-238.5 -69.5q-163 0 -240 70.5t-77 209.5v427h218v-381zM461 885l-154 -145h-107l96 145h165zM680 885l-154 -145h-107l96 145h165z" />
    <glyph glyph-name="uhungarumlaut" unicode="&#x171;" horiz-adv-x="640" 
d="M253 232q0 -45 16.5 -66t49.5 -21q34 0 51 21t17 66v287h198v-519h-191v66h-2q-28 -40 -68 -59.5t-97 -19.5q-48 0 -87.5 21.5t-62 61t-22.5 90.5v359h198v-287zM418 721l-155 -149h-107l97 149h165zM638 721l-154 -149h-108l97 149h165z" />
    <glyph glyph-name="Uogonek" unicode="&#x172;" horiz-adv-x="743" 
d="M688 691v-428q0 -121 -57.5 -189.5t-177.5 -84.5q-29 -35 -48 -59t-24.5 -35t-5.5 -22q0 -14 8 -22t23 -8q22 0 52 30l63 -29q-30 -40 -63 -58.5t-79 -18.5q-49 0 -77 24.5t-28 64.5q0 29 17 57.5t56 70.5q-150 6 -221 76.5t-71 203.5v427h218v-381q0 -48 6.5 -79.5
t28 -51.5t65.5 -20q51 0 74 33t23 100v399h218z" />
    <glyph glyph-name="uogonek" unicode="&#x173;" horiz-adv-x="640" 
d="M492 0q-32 -39 -53.5 -65.5t-27.5 -38.5t-6 -23q0 -14 8 -22t23 -8q22 0 52 30l63 -29q-30 -40 -63 -58.5t-79 -18.5q-49 0 -77 24.5t-28 64.5q0 31 20 62.5t68 81.5h2v66h-2q-28 -40 -68 -59.5t-97 -19.5q-48 0 -87.5 21.5t-62 61t-22.5 90.5v359h198v-287
q0 -45 16.5 -66t49.5 -21q34 0 51 21t17 66v287h198v-519h-93z" />
    <glyph glyph-name="Wcircumflex" unicode="&#x174;" horiz-adv-x="940" 
d="M210 691l82 -423h2l80 423h191l78 -429h2l83 429h215l-193 -691h-212l-71 417h-2l-68 -417h-213l-188 691h214zM549 885l119 -145h-145l-55 74l-53 -74h-145l117 145h162z" />
    <glyph glyph-name="wcircumflex" unicode="&#x175;" horiz-adv-x="856" 
d="M507 721l120 -149h-146l-55 76l-54 -76h-146l118 149h163zM198 519l73 -321h2l62 321h184l65 -321h4l68 321h206l-160 -519h-203l-71 319h-2l-74 -319h-202l-157 519h205z" />
    <glyph glyph-name="Ycircumflex" unicode="&#x176;" horiz-adv-x="652" 
d="M214 691l110 -253l116 253h239l-246 -437v-254h-218v253l-242 438h241zM405 885l119 -145h-145l-55 74l-53 -74h-145l117 145h162z" />
    <glyph glyph-name="ycircumflex" unicode="&#x177;" horiz-adv-x="549" 
d="M276 221h2l79 298h205l-155 -454q-37 -108 -89 -161t-117.5 -68.5t-168.5 -15.5v170q46 0 72 4t39 13t19 25l-174 487h211zM358 721l120 -149h-146l-55 76l-54 -76h-146l118 149h163z" />
    <glyph glyph-name="Ydieresis" unicode="&#x178;" horiz-adv-x="652" 
d="M214 691l110 -253l116 253h239l-246 -437v-254h-218v253l-242 438h241zM275.5 758.5q-22.5 -18.5 -62.5 -18.5t-62.5 18.5t-22.5 52.5q0 33 23 52t62 19q40 0 62.5 -18.5t22.5 -52.5t-22.5 -52.5zM499.5 758.5q-22.5 -18.5 -62.5 -18.5t-62.5 18.5t-22.5 52.5q0 33 23 52
t62 19q40 0 62.5 -18.5t22.5 -52.5t-22.5 -52.5z" />
    <glyph glyph-name="Zacute" unicode="&#x179;" horiz-adv-x="673" 
d="M631 533q-75 -74 -173.5 -182t-146.5 -170h336v-181h-620v170q55 68 151.5 171.5t164.5 168.5h-298v181h586v-158zM554 885l-167 -145h-135l96 145h206z" />
    <glyph glyph-name="zacute" unicode="&#x17a;" horiz-adv-x="549" 
d="M497 721l-169 -149h-136l96 149h209zM505 367q-54 -48 -120.5 -113.5t-105.5 -109.5h247v-144h-507v153q46 49 113.5 113.5t119.5 108.5h-211v144h464v-152z" />
    <glyph glyph-name="Zdotaccent" unicode="&#x17b;" horiz-adv-x="673" 
d="M405.5 761.5q-22.5 -18.5 -62.5 -18.5t-62.5 18.5t-22.5 52.5q0 33 23 52t62 19q40 0 62.5 -18.5t22.5 -52.5t-22.5 -52.5zM631 533q-75 -74 -173.5 -182t-146.5 -170h336v-181h-620v170q55 68 151.5 171.5t164.5 168.5h-298v181h586v-158z" />
    <glyph glyph-name="zdotaccent" unicode="&#x17c;" horiz-adv-x="549" 
d="M505 367q-54 -48 -120.5 -113.5t-105.5 -109.5h247v-144h-507v153q46 49 113.5 113.5t119.5 108.5h-211v144h464v-152zM331.5 594q-22.5 -20 -62.5 -20t-62.5 20t-22.5 57q0 36 23 56.5t62 20.5q40 0 62.5 -20t22.5 -57t-22.5 -57z" />
    <glyph glyph-name="Zcaron" unicode="&#x17d;" horiz-adv-x="673" 
d="M283 885l54 -73l54 73h146l-119 -145h-162l-117 145h144zM631 533q-75 -74 -173.5 -182t-146.5 -170h336v-181h-620v170q55 68 151.5 171.5t164.5 168.5h-298v181h586v-158z" />
    <glyph glyph-name="zcaron" unicode="&#x17e;" horiz-adv-x="549" 
d="M225 721l54 -76l54 76h147l-120 -149h-162l-119 149h146zM505 367q-54 -48 -120.5 -113.5t-105.5 -109.5h247v-144h-507v153q46 49 113.5 113.5t119.5 108.5h-211v144h464v-152z" />
    <glyph glyph-name="florin" unicode="&#x192;" horiz-adv-x="666" 
d="M578 556q-18 6 -40 6q-26 0 -41.5 -16t-23.5 -48l-24 -97h92l-35 -122h-91l-67 -249q-30 -111 -91 -162t-162 -51q-22 0 -42.5 3.5t-44.5 10.5l33 137q18 -6 38 -6q26 0 41.5 15.5t23.5 47.5l67 254h-92l34 122h93l25 92q30 111 91 162t162 51q22 0 42.5 -3.5t44.5 -10.5
z" />
    <glyph glyph-name="Scommaaccent" unicode="&#x218;" horiz-adv-x="654" 
d="M399 -69q0 -50 -17.5 -92.5t-53.5 -71.5h-119q18 29 29 72t11 87v24h150v-19zM407 500q-1 24 -24.5 38t-58.5 14t-55.5 -11.5t-20.5 -32.5q0 -18 21.5 -34t75.5 -29l53 -13q92 -23 144.5 -52t75 -67.5t22.5 -90.5q0 -77 -40 -130.5t-112.5 -80.5t-167.5 -27
q-83 0 -153 28t-111 78t-41 115v4h219v-2q0 -18 11 -33.5t33.5 -25t53.5 -9.5q42 0 66 14t24 40q0 17 -10.5 28.5t-32 21t-60.5 20.5l-93 27q-93 27 -138.5 75t-45.5 121q0 71 37 121t102 75t148 25q135 0 206.5 -54t76.5 -153h-205z" />
    <glyph glyph-name="scommaaccent" unicode="&#x219;" horiz-adv-x="567" 
d="M360 -69q0 -50 -17.5 -92.5t-53.5 -71.5h-119q18 29 29 72t11 87v24h150v-19zM345 377q-1 20 -19 32.5t-43 12.5q-55 0 -55 -38q0 -14 9.5 -24t27.5 -14l87 -17q98 -19 142.5 -57t44.5 -103q0 -90 -67 -136t-188 -46q-72 0 -129.5 19t-91.5 57.5t-35 94.5h189
q5 -49 69 -49q63 0 63 38q0 21 -19 31.5t-63 19.5l-69 14q-82 16 -121 54.5t-39 99.5q0 59 35.5 96t90 53.5t114.5 16.5q115 0 179.5 -39t66.5 -116h-179z" />
    <glyph glyph-name="uni021A" unicode="&#x21a;" horiz-adv-x="658" 
d="M403 -69q0 -50 -17.5 -92.5t-53.5 -71.5h-119q18 29 29 72t11 87v24h150v-19zM630 691v-181h-192v-510h-218v510h-192v181h602z" />
    <glyph glyph-name="uni021B" unicode="&#x21b;" horiz-adv-x="407" 
d="M319 -69q0 -50 -17.5 -92.5t-53.5 -71.5h-119q18 29 29 72t11 87v24h150v-19zM292 519h103v-122h-103v-172q0 -39 14.5 -58.5t49.5 -19.5q21 0 39 4v-148q-36 -12 -92 -12q-96 0 -152.5 49.5t-56.5 155.5v201h-85v122h85v158h198v-158z" />
    <glyph glyph-name="dotlessj" unicode="&#x237;" horiz-adv-x="315" 
d="M256 39q0 -116 -73 -167.5t-210 -51.5v161q41 0 63 17.5t22 62.5v458h198v-480z" />
    <glyph glyph-name="circumflex" unicode="&#x2c6;" horiz-adv-x="278" 
d="M219 721l120 -149h-146l-55 76l-54 -76h-146l118 149h163z" />
    <glyph glyph-name="caron" unicode="&#x2c7;" horiz-adv-x="278" 
d="M85 721l54 -76l54 76h147l-120 -149h-162l-119 149h146z" />
    <glyph glyph-name="uni02C9" unicode="&#x2c9;" horiz-adv-x="278" 
d="M303 692v-91h-327v91h327z" />
    <glyph glyph-name="breve" unicode="&#x2d8;" horiz-adv-x="278" 
d="M72.5 675q29.5 -18 70.5 -18q37 0 65 18t32 48h77q-2 -48 -25.5 -82.5t-63.5 -52.5t-89 -18q-81 0 -128 39t-49 114h77q4 -30 33.5 -48z" />
    <glyph glyph-name="dotaccent" unicode="&#x2d9;" horiz-adv-x="278" 
d="M201.5 594q-22.5 -20 -62.5 -20t-62.5 20t-22.5 57q0 36 23 56.5t62 20.5q40 0 62.5 -20t22.5 -57t-22.5 -57z" />
    <glyph glyph-name="ring" unicode="&#x2da;" horiz-adv-x="278" 
d="M236 610q-15 -25 -40.5 -39.5t-56.5 -14.5q-32 0 -58 14.5t-40.5 40t-14.5 55.5t14.5 55.5t40 40.5t58.5 15q32 0 57.5 -15t40 -40.5t14.5 -55.5q0 -31 -15 -56zM176.5 628.5q14.5 14.5 14.5 38.5q0 23 -14.5 37.5t-37.5 14.5t-38 -14.5t-15 -37.5q0 -24 15 -38.5
t38 -14.5t37.5 14.5z" />
    <glyph glyph-name="ogonek" unicode="&#x2db;" horiz-adv-x="278" 
d="M149.5 -65.5q-21.5 -26.5 -27.5 -38.5t-6 -23q0 -14 8 -22t23 -8q22 0 52 30l63 -29q-30 -40 -63 -58.5t-79 -18.5q-49 0 -77 24.5t-28 64.5q0 31 20 62.5t68 81.5h100q-32 -39 -53.5 -65.5z" />
    <glyph glyph-name="tilde" unicode="&#x2dc;" horiz-adv-x="278" 
d="M184 681.5q15 -5.5 21 -5.5q17 0 28 10t15 33h81q-1 -43 -15.5 -74.5t-40 -48t-58.5 -16.5q-41 0 -85 19q-45 18 -65 18q-13 0 -23.5 -10.5t-15.5 -32.5h-79q1 64 29 103t80 39q44 0 92 -20q21 -9 36 -14.5z" />
    <glyph glyph-name="hungarumlaut" unicode="&#x2dd;" horiz-adv-x="278" 
d="M196 721l-155 -149h-107l97 149h165zM416 721l-154 -149h-108l97 149h165z" />
    <glyph glyph-name="commaturnedabovecomb" unicode="&#x312;" horiz-adv-x="0" 
d="M-254 628q0 50 17.5 92.5t53.5 71.5h119q-18 -29 -29 -72t-11 -87v-24h-150v19z" />
    <glyph glyph-name="uni0313" unicode="&#x313;" horiz-adv-x="0" 
d="M-95 740q0 -50 -17.5 -92.5t-53.5 -71.5h-119q18 29 29 72t11 87v24h150v-19z" />
    <glyph glyph-name="commaaccent" unicode="&#x326;" horiz-adv-x="0" 
d="M-95 -69q0 -50 -17.5 -92.5t-53.5 -71.5h-119q18 29 29 72t11 87v24h150v-19z" />
    <glyph glyph-name="uni0394" unicode="&#x394;" horiz-adv-x="736" 
d="M473 691l265 -691h-742l264 691h213zM272 175h184l-90 283h-2z" />
    <glyph glyph-name="uni03A9" unicode="&#x3a9;" horiz-adv-x="780" 
d="M713.5 273q-26.5 -55 -72.5 -90v-2h106v-181h-328v162q49 19 76 66.5t27 138.5q0 47 -16.5 84.5t-46.5 59t-70 21.5t-70 -20.5t-46 -58t-16 -86.5q0 -89 27 -137.5t76 -67.5v-162h-329v181h103v2q-45 34 -70 88t-25 122q0 86 46 158t126.5 114t177.5 42q93 0 173.5 -38.5
t129 -109.5t48.5 -164q0 -67 -26.5 -122z" />
    <glyph glyph-name="uni03BC" unicode="&#x3bc;" horiz-adv-x="640" 
d="M585 519v-519h-191v66h-2q-25 -35 -59 -54.5t-80 -23.5v-156h-198v687h198v-287q0 -45 16.5 -66t49.5 -21q34 0 51 21t17 66v287h198z" />
    <glyph glyph-name="pi" unicode="&#x3c0;" horiz-adv-x="687" 
d="M676 375h-87v-215q0 -16 7.5 -24.5t22.5 -8.5q16 0 33 5v-116q-57 -29 -123 -29q-42 0 -73 14.5t-48 42t-17 63.5v268h-96v-375h-198v375h-89v144h668v-144z" />
    <glyph glyph-name="Wgrave" unicode="&#x1e80;" horiz-adv-x="940" 
d="M210 691l82 -423h2l80 423h191l78 -429h2l83 429h215l-193 -691h-212l-71 417h-2l-68 -417h-213l-188 691h214zM474 885l97 -145h-137l-165 145h205z" />
    <glyph glyph-name="wgrave" unicode="&#x1e81;" horiz-adv-x="856" 
d="M432 721l98 -149h-138l-167 149h207zM198 519l73 -321h2l62 321h184l65 -321h4l68 321h206l-160 -519h-203l-71 319h-2l-74 -319h-202l-157 519h205z" />
    <glyph glyph-name="Wacute" unicode="&#x1e82;" horiz-adv-x="940" 
d="M210 691l82 -423h2l80 423h191l78 -429h2l83 429h215l-193 -691h-212l-71 417h-2l-68 -417h-213l-188 691h214zM669 885l-167 -145h-135l96 145h206z" />
    <glyph glyph-name="wacute" unicode="&#x1e83;" horiz-adv-x="856" 
d="M629 721l-169 -149h-136l96 149h209zM198 519l73 -321h2l62 321h184l65 -321h4l68 321h206l-160 -519h-203l-71 319h-2l-74 -319h-202l-157 519h205z" />
    <glyph glyph-name="Wdieresis" unicode="&#x1e84;" horiz-adv-x="940" 
d="M210 691l82 -423h2l80 423h191l78 -429h2l83 429h215l-193 -691h-212l-71 417h-2l-68 -417h-213l-188 691h214zM420.5 758.5q-22.5 -18.5 -62.5 -18.5t-62.5 18.5t-22.5 52.5q0 33 23 52t62 19q40 0 62.5 -18.5t22.5 -52.5t-22.5 -52.5zM644.5 758.5
q-22.5 -18.5 -62.5 -18.5t-62.5 18.5t-22.5 52.5q0 33 23 52t62 19q40 0 62.5 -18.5t22.5 -52.5t-22.5 -52.5z" />
    <glyph glyph-name="wdieresis" unicode="&#x1e85;" horiz-adv-x="856" 
d="M377.5 594q-22.5 -20 -62.5 -20t-62.5 20t-22.5 57q0 36 23 56.5t62 20.5q40 0 62.5 -20t22.5 -57t-22.5 -57zM601.5 594q-22.5 -20 -62.5 -20t-62.5 20t-22.5 57q0 36 23 56.5t62 20.5q40 0 62.5 -20t22.5 -57t-22.5 -57zM198 519l73 -321h2l62 321h184l65 -321h4
l68 321h206l-160 -519h-203l-71 319h-2l-74 -319h-202l-157 519h205z" />
    <glyph glyph-name="Germandbls" unicode="&#x1e9e;" horiz-adv-x="724" 
d="M665 526.5q-3 -12.5 -11.5 -27.5t-27.5 -42l-39 -57q32 -8 59.5 -28.5t45.5 -57t18 -87.5q0 -121 -70 -177t-214 -56q-36 0 -73 7v166q20 -5 43 -5q47 0 71 16t24 56q0 41 -33.5 58.5t-97.5 17.5h-4v56l77 134q4 7 4 11q0 14 -21.5 22t-53.5 8q-42 0 -64 -17.5t-22 -57.5
v-466h-218v470q0 117 77.5 177t223.5 60q102 0 171.5 -22t103.5 -56.5t34 -72.5q0 -17 -3 -29.5z" />
    <glyph glyph-name="Ygrave" unicode="&#x1ef2;" horiz-adv-x="652" 
d="M214 691l110 -253l116 253h239l-246 -437v-254h-218v253l-242 438h241zM329 885l97 -145h-137l-165 145h205z" />
    <glyph glyph-name="ygrave" unicode="&#x1ef3;" horiz-adv-x="549" 
d="M276 221h2l79 298h205l-155 -454q-37 -108 -89 -161t-117.5 -68.5t-168.5 -15.5v170q46 0 72 4t39 13t19 25l-174 487h211zM282 721l98 -149h-138l-167 149h207z" />
    <glyph glyph-name="uni2011" unicode="&#x2011;" horiz-adv-x="401" 
d="M353 349v-164h-305v164h305z" />
    <glyph glyph-name="endash" unicode="&#x2013;" horiz-adv-x="491" 
d="M488 346v-158h-485v158h485z" />
    <glyph glyph-name="emdash" unicode="&#x2014;" horiz-adv-x="976" 
d="M847 346v-158h-718v158h718z" />
    <glyph glyph-name="quoteleft" unicode="&#x2018;" horiz-adv-x="295" 
d="M44 395q0 93 31.5 174.5t91.5 144.5h117q-35 -57 -56.5 -140t-21.5 -170q0 -20 2 -46h-164v37z" />
    <glyph glyph-name="quoteright" unicode="&#x2019;" horiz-adv-x="295" 
d="M251 677q0 -93 -31.5 -174.5t-91.5 -144.5h-117q35 57 56.5 140t21.5 170q0 20 -2 46h164v-37z" />
    <glyph glyph-name="quotesinglbase" unicode="&#x201a;" horiz-adv-x="295" 
d="M251 161q0 -93 -31.5 -174.5t-91.5 -144.5h-117q35 57 56.5 140t21.5 170q0 20 -2 46h164v-37z" />
    <glyph glyph-name="quotedblleft" unicode="&#x201c;" horiz-adv-x="515" 
d="M35 395q0 93 31.5 174.5t91.5 144.5h117q-35 -57 -56.5 -140t-21.5 -170q0 -20 2 -46h-164v37zM275 395q0 93 31.5 174.5t91.5 144.5h117q-35 -57 -56.5 -140t-21.5 -170q0 -20 2 -46h-164v37z" />
    <glyph glyph-name="quotedblright" unicode="&#x201d;" horiz-adv-x="515" 
d="M242 677q0 -93 -31.5 -174.5t-91.5 -144.5h-117q35 57 56.5 140t21.5 170q0 20 -2 46h164v-37zM482 677q0 -93 -31.5 -174.5t-91.5 -144.5h-117q35 57 56.5 140t21.5 170q0 20 -2 46h164v-37z" />
    <glyph glyph-name="quotedblbase" unicode="&#x201e;" horiz-adv-x="515" 
d="M242 161q0 -93 -31.5 -174.5t-91.5 -144.5h-117q35 57 56.5 140t21.5 170q0 20 -2 46h164v-37zM482 161q0 -93 -31.5 -174.5t-91.5 -144.5h-117q35 57 56.5 140t21.5 170q0 20 -2 46h164v-37z" />
    <glyph glyph-name="dagger" unicode="&#x2020;" horiz-adv-x="662" 
d="M430 691v-178h168v-156h-168v-526h-197v526h-168v156h168v178h197z" />
    <glyph glyph-name="daggerdbl" unicode="&#x2021;" horiz-adv-x="662" 
d="M430 691v-178h168v-156h-168v-189h168v-156h-168v-181h-197v181h-168v156h168v189h-168v156h168v178h197z" />
    <glyph glyph-name="bullet" unicode="&#x2022;" horiz-adv-x="491" 
d="M396 268q-23 -41 -62.5 -65.5t-87.5 -24.5q-47 0 -87 24t-63 65t-23 90q0 47 22.5 88t62 65.5t88.5 24.5q46 0 86 -23.5t63.5 -64.5t23.5 -90q0 -48 -23 -89z" />
    <glyph glyph-name="ellipsis" unicode="&#x2026;" horiz-adv-x="975" 
d="M220 201q25 -14 39 -39.5t14 -57.5t-14 -57t-39 -39t-56 -14t-56 14t-39 39t-14 57t14 57.5t39 39.5t56 14t56 -14zM544 201q25 -14 39 -39.5t14 -57.5t-14 -57t-39 -39t-56 -14t-56 14t-39 39t-14 57t14 57.5t39 39.5t56 14t56 -14zM867 201q25 -14 39 -39.5t14 -57.5
t-14 -57t-39 -39t-56 -14t-56 14t-39 39t-14 57t14 57.5t39 39.5t56 14t56 -14z" />
    <glyph glyph-name="perthousand" unicode="&#x2030;" horiz-adv-x="1140" 
d="M654 722l-397 -748h-110l398 748h109zM330.5 438q-16.5 -39 -48.5 -60t-76 -21q-66 0 -103 46.5t-37 127.5q0 53 16.5 92t48 60t75.5 21q67 0 104 -46t37 -127q0 -54 -16.5 -93zM234.5 462q9.5 18 9.5 69q0 48 -9.5 67t-29.5 19q-19 0 -28 -19t-9 -67q0 -36 4.5 -55
t12.5 -25.5t21 -6.5q19 0 28.5 18zM702.5 38.5q-36.5 -46.5 -104.5 -46.5q-69 0 -104.5 46.5t-35.5 127.5q0 80 36 126.5t104 46.5q44 0 76 -20.5t48.5 -59.5t16.5 -93q0 -81 -36.5 -127.5zM1037 39q-36 -47 -104 -47t-104.5 46.5t-36.5 127.5q0 54 16.5 93t48.5 59.5
t76 20.5q66 0 103 -46t37 -127q0 -80 -36 -127zM629 101.5q7 22.5 7 63.5q0 43 -7.5 65t-31.5 22q-23 0 -30 -22.5t-7 -64.5q0 -29 2 -46t10 -28.5t26 -11.5q24 0 31 22.5zM964 101.5q7 22.5 7 63.5q0 42 -7.5 64.5t-30.5 22.5q-17 0 -25 -12t-10.5 -31t-2.5 -50
q0 -26 2 -42.5t10.5 -27t25.5 -10.5q24 0 31 22.5z" />
    <glyph glyph-name="guilsinglleft" unicode="&#x2039;" horiz-adv-x="240" 
d="M199 483v-157l-73 -61l73 -60v-157l-158 129v177z" />
    <glyph glyph-name="guilsinglright" unicode="&#x203a;" horiz-adv-x="240" 
d="M199 354v-177l-158 -129v157l73 60l-73 61v157z" />
    <glyph glyph-name="fraction" unicode="&#x2044;" horiz-adv-x="168" 
d="M-48 -26h-109l374 748h109z" />
    <glyph glyph-name="zero.superior" unicode="&#x2070;" 
d="M366 490.5q-24 -49.5 -66 -75t-97 -25.5t-97.5 25.5t-66.5 75t-24 119.5q0 69 24 118t66 74t97 25t97.5 -25t66.5 -74t24 -118q0 -70 -24 -119.5zM244 520q16 30 16 89t-15.5 88.5t-41.5 29.5t-42 -30t-16 -88q0 -59 15.5 -89t41.5 -30t42 30z" />
    <glyph glyph-name="four.superior" unicode="&#x2074;" 
d="M394 471h-56v-74h-131v74h-191v96l200 253h122v-252h56v-97zM207 685h-2l-88 -117h90v117z" />
    <glyph glyph-name="five.superior" unicode="&#x2075;" horiz-adv-x="405" 
d="M357 717h-178l-14 -68l1 -1q39 29 91 29q37 0 65.5 -15.5t45 -46t16.5 -73.5q0 -45 -21.5 -79.5t-63 -53.5t-100.5 -19q-58 0 -97.5 16t-59 45.5t-18.5 68.5h131q3 -13 15.5 -21t32.5 -8q22 0 35.5 13.5t13.5 35.5q0 23 -13 36.5t-35 13.5q-17 0 -28.5 -5.5t-16.5 -14.5
h-123l43 250h278v-103z" />
    <glyph glyph-name="six.superior" unicode="&#x2076;" 
d="M260 714q-2 8 -12 15t-29 7q-34 0 -52.5 -25.5t-18.5 -75.5l2 -2q34 40 103 40q37 0 65.5 -16t44.5 -45t16 -67q0 -74 -47 -114.5t-130 -40.5q-56 0 -96.5 24.5t-62.5 71t-22 110.5q0 82 29 133.5t75.5 74.5t101.5 23q47 0 80 -15.5t50 -41.5t20 -56h-117zM169.5 505.5
q14.5 -14.5 39.5 -14.5t39.5 14.5t14.5 38.5q0 23 -14.5 37t-38.5 14q-25 0 -40 -14t-15 -37q0 -24 14.5 -38.5z" />
    <glyph glyph-name="seven.superior" unicode="&#x2077;" 
d="M368 714q-81 -156 -126 -317h-150q28 85 66 170t72 143h-195v110h333v-106z" />
    <glyph glyph-name="eight.superior" unicode="&#x2078;" 
d="M352 651q-17 -25 -43 -31v-2q34 -4 55 -29.5t21 -60.5q0 -42 -22 -72.5t-63 -46.5t-98 -16t-98 16t-62.5 46.5t-21.5 72.5q0 37 21.5 60t57.5 30v2q-26 10 -42.5 33t-16.5 57q0 55 43 86.5t120 31.5q78 0 122 -31.5t44 -86.5q0 -34 -17 -59zM238.5 666.5
q13.5 11.5 13.5 32.5q0 20 -13.5 31.5t-36.5 11.5q-22 0 -34 -11.5t-12 -31.5q0 -21 12 -32.5t34 -11.5q23 0 36.5 11.5zM240 500q14 12 14 34t-13.5 34t-37.5 12t-38 -12t-14 -34t13.5 -34t37.5 -12t38 12z" />
    <glyph glyph-name="nine.superior" unicode="&#x2079;" 
d="M143 503q2 -8 12.5 -15t31.5 -7q35 0 51.5 25t16.5 76l-2 2q-34 -40 -103 -40q-37 0 -65.5 16.5t-44.5 47t-16 70.5q0 47 22 81t61.5 51t90.5 17q58 0 99.5 -24.5t63 -71t21.5 -110.5q0 -82 -27.5 -133.5t-73 -74.5t-102.5 -23q-47 0 -81 15.5t-51.5 41.5t-20.5 56h117z
M233.5 714.5q-14.5 14.5 -39.5 14.5t-39.5 -14.5t-14.5 -38.5q0 -23 14.5 -37t38.5 -14q25 0 40 14t15 37q0 24 -14.5 38.5z" />
    <glyph glyph-name="uni207A" unicode="&#x207a;" horiz-adv-x="338" 
d="M220 756v-104h99v-101h-99v-104h-102v104h-98v101h98v104h102z" />
    <glyph glyph-name="uni207B" unicode="&#x207b;" horiz-adv-x="338" 
d="M319 652v-101h-299v101h299z" />
    <glyph glyph-name="uni207C" unicode="&#x207c;" horiz-adv-x="338" 
d="M319 729v-102h-299v102h299zM319 577v-102h-299v102h299z" />
    <glyph glyph-name="uni207D" unicode="&#x207d;" horiz-adv-x="173" 
d="M149 757.5q-11 -64.5 -11 -140.5q0 -71 11 -133t37 -137h-114q-31 68 -44.5 133t-13.5 139q0 75 13.5 140t44.5 135h114q-26 -72 -37 -136.5z" />
    <glyph glyph-name="uni207E" unicode="&#x207e;" horiz-adv-x="173" 
d="M160 616q0 -76 -13 -134t-44 -135h-116q25 61 37 127.5t12 144.5q0 77 -10.5 135t-38.5 140h116q57 -128 57 -278z" />
    <glyph glyph-name="zero.inferior" unicode="&#x2080;" 
d="M366 -26.5q-24 -49.5 -66 -75t-97 -25.5t-97.5 25.5t-66.5 75t-24 119.5q0 69 24 118t66 74t97 25t97.5 -25t66.5 -74t24 -118q0 -70 -24 -119.5zM244 3q16 30 16 89t-15.5 88.5t-41.5 29.5t-42 -30t-16 -88q0 -59 15.5 -89t41.5 -30t42 30z" />
    <glyph glyph-name="one.inferior" unicode="&#x2081;" 
d="M294 -120h-144v286q-44 -20 -96 -32v110q31 9 68.5 26t63.5 33h108v-423z" />
    <glyph glyph-name="two.inferior" unicode="&#x2082;" 
d="M360 82.5q-22 -34.5 -51.5 -54t-75.5 -43.5v-2h146v-103h-353v84l21 13q60 38 99 65t66.5 58.5t27.5 60.5q0 47 -41 47q-22 0 -34.5 -13t-12.5 -39v-1h-127v2q0 45 23 79.5t65.5 54t98.5 19.5q53 0 91.5 -17.5t58.5 -49.5t20 -76q0 -50 -22 -84.5z" />
    <glyph glyph-name="three.inferior" unicode="&#x2083;" 
d="M332 279q39 -31 39 -84q0 -39 -18.5 -59t-53.5 -29v-1q38 -6 61.5 -32t23.5 -74q0 -33 -19 -62t-58 -47t-98 -18q-94 0 -141.5 36t-47.5 100v6h125v-2q0 -16 14 -28t37 -12q25 0 38.5 11.5t13.5 30.5t-12.5 30.5t-38.5 11.5h-38v80h43q19 0 29.5 11t10.5 30
q0 16 -10 26.5t-29 10.5q-25 0 -37 -11.5t-12 -28.5v-5h-125q1 68 51.5 104t135.5 36q77 0 116 -31z" />
    <glyph glyph-name="four.inferior" unicode="&#x2084;" 
d="M394 -46h-56v-74h-131v74h-191v96l200 253h122v-252h56v-97zM207 168h-2l-88 -117h90v117z" />
    <glyph glyph-name="five.inferior" unicode="&#x2085;" horiz-adv-x="405" 
d="M357 200h-178l-14 -68l1 -1q39 29 91 29q37 0 65.5 -15.5t45 -46t16.5 -73.5q0 -45 -21.5 -79.5t-63 -53.5t-100.5 -19q-58 0 -97.5 16t-59 45.5t-18.5 68.5h131q3 -13 15.5 -21t32.5 -8q22 0 35.5 13.5t13.5 35.5q0 23 -13 36.5t-35 13.5q-17 0 -28.5 -5.5t-16.5 -14.5
h-123l43 250h278v-103z" />
    <glyph glyph-name="six.inferior" unicode="&#x2086;" 
d="M260 197q-2 8 -12 15t-29 7q-34 0 -52.5 -25.5t-18.5 -75.5l2 -2q34 40 103 40q37 0 65.5 -16t44.5 -45t16 -67q0 -74 -47 -114.5t-130 -40.5q-56 0 -96.5 24.5t-62.5 71t-22 110.5q0 82 29 133.5t75.5 74.5t101.5 23q47 0 80 -15.5t50 -41.5t20 -56h-117zM169.5 -11.5
q14.5 -14.5 39.5 -14.5t39.5 14.5t14.5 38.5q0 23 -14.5 37t-38.5 14q-25 0 -40 -14t-15 -37q0 -24 14.5 -38.5z" />
    <glyph glyph-name="seven.inferior" unicode="&#x2087;" 
d="M368 197q-81 -156 -126 -317h-150q28 85 66 170t72 143h-195v110h333v-106z" />
    <glyph glyph-name="eight.inferior" unicode="&#x2088;" 
d="M352 134q-17 -25 -43 -31v-2q34 -4 55 -29.5t21 -60.5q0 -42 -22 -72.5t-63 -46.5t-98 -16t-98 16t-62.5 46.5t-21.5 72.5q0 37 21.5 60t57.5 30v2q-26 10 -42.5 33t-16.5 57q0 55 43 86.5t120 31.5q78 0 122 -31.5t44 -86.5q0 -34 -17 -59zM238.5 149.5
q13.5 11.5 13.5 32.5q0 20 -13.5 31.5t-36.5 11.5q-22 0 -34 -11.5t-12 -31.5q0 -21 12 -32.5t34 -11.5q23 0 36.5 11.5zM240 -17q14 12 14 34t-13.5 34t-37.5 12t-38 -12t-14 -34t13.5 -34t37.5 -12t38 12z" />
    <glyph glyph-name="nine.inferior" unicode="&#x2089;" 
d="M143 -14q2 -8 12.5 -15t31.5 -7q35 0 51.5 25t16.5 76l-2 2q-34 -40 -103 -40q-37 0 -65.5 16.5t-44.5 47t-16 70.5q0 47 22 81t61.5 51t90.5 17q58 0 99.5 -24.5t63 -71t21.5 -110.5q0 -82 -27.5 -133.5t-73 -74.5t-102.5 -23q-47 0 -81 15.5t-51.5 41.5t-20.5 56h117z
M233.5 197.5q-14.5 14.5 -39.5 14.5t-39.5 -14.5t-14.5 -38.5q0 -23 14.5 -37t38.5 -14q25 0 40 14t15 37q0 24 -14.5 38.5z" />
    <glyph glyph-name="uni208A" unicode="&#x208a;" horiz-adv-x="338" 
d="M220 239v-104h99v-101h-99v-104h-102v104h-98v101h98v104h102z" />
    <glyph glyph-name="uni208B" unicode="&#x208b;" horiz-adv-x="338" 
d="M319 135v-101h-299v101h299z" />
    <glyph glyph-name="uni208C" unicode="&#x208c;" horiz-adv-x="338" 
d="M319 212v-102h-299v102h299zM319 60v-102h-299v102h299z" />
    <glyph glyph-name="uni208D" unicode="&#x208d;" horiz-adv-x="173" 
d="M149 240.5q-11 -64.5 -11 -140.5q0 -71 11 -133t37 -137h-114q-31 68 -44.5 133t-13.5 139q0 75 13.5 140t44.5 135h114q-26 -72 -37 -136.5z" />
    <glyph glyph-name="uni208E" unicode="&#x208e;" horiz-adv-x="173" 
d="M160 99q0 -76 -13 -134t-44 -135h-116q25 61 37 127.5t12 144.5q0 77 -10.5 135t-38.5 140h116q57 -128 57 -278z" />
    <glyph glyph-name="uni2099" unicode="&#x2099;" horiz-adv-x="513" 
d="M453 -120h-146v213q0 33 -12.5 48.5t-36.5 15.5q-25 0 -38 -15.5t-13 -48.5v-213h-146v384h142v-48h1q21 30 51 44t71 14q36 0 65 -16t45.5 -45t16.5 -66v-267z" />
    <glyph glyph-name="Euro" unicode="&#x20ac;" horiz-adv-x="663" 
d="M573 503q-22 14 -34 21t-30.5 11.5t-44.5 4.5q-92 0 -122 -88h218l-37 -88h-198v-20v-23h181l-36 -87h-126q28 -85 135 -85q71 0 124 29v-164q-25 -12 -62.5 -20.5t-80.5 -8.5q-126 0 -208.5 63.5t-117.5 185.5h-76l37 87h26v23v20h-65l37 88h41q33 122 114 188t199 66
q48 0 82.5 -7t59 -18.5t53.5 -29.5z" />
    <glyph glyph-name="uni20B9" unicode="&#x20b9;" horiz-adv-x="666" 
d="M649 607h-156q19 -22 28 -58h128v-89h-124q-8 -49 -35 -83.5t-81 -53.5v-2q35 -13 56 -46t35.5 -88.5t42.5 -186.5h-210q-13 97 -24 147.5t-20 71t-22 33.5q-27 27 -83 27h-92v113h119q58 0 86 15t37 53h-242v89h239q-10 31 -35 44.5t-72 13.5h-132v89h557v-89z" />
    <glyph glyph-name="uni20BA" unicode="&#x20ba;" horiz-adv-x="666" 
d="M651 332q-3 -99 -34.5 -171.5t-108.5 -116.5t-210 -44h-184v238l-81 -38v97l81 38v65l-81 -38v97l81 38v194h209v-99l152 73v-97l-152 -73v-65l152 71v-95l-152 -73v-175q51 6 80.5 31t41.5 60t16 83h190z" />
    <glyph glyph-name="uni20BC" unicode="&#x20bc;" horiz-adv-x="836" 
d="M321 70v358q-50 -20 -74 -87t-29.5 -140.5t-5.5 -162.5v-38h-189v63q0 121 30 231.5t97 189t171 97.5v110h194v-110q104 -19 171 -97.5t97 -189t30 -231.5v-63h-189v38q0 89 -5.5 162.5t-29.5 140.5t-74 87v-358h-194z" />
    <glyph glyph-name="uni20BD" unicode="&#x20bd;" horiz-adv-x="666" 
d="M589.5 641q67.5 -50 67.5 -163q0 -107 -69 -152t-191 -45h-71v-60h177v-122h-177v-99h-192v99h-87v122h87v60h-87v122h87v288h265q123 0 190.5 -50zM445.5 420q20.5 17 20.5 58q0 43 -22.5 59t-69.5 16h-48v-150h56q43 0 63.5 17z" />
    <glyph glyph-name="uni2113" unicode="&#x2113;" horiz-adv-x="491" 
d="M406.5 417.5q-45.5 -71.5 -144.5 -154.5v-103q0 -28 15 -44.5t40 -16.5q31 0 86 37l52 -80q-82 -70 -177 -70q-51 0 -88.5 18.5t-58.5 54t-21 84.5v19l-54 -46l-53 85l106 86v236q0 54 24 99.5t66.5 72t96.5 26.5q48 0 83 -20t54 -55t19 -80q0 -77 -45.5 -148.5z
M312 468.5q17 41.5 17 88.5q0 27 -10 44.5t-24 17.5t-23.5 -20t-9.5 -46v-160q33 34 50 75.5z" />
    <glyph glyph-name="uni2117" unicode="&#x2117;" horiz-adv-x="781" 
d="M703.5 164q-48.5 -83 -131.5 -131.5t-182 -48.5q-96 0 -179 47.5t-132.5 130.5t-49.5 183q0 96 47.5 179.5t130 133t183.5 49.5q97 0 180 -48t132.5 -131t49.5 -183q0 -98 -48.5 -181zM511.5 130q55.5 33 88 90t32.5 125q0 66 -31 123t-86.5 91.5t-124.5 34.5
q-66 0 -121 -33.5t-87.5 -91t-32.5 -124.5q0 -66 31.5 -123t86.5 -91t123 -34q66 0 121.5 33zM567 407q0 -56 -34 -90t-118 -34h-65v-121h-87v366h147q157 0 157 -121zM459 366.5q15 15.5 15 39.5q0 23 -17 38.5t-52 15.5h-55v-109h62q32 0 47 15.5z" />
    <glyph glyph-name="trademark" unicode="&#x2122;" horiz-adv-x="974" 
d="M367 691v-91h-100v-307h-132v307h-100v91h332zM617 691l77 -231h2l77 231h166v-398h-120v222h-1l-73 -222h-100l-73 222h-2v-222h-120v398h167z" />
    <glyph glyph-name="Omega" unicode="&#x2126;" horiz-adv-x="779" 
d="M713.5 273q-26.5 -55 -72.5 -90v-2h106v-181h-328v162q49 19 76 66.5t27 138.5q0 47 -16.5 84.5t-46.5 59t-70 21.5t-70 -20.5t-46 -58t-16 -86.5q0 -89 27 -137.5t76 -67.5v-162h-329v181h103v2q-45 34 -70 88t-25 122q0 86 46 158t126.5 114t177.5 42q93 0 173.5 -38.5
t129 -109.5t48.5 -164q0 -67 -26.5 -122z" />
    <glyph glyph-name="estimated" unicode="&#x212e;" horiz-adv-x="904" 
d="M237.5 39q-91.5 48 -139.5 129t-48 176q0 97 49 182t140.5 136.5t212.5 51.5q145 0 235 -54.5t128.5 -138.5t38.5 -179h-652q-3 0 -4 -1t-1 -5v-184q0 -22 7 -30q41 -50 104.5 -77.5t142.5 -27.5t140 29.5t121 83.5h70q-41 -49 -85.5 -79t-103.5 -45t-141 -15
q-123 0 -214.5 48zM700 363q7 0 7 7v189q0 9 -12 26q-46 57 -114 81t-133 24q-63 0 -126.5 -25.5t-115.5 -77.5q-4 -5 -6.5 -13t-2.5 -15v-189q0 -3 1 -5t4 -2h498z" />
    <glyph glyph-name="partialdiff" unicode="&#x2202;" horiz-adv-x="583" 
d="M412 677.5q61 -43.5 93 -125t32 -195.5q0 -179 -64.5 -275t-189.5 -96q-68 0 -122 29.5t-84 83.5t-30 124q0 63 28 115.5t78 83.5t113 31q34 0 63 -11t56 -34q-9 195 -116 195q-32 0 -59.5 -14.5t-56.5 -43.5l-83 93q49 47 93.5 65t102.5 18q85 0 146 -43.5zM334 118.5
q21 18.5 33.5 61t16.5 113.5q-20 19 -45 31.5t-48 12.5q-28 0 -50 -16t-34 -44t-12 -61q0 -31 10.5 -57.5t30.5 -42.5t47 -16q30 0 51 18.5z" />
    <glyph glyph-name="Delta" unicode="&#x2206;" horiz-adv-x="734" 
d="M473 691l265 -691h-742l264 691h213zM272 175h184l-90 283h-2z" />
    <glyph glyph-name="product" unicode="&#x220f;" horiz-adv-x="743" 
d="M695 786v-1000h-154v845h-337v-845h-155v1000h646z" />
    <glyph glyph-name="summation" unicode="&#x2211;" horiz-adv-x="692" 
d="M648 786v-156h-400l242 -337l-256 -351h426v-156h-628v135l277 372l-266 356v137h605z" />
    <glyph glyph-name="minus" unicode="&#x2212;" horiz-adv-x="588" 
d="M539 329v-153h-489v153h489z" />
    <glyph glyph-name="uni2215" unicode="&#x2215;" horiz-adv-x="168" 
d="M-48 -26h-109l374 748h109z" />
    <glyph glyph-name="uni2219" unicode="&#x2219;" horiz-adv-x="336" 
d="M224 334q25 -14 39 -39.5t14 -57.5t-14 -57t-39 -39t-56 -14t-56 14t-39 39t-14 57t14 57.5t39 39.5t56 14t56 -14z" />
    <glyph glyph-name="radical" unicode="&#x221a;" horiz-adv-x="603" 
d="M605 786l-219 -1000h-139l-136 286l-56 -27l-58 122l195 91l100 -232l150 760h163z" />
    <glyph glyph-name="infinity" unicode="&#x221e;" horiz-adv-x="873" 
d="M802.5 162q-23.5 -50 -68.5 -78.5t-107 -28.5q-57 0 -103.5 29.5t-87.5 88.5q-41 -60 -85.5 -88.5t-99.5 -28.5q-61 0 -107 28t-71.5 77.5t-25.5 114.5q0 64 24.5 112.5t70 75t104.5 26.5q38 0 68.5 -11.5t59.5 -39t62 -75.5q33 48 62 75.5t59.5 39t69.5 11.5
q61 0 106 -27t69 -75.5t24 -111.5q0 -64 -23.5 -114zM358 271q-27 39 -56.5 60.5t-54.5 21.5q-20 0 -36 -11t-25 -29.5t-9 -40.5q0 -35 19 -56.5t51 -21.5q59 0 111 77zM676 215q20 22 20 58q0 35 -20.5 57.5t-53.5 22.5q-26 0 -54 -21t-54 -61q54 -78 111 -78q31 0 51 22z
" />
    <glyph glyph-name="integral" unicode="&#x222b;" horiz-adv-x="657" 
d="M544.5 631.5q-19.5 -20.5 -51.5 -20.5q-21 0 -34 6t-22 23.5t-12 50.5q-1 14 -6 21.5t-13 7.5q-19 0 -19 -39q0 -42 5 -112q1 -24 2 -45t1 -35l1 -386q0 -122 -23.5 -192t-66.5 -98t-106 -28q-37 0 -69.5 12.5t-52 36t-19.5 53.5q0 32 19.5 52.5t50.5 20.5
q22 0 36.5 -7.5t22.5 -25t12 -48.5q2 -27 18 -27q10 0 15 10t5 34q-1 23 -2.5 47t-2.5 42q-5 53 -5 77v435q0 78 12.5 132t38.5 89q25 34 62 51t82 17q38 0 70 -12.5t51.5 -35.5t19.5 -54q0 -32 -19.5 -52.5z" />
    <glyph glyph-name="approxequal" unicode="&#x2248;" horiz-adv-x="588" 
d="M388 443q17 0 28.5 13.5t17.5 38.5h123q-5 -105 -44.5 -156t-117.5 -51q-25 0 -51 7.5t-76 29.5q-45 21 -68 21q-18 0 -29 -11.5t-17 -37.5h-123q6 105 44.5 154.5t116.5 49.5q27 0 57 -9t77 -30q37 -19 62 -19zM388 201q18 0 29.5 12t16.5 37h123q-5 -104 -44 -154
t-118 -50q-46 0 -107 29t-88 29q-17 0 -28 -12t-18 -40h-123q6 107 45.5 157t116.5 50q29 0 60.5 -10.5t76.5 -30.5q37 -17 58 -17z" />
    <glyph glyph-name="notequal" unicode="&#x2260;" horiz-adv-x="588" 
d="M511 523l-35 -73h63v-148h-142l-43 -98h185v-148h-265l-68 -135l-129 62l36 73h-63v148h143l42 98h-185v148h265l68 135z" />
    <glyph glyph-name="lessequal" unicode="&#x2264;" horiz-adv-x="588" 
d="M539 459l-287 -66l287 -67v-154l-489 142v156l489 143v-154zM539 153v-153h-489v153h489z" />
    <glyph glyph-name="greaterequal" unicode="&#x2265;" horiz-adv-x="588" 
d="M50 613l489 -143v-156l-489 -142v154l287 65l-287 68v154zM539 153v-153h-489v153h489z" />
    <glyph glyph-name="lozenge" unicode="&#x25ca;" horiz-adv-x="581" 
d="M359 747l191 -391l-191 -391h-140l-189 391l191 391h138zM189 356l101 -231l100 231l-100 231z" />
    <glyph glyph-name="uniF8FF" unicode="&#xf8ff;" horiz-adv-x="517" 
d="M42 691h432v-691h-432v691zM405 648h-294l147 -259zM85 91l147 254l-147 255v-509zM431 91v509l-147 -255zM405 43l-147 258l-147 -258h294z" />
    <glyph glyph-name="uniFEFF" unicode="&#xfeff;" horiz-adv-x="0" 
 />
    <glyph glyph-name="f_i" horiz-adv-x="704" 
d="M88 397h-79v122h79v9q0 60 30 103t84 66t123 23q38 0 65 -8v-132q-7 3 -17.5 5t-23.5 2q-68 0 -68 -65v-3h99v-122h-94v-397h-198v397zM636.5 631.5q-13.5 -21.5 -37.5 -34t-54 -12.5t-54 12.5t-37.5 34t-13.5 48.5t13.5 48.5t37.5 34t54 12.5t54 -12.5t37.5 -34
t13.5 -48.5t-13.5 -48.5zM644 519v-519h-198v519h198z" />
    <glyph glyph-name="f_l" horiz-adv-x="704" 
d="M88 397h-79v122h79v9q0 60 30 103t84 66t123 23q38 0 65 -8v-132q-7 3 -17.5 5t-23.5 2q-68 0 -68 -65v-3h99v-122h-94v-397h-198v397zM644 714v-714h-198v714h198z" />
    <glyph glyph-name="zero.dnom" 
d="M366 93.5q-24 -49.5 -66 -75t-97 -25.5t-97.5 25.5t-66.5 75t-24 119.5q0 69 24 118t66 74t97 25t97.5 -25t66.5 -74t24 -118q0 -70 -24 -119.5zM244 123q16 30 16 89t-15.5 88.5t-41.5 29.5t-42 -30t-16 -88q0 -59 15.5 -89t41.5 -30t42 30z" />
    <glyph glyph-name="one.dnom" 
d="M294 0h-144v286q-44 -20 -96 -32v110q31 9 68.5 26t63.5 33h108v-423z" />
    <glyph glyph-name="two.dnom" 
d="M360 202.5q-22 -34.5 -51.5 -54t-75.5 -43.5v-2h146v-103h-353v84l21 13q60 38 99 65t66.5 58.5t27.5 60.5q0 47 -41 47q-22 0 -34.5 -13t-12.5 -39v-1h-127v2q0 45 23 79.5t65.5 54t98.5 19.5q53 0 91.5 -17.5t58.5 -49.5t20 -76q0 -50 -22 -84.5z" />
    <glyph glyph-name="three.dnom" 
d="M332 399q39 -31 39 -84q0 -39 -18.5 -59t-53.5 -29v-1q38 -6 61.5 -32t23.5 -74q0 -33 -19 -62t-58 -47t-98 -18q-94 0 -141.5 36t-47.5 100v6h125v-2q0 -16 14 -28t37 -12q25 0 38.5 11.5t13.5 30.5t-12.5 30.5t-38.5 11.5h-38v80h43q19 0 29.5 11t10.5 30
q0 16 -10 26.5t-29 10.5q-25 0 -37 -11.5t-12 -28.5v-5h-125q1 68 51.5 104t135.5 36q77 0 116 -31z" />
    <glyph glyph-name="four.dnom" 
d="M394 74h-56v-74h-131v74h-191v96l200 253h122v-252h56v-97zM207 288h-2l-88 -117h90v117z" />
    <glyph glyph-name="five.dnom" 
d="M357 320h-178l-14 -68l1 -1q39 29 91 29q37 0 65.5 -15.5t45 -46t16.5 -73.5q0 -45 -21.5 -79.5t-63 -53.5t-100.5 -19q-58 0 -97.5 16t-59 45.5t-18.5 68.5h131q3 -13 15.5 -21t32.5 -8q22 0 35.5 13.5t13.5 35.5q0 23 -13 36.5t-35 13.5q-17 0 -28.5 -5.5t-16.5 -14.5
h-123l43 250h278v-103z" />
    <glyph glyph-name="six.dnom" 
d="M260 317q-2 8 -12 15t-29 7q-34 0 -52.5 -25.5t-18.5 -75.5l2 -2q34 40 103 40q37 0 65.5 -16t44.5 -45t16 -67q0 -74 -47 -114.5t-130 -40.5q-56 0 -96.5 24.5t-62.5 71t-22 110.5q0 82 29 133.5t75.5 74.5t101.5 23q47 0 80 -15.5t50 -41.5t20 -56h-117zM169.5 108.5
q14.5 -14.5 39.5 -14.5t39.5 14.5t14.5 38.5q0 23 -14.5 37t-38.5 14q-25 0 -40 -14t-15 -37q0 -24 14.5 -38.5z" />
    <glyph glyph-name="seven.dnom" 
d="M368 317q-81 -156 -126 -317h-150q28 85 66 170t72 143h-195v110h333v-106z" />
    <glyph glyph-name="eight.dnom" 
d="M352 254q-17 -25 -43 -31v-2q34 -4 55 -29.5t21 -60.5q0 -42 -22 -72.5t-63 -46.5t-98 -16t-98 16t-62.5 46.5t-21.5 72.5q0 37 21.5 60t57.5 30v2q-26 10 -42.5 33t-16.5 57q0 55 43 86.5t120 31.5q78 0 122 -31.5t44 -86.5q0 -34 -17 -59zM238.5 269.5
q13.5 11.5 13.5 32.5q0 20 -13.5 31.5t-36.5 11.5q-22 0 -34 -11.5t-12 -31.5q0 -21 12 -32.5t34 -11.5q23 0 36.5 11.5zM240 103q14 12 14 34t-13.5 34t-37.5 12t-38 -12t-14 -34t13.5 -34t37.5 -12t38 12z" />
    <glyph glyph-name="nine.dnom" 
d="M143 106q2 -8 12.5 -15t31.5 -7q35 0 51.5 25t16.5 76l-2 2q-34 -40 -103 -40q-37 0 -65.5 16.5t-44.5 47t-16 70.5q0 47 22 81t61.5 51t90.5 17q58 0 99.5 -24.5t63 -71t21.5 -110.5q0 -82 -27.5 -133.5t-73 -74.5t-102.5 -23q-47 0 -81 15.5t-51.5 41.5t-20.5 56h117z
M233.5 317.5q-14.5 14.5 -39.5 14.5t-39.5 -14.5t-14.5 -38.5q0 -23 14.5 -37t38.5 -14q25 0 40 14t15 37q0 24 -14.5 38.5z" />
    <glyph glyph-name="zero.numr" 
d="M366 361.5q-24 -49.5 -66 -75t-97 -25.5t-97.5 25.5t-66.5 75t-24 119.5q0 69 24 118t66 74t97 25t97.5 -25t66.5 -74t24 -118q0 -70 -24 -119.5zM244 391q16 30 16 89t-15.5 88.5t-41.5 29.5t-42 -30t-16 -88q0 -59 15.5 -89t41.5 -30t42 30z" />
    <glyph glyph-name="one.numr" 
d="M294 268h-144v286q-44 -20 -96 -32v110q31 9 68.5 26t63.5 33h108v-423z" />
    <glyph glyph-name="two.numr" 
d="M360 470.5q-22 -34.5 -51.5 -54t-75.5 -43.5v-2h146v-103h-353v84l21 13q60 38 99 65t66.5 58.5t27.5 60.5q0 47 -41 47q-22 0 -34.5 -13t-12.5 -39v-1h-127v2q0 45 23 79.5t65.5 54t98.5 19.5q53 0 91.5 -17.5t58.5 -49.5t20 -76q0 -50 -22 -84.5z" />
    <glyph glyph-name="three.numr" 
d="M332 667q39 -31 39 -84q0 -39 -18.5 -59t-53.5 -29v-1q38 -6 61.5 -32t23.5 -74q0 -33 -19 -62t-58 -47t-98 -18q-94 0 -141.5 36t-47.5 100v6h125v-2q0 -16 14 -28t37 -12q25 0 38.5 11.5t13.5 30.5t-12.5 30.5t-38.5 11.5h-38v80h43q19 0 29.5 11t10.5 30
q0 16 -10 26.5t-29 10.5q-25 0 -37 -11.5t-12 -28.5v-5h-125q1 68 51.5 104t135.5 36q77 0 116 -31z" />
    <glyph glyph-name="four.numr" 
d="M394 342h-56v-74h-131v74h-191v96l200 253h122v-252h56v-97zM207 556h-2l-88 -117h90v117z" />
    <glyph glyph-name="five.numr" horiz-adv-x="405" 
d="M357 588h-178l-14 -68l1 -1q39 29 91 29q37 0 65.5 -15.5t45 -46t16.5 -73.5q0 -45 -21.5 -79.5t-63 -53.5t-100.5 -19q-58 0 -97.5 16t-59 45.5t-18.5 68.5h131q3 -13 15.5 -21t32.5 -8q22 0 35.5 13.5t13.5 35.5q0 23 -13 36.5t-35 13.5q-17 0 -28.5 -5.5t-16.5 -14.5
h-123l43 250h278v-103z" />
    <glyph glyph-name="six.numr" 
d="M260 585q-2 8 -12 15t-29 7q-34 0 -52.5 -25.5t-18.5 -75.5l2 -2q34 40 103 40q37 0 65.5 -16t44.5 -45t16 -67q0 -74 -47 -114.5t-130 -40.5q-56 0 -96.5 24.5t-62.5 71t-22 110.5q0 82 29 133.5t75.5 74.5t101.5 23q47 0 80 -15.5t50 -41.5t20 -56h-117zM169.5 376.5
q14.5 -14.5 39.5 -14.5t39.5 14.5t14.5 38.5q0 23 -14.5 37t-38.5 14q-25 0 -40 -14t-15 -37q0 -24 14.5 -38.5z" />
    <glyph glyph-name="seven.numr" 
d="M368 585q-81 -156 -126 -317h-150q28 85 66 170t72 143h-195v110h333v-106z" />
    <glyph glyph-name="eight.numr" 
d="M352 522q-17 -25 -43 -31v-2q34 -4 55 -29.5t21 -60.5q0 -42 -22 -72.5t-63 -46.5t-98 -16t-98 16t-62.5 46.5t-21.5 72.5q0 37 21.5 60t57.5 30v2q-26 10 -42.5 33t-16.5 57q0 55 43 86.5t120 31.5q78 0 122 -31.5t44 -86.5q0 -34 -17 -59zM238.5 537.5
q13.5 11.5 13.5 32.5q0 20 -13.5 31.5t-36.5 11.5q-22 0 -34 -11.5t-12 -31.5q0 -21 12 -32.5t34 -11.5q23 0 36.5 11.5zM240 371q14 12 14 34t-13.5 34t-37.5 12t-38 -12t-14 -34t13.5 -34t37.5 -12t38 12z" />
    <glyph glyph-name="nine.numr" 
d="M143 374q2 -8 12.5 -15t31.5 -7q35 0 51.5 25t16.5 76l-2 2q-34 -40 -103 -40q-37 0 -65.5 16.5t-44.5 47t-16 70.5q0 47 22 81t61.5 51t90.5 17q58 0 99.5 -24.5t63 -71t21.5 -110.5q0 -82 -27.5 -133.5t-73 -74.5t-102.5 -23q-47 0 -81 15.5t-51.5 41.5t-20.5 56h117z
M233.5 585.5q-14.5 14.5 -39.5 14.5t-39.5 -14.5t-14.5 -38.5q0 -23 14.5 -37t38.5 -14q25 0 40 14t15 37q0 24 -14.5 38.5z" />
    <glyph glyph-name="caroncomb.alt" horiz-adv-x="0" 
d="M32 714l-93 -149h-120l37 149h176z" />
    <glyph glyph-name="acute.cap" horiz-adv-x="278" 
d="M339 885l-167 -145h-135l96 145h206z" />
    <glyph glyph-name="breve.cap" horiz-adv-x="278" 
d="M57 852.5q15 -14.5 38 -22t48 -7.5q37 0 64.5 17.5t31.5 46.5h77q-2 -47 -25.5 -80.5t-63 -51t-88.5 -17.5q-82 0 -127.5 37.5t-48.5 111.5h77q2 -20 17 -34.5z" />
    <glyph glyph-name="caron.cap" horiz-adv-x="278" 
d="M85 885l54 -73l54 73h146l-119 -145h-162l-117 145h144z" />
    <glyph glyph-name="circumflex.cap" horiz-adv-x="278" 
d="M219 885l119 -145h-145l-55 74l-53 -74h-145l117 145h162z" />
    <glyph glyph-name="dieresis.cap" horiz-adv-x="278" 
d="M90.5 758.5q-22.5 -18.5 -62.5 -18.5t-62.5 18.5t-22.5 52.5q0 33 23 52t62 19q40 0 62.5 -18.5t22.5 -52.5t-22.5 -52.5zM314.5 758.5q-22.5 -18.5 -62.5 -18.5t-62.5 18.5t-22.5 52.5q0 33 23 52t62 19q40 0 62.5 -18.5t22.5 -52.5t-22.5 -52.5z" />
    <glyph glyph-name="dotaccent.cap" horiz-adv-x="278" 
d="M201.5 761.5q-22.5 -18.5 -62.5 -18.5t-62.5 18.5t-22.5 52.5q0 33 23 52t62 19q40 0 62.5 -18.5t22.5 -52.5t-22.5 -52.5z" />
    <glyph glyph-name="grave.cap" horiz-adv-x="278" 
d="M144 885l97 -145h-137l-165 145h205z" />
    <glyph glyph-name="hungarumlaut.cap" horiz-adv-x="278" 
d="M196 885l-154 -145h-107l96 145h165zM415 885l-154 -145h-107l96 145h165z" />
    <glyph glyph-name="macron.cap" horiz-adv-x="278" 
d="M303 858v-90h-326v90h326z" />
    <glyph glyph-name="ring.cap" horiz-adv-x="278" 
d="M233 766q-14 -24 -38.5 -38t-55.5 -14q-30 0 -55 14t-39.5 38t-14.5 54q0 29 14 53.5t38.5 39t56.5 14.5q31 0 56 -14.5t38.5 -39t13.5 -53.5q0 -30 -14 -54zM174 783q14 14 14 37q0 22 -14 35.5t-35 13.5q-22 0 -36 -13.5t-14 -35.5q0 -23 14 -37t36 -14q21 0 35 14z
" />
    <glyph glyph-name="tilde.cap" horiz-adv-x="278" 
d="M205 842q19 0 29 10.5t14 31.5h80q-1 -43 -16 -74t-40 -47t-57 -16q-40 0 -85 18q-24 9 -38.5 13.5t-25.5 4.5q-13 0 -23.5 -10.5t-16.5 -30.5h-77q0 41 12.5 72.5t37 49t57.5 17.5q46 0 107 -26q29 -13 42 -13z" />
    </font>
</defs>
</svg>
