<?xml version="1.0" standalone="no"?>
<!DOCTYPE svg PUBLIC "-//W3C//DTD SVG 1.1//EN" "http://www.w3.org/Graphics/SVG/1.1/DTD/svg11.dtd" >
<svg xmlns="http://www.w3.org/2000/svg" xmlns:xlink="http://www.w3.org/1999/xlink" version="1.1">
<metadata>
Created by FontForge 20170731 at Wed Dec  7 18:00:44 2016
 By Aleksey,,,
(c) Copyright 2016 Reliance Jio Infocomm Ltd
</metadata>
<defs>
<font id="JioType-Light" horiz-adv-x="379" >
  <font-face 
    font-family="JioType Light"
    font-weight="300"
    font-stretch="normal"
    units-per-em="1000"
    panose-1="2 11 3 4 2 2 2 2 2 4"
    ascent="765"
    descent="-235"
    x-height="516"
    cap-height="691"
    bbox="-209 -214 1029 936"
    underline-thickness="50"
    underline-position="-175"
    unicode-range="U+000D-FEFF"
  />
<missing-glyph horiz-adv-x="517" 
d="M42 691h432v-691h-432v691zM405 648h-294l147 -259zM85 91l147 254l-147 255v-509zM431 91v509l-147 -255zM405 43l-147 258l-147 -258h294z" />
    <glyph glyph-name="ff" unicode="ff" horiz-adv-x="524" 
d="M436 628q-21 -33 -21 -99v-13h99v-53h-99v-463h-63v463h-188v-463h-63v463h-84v53h84v22q0 51 16.5 91t50.5 62.5t84 22.5q22 0 38 -3v-54q-17 4 -35 4q-49 0 -70 -33t-21 -99v-13h188v22q0 51 16.5 91t50.5 62.5t84 22.5q22 0 38 -3v-54q-17 4 -35 4q-49 0 -70 -33z" />
    <glyph glyph-name="fi" unicode="fi" horiz-adv-x="484" 
d="M101 463h-84v53h84v22q0 51 16.5 91t50.5 62.5t84 22.5q22 0 38 -3v-54q-17 4 -35 4q-49 0 -70 -33t-21 -99v-13h99v-53h-99v-463h-63v463zM416 638q-13 -13 -33 -13t-32.5 13.5t-12.5 32.5t12.5 32.5t32.5 13.5t33 -13.5t13 -32.5q0 -20 -13 -33zM415 516v-516h-63v516
h63z" />
    <glyph glyph-name="fl" unicode="fl" horiz-adv-x="484" 
d="M101 463h-84v53h84v22q0 51 16.5 91t50.5 62.5t84 22.5q22 0 38 -3v-54q-17 4 -35 4q-49 0 -70 -33t-21 -99v-13h99v-53h-99v-463h-63v463zM415 714v-714h-63v714h63z" />
    <glyph glyph-name="ffi" unicode="ffi" horiz-adv-x="735" 
d="M667 638q-13 -13 -33 -13t-32.5 13.5t-12.5 32.5t12.5 32.5t32.5 13.5t33 -13.5t13 -32.5q0 -20 -13 -33zM666 516v-516h-63v516h63zM436 628q-21 -33 -21 -99v-13h99v-53h-99v-463h-63v463h-188v-463h-63v463h-84v53h84v22q0 51 16.5 91t50.5 62.5t84 22.5q22 0 38 -3
v-54q-17 4 -35 4q-49 0 -70 -33t-21 -99v-13h188v22q0 51 16.5 91t50.5 62.5t84 22.5q22 0 38 -3v-54q-17 4 -35 4q-49 0 -70 -33z" />
    <glyph glyph-name="ffl" unicode="ffl" horiz-adv-x="735" 
d="M666 714v-714h-63v714h63zM436 628q-21 -33 -21 -99v-13h99v-53h-99v-463h-63v463h-188v-463h-63v463h-84v53h84v22q0 51 16.5 91t50.5 62.5t84 22.5q22 0 38 -3v-54q-17 4 -35 4q-49 0 -70 -33t-21 -99v-13h188v22q0 51 16.5 91t50.5 62.5t84 22.5q22 0 38 -3v-54
q-17 4 -35 4q-49 0 -70 -33z" />
    <glyph glyph-name=".notdef" horiz-adv-x="517" 
d="M42 691h432v-691h-432v691zM405 648h-294l147 -259zM85 91l147 254l-147 255v-509zM431 91v509l-147 -255zM405 43l-147 258l-147 -258h294z" />
    <glyph glyph-name=".null" horiz-adv-x="0" 
 />
    <glyph glyph-name="nonmarkingreturn" horiz-adv-x="333" 
 />
    <glyph glyph-name="NULL" horiz-adv-x="0" 
 />
    <glyph glyph-name="NULL" horiz-adv-x="0" 
 />
    <glyph glyph-name="CR" unicode="&#xd;" horiz-adv-x="290" 
 />
    <glyph glyph-name="space" unicode=" " horiz-adv-x="290" 
 />
    <glyph glyph-name="exclam" unicode="!" horiz-adv-x="255" 
d="M165 691l-15 -513h-44l-15 513h74zM166 89.5q15 -15.5 15 -38.5t-15 -38.5t-38 -15.5t-38 16t-15 38q0 23 14.5 38.5t38.5 15.5q23 0 38 -15.5z" />
    <glyph glyph-name="quotedbl" unicode="&#x22;" horiz-adv-x="381" 
d="M156 714v-243h-62v243h62zM287 714v-243h-62v243h62z" />
    <glyph glyph-name="numbersign" unicode="#" horiz-adv-x="559" 
d="M213 691h50l-30 -222h135l30 222h50l-30 -222h101v-45h-107l-21 -156h101v-45h-107l-30 -223h-50l30 223h-135l-30 -223h-50l30 223h-106v45h112l21 156h-106v45h112zM206 268h135l22 156h-136z" />
    <glyph glyph-name="dollar" unicode="$" horiz-adv-x="560" 
d="M298 781v-75q59 -1 105.5 -24.5t74 -65.5t30.5 -99h-64q-1 41 -19.5 71.5t-51 47.5t-75.5 17v-276q85 -18 134 -45.5t69.5 -64.5t20.5 -88q0 -56 -28 -99.5t-79 -68.5t-117 -26v-82h-39v83q-73 7 -120.5 30t-73 67t-29.5 112h62q4 -71 44.5 -110t116.5 -47v285
q-77 15 -121.5 40t-63.5 62t-19 91q0 53 25 95.5t71.5 67.5t107.5 27v75h39zM259 653q-66 0 -103.5 -38t-37.5 -105q0 -34 12.5 -56.5t43 -39t85.5 -28.5v267zM383.5 55.5q36.5 17.5 56 49t19.5 73.5q0 35 -15.5 60t-51 44t-94.5 33v-277q49 0 85.5 17.5z" />
    <glyph glyph-name="percent" unicode="%" horiz-adv-x="885" 
d="M634 725h47l-438 -759h-47zM347 378.5q-39 -50.5 -116 -50.5q-74 0 -114 49t-40 140t40 140t115 49t114.5 -49.5t39.5 -139.5q0 -88 -39 -138.5zM308 414q25 41 25 102q0 60 -24 102.5t-78 42.5q-48 0 -74.5 -38t-26.5 -107q0 -65 25 -104t76 -39q52 0 77 41zM774 35.5
q-39 -50.5 -115 -50.5q-77 0 -115.5 51t-38.5 138q0 90 40 139.5t114 49.5q75 0 114.5 -49.5t39.5 -139.5q0 -88 -39 -138.5zM735.5 70q25.5 40 25.5 103q0 58 -23.5 101.5t-79.5 43.5q-48 0 -74.5 -38t-26.5 -107q0 -63 25 -103t77 -40q51 0 76.5 40z" />
    <glyph glyph-name="ampersand" unicode="&#x26;" horiz-adv-x="615" 
d="M409 466.5q-31 -43.5 -104 -88.5l152 -190q11 25 14.5 50.5t3.5 74.5h63q0 -44 -11.5 -90.5t-30.5 -81.5l118 -141h-79l-74 89q-42 -52 -91.5 -77.5t-112.5 -25.5q-62 0 -109 21t-73.5 63.5t-26.5 105.5q0 64 43 117.5t126 97.5l-14 19q-22 28 -36.5 49.5t-24.5 47.5
t-10 54q0 43 20.5 76t56 51t77.5 18q43 0 78 -18t55.5 -51t20.5 -76q0 -51 -31 -94.5zM213 500.5q18 -33.5 59 -81.5q58 36 82 70.5t24 71.5q0 43 -25.5 68t-67.5 25q-24 0 -44.5 -10.5t-33 -31t-12.5 -50.5q0 -28 18 -61.5zM349.5 60.5q38.5 22.5 75.5 72.5l-174 217
q-72 -38 -106.5 -81.5t-34.5 -97.5q0 -42 20.5 -72t54.5 -45.5t75 -15.5q51 0 89.5 22.5z" />
    <glyph glyph-name="quotesingle" unicode="'" horiz-adv-x="290" 
d="M176 714v-243h-62v243h62z" />
    <glyph glyph-name="parenleft" unicode="(" horiz-adv-x="255" 
d="M153 504.5q-31 -122.5 -31 -260.5q0 -108 33.5 -225t90.5 -210h-50q-74 128 -105.5 235.5t-31.5 221.5q0 121 34.5 237.5t102.5 225.5h50q-62 -102 -93 -224.5z" />
    <glyph glyph-name="parenright" unicode=")" horiz-adv-x="255" 
d="M163.5 499.5q32.5 -107.5 32.5 -227.5q0 -123 -35 -239.5t-102 -223.5h-50q62 103 93 225.5t31 259.5q0 104 -33 218.5t-91 216.5h50q72 -122 104.5 -229.5z" />
    <glyph glyph-name="asterisk" unicode="*" horiz-adv-x="363" 
d="M200 691v-119l112 40l15 -37l-115 -38l70 -95l-32 -23l-70 97l-71 -97l-32 23l71 95l-112 38l14 37l112 -40v119h38z" />
    <glyph glyph-name="plus" unicode="+" horiz-adv-x="602" 
d="M328 503v-225h217v-53h-217v-225h-53v225h-217v53h217v225h53z" />
    <glyph glyph-name="comma" unicode="," horiz-adv-x="278" 
d="M180 82q0 -45 -17 -107t-43 -104h-54q21 40 35.5 98t14.5 113q0 13 -1 24h65v-24z" />
    <glyph glyph-name="hyphen" unicode="-" horiz-adv-x="380" 
d="M312 304v-58h-244v58h244z" />
    <glyph glyph-name="period" unicode="." horiz-adv-x="278" 
d="M177 89.5q15 -15.5 15 -38.5t-15 -38.5t-38 -15.5t-38 16t-15 38q0 23 14.5 38.5t38.5 15.5q23 0 38 -15.5z" />
    <glyph glyph-name="slash" unicode="/" horiz-adv-x="344" 
d="M346 729l-295 -744h-54l299 744h50z" />
    <glyph glyph-name="zero" unicode="0" horiz-adv-x="559" 
d="M457 76q-60 -91 -177 -91t-177 90.5t-60 269.5q0 180 60 270.5t177 90.5t177 -91.5t60 -268.5q0 -179 -60 -270zM410.5 115.5q43.5 77.5 43.5 230.5t-43.5 230t-131.5 77q-86 0 -129.5 -77t-43.5 -230q0 -308 174 -308q87 0 130.5 77.5z" />
    <glyph glyph-name="one" unicode="1" horiz-adv-x="559" 
d="M344 0h-63v624q-27 -16 -81.5 -41.5t-82.5 -35.5v58q30 10 86.5 37.5t88.5 48.5h52v-691z" />
    <glyph glyph-name="two" unicode="2" horiz-adv-x="559" 
d="M435.5 362q-42.5 -70 -107.5 -133.5t-187 -170.5v-2h353v-56h-427v63q125 106 196 175.5t110.5 134t39.5 126.5q0 49 -17.5 84t-48.5 52.5t-72 17.5t-74 -17t-51.5 -49t-18.5 -75v-5h-62v5q0 58 27 102t74 68t105 24q62 0 107.5 -24t70.5 -69.5t25 -107.5
q0 -73 -42.5 -143z" />
    <glyph glyph-name="three" unicode="3" horiz-adv-x="559" 
d="M375 686.5q46 -19.5 74 -60t28 -98.5t-29 -99.5t-81 -55.5v-2q66 -12 100.5 -58.5t34.5 -114.5q0 -66 -30.5 -114t-82 -73.5t-113.5 -25.5q-65 0 -116 21t-80.5 63.5t-29.5 106.5v14h63v-10q0 -41 20 -73.5t56.5 -50.5t85.5 -18q43 0 80.5 18t60.5 53t23 84q0 70 -40 109
t-115 39h-49v53h48q35 0 65 14.5t48 43.5t18 69q0 64 -37 98t-102 34q-68 0 -107.5 -35t-39.5 -103v-4h-62q0 60 27 104t74 67.5t108 23.5q54 0 100 -19.5z" />
    <glyph glyph-name="four" unicode="4" horiz-adv-x="559" 
d="M353 691h56v-465h102v-53h-102v-173h-58v173h-312v61zM95 226h256v373h-1z" />
    <glyph glyph-name="five" unicode="5" horiz-adv-x="559" 
d="M471 633h-297l-44 -232l2 -2q26 31 64.5 48t79.5 17q68 0 119.5 -30.5t80 -85.5t28.5 -126q0 -66 -29.5 -120t-82.5 -85.5t-121 -31.5q-59 0 -107 21t-78.5 62.5t-37.5 101.5h61q5 -41 26.5 -70.5t56.5 -45.5t79 -16q52 0 91 26t60 69.5t21 95.5q0 51 -22.5 92.5
t-62.5 65.5t-89 24q-46 0 -84.5 -19t-63.5 -59h-56l66 358h340v-58z" />
    <glyph glyph-name="six" unicode="6" horiz-adv-x="559" 
d="M434 553q-11 50 -45 75t-92 25q-91 0 -138.5 -80.5t-48.5 -232.5h2q25 54 74.5 85t106.5 31q65 0 115.5 -29.5t79 -82.5t28.5 -122q0 -68 -29.5 -122t-82 -84.5t-118.5 -30.5q-84 0 -135.5 36.5t-76.5 117.5t-25 216q0 80 22 159.5t77 135.5t148 56q92 0 138.5 -38.5
t60.5 -114.5h-61zM167.5 85.5q44.5 -47.5 124.5 -47.5q46 0 83.5 24t58.5 65.5t21 90.5q0 53 -20 95t-57.5 66t-87.5 24q-51 0 -89 -24.5t-58 -67t-20 -93.5q0 -85 44.5 -132.5z" />
    <glyph glyph-name="seven" unicode="7" horiz-adv-x="559" 
d="M496 633q-66 -117 -147.5 -305.5t-127.5 -327.5h-66q47 141 129 324.5t151 308.5h-376v58h437v-58z" />
    <glyph glyph-name="eight" unicode="8" horiz-adv-x="559" 
d="M457 433.5q-29 -40.5 -81 -56.5v-2q66 -14 102 -61t36 -118q0 -66 -30 -113.5t-83 -72.5t-121 -25q-69 0 -122 25.5t-83 72.5t-30 111q0 40 15 78t46 66t77 37v2q-54 18 -82 57.5t-28 96.5q0 54 27.5 94t74.5 60.5t104 20.5q52 0 99.5 -19t77.5 -58.5t30 -97.5
q0 -57 -29 -97.5zM383.5 435.5q39.5 34.5 39.5 95.5q0 37 -17.5 64.5t-50 42.5t-76.5 15q-39 0 -71.5 -14.5t-52.5 -42.5t-20 -65q0 -39 17.5 -68.5t50 -45.5t74.5 -16q67 0 106.5 34.5zM370.5 56.5q38.5 18.5 59.5 54.5t21 85q0 44 -20.5 78.5t-59.5 54t-92 19.5t-91.5 -19
t-59 -53.5t-20.5 -79.5q0 -51 22.5 -86.5t61.5 -53.5t88 -18q52 0 90.5 18.5z" />
    <glyph glyph-name="nine" unicode="9" horiz-adv-x="559" 
d="M488.5 173.5q-22.5 -79.5 -78 -134t-146.5 -54.5q-90 0 -141.5 40.5t-63.5 112.5h62q8 -45 45.5 -72.5t95.5 -27.5q92 0 139.5 81.5t47.5 231.5h-2q-16 -36 -44.5 -62t-64 -40t-71.5 -14q-66 0 -117 30t-79 83t-28 121t30 122t82.5 84.5t117.5 30.5q86 0 138 -38.5
t76 -119t24 -212.5q0 -83 -22.5 -162.5zM124.5 378q20.5 -42 57.5 -66t86 -24q53 0 91 24.5t58 67t20 93.5q0 84 -44 132t-126 48q-46 0 -83.5 -24t-58.5 -65t-21 -91q0 -53 20.5 -95z" />
    <glyph glyph-name="colon" unicode=":" horiz-adv-x="278" 
d="M177 492.5q15 -15.5 15 -38.5t-15 -38.5t-38 -15.5t-38 16t-15 38q0 23 14.5 38.5t38.5 15.5q23 0 38 -15.5zM177 89.5q15 -15.5 15 -38.5t-15 -38.5t-38 -15.5t-38 16t-15 38q0 23 14.5 38.5t38.5 15.5q23 0 38 -15.5z" />
    <glyph glyph-name="semicolon" unicode=";" horiz-adv-x="278" 
d="M180 492.5q15 -15.5 15 -38.5t-15 -38.5t-38 -15.5t-38 16t-15 38q0 23 14.5 38.5t38.5 15.5q23 0 38 -15.5zM177 82q0 -45 -17 -107t-43 -104h-54q21 40 35.5 98t14.5 113q0 13 -1 24h65v-24z" />
    <glyph glyph-name="less" unicode="&#x3c;" horiz-adv-x="602" 
d="M547 459l-430 -206l430 -206v-55l-492 234v54l492 234v-55z" />
    <glyph glyph-name="equal" unicode="=" horiz-adv-x="602" 
d="M545 378v-53h-487v53h487zM545 181v-53h-487v53h487z" />
    <glyph glyph-name="greater" unicode="&#x3e;" horiz-adv-x="602" 
d="M55 514l492 -234v-54l-492 -234v55l430 206l-430 206v55z" />
    <glyph glyph-name="question" unicode="?" horiz-adv-x="542" 
d="M466 453q-15 -33 -36 -57t-54 -54l-18 -17q-23 -22 -33.5 -38t-14.5 -40.5t-4 -69.5v-3h-63v20q0 39 7 66.5t22 51t41 49.5l24 23q27 26 42.5 43.5t26.5 41.5t11 54q0 37 -18.5 66.5t-50 46.5t-69.5 17q-47 0 -82 -20.5t-54 -60t-19 -94.5h-62q0 70 27 121.5t77 79
t117 27.5q56 0 101.5 -22.5t71 -63.5t25.5 -94q0 -40 -15 -73zM315 89.5q15 -15.5 15 -38.5t-15 -38.5t-38 -15.5t-38 16t-15 38q0 23 14.5 38.5t38.5 15.5q23 0 38 -15.5z" />
    <glyph glyph-name="at" unicode="@" horiz-adv-x="851" 
d="M621 622.5q81 -40.5 128 -115t47 -171.5q0 -83 -35 -147t-91.5 -99t-120.5 -35q-34 0 -50.5 20t-16.5 47h-2q-24 -29 -56.5 -47.5t-70.5 -18.5q-39 0 -69 19t-46.5 52t-16.5 74q0 70 30 137t84.5 109.5t122.5 42.5q43 0 70.5 -21.5t38.5 -62.5l22 65h53l-92 -274
q-16 -46 -16 -70q0 -15 6 -21t19 -6q45 0 87.5 29t69.5 83.5t27 126.5q0 83 -39.5 145.5t-108 97t-152.5 34.5q-96 0 -172 -46t-118.5 -126t-42.5 -177t44 -174.5t120.5 -121.5t170.5 -44q84 0 154.5 32t112.5 87h54q-32 -51 -80.5 -88t-110 -57.5t-130.5 -20.5
q-111 0 -200 49t-139.5 138t-50.5 204q0 109 50.5 198.5t138.5 141.5t197 52q99 0 180 -40.5zM305 134q21 -27 61 -27q44 0 82.5 40t61.5 96.5t23 100.5q0 39 -19.5 66.5t-59.5 27.5q-48 0 -87 -37.5t-61 -92t-22 -102.5q0 -45 21 -72z" />
    <glyph glyph-name="A" unicode="A" horiz-adv-x="633" 
d="M358 691l272 -691h-73l-84 213h-314l-83 -213h-73l279 691h76zM316 622l-136 -351h270l-132 351h-2z" />
    <glyph glyph-name="B" unicode="B" horiz-adv-x="668" 
d="M536.5 649.5q59.5 -41.5 59.5 -126.5q0 -36 -14.5 -68.5t-41.5 -55.5t-64 -32v-2q44 -6 77 -29t51 -59t18 -80q0 -96 -63.5 -146.5t-183.5 -50.5h-295v691h294q103 0 162.5 -41.5zM456 403.5q35 14.5 53.5 40.5t18.5 61q0 128 -156 128h-224v-244h226q47 0 82 14.5z
M508.5 92.5q45.5 34.5 45.5 106.5q0 65 -46.5 98.5t-133.5 33.5h-226v-273h226q89 0 134.5 34.5z" />
    <glyph glyph-name="C" unicode="C" horiz-adv-x="704" 
d="M587 505q-11 47 -41.5 79t-74.5 48t-96 16q-87 0 -145.5 -42.5t-86.5 -111.5t-28 -148q0 -78 27.5 -147t86 -112t146.5 -43q60 0 107.5 23.5t77.5 67t37 103.5h66q-9 -81 -47.5 -138t-100 -86t-140.5 -29q-104 0 -178 48.5t-112 131t-38 181.5q0 97 37 179t111 131.5
t180 49.5q69 0 129.5 -23.5t100.5 -69t48 -108.5h-66z" />
    <glyph glyph-name="D" unicode="D" horiz-adv-x="686" 
d="M554 607.5q85 -83.5 85 -261.5q0 -346 -330 -346h-229v691h230q159 0 244 -83.5zM446.5 85.5q62.5 27.5 93.5 90.5t31 169q0 105 -30 168t-92.5 91.5t-163.5 28.5h-137v-575h139q97 0 159.5 27.5z" />
    <glyph glyph-name="E" unicode="E" horiz-adv-x="597" 
d="M559 691v-58h-411v-247h385v-58h-385v-270h416v-58h-484v691h479z" />
    <glyph glyph-name="F" unicode="F" horiz-adv-x="543" 
d="M521 691v-58h-373v-247h331v-58h-331v-328h-68v691h441z" />
    <glyph glyph-name="G" unicode="G" horiz-adv-x="721" 
d="M511 682q61 -24 101 -71t52 -115h-66q-5 41 -34.5 76.5t-78.5 56.5t-110 21q-87 0 -145.5 -43.5t-86.5 -112.5t-28 -148q0 -80 28 -149t86.5 -112t145.5 -43q71 0 125.5 28.5t84.5 84t30 132.5h-226v58h286v-53q0 -103 -40 -172t-107.5 -102t-152.5 -33q-104 0 -178 48.5
t-112 130.5t-38 182q0 97 37.5 179t111.5 131.5t179 49.5q75 0 136 -24z" />
    <glyph glyph-name="H" unicode="H" horiz-adv-x="704" 
d="M148 691v-299h408v299h68v-691h-68v334h-408v-334h-68v691h68z" />
    <glyph glyph-name="I" unicode="I" horiz-adv-x="237" 
d="M153 691v-691h-68v691h68z" />
    <glyph glyph-name="J" unicode="J" horiz-adv-x="507" 
d="M427 191q0 -106 -48.5 -156t-153.5 -50q-194 0 -194 201v2h66q0 -71 30 -107.5t104 -36.5q48 0 75.5 17t40 55t12.5 102v473h68v-500z" />
    <glyph glyph-name="K" unicode="K" horiz-adv-x="603" 
d="M148 344h2l340 347h88l-322 -319q45 -2 83 -27.5t95.5 -103t159.5 -241.5h-80q-91 148 -139 213.5t-84.5 88t-87.5 22.5l-55 -54v-270h-68v691h68v-347z" />
    <glyph glyph-name="L" unicode="L" horiz-adv-x="543" 
d="M148 691v-633h387v-58h-455v691h68z" />
    <glyph glyph-name="M" unicode="M" horiz-adv-x="830" 
d="M178 691l237 -602h2l236 602h99v-691h-67v594h-2l-235 -594h-65l-235 594h-2v-594h-68v691h100z" />
    <glyph glyph-name="N" unicode="N" horiz-adv-x="704" 
d="M154 691l402 -581h2v581h67v-691h-75l-401 581h-2v-581h-68v691h75z" />
    <glyph glyph-name="O" unicode="O" horiz-adv-x="740" 
d="M660 166q-37 -82 -110.5 -131.5t-178.5 -49.5t-179 49t-111.5 131t-37.5 180t37.5 180.5t111.5 131.5t179 49q104 0 177.5 -49t111 -131t37.5 -181q0 -97 -37 -179zM514.5 85.5q58.5 42.5 86.5 111t28 148.5q0 79 -27.5 148t-86 112t-145.5 43q-84 0 -142.5 -41.5
t-87.5 -110t-29 -151.5q0 -79 28 -148t86.5 -111.5t145.5 -42.5q85 0 143.5 42.5z" />
    <glyph glyph-name="P" unicode="P" horiz-adv-x="632" 
d="M495.5 668q46.5 -23 72.5 -67.5t26 -107.5q0 -64 -26.5 -108.5t-73 -67t-105.5 -22.5h-241v-295h-68v691h309q60 0 106.5 -23zM485 388q41 35 41 105q0 66 -39 103t-115 37h-224v-280h225q71 0 112 35z" />
    <glyph glyph-name="Q" unicode="Q" horiz-adv-x="765" 
d="M684.5 234.5q-13.5 -54.5 -39.5 -99.5q35 -67 111 -105l-55 -38q-63 36 -97 88q-42 -45 -100.5 -70t-132.5 -25q-105 0 -179 49t-111.5 131t-37.5 181q0 98 37.5 180t111.5 131t179 49q104 0 178 -49t111.5 -131t37.5 -180q0 -57 -13.5 -111.5zM139 197.5
q28 -68.5 86.5 -111t145.5 -42.5q86 0 144.5 42t86.5 111t28 149q0 79 -28 148t-86.5 111.5t-145.5 42.5q-84 0 -142.5 -41t-87.5 -109.5t-29 -151.5q0 -80 28 -148.5z" />
    <glyph glyph-name="R" unicode="R" horiz-adv-x="661" 
d="M507.5 670.5q48.5 -20.5 75.5 -61t27 -98.5q0 -69 -36 -116t-100 -60v-2q46 -8 70.5 -36t41 -92.5t37.5 -204.5h-69q-15 106 -27.5 163t-22.5 78.5t-24 35.5q-30 30 -88 30h-244v-307h-68v691h316q63 0 111.5 -20.5zM468 380.5q34 15.5 54.5 46t20.5 71.5q0 66 -39 100.5
t-110 34.5h-246v-268h246q40 0 74 15.5z" />
    <glyph glyph-name="S" unicode="S" horiz-adv-x="632" 
d="M497 516q-6 66 -57.5 99t-132.5 33q-77 0 -125 -33t-48 -103q0 -34 14.5 -55.5t39 -33t62.5 -20.5l151 -36q67 -16 107.5 -40.5t59.5 -60t19 -83.5q0 -44 -21 -88.5t-80 -77t-164 -32.5q-87 0 -149 23.5t-94.5 69t-32.5 110.5v7h66v-5q0 -75 56 -110.5t155 -35.5
q88 0 143 34t55 104q0 49 -34.5 78t-104.5 46l-145 35q-61 15 -97.5 36.5t-54 54t-17.5 79.5q0 45 23 89.5t76.5 75t138.5 30.5q74 0 131 -22.5t90.5 -65t35.5 -102.5h-66z" />
    <glyph glyph-name="T" unicode="T" horiz-adv-x="561" 
d="M555 691v-58h-241v-633h-68v633h-240v58h549z" />
    <glyph glyph-name="U" unicode="U" horiz-adv-x="686" 
d="M141 262q0 -107 48 -163t154 -56q104 0 153 54t49 166v428h68v-440q0 -82 -30.5 -141.5t-91 -92t-148.5 -32.5q-89 0 -149.5 33.5t-90.5 93.5t-30 139v440h68v-429z" />
    <glyph glyph-name="V" unicode="V" horiz-adv-x="596" 
d="M76 691l224 -615h2l221 615h72l-256 -691h-79l-257 691h73z" />
    <glyph glyph-name="W" unicode="W" horiz-adv-x="901" 
d="M83 691l156 -601h2l168 601h84l168 -601h2l157 601h68l-191 -691h-72l-174 615h-2l-173 -615h-74l-192 691h73z" />
    <glyph glyph-name="X" unicode="X" horiz-adv-x="579" 
d="M93 691l195 -288l201 288h76l-236 -337l250 -354h-82l-209 303l-213 -303h-77l250 356l-235 335h80z" />
    <glyph glyph-name="Y" unicode="Y" horiz-adv-x="614" 
d="M81 691l227 -348l225 348h81l-273 -407v-284h-68v284l-273 407h81z" />
    <glyph glyph-name="Z" unicode="Z" horiz-adv-x="577" 
d="M544 633q-106 -120 -245.5 -297t-207.5 -278h463v-58h-539v58q78 113 216 288.5t235 286.5h-420v58h498v-58z" />
    <glyph glyph-name="bracketleft" unicode="[" horiz-adv-x="256" 
d="M242 729v-53h-96v-814h96v-53h-158v920h158z" />
    <glyph glyph-name="backslash" unicode="\" horiz-adv-x="344" 
d="M48 729l298 -744h-53l-296 744h51z" />
    <glyph glyph-name="bracketright" unicode="]" horiz-adv-x="256" 
d="M172 729v-920h-158v53h95v814h-95v53h158z" />
    <glyph glyph-name="asciicircum" unicode="^" horiz-adv-x="602" 
d="M275 691h52l222 -453h-57l-192 390l-189 -390h-58z" />
    <glyph glyph-name="underscore" unicode="_" horiz-adv-x="505" 
d="M495 -75v-50h-485v50h485z" />
    <glyph glyph-name="grave" unicode="`" horiz-adv-x="201" 
d="M57 730l102 -141h-51l-128 141h77z" />
    <glyph glyph-name="a" unicode="a" horiz-adv-x="513" 
d="M386 341q0 64 -28 100.5t-98 36.5q-61 0 -94.5 -21.5t-39.5 -61.5h-62q6 41 30.5 71.5t67.5 47.5t100 17q92 0 139.5 -45.5t47.5 -138.5v-347h-55l-6 77h-3q-23 -39 -65 -65.5t-103 -26.5q-52 0 -92 18t-62 54t-22 87q0 87 67.5 124t193.5 37h84v36zM313 257
q-71 0 -116 -10t-69 -35t-24 -70q0 -51 31 -77.5t84 -26.5q47 0 85 20.5t60 60t22 92.5v46h-73z" />
    <glyph glyph-name="b" unicode="b" horiz-adv-x="578" 
d="M131 418h2q11 34 37 59.5t61.5 39.5t75.5 14q71 0 121.5 -35.5t76.5 -97.5t26 -140q0 -76 -25.5 -138t-76.5 -98.5t-123 -36.5q-59 0 -106 27.5t-67 77.5h-2v-90h-63v714h63v-296zM149.5 149q18.5 -50 57.5 -80.5t98 -30.5q55 0 91.5 31.5t54 81.5t17.5 107
q0 58 -17.5 108t-54.5 81t-92 31t-94 -28t-59 -77.5t-20 -113.5q0 -60 18.5 -110z" />
    <glyph glyph-name="c" unicode="c" horiz-adv-x="525" 
d="M421 374q-14 50 -50 77t-91 27q-56 0 -95.5 -31.5t-59.5 -81.5t-20 -107t20.5 -107.5t60 -81.5t94.5 -31q38 0 69 16t50.5 45t25.5 66h61q-9 -53 -36 -93.5t-70.5 -63.5t-99.5 -23q-73 0 -127 36.5t-82.5 98.5t-28.5 138q0 78 29 140t83.5 97.5t125.5 35.5
q85 0 136.5 -43t65.5 -114h-61z" />
    <glyph glyph-name="d" unicode="d" horiz-adv-x="578" 
d="M510 0h-63v90h-2q-14 -32 -41.5 -56t-62 -36.5t-69.5 -12.5q-72 0 -123 35.5t-76.5 97.5t-25.5 140q0 76 25.5 138t76 98.5t123.5 36.5q38 0 73 -13.5t61.5 -39t38.5 -60.5h2v296h63v-714zM370 67.5q39 29.5 58 79.5t19 111q0 60 -18.5 109.5t-57.5 80t-98 30.5
q-55 0 -91.5 -31t-54 -81t-17.5 -108q0 -59 18 -109t54.5 -80.5t90.5 -30.5q58 0 97 29.5z" />
    <glyph glyph-name="e" unicode="e" horiz-adv-x="525" 
d="M490 241h-384q1 -53 19 -99.5t55 -75t90 -28.5q61 0 97.5 27t49.5 73h62q-20 -73 -72 -113t-137 -40q-74 0 -125 34.5t-76.5 96.5t-25.5 142q0 73 25 135.5t76 100t126 37.5q69 0 118.5 -35t75.5 -97t26 -143v-15zM427 294q-2 49 -21.5 91.5t-54.5 67.5t-82 25
q-43 0 -77.5 -22.5t-57 -64t-28.5 -97.5h321z" />
    <glyph glyph-name="f" unicode="f" horiz-adv-x="273" 
d="M101 463h-84v53h84v22q0 51 16.5 91t50.5 62.5t84 22.5q22 0 38 -3v-54q-17 4 -35 4q-49 0 -70 -33t-21 -99v-13h99v-53h-99v-463h-63v463z" />
    <glyph glyph-name="g" unicode="g" horiz-adv-x="561" 
d="M429 427v89h63v-476q0 -246 -223 -246q-89 0 -146 30.5t-66 95.5h64q9 -40 46 -56.5t100 -16.5q83 0 122.5 49t39.5 143v63h-2q-22 -51 -64 -81t-95 -30q-73 0 -123.5 33.5t-76 94.5t-25.5 144q0 77 27.5 138t78.5 95.5t119 34.5q35 0 66.5 -13.5t56 -37t36.5 -53.5h2z
M123.5 150.5q17.5 -48.5 54 -77.5t90.5 -29q50 0 86.5 29.5t55.5 78t19 105.5q0 56 -17.5 106.5t-54 82.5t-90.5 32q-50 0 -86.5 -28.5t-55.5 -78.5t-19 -115q0 -57 17.5 -105.5z" />
    <glyph glyph-name="h" unicode="h" horiz-adv-x="542" 
d="M130 438h2q18 45 55.5 69t94.5 24q194 0 194 -196v-335h-63v320q0 78 -33 118t-105 40t-108.5 -41t-36.5 -117v-320h-63v714h63v-276z" />
    <glyph glyph-name="i" unicode="i" horiz-adv-x="201" 
d="M133 638q-13 -13 -33 -13t-32.5 13.5t-12.5 32.5t12.5 32.5t32.5 13.5t33 -13.5t13 -32.5q0 -20 -13 -33zM132 516v-516h-63v516h63z" />
    <glyph glyph-name="j" unicode="j" horiz-adv-x="202" 
d="M133 638q-13 -13 -33 -13t-32.5 13.5t-12.5 32.5t12.5 32.5t32.5 13.5t33 -13.5t13 -32.5q0 -20 -13 -33zM132 -18q0 -72 -14.5 -112.5t-48 -58t-92.5 -17.5v56q39 0 58.5 13.5t26.5 44t7 88.5v520h63v-534z" />
    <glyph glyph-name="k" unicode="k" horiz-adv-x="493" 
d="M131 263h2l256 253h79l-246 -238q30 -3 57.5 -22.5t74.5 -77.5t130 -178h-73q-73 108 -113 156.5t-65.5 63t-58.5 14.5l-43 -40v-194h-63v714h63v-451z" />
    <glyph glyph-name="l" unicode="l" horiz-adv-x="201" 
d="M132 714v-714h-63v714h63z" />
    <glyph glyph-name="m" unicode="m" horiz-adv-x="830" 
d="M491.5 505q41.5 26 95.5 26q84 0 129.5 -52t45.5 -153v-326h-63v320q0 77 -30.5 117.5t-92.5 40.5q-65 0 -97 -41t-32 -117v-320h-63v320q0 158 -123 158q-62 0 -96 -41.5t-34 -116.5v-320h-63v516h58v-79h3q18 41 54.5 67.5t88.5 26.5q66 0 104.5 -24.5t55.5 -76.5
q18 49 59.5 75z" />
    <glyph glyph-name="n" unicode="n" horiz-adv-x="542" 
d="M475 0h-63v320q0 77 -33 117.5t-105 40.5t-108 -41t-36 -117v-320h-63v516h63v-78h2q38 93 149 93q194 0 194 -196v-335z" />
    <glyph glyph-name="o" unicode="o" horiz-adv-x="561" 
d="M489.5 119.5q-28.5 -62.5 -82.5 -98.5t-127 -36t-126.5 36.5t-82 98.5t-28.5 138t28.5 138t82 98.5t126.5 36.5q74 0 128 -36.5t82 -99t28 -137.5q0 -76 -28.5 -138.5zM374.5 69q39.5 31 60 81.5t20.5 107.5q0 56 -20 106.5t-60 82t-96 31.5q-53 0 -92.5 -30.5t-60 -81
t-20.5 -108.5t20.5 -108.5t60 -81t93.5 -30.5q55 0 94.5 31z" />
    <glyph glyph-name="p" unicode="p" horiz-adv-x="578" 
d="M504.5 116q-26.5 -62 -77 -96.5t-120.5 -34.5q-40 0 -75 13.5t-61 39t-38 60.5h-2v-289h-63v707h63v-90h2q21 50 67.5 77.5t105.5 27.5q73 0 123.5 -36.5t76 -98.5t25.5 -138q0 -80 -26.5 -142zM149 149.5q18 -49.5 57 -80.5t99 -31q55 0 91.5 31.5t54 81.5t17.5 107
t-17 107t-54 81.5t-93 31.5q-85 0 -129 -55.5t-44 -164.5q0 -59 18 -108.5z" />
    <glyph glyph-name="q" unicode="q" horiz-adv-x="578" 
d="M447 427v89h63v-707h-63v287h-2q-23 -51 -67 -81t-99 -30q-76 0 -128 33.5t-78 95.5t-26 146q0 78 28.5 140t81 96.5t122.5 34.5q36 0 69.5 -13.5t58.5 -37t38 -53.5h2zM369 68q38 30 58 80t20 109q0 56 -18 106.5t-56 82.5t-95 32q-53 0 -91 -28.5t-57.5 -79.5
t-19.5 -117q0 -58 18.5 -107t56.5 -78.5t94 -29.5q52 0 90 30z" />
    <glyph glyph-name="r" unicode="r" horiz-adv-x="327" 
d="M317 471q-13 3 -37 3q-48 0 -81.5 -22.5t-50.5 -61.5t-17 -90v-300h-63v516h63v-88h2q17 48 55.5 75.5t94.5 27.5q10 0 34 -2v-58z" />
    <glyph glyph-name="s" unicode="s" horiz-adv-x="488" 
d="M368 385q-4 44 -38.5 68.5t-92.5 24.5q-48 0 -82.5 -21.5t-34.5 -67.5q0 -33 27 -54.5t84 -34.5l64 -15q39 -8 71 -22t56.5 -44t24.5 -79q0 -53 -29.5 -88t-75.5 -51t-96 -16q-93 0 -145.5 40t-60.5 122h61q4 -53 43 -81t105 -28q34 0 65 10.5t50.5 32.5t19.5 54
q0 39 -27.5 61t-89.5 36l-65 15q-75 18 -109.5 50t-34.5 89q0 50 27.5 82.5t70 47.5t90.5 15q53 0 93 -17.5t63 -50.5t27 -78h-61z" />
    <glyph glyph-name="t" unicode="t" horiz-adv-x="308" 
d="M167 516h105v-53h-105v-321q0 -52 15 -73.5t51 -21.5q23 0 45 7v-52q-28 -8 -53 -8q-62 0 -91.5 32.5t-29.5 110.5v326h-87v53h87v155h63v-155z" />
    <glyph glyph-name="u" unicode="u" horiz-adv-x="542" 
d="M130 196q0 -77 33 -117.5t105 -40.5t108 41t36 117v320h63v-516h-63v78h-2q-38 -93 -149 -93q-194 0 -194 196v335h63v-320z" />
    <glyph glyph-name="v" unicode="v" horiz-adv-x="470" 
d="M82 516l156 -453h2l154 453h64l-186 -516h-67l-193 516h70z" />
    <glyph glyph-name="w" unicode="w" horiz-adv-x="740" 
d="M85 516l127 -442h2l121 442h70l122 -442h2l127 442h67l-161 -516h-69l-122 434h-2l-122 -434h-68l-161 516h67z" />
    <glyph glyph-name="x" unicode="x" horiz-adv-x="488" 
d="M104 516l141 -196l139 196h78l-180 -247l195 -269h-80l-155 217l-154 -217h-77l194 268l-179 248h78z" />
    <glyph glyph-name="y" unicode="y" horiz-adv-x="470" 
d="M241 76h2l154 440h63l-197 -538q-23 -69 -54 -107.5t-67 -54.5t-85 -22v55q43 4 71 21t47 48.5t36 83.5l-200 514h67z" />
    <glyph glyph-name="z" unicode="z" horiz-adv-x="470" 
d="M429 471q-80 -90 -177 -213t-153 -205h344v-53h-418v51q63 92 157.5 211t166.5 201h-302v53h382v-45z" />
    <glyph glyph-name="braceleft" unicode="{" horiz-adv-x="343" 
d="M277 676q-27 0 -41 -26.5t-14 -76.5v-142q0 -53 -18.5 -96t-50.5 -65v-2q31 -21 50 -63.5t19 -97.5v-140q0 -47 12.5 -76t41.5 -29h19v-53h-50q-40 0 -63 33.5t-23 91.5v150q0 158 -71 158v53q71 0 71 157v155q0 30 8 57.5t27.5 46t51.5 18.5h49v-53h-18z" />
    <glyph glyph-name="bar" unicode="|" horiz-adv-x="235" 
d="M144 -214h-52v1000h52v-1000z" />
    <glyph glyph-name="braceright" unicode="}" horiz-adv-x="343" 
d="M184 86v-153q0 -55 -22.5 -89.5t-63.5 -34.5h-50v53h19q31 0 42.5 32t11.5 73v143q0 49 18 92t51 66v2q-32 22 -50.5 64.5t-18.5 95.5v144q0 39 -12 70.5t-42 31.5h-19v53h50q29 0 48.5 -17t28.5 -45t9 -60v-153q0 -158 71 -158v-53q-71 0 -71 -157z" />
    <glyph glyph-name="asciitilde" unicode="~" horiz-adv-x="602" 
d="M467.5 213q-28.5 -20 -63.5 -20q-21 0 -43.5 6.5t-59.5 24.5t-61 26t-47 8q-52 0 -81 -69l-35 36q20 43 51 64.5t70 21.5q25 0 54 -9.5t66 -26.5q36 -16 54.5 -22.5t32.5 -6.5q23 0 42.5 16t42.5 53l35 -36q-29 -46 -57.5 -66z" />
    <glyph glyph-name="uni00A0" unicode="&#xa0;" horiz-adv-x="290" 
 />
    <glyph glyph-name="exclamdown" unicode="&#xa1;" horiz-adv-x="255" 
d="M90 426.5q-15 15.5 -15 38.5t15 38.5t38 15.5t38 -16t15 -38q0 -23 -14.5 -38.5t-38.5 -15.5q-23 0 -38 15.5zM91 -175l15 513h44l15 -513h-74z" />
    <glyph glyph-name="cent" unicode="&#xa2;" horiz-adv-x="559" 
d="M310 618v-87q81 -3 130 -45.5t62 -111.5h-61q-14 48 -47 75t-84 29v-440q54 4 90.5 38.5t44.5 88.5h61q-9 -51 -34.5 -91t-67 -63.5t-94.5 -25.5v-101h-38v102q-65 7 -112.5 45t-72.5 97t-25 130q0 73 25.5 132t73 96t111.5 44v88h38zM272 476q-47 -8 -80 -40t-50 -79
t-17 -99t17 -99t50 -79t80 -40v436z" />
    <glyph glyph-name="sterling" unicode="&#xa3;" horiz-adv-x="560" 
d="M447 519q-14 134 -157 134q-43 0 -80.5 -16.5t-61 -50.5t-23.5 -84q0 -31 9.5 -55.5t26.5 -53.5q16 -28 21 -42h155v-32h-137q9 -14 16 -42t7 -51q0 -45 -27 -89.5t-79 -85.5l2 -2q29 15 51 22t43 7q25 0 48.5 -4.5t49.5 -14.5q27 -11 45 -16t38 -5q29 0 58.5 14.5
t52.5 39.5l32 -47q-35 -31 -68.5 -45.5t-73.5 -14.5q-26 0 -50 5t-51 15q-32 10 -54 15t-43 5q-22 0 -36.5 -3t-30 -11t-43.5 -26l-36 54q57 46 83 89t26 90q0 23 -7 51t-20 50h-79v32h61q-27 44 -40 81.5t-13 73.5q0 64 31 109t83 68t114 23q100 0 156.5 -47t63.5 -140h-63
z" />
    <glyph glyph-name="currency" unicode="&#xa4;" horiz-adv-x="559" 
d="M130 538q28 26 68 41t82 15q84 0 149 -55l53 55l38 -38l-53 -54q54 -69 54 -156q0 -43 -13.5 -83t-40.5 -73l52 -54l-37 -38l-53 55q-31 -27 -68.5 -41t-80.5 -14q-84 0 -150 56l-55 -56l-37 38l55 57q-53 66 -53 153q0 88 52 154l-54 56l37 38zM371 181.5
q41 25.5 64.5 69t23.5 95.5t-23.5 95.5t-64.5 69t-91 25.5q-47 0 -87.5 -24.5t-65 -68t-24.5 -97.5q0 -53 23.5 -96.5t64.5 -68.5t89 -25q50 0 91 25.5z" />
    <glyph glyph-name="yen" unicode="&#xa5;" horiz-adv-x="560" 
d="M87 691l192 -352l194 352h69l-204 -352h106v-45h-128l-6 -10v-70h134v-45h-134v-169h-63v169h-132v45h132v70l-6 10h-126v45h103l-203 352h72z" />
    <glyph glyph-name="brokenbar" unicode="&#xa6;" horiz-adv-x="235" 
d="M92 661h52v-250h-52v250zM92 161h52v-250h-52v250z" />
    <glyph glyph-name="section" unicode="&#xa7;" horiz-adv-x="560" 
d="M393 554q-5 45 -34 72t-78 27q-47 0 -77.5 -22.5t-30.5 -63.5q0 -25 13 -46.5t47 -46t98 -57.5q56 -28 93 -54t60 -60.5t23 -79.5q0 -42 -27.5 -78t-78.5 -57q49 -43 49 -105q0 -44 -23.5 -75.5t-62 -47.5t-81.5 -16q-82 0 -128.5 37.5t-50.5 109.5h63q3 -45 32 -70
t80 -25q46 0 77 21.5t31 64.5q0 27 -13.5 48.5t-49.5 46.5t-106 61q-57 29 -93 57t-54 60t-18 71q0 45 29 80.5t77 54.5q-24 21 -36.5 47.5t-12.5 57.5q0 43 23.5 74.5t61.5 48.5t80 17q84 0 129.5 -39.5t50.5 -112.5h-62zM192 429q-39 -16 -58 -40.5t-19 -59.5
q0 -36 30 -70t105 -75l115 -63q40 17 59.5 41t19.5 60q0 38 -33 73.5t-111 76.5z" />
    <glyph glyph-name="dieresis" unicode="&#xa8;" horiz-adv-x="201" 
d="M49 632q-13 -13 -33 -13t-32.5 13.5t-12.5 32.5t12.5 32.5t32.5 13.5t33 -13.5t13 -32.5q0 -20 -13 -33zM217 632q-13 -13 -33 -13t-32.5 13.5t-12.5 32.5t12.5 32.5t32.5 13.5t33 -13.5t13 -32.5q0 -20 -13 -33z" />
    <glyph glyph-name="copyright" unicode="&#xa9;" horiz-adv-x="797" 
d="M712 164.5q-47 -82.5 -129.5 -131t-183.5 -48.5t-183.5 48t-130 130.5t-47.5 182.5t48 182.5t130.5 130t182.5 47.5q99 0 181.5 -47.5t130.5 -130t48 -182.5q0 -99 -47 -181.5zM553.5 77.5q69.5 41.5 109.5 112.5t40 156q0 86 -40.5 156.5t-110.5 111.5t-154 41
q-86 0 -155.5 -41t-109 -112t-39.5 -156q0 -84 39 -155t108.5 -113t157.5 -42q85 0 154.5 41.5zM537 421q-10 48 -45.5 75.5t-84.5 27.5q-48 0 -84 -22.5t-55.5 -62.5t-19.5 -93t19 -93.5t55.5 -63t85.5 -22.5q50 0 84.5 27.5t44.5 75.5h50q-6 -45 -31 -78t-63.5 -50.5
t-85.5 -17.5q-64 0 -111.5 28t-73 78.5t-25.5 115.5t25.5 115t73.5 78t111 28q45 0 83.5 -16.5t64 -49.5t32.5 -80h-50z" />
    <glyph glyph-name="ordfeminine" unicode="&#xaa;" horiz-adv-x="305" 
d="M236 589q0 38 -18 58t-63 20q-39 0 -60 -13.5t-25 -37.5h-47q6 42 40 66t95 24q63 0 94 -28.5t31 -88.5v-210h-41l-4 44h-2q-17 -24 -46 -39.5t-72 -15.5q-47 0 -77.5 25t-30.5 72q0 101 163 101h63v23zM182 530q-63 0 -94 -14t-31 -50q0 -29 19.5 -44t50.5 -15t56 11.5
t39 34t14 53.5v24h-54z" />
    <glyph glyph-name="guillemotleft" unicode="&#xab;" horiz-adv-x="434" 
d="M197 431v-67l-91 -89l91 -89v-67l-129 125v62zM354 431v-67l-91 -89l91 -89v-67l-129 125v62z" />
    <glyph glyph-name="logicalnot" unicode="&#xac;" horiz-adv-x="602" 
d="M545 378v-267h-52v214h-436v53h488z" />
    <glyph glyph-name="uni00AD" unicode="&#xad;" horiz-adv-x="380" 
d="M312 304v-58h-244v58h244z" />
    <glyph glyph-name="registered" unicode="&#xae;" horiz-adv-x="797" 
d="M712 164q-47 -83 -129.5 -131t-183.5 -48t-183.5 48t-130 130.5t-47.5 182.5t48 182.5t130.5 130t182.5 47.5q99 0 181.5 -47.5t130.5 -129.5t48 -183q0 -99 -47 -182zM554.5 77.5q69.5 41.5 109 112.5t39.5 156q0 86 -40 156.5t-110 111.5t-155 41q-86 0 -155.5 -41
t-109 -112t-39.5 -156t39.5 -156t109 -112.5t156.5 -41.5q86 0 155.5 41.5zM564 439q0 -47 -26.5 -77t-78.5 -40l124 -185h-60l-118 185h-86v-185h-51v417h160q136 0 136 -115zM453 370q24 4 41.5 20t17.5 49q0 35 -24.5 53.5t-71.5 18.5h-97v-145h73q37 0 61 4z" />
    <glyph glyph-name="macron" unicode="&#xaf;" horiz-adv-x="201" 
d="M260 683v-45h-319v45h319z" />
    <glyph glyph-name="degree" unicode="&#xb0;" horiz-adv-x="416" 
d="M333 490q-19 -33 -52 -52.5t-73 -19.5q-39 0 -72 18.5t-52.5 51.5t-19.5 74q0 40 19.5 73t52.5 52t72 19t72 -19.5t52.5 -53t19.5 -71.5q0 -39 -19 -72zM261 471.5q24 14.5 38 38.5t14 52t-14 52.5t-38 38.5t-54 14q-28 0 -52 -14t-38 -38t-14 -53t14 -53t38 -38t53 -14
t53 14.5z" />
    <glyph glyph-name="plusminus" unicode="&#xb1;" horiz-adv-x="602" 
d="M328 503v-180h217v-53h-217v-180h-53v180h-217v53h217v180h53zM545 53v-53h-487v53h487z" />
    <glyph glyph-name="twosuperior" unicode="&#xb2;" 
d="M293 620.5q-23 -39.5 -58.5 -74t-99.5 -88.5q-8 -6 -24 -20v-2h214v-39h-269v43q83 70 123 107.5t65 75.5t25 77q0 42 -22.5 65.5t-59.5 23.5q-38 0 -61.5 -22.5t-23.5 -60.5v-3h-46v3q0 37 17 65t47 43t68 15q59 0 93.5 -33.5t34.5 -91.5q0 -44 -23 -83.5z" />
    <glyph glyph-name="threesuperior" unicode="&#xb3;" 
d="M253.5 817q28.5 -12 46 -37t17.5 -61q0 -35 -17.5 -60t-48.5 -34v-1q39 -7 60 -35.5t21 -69.5t-19 -70.5t-51.5 -45t-71.5 -15.5q-63 0 -102 31t-39 90v8h47v-6q0 -24 11.5 -43t33 -30t49.5 -11q25 0 47 10.5t35 30.5t13 48q0 42 -24.5 64.5t-68.5 22.5h-27v37h27
q34 0 56.5 19.5t22.5 54.5q0 36 -21.5 56t-58.5 20q-39 0 -62.5 -20.5t-23.5 -60.5v-2h-46q0 38 17 65.5t47 42t69 14.5q33 0 61.5 -12z" />
    <glyph glyph-name="acute" unicode="&#xb4;" horiz-adv-x="201" 
d="M222 730l-129 -141h-51l102 141h78z" />
    <glyph glyph-name="mu" unicode="&#xb5;" horiz-adv-x="542" 
d="M475 516v-516h-63v78h-2q-38 -93 -149 -93q-83 0 -131 37v-213h-63v707h63v-320q0 -77 33 -117.5t105 -40.5t108 41t36 117v320h63z" />
    <glyph glyph-name="paragraph" unicode="&#xb6;" horiz-adv-x="603" 
d="M452 -171v810h-116v-810h-62v489q-55 0 -101 24t-73 66.5t-27 94.5q0 90 56 139t159 49h226v-862h-62z" />
    <glyph glyph-name="periodcentered" unicode="&#xb7;" horiz-adv-x="278" 
d="M177 355.5q15 -15.5 15 -38.5t-15 -38.5t-38 -15.5t-38 16t-15 38q0 23 14.5 38.5t38.5 15.5q23 0 38 -15.5z" />
    <glyph glyph-name="cedilla" unicode="&#xb8;" horiz-adv-x="201" 
d="M5 -182l13 32q12 -5 32.5 -9.5t40.5 -4.5q27 0 41 11.5t14 31.5q0 18 -13.5 28t-37.5 10q-23 0 -45 -10l-20 17l57 76h52l-37 -51l1 -1q5 1 10 1.5t11 0.5q34 0 56.5 -18t22.5 -49q0 -28 -15 -47.5t-39.5 -29t-52.5 -9.5q-52 0 -91 21z" />
    <glyph glyph-name="onesuperior" unicode="&#xb9;" 
d="M234 397h-47v373q-17 -10 -49.5 -25t-50.5 -21v43q19 7 54 23.5t56 29.5h37v-423z" />
    <glyph glyph-name="ordmasculine" unicode="&#xba;" horiz-adv-x="345" 
d="M313.5 450.5q-18.5 -38.5 -55.5 -60.5t-90 -22q-49 0 -84 22.5t-53 60.5t-18 86t18 86t53 60.5t84 22.5q52 0 89 -22t56 -60.5t19 -86.5t-18.5 -86.5zM233 425.5q26 18.5 39 48.5t13 63q0 32 -12.5 62t-38.5 49t-63 19q-34 0 -59.5 -18.5t-38.5 -48.5t-13 -63t13 -63
t38 -48.5t61 -18.5q35 0 61 18.5z" />
    <glyph glyph-name="guillemotright" unicode="&#xbb;" horiz-adv-x="434" 
d="M209 306v-62l-130 -125v67l91 89l-91 89v67zM366 306v-62l-130 -125v67l91 89l-91 89v67z" />
    <glyph glyph-name="onequarter" unicode="&#xbc;" horiz-adv-x="829" 
d="M191 -34h-47l438 759h47zM220 268h-47v373q-17 -10 -49.5 -25t-50.5 -21v43q19 7 54 23.5t56 29.5h37v-423zM639 423h45v-279h61v-40h-61v-104h-47v104h-185v45zM491 144h146v214h-1z" />
    <glyph glyph-name="onehalf" unicode="&#xbd;" horiz-adv-x="829" 
d="M188 -34h-47l438 759h47zM220 268h-47v373q-17 -10 -49.5 -25t-50.5 -21v43q19 7 54 23.5t56 29.5h37v-423zM729 223.5q-23 -39.5 -58.5 -74t-99.5 -88.5q-8 -6 -24 -20v-2h214v-39h-269v43q83 70 123 107.5t65 75.5t25 77q0 42 -22.5 65.5t-59.5 23.5q-38 0 -61.5 -22.5
t-23.5 -60.5v-3h-46v3q0 37 17 65t47 43t68 15q59 0 93.5 -33.5t34.5 -91.5q0 -44 -23 -83.5z" />
    <glyph glyph-name="threequarters" unicode="&#xbe;" horiz-adv-x="829" 
d="M267 -34h-47l438 759h47zM287.5 688q28.5 -12 46 -37t17.5 -61q0 -35 -17.5 -60t-48.5 -34v-1q39 -7 60 -35.5t21 -69.5t-19 -70.5t-51.5 -45t-71.5 -15.5q-63 0 -102 31t-39 90v8h47v-6q0 -24 11.5 -43t33 -30t49.5 -11q25 0 47 10.5t35 30.5t13 48q0 42 -24.5 64.5
t-68.5 22.5h-27v37h27q34 0 56.5 19.5t22.5 54.5q0 36 -21.5 56t-58.5 20q-39 0 -62.5 -20.5t-23.5 -60.5v-2h-46q0 38 17 65.5t47 42t69 14.5q33 0 61.5 -12zM660 423h45v-279h61v-40h-61v-104h-47v104h-185v45zM512 144h146v214h-1z" />
    <glyph glyph-name="questiondown" unicode="&#xbf;" horiz-adv-x="542" 
d="M228 426.5q-15 15.5 -15 38.5t15 38.5t38 15.5t38 -16t15 -38q0 -23 -14.5 -38.5t-38.5 -15.5q-23 0 -38 15.5zM77 63q15 33 36 57t54 54l18 17q23 22 33.5 38t14.5 40.5t4 69.5v3h63v-20q0 -39 -7 -66.5t-22 -51t-41 -49.5l-24 -23q-27 -26 -42.5 -43.5t-26.5 -41.5
t-11 -54q0 -37 18.5 -66.5t50 -46.5t69.5 -17q47 0 82 20.5t54 60t19 94.5h62q0 -70 -27 -121.5t-77 -79t-117 -27.5q-56 0 -101.5 22.5t-71 63.5t-25.5 94q0 40 15 73z" />
    <glyph glyph-name="Agrave" unicode="&#xc0;" horiz-adv-x="633" 
d="M358 691l272 -691h-73l-84 213h-314l-83 -213h-73l279 691h76zM316 622l-136 -351h270l-132 351h-2zM257 890l102 -136h-51l-128 136h77z" />
    <glyph glyph-name="Aacute" unicode="&#xc1;" horiz-adv-x="633" 
d="M358 691l272 -691h-73l-84 213h-314l-83 -213h-73l279 691h76zM316 622l-136 -351h270l-132 351h-2zM461 890l-129 -136h-50l101 136h78z" />
    <glyph glyph-name="Acircumflex" unicode="&#xc2;" horiz-adv-x="633" 
d="M358 691l272 -691h-73l-84 213h-314l-83 -213h-73l279 691h76zM316 622l-136 -351h270l-132 351h-2zM353 890l110 -136h-64l-83 98l-85 -98h-57l110 136h69z" />
    <glyph glyph-name="Atilde" unicode="&#xc3;" horiz-adv-x="633" 
d="M358 691l272 -691h-73l-84 213h-314l-83 -213h-73l279 691h76zM316 622l-136 -351h270l-132 351h-2zM357.5 831q15.5 -6 25.5 -6q20 0 31.5 11t19.5 35h37q-9 -45 -31.5 -68.5t-53.5 -23.5q-17 0 -34 5.5t-39 16.5q-24 12 -36.5 17t-24.5 5q-38 0 -48 -49h-39
q3 26 15 47.5t31 34t41 12.5q17 0 34 -5.5t39 -16.5q17 -9 32.5 -15z" />
    <glyph glyph-name="Adieresis" unicode="&#xc4;" horiz-adv-x="633" 
d="M358 691l272 -691h-73l-84 213h-314l-83 -213h-73l279 691h76zM316 622l-136 -351h270l-132 351h-2zM263 787q-13 -13 -33 -13t-32.5 13.5t-12.5 32.5t12.5 32.5t32.5 13.5t33 -13.5t13 -32.5q0 -20 -13 -33zM435 787q-13 -13 -33 -13t-32.5 13.5t-12.5 32.5t12.5 32.5
t32.5 13.5t33 -13.5t13 -32.5q0 -20 -13 -33z" />
    <glyph glyph-name="Aring" unicode="&#xc5;" horiz-adv-x="633" 
d="M358 691l272 -691h-73l-84 213h-314l-83 -213h-73l279 691h76zM316 622l-136 -351h270l-132 351h-2zM409 780.5q-14 -23.5 -38 -37.5t-52 -14t-52 14t-38 37.5t-14 51.5t14 52t38 38t52 14q29 0 53 -14t37.5 -38t13.5 -52t-14 -51.5zM366.5 786q18.5 19 18.5 46
q0 28 -18.5 47t-48.5 19q-27 0 -46 -18.5t-19 -47.5q0 -27 18.5 -46t47.5 -19t47.5 19z" />
    <glyph glyph-name="AE" unicode="&#xc6;" horiz-adv-x="902" 
d="M865 691v-58h-355v-247h333v-58h-333v-270h359v-58h-427v217h-251l-111 -217h-77l362 691h500zM403 633l-182 -358h221v358h-39z" />
    <glyph glyph-name="Ccedilla" unicode="&#xc7;" horiz-adv-x="704" 
d="M617 102.5q-37 -56.5 -97 -86t-137 -31.5l-26 -36l1 -1q5 1 10 1.5t11 0.5q34 0 56.5 -18t22.5 -49q0 -28 -15 -47.5t-39.5 -29t-52.5 -9.5q-52 0 -91 21l13 32q12 -5 32.5 -9.5t40.5 -4.5q27 0 41 11.5t14 31.5q0 18 -13.5 28t-37.5 10q-23 0 -45 -10l-20 17l47 63
q-91 10 -155.5 60.5t-97 128.5t-32.5 170q0 97 37 179t111 131.5t180 49.5q69 0 129.5 -23.5t100.5 -69t48 -108.5h-66q-11 47 -41.5 79t-74.5 48t-96 16q-87 0 -145.5 -42.5t-86.5 -111.5t-28 -148q0 -78 27.5 -147t86 -112t146.5 -43q60 0 107.5 23.5t77.5 67t37 103.5h66
q-9 -79 -46 -135.5z" />
    <glyph glyph-name="Egrave" unicode="&#xc8;" horiz-adv-x="597" 
d="M256 890l102 -136h-51l-128 136h77zM559 691v-58h-411v-247h385v-58h-385v-270h416v-58h-484v691h479z" />
    <glyph glyph-name="Eacute" unicode="&#xc9;" horiz-adv-x="597" 
d="M460 890l-129 -136h-50l101 136h78zM559 691v-58h-411v-247h385v-58h-385v-270h416v-58h-484v691h479z" />
    <glyph glyph-name="Ecircumflex" unicode="&#xca;" horiz-adv-x="597" 
d="M559 691v-58h-411v-247h385v-58h-385v-270h416v-58h-484v691h479zM352 890l110 -136h-64l-83 98l-85 -98h-57l110 136h69z" />
    <glyph glyph-name="Edieresis" unicode="&#xcb;" horiz-adv-x="597" 
d="M262 787q-13 -13 -33 -13t-32.5 13.5t-12.5 32.5t12.5 32.5t32.5 13.5t33 -13.5t13 -32.5q0 -20 -13 -33zM434 787q-13 -13 -33 -13t-32.5 13.5t-12.5 32.5t12.5 32.5t32.5 13.5t33 -13.5t13 -32.5q0 -20 -13 -33zM559 691v-58h-411v-247h385v-58h-385v-270h416v-58h-484
v691h479z" />
    <glyph glyph-name="Igrave" unicode="&#xcc;" horiz-adv-x="237" 
d="M153 691v-691h-68v691h68zM58 890l102 -136h-51l-128 136h77z" />
    <glyph glyph-name="Iacute" unicode="&#xcd;" horiz-adv-x="237" 
d="M153 691v-691h-68v691h68zM262 890l-129 -136h-50l101 136h78z" />
    <glyph glyph-name="Icircumflex" unicode="&#xce;" horiz-adv-x="237" 
d="M153 691v-691h-68v691h68zM155 890l110 -136h-64l-83 98l-85 -98h-57l110 136h69z" />
    <glyph glyph-name="Idieresis" unicode="&#xcf;" horiz-adv-x="237" 
d="M153 691v-691h-68v691h68zM64 787q-13 -13 -33 -13t-32.5 13.5t-12.5 32.5t12.5 32.5t32.5 13.5t33 -13.5t13 -32.5q0 -20 -13 -33zM236 787q-13 -13 -33 -13t-32.5 13.5t-12.5 32.5t12.5 32.5t32.5 13.5t33 -13.5t13 -32.5q0 -20 -13 -33z" />
    <glyph glyph-name="Eth" unicode="&#xd0;" horiz-adv-x="686" 
d="M639 346q0 -172 -82.5 -259t-247.5 -87h-229v336h-70v45h70v310h227q332 0 332 -345zM375 336h-227v-278h140q98 0 160 28.5t92.5 91.5t30.5 167q0 101 -28.5 164t-90.5 93.5t-164 30.5h-140v-252h227v-45z" />
    <glyph glyph-name="Ntilde" unicode="&#xd1;" horiz-adv-x="704" 
d="M400.5 831q15.5 -6 25.5 -6q20 0 31.5 11t19.5 35h37q-9 -45 -31.5 -68.5t-53.5 -23.5q-17 0 -34 5.5t-39 16.5q-24 12 -36.5 17t-24.5 5q-38 0 -48 -49h-39q3 26 15 47.5t31 34t41 12.5q17 0 34 -5.5t39 -16.5q17 -9 32.5 -15zM154 691l402 -581h2v581h67v-691h-75
l-401 581h-2v-581h-68v691h75z" />
    <glyph glyph-name="Ograve" unicode="&#xd2;" horiz-adv-x="740" 
d="M310 890l102 -136h-51l-128 136h77zM660 166q-37 -82 -110.5 -131.5t-178.5 -49.5t-179 49t-111.5 131t-37.5 180t37.5 180.5t111.5 131.5t179 49q104 0 177.5 -49t111 -131t37.5 -181q0 -97 -37 -179zM514.5 85.5q58.5 42.5 86.5 111t28 148.5q0 79 -27.5 148t-86 112
t-145.5 43q-84 0 -142.5 -41.5t-87.5 -110t-29 -151.5q0 -79 28 -148t86.5 -111.5t145.5 -42.5q85 0 143.5 42.5z" />
    <glyph glyph-name="Oacute" unicode="&#xd3;" horiz-adv-x="740" 
d="M515 890l-129 -136h-50l101 136h78zM660 166q-37 -82 -110.5 -131.5t-178.5 -49.5t-179 49t-111.5 131t-37.5 180t37.5 180.5t111.5 131.5t179 49q104 0 177.5 -49t111 -131t37.5 -181q0 -97 -37 -179zM514.5 85.5q58.5 42.5 86.5 111t28 148.5q0 79 -27.5 148t-86 112
t-145.5 43q-84 0 -142.5 -41.5t-87.5 -110t-29 -151.5q0 -79 28 -148t86.5 -111.5t145.5 -42.5q85 0 143.5 42.5z" />
    <glyph glyph-name="Ocircumflex" unicode="&#xd4;" horiz-adv-x="740" 
d="M660 166q-37 -82 -110.5 -131.5t-178.5 -49.5t-179 49t-111.5 131t-37.5 180t37.5 180.5t111.5 131.5t179 49q104 0 177.5 -49t111 -131t37.5 -181q0 -97 -37 -179zM514.5 85.5q58.5 42.5 86.5 111t28 148.5q0 79 -27.5 148t-86 112t-145.5 43q-84 0 -142.5 -41.5
t-87.5 -110t-29 -151.5q0 -79 28 -148t86.5 -111.5t145.5 -42.5q85 0 143.5 42.5zM407 890l110 -136h-64l-83 98l-85 -98h-57l110 136h69z" />
    <glyph glyph-name="Otilde" unicode="&#xd5;" horiz-adv-x="740" 
d="M410.5 831q15.5 -6 25.5 -6q20 0 31.5 11t19.5 35h37q-9 -45 -31.5 -68.5t-53.5 -23.5q-17 0 -34 5.5t-39 16.5q-24 12 -36.5 17t-24.5 5q-38 0 -48 -49h-39q3 26 15 47.5t31 34t41 12.5q17 0 34 -5.5t39 -16.5q17 -9 32.5 -15zM660 166q-37 -82 -110.5 -131.5
t-178.5 -49.5t-179 49t-111.5 131t-37.5 180t37.5 180.5t111.5 131.5t179 49q104 0 177.5 -49t111 -131t37.5 -181q0 -97 -37 -179zM514.5 85.5q58.5 42.5 86.5 111t28 148.5q0 79 -27.5 148t-86 112t-145.5 43q-84 0 -142.5 -41.5t-87.5 -110t-29 -151.5q0 -79 28 -148
t86.5 -111.5t145.5 -42.5q85 0 143.5 42.5z" />
    <glyph glyph-name="Odieresis" unicode="&#xd6;" horiz-adv-x="740" 
d="M316 787q-13 -13 -33 -13t-32.5 13.5t-12.5 32.5t12.5 32.5t32.5 13.5t33 -13.5t13 -32.5q0 -20 -13 -33zM488 787q-13 -13 -33 -13t-32.5 13.5t-12.5 32.5t12.5 32.5t32.5 13.5t33 -13.5t13 -32.5q0 -20 -13 -33zM660 166q-37 -82 -110.5 -131.5t-178.5 -49.5t-179 49
t-111.5 131t-37.5 180t37.5 180.5t111.5 131.5t179 49q104 0 177.5 -49t111 -131t37.5 -181q0 -97 -37 -179zM514.5 85.5q58.5 42.5 86.5 111t28 148.5q0 79 -27.5 148t-86 112t-145.5 43q-84 0 -142.5 -41.5t-87.5 -110t-29 -151.5q0 -79 28 -148t86.5 -111.5t145.5 -42.5
q85 0 143.5 42.5z" />
    <glyph glyph-name="multiply" unicode="&#xd7;" horiz-adv-x="602" 
d="M118 477l183 -189l183 189l36 -37l-182 -189l182 -189l-36 -37l-183 188l-183 -188l-36 37l181 189l-181 189z" />
    <glyph glyph-name="Oslash" unicode="&#xd8;" horiz-adv-x="740" 
d="M663 696l26 -22l-72 -79q39 -46 59.5 -110.5t20.5 -139.5q0 -97 -37 -179t-110.5 -131.5t-178.5 -49.5q-138 0 -225 86l-73 -83l-27 25l77 85q-39 48 -59.5 111.5t-20.5 135.5q0 98 37.5 180.5t111.5 131.5t179 49q137 0 223 -85zM551 573q-70 75 -181 75
q-84 0 -142.5 -41.5t-87.5 -110.5t-29 -151q0 -58 14 -108.5t42 -89.5zM371 43q84 0 142.5 41.5t87 110.5t28.5 150q0 59 -14.5 110.5t-42.5 89.5l-383 -426q69 -76 182 -76z" />
    <glyph glyph-name="Ugrave" unicode="&#xd9;" horiz-adv-x="686" 
d="M281 890l102 -136h-51l-128 136h77zM141 262q0 -107 48 -163t154 -56q104 0 153 54t49 166v428h68v-440q0 -82 -30.5 -141.5t-91 -92t-148.5 -32.5q-89 0 -149.5 33.5t-90.5 93.5t-30 139v440h68v-429z" />
    <glyph glyph-name="Uacute" unicode="&#xda;" horiz-adv-x="686" 
d="M486 890l-129 -136h-50l101 136h78zM141 262q0 -107 48 -163t154 -56q104 0 153 54t49 166v428h68v-440q0 -82 -30.5 -141.5t-91 -92t-148.5 -32.5q-89 0 -149.5 33.5t-90.5 93.5t-30 139v440h68v-429z" />
    <glyph glyph-name="Ucircumflex" unicode="&#xdb;" horiz-adv-x="686" 
d="M141 262q0 -107 48 -163t154 -56q104 0 153 54t49 166v428h68v-440q0 -82 -30.5 -141.5t-91 -92t-148.5 -32.5q-89 0 -149.5 33.5t-90.5 93.5t-30 139v440h68v-429zM378 890l110 -136h-64l-83 98l-85 -98h-57l110 136h69z" />
    <glyph glyph-name="Udieresis" unicode="&#xdc;" horiz-adv-x="686" 
d="M288 787q-13 -13 -33 -13t-32.5 13.5t-12.5 32.5t12.5 32.5t32.5 13.5t33 -13.5t13 -32.5q0 -20 -13 -33zM460 787q-13 -13 -33 -13t-32.5 13.5t-12.5 32.5t12.5 32.5t32.5 13.5t33 -13.5t13 -32.5q0 -20 -13 -33zM141 262q0 -107 48 -163t154 -56q104 0 153 54t49 166
v428h68v-440q0 -82 -30.5 -141.5t-91 -92t-148.5 -32.5q-89 0 -149.5 33.5t-90.5 93.5t-30 139v440h68v-429z" />
    <glyph glyph-name="Yacute" unicode="&#xdd;" horiz-adv-x="614" 
d="M81 691l227 -348l225 348h81l-273 -407v-284h-68v284l-273 407h81zM453 890l-129 -136h-50l101 136h78z" />
    <glyph glyph-name="Thorn" unicode="&#xde;" horiz-adv-x="632" 
d="M148 578h238q64 0 111 -23.5t72 -68.5t25 -106q0 -62 -26 -107t-72.5 -68t-107.5 -23h-240v-182h-68v691h68v-113zM484.5 275q41.5 35 41.5 105q0 67 -39.5 104t-115.5 37h-223v-281h225q70 0 111.5 35z" />
    <glyph glyph-name="germandbls" unicode="&#xdf;" horiz-adv-x="543" 
d="M424.5 456q-29.5 -41 -79.5 -53v-2q43 -3 75.5 -28.5t50.5 -66.5t18 -91q0 -69 -27 -119t-77.5 -77t-119.5 -27q-25 0 -41 2v55q21 -4 46 -4q46 0 81.5 18.5t55 54t19.5 85.5q0 59 -19 95t-61.5 53t-114.5 17h-7v53h4q81 0 122 33.5t41 96.5q0 36 -17 64.5t-46 44.5
t-64 16q-71 0 -101.5 -36.5t-30.5 -108.5v-531h-63v536q0 57 21 100.5t64.5 68t108.5 24.5q55 0 98.5 -21.5t68 -61t24.5 -93.5q0 -56 -29.5 -97z" />
    <glyph glyph-name="agrave" unicode="&#xe0;" horiz-adv-x="513" 
d="M386 341q0 64 -28 100.5t-98 36.5q-61 0 -94.5 -21.5t-39.5 -61.5h-62q6 41 30.5 71.5t67.5 47.5t100 17q92 0 139.5 -45.5t47.5 -138.5v-347h-55l-6 77h-3q-23 -39 -65 -65.5t-103 -26.5q-52 0 -92 18t-62 54t-22 87q0 87 67.5 124t193.5 37h84v36zM313 257
q-71 0 -116 -10t-69 -35t-24 -70q0 -51 31 -77.5t84 -26.5q47 0 85 20.5t60 60t22 92.5v46h-73zM198 730l102 -141h-51l-128 141h77z" />
    <glyph glyph-name="aacute" unicode="&#xe1;" horiz-adv-x="513" 
d="M386 341q0 64 -28 100.5t-98 36.5q-61 0 -94.5 -21.5t-39.5 -61.5h-62q6 41 30.5 71.5t67.5 47.5t100 17q92 0 139.5 -45.5t47.5 -138.5v-347h-55l-6 77h-3q-23 -39 -65 -65.5t-103 -26.5q-52 0 -92 18t-62 54t-22 87q0 87 67.5 124t193.5 37h84v36zM313 257
q-71 0 -116 -10t-69 -35t-24 -70q0 -51 31 -77.5t84 -26.5q47 0 85 20.5t60 60t22 92.5v46h-73zM402 730l-129 -141h-51l102 141h78z" />
    <glyph glyph-name="acircumflex" unicode="&#xe2;" horiz-adv-x="513" 
d="M386 341q0 64 -28 100.5t-98 36.5q-61 0 -94.5 -21.5t-39.5 -61.5h-62q6 41 30.5 71.5t67.5 47.5t100 17q92 0 139.5 -45.5t47.5 -138.5v-347h-55l-6 77h-3q-23 -39 -65 -65.5t-103 -26.5q-52 0 -92 18t-62 54t-22 87q0 87 67.5 124t193.5 37h84v36zM313 257
q-71 0 -116 -10t-69 -35t-24 -70q0 -51 31 -77.5t84 -26.5q47 0 85 20.5t60 60t22 92.5v46h-73zM294 730l110 -141h-64l-83 102l-85 -102h-57l110 141h69z" />
    <glyph glyph-name="atilde" unicode="&#xe3;" horiz-adv-x="513" 
d="M386 341q0 64 -28 100.5t-98 36.5q-61 0 -94.5 -21.5t-39.5 -61.5h-62q6 41 30.5 71.5t67.5 47.5t100 17q92 0 139.5 -45.5t47.5 -138.5v-347h-55l-6 77h-3q-23 -39 -65 -65.5t-103 -26.5q-52 0 -92 18t-62 54t-22 87q0 87 67.5 124t193.5 37h84v36zM313 257
q-71 0 -116 -10t-69 -35t-24 -70q0 -51 31 -77.5t84 -26.5q47 0 85 20.5t60 60t22 92.5v46h-73zM284 675q12 -6 22 -9.5t18 -3.5q19 0 31.5 11t19.5 37h37q-8 -45 -30.5 -70t-54.5 -25q-17 0 -33 5.5t-38 16.5q-5 2 -18 9t-24 11t-21 4q-18 0 -30 -12t-18 -39h-39
q5 41 28.5 68.5t58.5 27.5q16 0 34 -5.5t41 -17.5z" />
    <glyph glyph-name="adieresis" unicode="&#xe4;" horiz-adv-x="513" 
d="M386 341q0 64 -28 100.5t-98 36.5q-61 0 -94.5 -21.5t-39.5 -61.5h-62q6 41 30.5 71.5t67.5 47.5t100 17q92 0 139.5 -45.5t47.5 -138.5v-347h-55l-6 77h-3q-23 -39 -65 -65.5t-103 -26.5q-52 0 -92 18t-62 54t-22 87q0 87 67.5 124t193.5 37h84v36zM313 257
q-71 0 -116 -10t-69 -35t-24 -70q0 -51 31 -77.5t84 -26.5q47 0 85 20.5t60 60t22 92.5v46h-73zM206 632q-13 -13 -33 -13t-32.5 13.5t-12.5 32.5t12.5 32.5t32.5 13.5t33 -13.5t13 -32.5q0 -20 -13 -33zM374 632q-13 -13 -33 -13t-32.5 13.5t-12.5 32.5t12.5 32.5
t32.5 13.5t33 -13.5t13 -32.5q0 -20 -13 -33z" />
    <glyph glyph-name="aring" unicode="&#xe5;" horiz-adv-x="513" 
d="M386 341q0 64 -28 100.5t-98 36.5q-61 0 -94.5 -21.5t-39.5 -61.5h-62q6 41 30.5 71.5t67.5 47.5t100 17q92 0 139.5 -45.5t47.5 -138.5v-347h-55l-6 77h-3q-23 -39 -65 -65.5t-103 -26.5q-52 0 -92 18t-62 54t-22 87q0 87 67.5 124t193.5 37h84v36zM313 257
q-71 0 -116 -10t-69 -35t-24 -70q0 -51 31 -77.5t84 -26.5q47 0 85 20.5t60 60t22 92.5v46h-73zM349.5 626.5q-14.5 -24.5 -39 -39t-53.5 -14.5q-30 0 -54.5 15t-38.5 39.5t-14 52.5q0 29 14.5 53.5t39 39t53.5 14.5t53.5 -14.5t39 -39t14.5 -53.5t-14.5 -53.5zM305.5 631.5
q19.5 19.5 19.5 48.5q0 18 -8.5 33.5t-24 25t-36.5 9.5q-18 0 -33.5 -8.5t-24.5 -24t-9 -35.5q0 -29 19 -48.5t49 -19.5q29 0 48.5 19.5z" />
    <glyph glyph-name="ae" unicode="&#xe6;" horiz-adv-x="862" 
d="M450 249v-1q0 -93 37.5 -151.5t123.5 -58.5q59 0 94.5 26.5t48.5 73.5h62q-20 -73 -70.5 -113t-134.5 -40q-146 0 -193 128h-2q-27 -61 -72.5 -94.5t-126.5 -33.5q-52 0 -92 18t-62 54t-22 87q0 83 67.5 119t193.5 36h84v42q0 64 -28 100.5t-98 36.5q-61 0 -94.5 -21.5
t-39.5 -61.5h-62q6 41 30.5 71.5t67.5 47.5t100 17q69 0 109 -27t58 -82h2q25 50 72.5 79.5t111.5 29.5q68 0 115.5 -34t72 -95t24.5 -141v-12h-377zM529.5 455q-36.5 -23 -57 -63.5t-22.5 -92.5h314q-2 49 -19.5 89.5t-51 65t-79.5 24.5q-48 0 -84.5 -23zM386 251h-73
q-71 0 -116 -9.5t-69 -33t-24 -66.5q0 -51 31 -77.5t84 -26.5q47 0 85 20.5t60 60t22 92.5v40z" />
    <glyph glyph-name="ccedilla" unicode="&#xe7;" horiz-adv-x="525" 
d="M452 75q-25 -39 -65.5 -63t-92.5 -27l-26 -36l1 -1q5 1 10 1.5t11 0.5q34 0 56.5 -18t22.5 -49q0 -28 -15 -47.5t-39.5 -29t-52.5 -9.5q-52 0 -91 21l13 32q12 -5 32.5 -9.5t40.5 -4.5q27 0 41 11.5t14 31.5q0 18 -13.5 28t-37.5 10q-23 0 -45 -10l-20 17l48 64
q-63 9 -108.5 46.5t-69.5 95.5t-24 128q0 78 29 140t83.5 97.5t125.5 35.5q85 0 136.5 -43t65.5 -114h-61q-14 50 -50 77t-91 27q-56 0 -95.5 -31.5t-59.5 -81.5t-20 -107t20.5 -107.5t60 -81.5t94.5 -31q38 0 69 16t50.5 45t25.5 66h61q-9 -51 -34 -90z" />
    <glyph glyph-name="egrave" unicode="&#xe8;" horiz-adv-x="525" 
d="M490 241h-384q1 -53 19 -99.5t55 -75t90 -28.5q61 0 97.5 27t49.5 73h62q-20 -73 -72 -113t-137 -40q-74 0 -125 34.5t-76.5 96.5t-25.5 142q0 73 25 135.5t76 100t126 37.5q69 0 118.5 -35t75.5 -97t26 -143v-15zM427 294q-2 49 -21.5 91.5t-54.5 67.5t-82 25
q-43 0 -77.5 -22.5t-57 -64t-28.5 -97.5h321zM209 730l102 -141h-51l-128 141h77z" />
    <glyph glyph-name="eacute" unicode="&#xe9;" horiz-adv-x="525" 
d="M414 730l-129 -141h-51l102 141h78zM490 241h-384q1 -53 19 -99.5t55 -75t90 -28.5q61 0 97.5 27t49.5 73h62q-20 -73 -72 -113t-137 -40q-74 0 -125 34.5t-76.5 96.5t-25.5 142q0 73 25 135.5t76 100t126 37.5q69 0 118.5 -35t75.5 -97t26 -143v-15zM427 294
q-2 49 -21.5 91.5t-54.5 67.5t-82 25q-43 0 -77.5 -22.5t-57 -64t-28.5 -97.5h321z" />
    <glyph glyph-name="ecircumflex" unicode="&#xea;" horiz-adv-x="525" 
d="M306 730l110 -141h-64l-83 102l-85 -102h-57l110 141h69zM490 241h-384q1 -53 19 -99.5t55 -75t90 -28.5q61 0 97.5 27t49.5 73h62q-20 -73 -72 -113t-137 -40q-74 0 -125 34.5t-76.5 96.5t-25.5 142q0 73 25 135.5t76 100t126 37.5q69 0 118.5 -35t75.5 -97t26 -143v-15
zM427 294q-2 49 -21.5 91.5t-54.5 67.5t-82 25q-43 0 -77.5 -22.5t-57 -64t-28.5 -97.5h321z" />
    <glyph glyph-name="edieresis" unicode="&#xeb;" horiz-adv-x="525" 
d="M218 632q-13 -13 -33 -13t-32.5 13.5t-12.5 32.5t12.5 32.5t32.5 13.5t33 -13.5t13 -32.5q0 -20 -13 -33zM386 632q-13 -13 -33 -13t-32.5 13.5t-12.5 32.5t12.5 32.5t32.5 13.5t33 -13.5t13 -32.5q0 -20 -13 -33zM490 241h-384q1 -53 19 -99.5t55 -75t90 -28.5
q61 0 97.5 27t49.5 73h62q-20 -73 -72 -113t-137 -40q-74 0 -125 34.5t-76.5 96.5t-25.5 142q0 73 25 135.5t76 100t126 37.5q69 0 118.5 -35t75.5 -97t26 -143v-15zM427 294q-2 49 -21.5 91.5t-54.5 67.5t-82 25q-43 0 -77.5 -22.5t-57 -64t-28.5 -97.5h321z" />
    <glyph glyph-name="igrave" unicode="&#xec;" horiz-adv-x="201" 
d="M132 516v-516h-63v516h63zM40 730l102 -141h-51l-128 141h77z" />
    <glyph glyph-name="iacute" unicode="&#xed;" horiz-adv-x="201" 
d="M244 730l-129 -141h-51l102 141h78zM132 516v-516h-63v516h63z" />
    <glyph glyph-name="icircumflex" unicode="&#xee;" horiz-adv-x="201" 
d="M136 730l110 -141h-64l-83 102l-85 -102h-57l110 141h69zM132 516v-516h-63v516h63z" />
    <glyph glyph-name="idieresis" unicode="&#xef;" horiz-adv-x="201" 
d="M49 632q-13 -13 -33 -13t-32.5 13.5t-12.5 32.5t12.5 32.5t32.5 13.5t33 -13.5t13 -32.5q0 -20 -13 -33zM217 632q-13 -13 -33 -13t-32.5 13.5t-12.5 32.5t12.5 32.5t32.5 13.5t33 -13.5t13 -32.5q0 -20 -13 -33zM132 516v-516h-63v516h63z" />
    <glyph glyph-name="eth" unicode="&#xf0;" horiz-adv-x="561" 
d="M233.5 713.5q24.5 -14.5 51.5 -35.5l111 64l32 -32l-105 -61q93 -78 141 -177t48 -214q0 -77 -26.5 -138.5t-80 -98t-131.5 -36.5q-74 0 -126 33.5t-78.5 93t-26.5 137.5q0 71 27.5 129.5t79.5 93t123 34.5q45 0 78.5 -10.5t50.5 -29.5h2q-43 86 -128 157l-102 -59
l-33 32l97 56q-54 37 -90 55l36 35q25 -14 49.5 -28.5zM371.5 65.5q38.5 27.5 58 75.5t19.5 109q0 53 -18 99t-56.5 75t-97.5 29q-54 0 -92.5 -25t-58.5 -71.5t-20 -108.5q0 -59 18.5 -106.5t57 -75.5t94.5 -28q57 0 95.5 27.5z" />
    <glyph glyph-name="ntilde" unicode="&#xf1;" horiz-adv-x="542" 
d="M475 0h-63v320q0 77 -33 117.5t-105 40.5t-108 -41t-36 -117v-320h-63v516h63v-78h2q38 93 149 93q194 0 194 -196v-335zM296 675q12 -6 22 -9.5t18 -3.5q19 0 31.5 11t19.5 37h37q-8 -45 -30.5 -70t-54.5 -25q-17 0 -33 5.5t-38 16.5q-5 2 -18 9t-24 11t-21 4
q-18 0 -30 -12t-18 -39h-39q5 41 28.5 68.5t58.5 27.5q16 0 34 -5.5t41 -17.5z" />
    <glyph glyph-name="ograve" unicode="&#xf2;" horiz-adv-x="561" 
d="M489.5 119.5q-28.5 -62.5 -82.5 -98.5t-127 -36t-126.5 36.5t-82 98.5t-28.5 138t28.5 138t82 98.5t126.5 36.5q74 0 128 -36.5t82 -99t28 -137.5q0 -76 -28.5 -138.5zM374.5 69q39.5 31 60 81.5t20.5 107.5q0 56 -20 106.5t-60 82t-96 31.5q-53 0 -92.5 -30.5t-60 -81
t-20.5 -108.5t20.5 -108.5t60 -81t93.5 -30.5q55 0 94.5 31zM221 730l102 -141h-51l-128 141h77z" />
    <glyph glyph-name="oacute" unicode="&#xf3;" horiz-adv-x="561" 
d="M425 730l-129 -141h-51l102 141h78zM489.5 119.5q-28.5 -62.5 -82.5 -98.5t-127 -36t-126.5 36.5t-82 98.5t-28.5 138t28.5 138t82 98.5t126.5 36.5q74 0 128 -36.5t82 -99t28 -137.5q0 -76 -28.5 -138.5zM374.5 69q39.5 31 60 81.5t20.5 107.5q0 56 -20 106.5t-60 82
t-96 31.5q-53 0 -92.5 -30.5t-60 -81t-20.5 -108.5t20.5 -108.5t60 -81t93.5 -30.5q55 0 94.5 31z" />
    <glyph glyph-name="ocircumflex" unicode="&#xf4;" horiz-adv-x="561" 
d="M317 730l110 -141h-64l-83 102l-85 -102h-57l110 141h69zM489.5 119.5q-28.5 -62.5 -82.5 -98.5t-127 -36t-126.5 36.5t-82 98.5t-28.5 138t28.5 138t82 98.5t126.5 36.5q74 0 128 -36.5t82 -99t28 -137.5q0 -76 -28.5 -138.5zM374.5 69q39.5 31 60 81.5t20.5 107.5
q0 56 -20 106.5t-60 82t-96 31.5q-53 0 -92.5 -30.5t-60 -81t-20.5 -108.5t20.5 -108.5t60 -81t93.5 -30.5q55 0 94.5 31z" />
    <glyph glyph-name="otilde" unicode="&#xf5;" horiz-adv-x="561" 
d="M489.5 119.5q-28.5 -62.5 -82.5 -98.5t-127 -36t-126.5 36.5t-82 98.5t-28.5 138t28.5 138t82 98.5t126.5 36.5q74 0 128 -36.5t82 -99t28 -137.5q0 -76 -28.5 -138.5zM374.5 69q39.5 31 60 81.5t20.5 107.5q0 56 -20 106.5t-60 82t-96 31.5q-53 0 -92.5 -30.5t-60 -81
t-20.5 -108.5t20.5 -108.5t60 -81t93.5 -30.5q55 0 94.5 31zM307 675q12 -6 22 -9.5t18 -3.5q19 0 31.5 11t19.5 37h37q-8 -45 -30.5 -70t-54.5 -25q-17 0 -33 5.5t-38 16.5q-5 2 -18 9t-24 11t-21 4q-18 0 -30 -12t-18 -39h-39q5 41 28.5 68.5t58.5 27.5q16 0 34 -5.5
t41 -17.5z" />
    <glyph glyph-name="odieresis" unicode="&#xf6;" horiz-adv-x="561" 
d="M229 632q-13 -13 -33 -13t-32.5 13.5t-12.5 32.5t12.5 32.5t32.5 13.5t33 -13.5t13 -32.5q0 -20 -13 -33zM397 632q-13 -13 -33 -13t-32.5 13.5t-12.5 32.5t12.5 32.5t32.5 13.5t33 -13.5t13 -32.5q0 -20 -13 -33zM489.5 119.5q-28.5 -62.5 -82.5 -98.5t-127 -36
t-126.5 36.5t-82 98.5t-28.5 138t28.5 138t82 98.5t126.5 36.5q74 0 128 -36.5t82 -99t28 -137.5q0 -76 -28.5 -138.5zM374.5 69q39.5 31 60 81.5t20.5 107.5q0 56 -20 106.5t-60 82t-96 31.5q-53 0 -92.5 -30.5t-60 -81t-20.5 -108.5t20.5 -108.5t60 -81t93.5 -30.5
q55 0 94.5 31z" />
    <glyph glyph-name="divide" unicode="&#xf7;" horiz-adv-x="602" 
d="M348.5 426q-7.5 -13 -20 -21t-26.5 -8q-23 0 -39.5 16.5t-16.5 39.5t16 39.5t39 16.5t39 -16.5t16 -39.5q0 -14 -7.5 -27zM545 278v-53h-487v53h487zM348 23q-8 -13 -20.5 -21t-25.5 -8q-23 0 -39.5 16.5t-16.5 39.5q0 24 16.5 40t38.5 16q23 0 39 -16.5t16 -39.5
q0 -14 -8 -27z" />
    <glyph glyph-name="oslash" unicode="&#xf8;" horiz-adv-x="561" 
d="M495 519l22 -20l-52 -59q26 -38 39.5 -84.5t13.5 -97.5q0 -75 -28 -137t-82 -99t-128 -37q-101 0 -163 68l-57 -64l-22 20l60 67q-26 36 -40.5 82.5t-14.5 99.5q0 75 28 137.5t82 99t127 36.5q50 0 92 -17t73 -51zM403 418q-22 29 -53.5 44.5t-70.5 15.5q-53 0 -92.5 -31
t-60 -81.5t-20.5 -107.5q0 -77 34 -135zM211 53.5q31 -15.5 69 -15.5q56 0 96 32t59.5 82.5t19.5 105.5q0 37 -8.5 71.5t-25.5 62.5l-263 -295q22 -28 53 -43.5z" />
    <glyph glyph-name="ugrave" unicode="&#xf9;" horiz-adv-x="542" 
d="M130 196q0 -77 33 -117.5t105 -40.5t108 41t36 117v320h63v-516h-63v78h-2q-38 -93 -149 -93q-194 0 -194 196v335h63v-320zM210 730l102 -141h-51l-128 141h77z" />
    <glyph glyph-name="uacute" unicode="&#xfa;" horiz-adv-x="542" 
d="M415 730l-129 -141h-51l102 141h78zM130 196q0 -77 33 -117.5t105 -40.5t108 41t36 117v320h63v-516h-63v78h-2q-38 -93 -149 -93q-194 0 -194 196v335h63v-320z" />
    <glyph glyph-name="ucircumflex" unicode="&#xfb;" horiz-adv-x="542" 
d="M307 730l110 -141h-64l-83 102l-85 -102h-57l110 141h69zM130 196q0 -77 33 -117.5t105 -40.5t108 41t36 117v320h63v-516h-63v78h-2q-38 -93 -149 -93q-194 0 -194 196v335h63v-320z" />
    <glyph glyph-name="udieresis" unicode="&#xfc;" horiz-adv-x="542" 
d="M219 632q-13 -13 -33 -13t-32.5 13.5t-12.5 32.5t12.5 32.5t32.5 13.5t33 -13.5t13 -32.5q0 -20 -13 -33zM387 632q-13 -13 -33 -13t-32.5 13.5t-12.5 32.5t12.5 32.5t32.5 13.5t33 -13.5t13 -32.5q0 -20 -13 -33zM130 196q0 -77 33 -117.5t105 -40.5t108 41t36 117v320
h63v-516h-63v78h-2q-38 -93 -149 -93q-194 0 -194 196v335h63v-320z" />
    <glyph glyph-name="yacute" unicode="&#xfd;" horiz-adv-x="470" 
d="M241 76h2l154 440h63l-197 -538q-23 -69 -54 -107.5t-67 -54.5t-85 -22v55q43 4 71 21t47 48.5t36 83.5l-200 514h67zM385 730l-129 -141h-51l102 141h78z" />
    <glyph glyph-name="thorn" unicode="&#xfe;" horiz-adv-x="578" 
d="M504.5 116q-26.5 -62 -77 -96.5t-120.5 -34.5q-40 0 -75 13.5t-61 39t-38 60.5h-2v-289h-63v905h63v-288h2q21 50 67.5 77.5t105.5 27.5q73 0 123.5 -36.5t76 -98.5t25.5 -138q0 -80 -26.5 -142zM149 149.5q18 -49.5 57 -80.5t99 -31q55 0 91.5 31.5t54 81.5t17.5 107
t-17 107t-54 81.5t-93 31.5q-85 0 -129 -55.5t-44 -164.5q0 -59 18 -108.5z" />
    <glyph glyph-name="ydieresis" unicode="&#xff;" horiz-adv-x="470" 
d="M241 76h2l154 440h63l-197 -538q-23 -69 -54 -107.5t-67 -54.5t-85 -22v55q43 4 71 21t47 48.5t36 83.5l-200 514h67zM188 632q-13 -13 -33 -13t-32.5 13.5t-12.5 32.5t12.5 32.5t32.5 13.5t33 -13.5t13 -32.5q0 -20 -13 -33zM356 632q-13 -13 -33 -13t-32.5 13.5
t-12.5 32.5t12.5 32.5t32.5 13.5t33 -13.5t13 -32.5q0 -20 -13 -33z" />
    <glyph glyph-name="Amacron" unicode="&#x100;" horiz-adv-x="633" 
d="M358 691l272 -691h-73l-84 213h-314l-83 -213h-73l279 691h76zM316 622l-136 -351h270l-132 351h-2zM479 845v-44h-320v44h320z" />
    <glyph glyph-name="amacron" unicode="&#x101;" horiz-adv-x="513" 
d="M386 341q0 64 -28 100.5t-98 36.5q-61 0 -94.5 -21.5t-39.5 -61.5h-62q6 41 30.5 71.5t67.5 47.5t100 17q92 0 139.5 -45.5t47.5 -138.5v-347h-55l-6 77h-3q-23 -39 -65 -65.5t-103 -26.5q-52 0 -92 18t-62 54t-22 87q0 87 67.5 124t193.5 37h84v36zM313 257
q-71 0 -116 -10t-69 -35t-24 -70q0 -51 31 -77.5t84 -26.5q47 0 85 20.5t60 60t22 92.5v46h-73zM419 683v-45h-319v45h319z" />
    <glyph glyph-name="Abreve" unicode="&#x102;" horiz-adv-x="633" 
d="M358 691l272 -691h-73l-84 213h-314l-83 -213h-73l279 691h76zM316 622l-136 -351h270l-132 351h-2zM232 843q14 -18 36.5 -27.5t48.5 -9.5q39 0 68 21.5t35 57.5h38q-8 -57 -45 -90.5t-96 -33.5q-61 0 -97 33t-41 91h38q1 -24 15 -42z" />
    <glyph glyph-name="abreve" unicode="&#x103;" horiz-adv-x="513" 
d="M386 341q0 64 -28 100.5t-98 36.5q-61 0 -94.5 -21.5t-39.5 -61.5h-62q6 41 30.5 71.5t67.5 47.5t100 17q92 0 139.5 -45.5t47.5 -138.5v-347h-55l-6 77h-3q-23 -39 -65 -65.5t-103 -26.5q-52 0 -92 18t-62 54t-22 87q0 87 67.5 124t193.5 37h84v36zM313 257
q-71 0 -116 -10t-69 -35t-24 -70q0 -51 31 -77.5t84 -26.5q47 0 85 20.5t60 60t22 92.5v46h-73zM173 680.5q14 -18.5 36.5 -28.5t48.5 -10q40 0 69 22.5t34 59.5h38q-8 -59 -45 -93t-96 -34q-61 0 -97 34t-41 93h38q1 -25 15 -43.5z" />
    <glyph glyph-name="Aogonek" unicode="&#x104;" horiz-adv-x="633" 
d="M358 691l272 -691h-73l-84 213h-314l-83 -213h-73l279 691h76zM316 622l-136 -351h270l-132 351h-2zM554.5 -58.5q-18.5 -22.5 -25.5 -38.5t-7 -33t13 -25.5t32 -8.5q15 0 29 10t25 31l28 -13q-15 -35 -38 -51t-57 -16q-40 0 -62.5 19t-22.5 51q0 28 19.5 57.5t68.5 75.5
h52q-36 -36 -54.5 -58.5z" />
    <glyph glyph-name="aogonek" unicode="&#x105;" horiz-adv-x="513" 
d="M486 -136q-15 -35 -38 -51t-57 -16q-40 0 -62.5 19t-22.5 51q0 28 19.5 57.5t68.5 75.5l-6 77h-3q-23 -39 -65 -65.5t-103 -26.5q-52 0 -92 18t-62 54t-22 87q0 87 67.5 124t193.5 37h84v36q0 64 -28 100.5t-98 36.5q-61 0 -94.5 -21.5t-39.5 -61.5h-62q6 41 30.5 71.5
t67.5 47.5t100 17q92 0 139.5 -45.5t47.5 -138.5v-347h-3q-36 -36 -54.5 -58.5t-25.5 -38.5t-7 -33t13 -25.5t32 -8.5q15 0 29 10t25 31zM386 257h-73q-71 0 -116 -10t-69 -35t-24 -70q0 -51 31 -77.5t84 -26.5q47 0 85 20.5t60 60t22 92.5v46z" />
    <glyph glyph-name="Cacute" unicode="&#x106;" horiz-adv-x="704" 
d="M587 505q-11 47 -41.5 79t-74.5 48t-96 16q-87 0 -145.5 -42.5t-86.5 -111.5t-28 -148q0 -78 27.5 -147t86 -112t146.5 -43q60 0 107.5 23.5t77.5 67t37 103.5h66q-9 -81 -47.5 -138t-100 -86t-140.5 -29q-104 0 -178 48.5t-112 131t-38 181.5q0 97 37 179t111 131.5
t180 49.5q69 0 129.5 -23.5t100.5 -69t48 -108.5h-66zM516 890l-129 -136h-50l101 136h78z" />
    <glyph glyph-name="cacute" unicode="&#x107;" horiz-adv-x="525" 
d="M422 730l-129 -141h-51l102 141h78zM421 374q-14 50 -50 77t-91 27q-56 0 -95.5 -31.5t-59.5 -81.5t-20 -107t20.5 -107.5t60 -81.5t94.5 -31q38 0 69 16t50.5 45t25.5 66h61q-9 -53 -36 -93.5t-70.5 -63.5t-99.5 -23q-73 0 -127 36.5t-82.5 98.5t-28.5 138q0 78 29 140
t83.5 97.5t125.5 35.5q85 0 136.5 -43t65.5 -114h-61z" />
    <glyph glyph-name="Ccircumflex" unicode="&#x108;" horiz-adv-x="704" 
d="M587 505q-11 47 -41.5 79t-74.5 48t-96 16q-87 0 -145.5 -42.5t-86.5 -111.5t-28 -148q0 -78 27.5 -147t86 -112t146.5 -43q60 0 107.5 23.5t77.5 67t37 103.5h66q-9 -81 -47.5 -138t-100 -86t-140.5 -29q-104 0 -178 48.5t-112 131t-38 181.5q0 97 37 179t111 131.5
t180 49.5q69 0 129.5 -23.5t100.5 -69t48 -108.5h-66zM408 890l110 -136h-64l-83 98l-85 -98h-57l110 136h69z" />
    <glyph glyph-name="ccircumflex" unicode="&#x109;" horiz-adv-x="525" 
d="M314 730l110 -141h-64l-83 102l-85 -102h-57l110 141h69zM421 374q-14 50 -50 77t-91 27q-56 0 -95.5 -31.5t-59.5 -81.5t-20 -107t20.5 -107.5t60 -81.5t94.5 -31q38 0 69 16t50.5 45t25.5 66h61q-9 -53 -36 -93.5t-70.5 -63.5t-99.5 -23q-73 0 -127 36.5t-82.5 98.5
t-28.5 138q0 78 29 140t83.5 97.5t125.5 35.5q85 0 136.5 -43t65.5 -114h-61z" />
    <glyph glyph-name="Cdotaccent" unicode="&#x10a;" horiz-adv-x="704" 
d="M406 787q-13 -13 -33 -13t-32.5 13.5t-12.5 32.5t12.5 32.5t32.5 13.5t33 -13.5t13 -32.5q0 -20 -13 -33zM587 505q-11 47 -41.5 79t-74.5 48t-96 16q-87 0 -145.5 -42.5t-86.5 -111.5t-28 -148q0 -78 27.5 -147t86 -112t146.5 -43q60 0 107.5 23.5t77.5 67t37 103.5h66
q-9 -81 -47.5 -138t-100 -86t-140.5 -29q-104 0 -178 48.5t-112 131t-38 181.5q0 97 37 179t111 131.5t180 49.5q69 0 129.5 -23.5t100.5 -69t48 -108.5h-66z" />
    <glyph glyph-name="cdotaccent" unicode="&#x10b;" horiz-adv-x="525" 
d="M421 374q-14 50 -50 77t-91 27q-56 0 -95.5 -31.5t-59.5 -81.5t-20 -107t20.5 -107.5t60 -81.5t94.5 -31q38 0 69 16t50.5 45t25.5 66h61q-9 -53 -36 -93.5t-70.5 -63.5t-99.5 -23q-73 0 -127 36.5t-82.5 98.5t-28.5 138q0 78 29 140t83.5 97.5t125.5 35.5
q85 0 136.5 -43t65.5 -114h-61zM310 632q-13 -13 -33 -13t-32.5 13.5t-12.5 32.5t12.5 32.5t32.5 13.5t33 -13.5t13 -32.5q0 -20 -13 -33z" />
    <glyph glyph-name="Ccaron" unicode="&#x10c;" horiz-adv-x="704" 
d="M587 505q-11 47 -41.5 79t-74.5 48t-96 16q-87 0 -145.5 -42.5t-86.5 -111.5t-28 -148q0 -78 27.5 -147t86 -112t146.5 -43q60 0 107.5 23.5t77.5 67t37 103.5h66q-9 -81 -47.5 -138t-100 -86t-140.5 -29q-104 0 -178 48.5t-112 131t-38 181.5q0 97 37 179t111 131.5
t180 49.5q69 0 129.5 -23.5t100.5 -69t48 -108.5h-66zM291 890l83 -98l85 98h58l-111 -136h-68l-111 136h64z" />
    <glyph glyph-name="ccaron" unicode="&#x10d;" horiz-adv-x="525" 
d="M200 730l83 -102l85 102h57l-110 -141h-68l-111 141h64zM421 374q-14 50 -50 77t-91 27q-56 0 -95.5 -31.5t-59.5 -81.5t-20 -107t20.5 -107.5t60 -81.5t94.5 -31q38 0 69 16t50.5 45t25.5 66h61q-9 -53 -36 -93.5t-70.5 -63.5t-99.5 -23q-73 0 -127 36.5t-82.5 98.5
t-28.5 138q0 78 29 140t83.5 97.5t125.5 35.5q85 0 136.5 -43t65.5 -114h-61z" />
    <glyph glyph-name="Dcaron" unicode="&#x10e;" horiz-adv-x="686" 
d="M225 890l83 -98l85 98h58l-111 -136h-68l-111 136h64zM554 607.5q85 -83.5 85 -261.5q0 -346 -330 -346h-229v691h230q159 0 244 -83.5zM446.5 85.5q62.5 27.5 93.5 90.5t31 169q0 105 -30 168t-92.5 91.5t-163.5 28.5h-137v-575h139q97 0 159.5 27.5z" />
    <glyph glyph-name="dcaron" unicode="&#x10f;" horiz-adv-x="578" 
d="M688 714l-83 -141h-47l53 141h77zM510 0h-63v90h-2q-14 -32 -41.5 -56t-62 -36.5t-69.5 -12.5q-72 0 -123 35.5t-76.5 97.5t-25.5 140q0 76 25.5 138t76 98.5t123.5 36.5q38 0 73 -13.5t61.5 -39t38.5 -60.5h2v296h63v-714zM370 67.5q39 29.5 58 79.5t19 111
q0 60 -18.5 109.5t-57.5 80t-98 30.5q-55 0 -91.5 -31t-54 -81t-17.5 -108q0 -59 18 -109t54.5 -80.5t90.5 -30.5q58 0 97 29.5z" />
    <glyph glyph-name="Dcroat" unicode="&#x110;" horiz-adv-x="686" 
d="M639 346q0 -172 -82.5 -259t-247.5 -87h-229v336h-70v45h70v310h227q332 0 332 -345zM375 336h-227v-278h140q98 0 160 28.5t92.5 91.5t30.5 167q0 101 -28.5 164t-90.5 93.5t-164 30.5h-140v-252h227v-45z" />
    <glyph glyph-name="dcroat" unicode="&#x111;" horiz-adv-x="601" 
d="M510 629h81v-45h-81v-584h-63v90h-2q-13 -31 -40.5 -55t-62.5 -37t-70 -13q-71 0 -122 35t-77 97t-26 141q0 76 25.5 138t76 98.5t123.5 36.5q38 0 73 -13.5t61 -39t39 -60.5h2v166h-168v45h168v85h63v-85zM370 67.5q39 29.5 58 79.5t19 111t-19 111t-58 79.5t-97 29.5
q-54 0 -91 -31t-54.5 -81t-17.5 -108q0 -59 18 -109t54.5 -80.5t90.5 -30.5q58 0 97 29.5z" />
    <glyph glyph-name="Emacron" unicode="&#x112;" horiz-adv-x="597" 
d="M478 845v-44h-320v44h320zM559 691v-58h-411v-247h385v-58h-385v-270h416v-58h-484v691h479z" />
    <glyph glyph-name="emacron" unicode="&#x113;" horiz-adv-x="525" 
d="M490 241h-384q1 -53 19 -99.5t55 -75t90 -28.5q61 0 97.5 27t49.5 73h62q-20 -73 -72 -113t-137 -40q-74 0 -125 34.5t-76.5 96.5t-25.5 142q0 73 25 135.5t76 100t126 37.5q69 0 118.5 -35t75.5 -97t26 -143v-15zM427 294q-2 49 -21.5 91.5t-54.5 67.5t-82 25
q-43 0 -77.5 -22.5t-57 -64t-28.5 -97.5h321zM430 683v-45h-319v45h319z" />
    <glyph glyph-name="Ebreve" unicode="&#x114;" horiz-adv-x="597" 
d="M231 843q14 -18 36.5 -27.5t48.5 -9.5q39 0 68 21.5t35 57.5h38q-8 -57 -45 -90.5t-96 -33.5q-61 0 -97 33t-41 91h38q1 -24 15 -42zM559 691v-58h-411v-247h385v-58h-385v-270h416v-58h-484v691h479z" />
    <glyph glyph-name="ebreve" unicode="&#x115;" horiz-adv-x="525" 
d="M490 241h-384q1 -53 19 -99.5t55 -75t90 -28.5q61 0 97.5 27t49.5 73h62q-20 -73 -72 -113t-137 -40q-74 0 -125 34.5t-76.5 96.5t-25.5 142q0 73 25 135.5t76 100t126 37.5q69 0 118.5 -35t75.5 -97t26 -143v-15zM427 294q-2 49 -21.5 91.5t-54.5 67.5t-82 25
q-43 0 -77.5 -22.5t-57 -64t-28.5 -97.5h321zM184 680.5q14 -18.5 36.5 -28.5t48.5 -10q40 0 69 22.5t34 59.5h38q-8 -59 -45 -93t-96 -34q-61 0 -97 34t-41 93h38q1 -25 15 -43.5z" />
    <glyph glyph-name="Edotaccent" unicode="&#x116;" horiz-adv-x="597" 
d="M350 787q-13 -13 -33 -13t-32.5 13.5t-12.5 32.5t12.5 32.5t32.5 13.5t33 -13.5t13 -32.5q0 -20 -13 -33zM559 691v-58h-411v-247h385v-58h-385v-270h416v-58h-484v691h479z" />
    <glyph glyph-name="edotaccent" unicode="&#x117;" horiz-adv-x="525" 
d="M490 241h-384q1 -53 19 -99.5t55 -75t90 -28.5q61 0 97.5 27t49.5 73h62q-20 -73 -72 -113t-137 -40q-74 0 -125 34.5t-76.5 96.5t-25.5 142q0 73 25 135.5t76 100t126 37.5q69 0 118.5 -35t75.5 -97t26 -143v-15zM427 294q-2 49 -21.5 91.5t-54.5 67.5t-82 25
q-43 0 -77.5 -22.5t-57 -64t-28.5 -97.5h321zM302 632q-13 -13 -33 -13t-32.5 13.5t-12.5 32.5t12.5 32.5t32.5 13.5t33 -13.5t13 -32.5q0 -20 -13 -33z" />
    <glyph glyph-name="Eogonek" unicode="&#x118;" horiz-adv-x="597" 
d="M559 691v-58h-411v-247h385v-58h-385v-270h416v-58h-484v691h479zM479.5 -58.5q-18.5 -22.5 -25.5 -38.5t-7 -33t13 -25.5t32 -8.5q15 0 29 10t25 31l28 -13q-15 -35 -38 -51t-57 -16q-40 0 -62.5 19t-22.5 51q0 28 19.5 57.5t68.5 75.5h52q-36 -36 -54.5 -58.5z" />
    <glyph glyph-name="eogonek" unicode="&#x119;" horiz-adv-x="525" 
d="M490 241h-384q1 -53 19 -99.5t55 -75t90 -28.5q61 0 97.5 27t49.5 73h62q-35 -125 -155 -148q-32 -33 -48 -53.5t-22.5 -35.5t-6.5 -31q0 -17 13 -25.5t32 -8.5q15 0 29 10t25 31l28 -13q-15 -35 -38 -51t-57 -16q-40 0 -62.5 19t-22.5 51q0 26 16 52.5t56 65.5
q-72 1 -122 36t-75.5 96t-25.5 141q0 73 25 135.5t76 100t126 37.5q69 0 118.5 -35t75.5 -97t26 -143v-15zM427 294q-2 49 -21.5 91.5t-54.5 67.5t-82 25q-43 0 -77.5 -22.5t-57 -64t-28.5 -97.5h321z" />
    <glyph glyph-name="Ecaron" unicode="&#x11a;" horiz-adv-x="597" 
d="M235 890l83 -98l85 98h58l-111 -136h-68l-111 136h64zM559 691v-58h-411v-247h385v-58h-385v-270h416v-58h-484v691h479z" />
    <glyph glyph-name="ecaron" unicode="&#x11b;" horiz-adv-x="525" 
d="M189 730l83 -102l85 102h57l-110 -141h-68l-111 141h64zM490 241h-384q1 -53 19 -99.5t55 -75t90 -28.5q61 0 97.5 27t49.5 73h62q-20 -73 -72 -113t-137 -40q-74 0 -125 34.5t-76.5 96.5t-25.5 142q0 73 25 135.5t76 100t126 37.5q69 0 118.5 -35t75.5 -97t26 -143v-15z
M427 294q-2 49 -21.5 91.5t-54.5 67.5t-82 25q-43 0 -77.5 -22.5t-57 -64t-28.5 -97.5h321z" />
    <glyph glyph-name="Gcircumflex" unicode="&#x11c;" horiz-adv-x="721" 
d="M511 682q61 -24 101 -71t52 -115h-66q-5 41 -34.5 76.5t-78.5 56.5t-110 21q-87 0 -145.5 -43.5t-86.5 -112.5t-28 -148q0 -80 28 -149t86.5 -112t145.5 -43q71 0 125.5 28.5t84.5 84t30 132.5h-226v58h286v-53q0 -103 -40 -172t-107.5 -102t-152.5 -33q-104 0 -178 48.5
t-112 130.5t-38 182q0 97 37.5 179t111.5 131.5t179 49.5q75 0 136 -24zM409 890l110 -136h-64l-83 98l-85 -98h-57l110 136h69z" />
    <glyph glyph-name="gcircumflex" unicode="&#x11d;" horiz-adv-x="561" 
d="M314 730l110 -141h-64l-83 102l-85 -102h-57l110 141h69zM429 427v89h63v-476q0 -246 -223 -246q-89 0 -146 30.5t-66 95.5h64q9 -40 46 -56.5t100 -16.5q83 0 122.5 49t39.5 143v63h-2q-22 -51 -64 -81t-95 -30q-73 0 -123.5 33.5t-76 94.5t-25.5 144q0 77 27.5 138
t78.5 95.5t119 34.5q35 0 66.5 -13.5t56 -37t36.5 -53.5h2zM123.5 150.5q17.5 -48.5 54 -77.5t90.5 -29q50 0 86.5 29.5t55.5 78t19 105.5q0 56 -17.5 106.5t-54 82.5t-90.5 32q-50 0 -86.5 -28.5t-55.5 -78.5t-19 -115q0 -57 17.5 -105.5z" />
    <glyph glyph-name="Gbreve" unicode="&#x11e;" horiz-adv-x="721" 
d="M288 843q14 -18 36.5 -27.5t48.5 -9.5q39 0 68 21.5t35 57.5h38q-8 -57 -45 -90.5t-96 -33.5q-61 0 -97 33t-41 91h38q1 -24 15 -42zM511 682q61 -24 101 -71t52 -115h-66q-5 41 -34.5 76.5t-78.5 56.5t-110 21q-87 0 -145.5 -43.5t-86.5 -112.5t-28 -148q0 -80 28 -149
t86.5 -112t145.5 -43q71 0 125.5 28.5t84.5 84t30 132.5h-226v58h286v-53q0 -103 -40 -172t-107.5 -102t-152.5 -33q-104 0 -178 48.5t-112 130.5t-38 182q0 97 37.5 179t111.5 131.5t179 49.5q75 0 136 -24z" />
    <glyph glyph-name="gbreve" unicode="&#x11f;" horiz-adv-x="561" 
d="M429 427v89h63v-476q0 -246 -223 -246q-89 0 -146 30.5t-66 95.5h64q9 -40 46 -56.5t100 -16.5q83 0 122.5 49t39.5 143v63h-2q-22 -51 -64 -81t-95 -30q-73 0 -123.5 33.5t-76 94.5t-25.5 144q0 77 27.5 138t78.5 95.5t119 34.5q35 0 66.5 -13.5t56 -37t36.5 -53.5h2z
M123.5 150.5q17.5 -48.5 54 -77.5t90.5 -29q50 0 86.5 29.5t55.5 78t19 105.5q0 56 -17.5 106.5t-54 82.5t-90.5 32q-50 0 -86.5 -28.5t-55.5 -78.5t-19 -115q0 -57 17.5 -105.5zM192 680.5q14 -18.5 36.5 -28.5t48.5 -10q40 0 69 22.5t34 59.5h38q-8 -59 -45 -93t-96 -34
q-61 0 -97 34t-41 93h38q1 -25 15 -43.5z" />
    <glyph glyph-name="Gdotaccent" unicode="&#x120;" horiz-adv-x="721" 
d="M406 787q-13 -13 -33 -13t-32.5 13.5t-12.5 32.5t12.5 32.5t32.5 13.5t33 -13.5t13 -32.5q0 -20 -13 -33zM511 682q61 -24 101 -71t52 -115h-66q-5 41 -34.5 76.5t-78.5 56.5t-110 21q-87 0 -145.5 -43.5t-86.5 -112.5t-28 -148q0 -80 28 -149t86.5 -112t145.5 -43
q71 0 125.5 28.5t84.5 84t30 132.5h-226v58h286v-53q0 -103 -40 -172t-107.5 -102t-152.5 -33q-104 0 -178 48.5t-112 130.5t-38 182q0 97 37.5 179t111.5 131.5t179 49.5q75 0 136 -24z" />
    <glyph glyph-name="gdotaccent" unicode="&#x121;" horiz-adv-x="561" 
d="M429 427v89h63v-476q0 -246 -223 -246q-89 0 -146 30.5t-66 95.5h64q9 -40 46 -56.5t100 -16.5q83 0 122.5 49t39.5 143v63h-2q-22 -51 -64 -81t-95 -30q-73 0 -123.5 33.5t-76 94.5t-25.5 144q0 77 27.5 138t78.5 95.5t119 34.5q35 0 66.5 -13.5t56 -37t36.5 -53.5h2z
M123.5 150.5q17.5 -48.5 54 -77.5t90.5 -29q50 0 86.5 29.5t55.5 78t19 105.5q0 56 -17.5 106.5t-54 82.5t-90.5 32q-50 0 -86.5 -28.5t-55.5 -78.5t-19 -115q0 -57 17.5 -105.5zM310 632q-13 -13 -33 -13t-32.5 13.5t-12.5 32.5t12.5 32.5t32.5 13.5t33 -13.5t13 -32.5
q0 -20 -13 -33z" />
    <glyph glyph-name="Gcommaaccent" unicode="&#x122;" horiz-adv-x="721" 
d="M405 -66q0 -28 -12 -69t-29 -68h-56q14 25 23 63t9 74v16h65v-16zM511 682q61 -24 101 -71t52 -115h-66q-5 41 -34.5 76.5t-78.5 56.5t-110 21q-87 0 -145.5 -43.5t-86.5 -112.5t-28 -148q0 -80 28 -149t86.5 -112t145.5 -43q71 0 125.5 28.5t84.5 84t30 132.5h-226v58
h286v-53q0 -103 -40 -172t-107.5 -102t-152.5 -33q-104 0 -178 48.5t-112 130.5t-38 182q0 97 37.5 179t111.5 131.5t179 49.5q75 0 136 -24z" />
    <glyph glyph-name="gcommaaccent" unicode="&#x123;" horiz-adv-x="561" 
d="M246 639q0 28 12 69t29 68h56q-14 -25 -23 -63t-9 -74v-16h-65v16zM429 427v89h63v-476q0 -246 -223 -246q-89 0 -146 30.5t-66 95.5h64q9 -40 46 -56.5t100 -16.5q83 0 122.5 49t39.5 143v63h-2q-22 -51 -64 -81t-95 -30q-73 0 -123.5 33.5t-76 94.5t-25.5 144
q0 77 27.5 138t78.5 95.5t119 34.5q35 0 66.5 -13.5t56 -37t36.5 -53.5h2zM123.5 150.5q17.5 -48.5 54 -77.5t90.5 -29q50 0 86.5 29.5t55.5 78t19 105.5q0 56 -17.5 106.5t-54 82.5t-90.5 32q-50 0 -86.5 -28.5t-55.5 -78.5t-19 -115q0 -57 17.5 -105.5z" />
    <glyph glyph-name="Hcircumflex" unicode="&#x124;" horiz-adv-x="704" 
d="M148 691v-299h408v299h68v-691h-68v334h-408v-334h-68v691h68zM388 890l110 -136h-64l-83 98l-85 -98h-57l110 136h69z" />
    <glyph glyph-name="hcircumflex" unicode="&#x125;" horiz-adv-x="542" 
d="M130 438h2q18 45 55.5 69t94.5 24q194 0 194 -196v-335h-63v320q0 78 -33 118t-105 40t-108.5 -41t-36.5 -117v-320h-63v714h63v-276zM136 890l110 -136h-64l-83 98l-85 -98h-57l110 136h69z" />
    <glyph glyph-name="Hbar" unicode="&#x126;" horiz-adv-x="704" 
d="M148 691v-149h408v149h68v-691h-68v314h-408v-314h-68v691h68zM556 372v125h-408v-125h408z" />
    <glyph glyph-name="hbar" unicode="&#x127;" horiz-adv-x="564" 
d="M130 629h190v-45h-190v-146h2q18 45 55.5 69t94.5 24q194 0 194 -196v-335h-63v320q0 78 -33 118t-105 40t-108.5 -41t-36.5 -117v-320h-63v584h-57v45h57v85h63v-85z" />
    <glyph glyph-name="Itilde" unicode="&#x128;" horiz-adv-x="237" 
d="M153 691v-691h-68v691h68zM158.5 831q15.5 -6 25.5 -6q20 0 31.5 11t19.5 35h37q-9 -45 -31.5 -68.5t-53.5 -23.5q-17 0 -34 5.5t-39 16.5q-24 12 -36.5 17t-24.5 5q-38 0 -48 -49h-39q3 26 15 47.5t31 34t41 12.5q17 0 34 -5.5t39 -16.5q17 -9 32.5 -15z" />
    <glyph glyph-name="itilde" unicode="&#x129;" horiz-adv-x="201" 
d="M132 516v-516h-63v516h63zM126 675q12 -6 22 -9.5t18 -3.5q19 0 31.5 11t19.5 37h37q-8 -45 -30.5 -70t-54.5 -25q-17 0 -33 5.5t-38 16.5q-5 2 -18 9t-24 11t-21 4q-18 0 -30 -12t-18 -39h-39q5 41 28.5 68.5t58.5 27.5q16 0 34 -5.5t41 -17.5z" />
    <glyph glyph-name="Imacron" unicode="&#x12a;" horiz-adv-x="237" 
d="M153 691v-691h-68v691h68zM280 845v-44h-320v44h320z" />
    <glyph glyph-name="imacron" unicode="&#x12b;" horiz-adv-x="201" 
d="M132 516v-516h-63v516h63zM261 683v-45h-319v45h319z" />
    <glyph glyph-name="Ibreve" unicode="&#x12c;" horiz-adv-x="237" 
d="M153 691v-691h-68v691h68zM31 843q14 -18 36.5 -27.5t48.5 -9.5q39 0 68 21.5t35 57.5h38q-8 -57 -45 -90.5t-96 -33.5q-61 0 -97 33t-41 91h38q1 -24 15 -42z" />
    <glyph glyph-name="ibreve" unicode="&#x12d;" horiz-adv-x="201" 
d="M36 680.5q14 -18.5 36.5 -28.5t48.5 -10q40 0 69 22.5t34 59.5h38q-8 -59 -45 -93t-96 -34q-61 0 -97 34t-41 93h38q1 -25 15 -43.5zM132 516v-516h-63v516h63z" />
    <glyph glyph-name="Iogonek" unicode="&#x12e;" horiz-adv-x="237" 
d="M153 691v-691h-68v691h68zM82.5 -58.5q-18.5 -22.5 -25.5 -38.5t-7 -33t13 -25.5t32 -8.5q15 0 29 10t25 31l28 -13q-15 -35 -38 -51t-57 -16q-40 0 -62.5 19t-22.5 51q0 28 19.5 57.5t68.5 75.5h52q-36 -36 -54.5 -58.5z" />
    <glyph glyph-name="iogonek" unicode="&#x12f;" horiz-adv-x="201" 
d="M133 638q-13 -13 -33 -13t-32.5 13.5t-12.5 32.5t12.5 32.5t32.5 13.5t33 -13.5t13 -32.5q0 -20 -13 -33zM132 516v-516h-63v516h63zM66.5 -58.5q-18.5 -22.5 -25.5 -38.5t-7 -33t13 -25.5t32 -8.5q15 0 29 10t25 31l28 -13q-15 -35 -38 -51t-57 -16q-40 0 -62.5 19
t-22.5 51q0 28 19.5 57.5t68.5 75.5h52q-36 -36 -54.5 -58.5z" />
    <glyph glyph-name="Idotaccent" unicode="&#x130;" horiz-adv-x="237" 
d="M153 691v-691h-68v691h68zM151 787q-13 -13 -33 -13t-32.5 13.5t-12.5 32.5t12.5 32.5t32.5 13.5t33 -13.5t13 -32.5q0 -20 -13 -33z" />
    <glyph glyph-name="dotlessi" unicode="&#x131;" horiz-adv-x="201" 
d="M132 516v-516h-63v516h63z" />
    <glyph glyph-name="IJ" unicode="&#x132;" horiz-adv-x="744" 
d="M153 691v-691h-68v691h68zM664 191q0 -106 -48.5 -156t-153.5 -50q-194 0 -194 201v2h66q0 -71 30 -107.5t104 -36.5q48 0 75.5 17t40 55t12.5 102v473h68v-500z" />
    <glyph glyph-name="ij" unicode="&#x133;" horiz-adv-x="402" 
d="M153 638q-13 -13 -33 -13t-32.5 13.5t-12.5 32.5t12.5 32.5t32.5 13.5t33 -13.5t13 -32.5q0 -20 -13 -33zM152 516v-516h-63v516h63zM354 638q-13 -13 -33 -13t-32.5 13.5t-12.5 32.5t12.5 32.5t32.5 13.5t33 -13.5t13 -32.5q0 -20 -13 -33zM353 -18q0 -72 -14.5 -112.5
t-48 -58t-92.5 -17.5v56q39 0 58.5 13.5t26.5 44t7 88.5v520h63v-534z" />
    <glyph glyph-name="Jcircumflex" unicode="&#x134;" horiz-adv-x="507" 
d="M427 191q0 -106 -48.5 -156t-153.5 -50q-194 0 -194 201v2h66q0 -71 30 -107.5t104 -36.5q48 0 75.5 17t40 55t12.5 102v473h68v-500zM424 890l110 -136h-64l-83 98l-85 -98h-57l110 136h69z" />
    <glyph glyph-name="jcircumflex" unicode="&#x135;" horiz-adv-x="202" 
d="M132 -18q0 -72 -14.5 -112.5t-48 -58t-92.5 -17.5v56q39 0 58.5 13.5t26.5 44t7 88.5v520h63v-534zM133 730l110 -141h-64l-83 102l-85 -102h-57l110 141h69z" />
    <glyph glyph-name="Kcommaaccent" unicode="&#x136;" horiz-adv-x="603" 
d="M356 -66q0 -28 -12 -69t-29 -68h-56q14 25 23 63t9 74v16h65v-16zM148 344h2l340 347h88l-322 -319q45 -2 83 -27.5t95.5 -103t159.5 -241.5h-80q-91 148 -139 213.5t-84.5 88t-87.5 22.5l-55 -54v-270h-68v691h68v-347z" />
    <glyph glyph-name="kcommaaccent" unicode="&#x137;" horiz-adv-x="493" 
d="M292 -66q0 -28 -12 -69t-29 -68h-56q14 25 23 63t9 74v16h65v-16zM131 263h2l256 253h79l-246 -238q30 -3 57.5 -22.5t74.5 -77.5t130 -178h-73q-73 108 -113 156.5t-65.5 63t-58.5 14.5l-43 -40v-194h-63v714h63v-451z" />
    <glyph glyph-name="kgreenlandic" unicode="&#x138;" horiz-adv-x="493" 
d="M131 263h2l256 253h79l-246 -238q30 -3 57.5 -22.5t74.5 -77.5t130 -178h-73q-73 108 -113 156.5t-65.5 63t-58.5 14.5l-43 -40v-194h-63v516h63v-253z" />
    <glyph glyph-name="Lacute" unicode="&#x139;" horiz-adv-x="543" 
d="M267 890l-129 -136h-50l101 136h78zM148 691v-633h387v-58h-455v691h68z" />
    <glyph glyph-name="lacute" unicode="&#x13a;" horiz-adv-x="201" 
d="M247 890l-129 -136h-50l101 136h78zM132 714v-714h-63v714h63z" />
    <glyph glyph-name="Lcommaaccent" unicode="&#x13b;" horiz-adv-x="543" 
d="M334 -66q0 -28 -12 -69t-29 -68h-56q14 25 23 63t9 74v16h65v-16zM148 691v-633h387v-58h-455v691h68z" />
    <glyph glyph-name="lcommaaccent" unicode="&#x13c;" horiz-adv-x="201" 
d="M133 -66q0 -28 -12 -69t-29 -68h-56q14 25 23 63t9 74v16h65v-16zM132 714v-714h-63v714h63z" />
    <glyph glyph-name="Lcaron" unicode="&#x13d;" horiz-adv-x="543" 
d="M379 714l-83 -141h-47l53 141h77zM148 691v-633h387v-58h-455v691h68z" />
    <glyph glyph-name="lcaron" unicode="&#x13e;" horiz-adv-x="201" 
d="M310 714l-83 -141h-47l53 141h77zM132 714v-714h-63v714h63z" />
    <glyph glyph-name="Ldot" unicode="&#x13f;" horiz-adv-x="543" 
d="M148 691v-633h387v-58h-455v691h68zM356 366q-13 -13 -33 -13t-32.5 13.5t-12.5 32.5t12.5 32.5t32.5 13.5t33 -13.5t13 -32.5q0 -20 -13 -33z" />
    <glyph glyph-name="ldot" unicode="&#x140;" horiz-adv-x="320" 
d="M132 714v-714h-63v714h63zM285 357q-13 -13 -33 -13t-32.5 13.5t-12.5 32.5t12.5 32.5t32.5 13.5t33 -13.5t13 -32.5q0 -20 -13 -33z" />
    <glyph glyph-name="Lslash" unicode="&#x141;" horiz-adv-x="543" 
d="M148 691v-347l235 162v-56l-235 -161v-231h387v-58h-455v242l-80 -55v55l80 55v394h68z" />
    <glyph glyph-name="lslash" unicode="&#x142;" horiz-adv-x="201" 
d="M132 714v-267l65 55v-55l-65 -55v-392h-63v340l-65 -55v55l65 55v319h63z" />
    <glyph glyph-name="Nacute" unicode="&#x143;" horiz-adv-x="704" 
d="M502 890l-129 -136h-50l101 136h78zM154 691l402 -581h2v581h67v-691h-75l-401 581h-2v-581h-68v691h75z" />
    <glyph glyph-name="nacute" unicode="&#x144;" horiz-adv-x="542" 
d="M415 730l-129 -141h-51l102 141h78zM475 0h-63v320q0 77 -33 117.5t-105 40.5t-108 -41t-36 -117v-320h-63v516h63v-78h2q38 93 149 93q194 0 194 -196v-335z" />
    <glyph glyph-name="Ncommaaccent" unicode="&#x145;" horiz-adv-x="704" 
d="M386 -66q0 -28 -12 -69t-29 -68h-56q14 25 23 63t9 74v16h65v-16zM154 691l402 -581h2v581h67v-691h-75l-401 581h-2v-581h-68v691h75z" />
    <glyph glyph-name="ncommaaccent" unicode="&#x146;" horiz-adv-x="542" 
d="M304 -66q0 -28 -12 -69t-29 -68h-56q14 25 23 63t9 74v16h65v-16zM475 0h-63v320q0 77 -33 117.5t-105 40.5t-108 -41t-36 -117v-320h-63v516h63v-78h2q38 93 149 93q194 0 194 -196v-335z" />
    <glyph glyph-name="Ncaron" unicode="&#x147;" horiz-adv-x="704" 
d="M277 890l83 -98l85 98h58l-111 -136h-68l-111 136h64zM154 691l402 -581h2v581h67v-691h-75l-401 581h-2v-581h-68v691h75z" />
    <glyph glyph-name="ncaron" unicode="&#x148;" horiz-adv-x="542" 
d="M189 730l83 -102l85 102h57l-110 -141h-68l-111 141h64zM475 0h-63v320q0 77 -33 117.5t-105 40.5t-108 -41t-36 -117v-320h-63v516h63v-78h2q38 93 149 93q194 0 194 -196v-335z" />
    <glyph glyph-name="napostrophe" unicode="&#x149;" horiz-adv-x="648" 
d="M130 690q0 -45 -17 -107t-43 -104h-54q21 40 35.5 98t14.5 113q0 16 -1 24h65v-24zM581 0h-63v320q0 77 -33 117.5t-105 40.5t-108 -41t-36 -117v-320h-63v516h63v-78h2q38 93 149 93q194 0 194 -196v-335z" />
    <glyph glyph-name="Eng" unicode="&#x14a;" horiz-adv-x="704" 
d="M625 691v-709q0 -72 -15.5 -112.5t-51.5 -58t-100 -17.5v56q44 0 66 13.5t30 44t8 88.5v5l-413 580h-2v-581h-68v691h75l402 -562h2v562h67z" />
    <glyph glyph-name="eng" unicode="&#x14b;" horiz-adv-x="542" 
d="M130 438h2q38 93 149 93q194 0 194 -196v-353q0 -72 -14.5 -112.5t-48 -58t-92.5 -17.5v56q39 0 58.5 13.5t26.5 44t7 88.5v324q0 77 -33 117.5t-105 40.5t-108 -41t-36 -117v-320h-63v516h63v-78z" />
    <glyph glyph-name="Omacron" unicode="&#x14c;" horiz-adv-x="740" 
d="M532 845v-44h-320v44h320zM660 166q-37 -82 -110.5 -131.5t-178.5 -49.5t-179 49t-111.5 131t-37.5 180t37.5 180.5t111.5 131.5t179 49q104 0 177.5 -49t111 -131t37.5 -181q0 -97 -37 -179zM514.5 85.5q58.5 42.5 86.5 111t28 148.5q0 79 -27.5 148t-86 112t-145.5 43
q-84 0 -142.5 -41.5t-87.5 -110t-29 -151.5q0 -79 28 -148t86.5 -111.5t145.5 -42.5q85 0 143.5 42.5z" />
    <glyph glyph-name="omacron" unicode="&#x14d;" horiz-adv-x="561" 
d="M442 683v-45h-319v45h319zM489.5 119.5q-28.5 -62.5 -82.5 -98.5t-127 -36t-126.5 36.5t-82 98.5t-28.5 138t28.5 138t82 98.5t126.5 36.5q74 0 128 -36.5t82 -99t28 -137.5q0 -76 -28.5 -138.5zM374.5 69q39.5 31 60 81.5t20.5 107.5q0 56 -20 106.5t-60 82t-96 31.5
q-53 0 -92.5 -30.5t-60 -81t-20.5 -108.5t20.5 -108.5t60 -81t93.5 -30.5q55 0 94.5 31z" />
    <glyph glyph-name="Obreve" unicode="&#x14e;" horiz-adv-x="740" 
d="M285 843q14 -18 36.5 -27.5t48.5 -9.5q39 0 68 21.5t35 57.5h38q-8 -57 -45 -90.5t-96 -33.5q-61 0 -97 33t-41 91h38q1 -24 15 -42zM660 166q-37 -82 -110.5 -131.5t-178.5 -49.5t-179 49t-111.5 131t-37.5 180t37.5 180.5t111.5 131.5t179 49q104 0 177.5 -49t111 -131
t37.5 -181q0 -97 -37 -179zM514.5 85.5q58.5 42.5 86.5 111t28 148.5q0 79 -27.5 148t-86 112t-145.5 43q-84 0 -142.5 -41.5t-87.5 -110t-29 -151.5q0 -79 28 -148t86.5 -111.5t145.5 -42.5q85 0 143.5 42.5z" />
    <glyph glyph-name="obreve" unicode="&#x14f;" horiz-adv-x="561" 
d="M489.5 119.5q-28.5 -62.5 -82.5 -98.5t-127 -36t-126.5 36.5t-82 98.5t-28.5 138t28.5 138t82 98.5t126.5 36.5q74 0 128 -36.5t82 -99t28 -137.5q0 -76 -28.5 -138.5zM374.5 69q39.5 31 60 81.5t20.5 107.5q0 56 -20 106.5t-60 82t-96 31.5q-53 0 -92.5 -30.5t-60 -81
t-20.5 -108.5t20.5 -108.5t60 -81t93.5 -30.5q55 0 94.5 31zM196 680.5q14 -18.5 36.5 -28.5t48.5 -10q40 0 69 22.5t34 59.5h38q-8 -59 -45 -93t-96 -34q-61 0 -97 34t-41 93h38q1 -25 15 -43.5z" />
    <glyph glyph-name="Ohungarumlaut" unicode="&#x150;" horiz-adv-x="740" 
d="M660 166q-37 -82 -110.5 -131.5t-178.5 -49.5t-179 49t-111.5 131t-37.5 180t37.5 180.5t111.5 131.5t179 49q104 0 177.5 -49t111 -131t37.5 -181q0 -97 -37 -179zM514.5 85.5q58.5 42.5 86.5 111t28 148.5q0 79 -27.5 148t-86 112t-145.5 43q-84 0 -142.5 -41.5
t-87.5 -110t-29 -151.5q0 -79 28 -148t86.5 -111.5t145.5 -42.5q85 0 143.5 42.5zM438 890l-123 -136h-51l98 136h76zM590 890l-122 -136h-51l98 136h75z" />
    <glyph glyph-name="ohungarumlaut" unicode="&#x151;" horiz-adv-x="561" 
d="M349 730l-123 -141h-51l98 141h76zM501 730l-122 -141h-51l98 141h75zM489.5 119.5q-28.5 -62.5 -82.5 -98.5t-127 -36t-126.5 36.5t-82 98.5t-28.5 138t28.5 138t82 98.5t126.5 36.5q74 0 128 -36.5t82 -99t28 -137.5q0 -76 -28.5 -138.5zM374.5 69q39.5 31 60 81.5
t20.5 107.5q0 56 -20 106.5t-60 82t-96 31.5q-53 0 -92.5 -30.5t-60 -81t-20.5 -108.5t20.5 -108.5t60 -81t93.5 -30.5q55 0 94.5 31z" />
    <glyph glyph-name="OE" unicode="&#x152;" horiz-adv-x="1063" 
d="M562 634v57h460v-58h-392v-247h356v-58h-356v-270h395v-58h-463v67h-2q-31 -39 -82 -60.5t-104 -21.5q-100 0 -174.5 49t-114 131t-39.5 180q0 96 39 179t113.5 132.5t175.5 49.5q59 0 107.5 -18.5t78.5 -53.5h2zM466.5 58.5q34.5 15.5 61.5 42.5q18 17 26 35.5t8 42.5
v316q0 29 -2 44t-8 26t-18 23q-27 27 -72 43.5t-88 16.5q-82 0 -140.5 -41.5t-89 -111t-30.5 -150.5q0 -80 30 -149t88.5 -111t141.5 -42q58 0 92.5 15.5z" />
    <glyph glyph-name="oe" unicode="&#x153;" horiz-adv-x="881" 
d="M450 404q21 58 71 92.5t117 34.5q104 0 156 -71t52 -217v-2h-369q1 -57 18 -103t51.5 -73t84.5 -27q58 0 93.5 27t48.5 73h62q-20 -73 -70.5 -113t-134.5 -40q-44 0 -81.5 16.5t-64 46t-36.5 68.5h-2q-18 -63 -67 -97t-118 -34q-73 0 -122 36t-72.5 97.5t-23.5 139.5
q0 71 24 133.5t73.5 101t123.5 38.5q70 0 117 -33t67 -94h2zM375.5 94q38.5 56 38.5 168q0 216 -152 216q-79 0 -117.5 -64t-38.5 -167q0 -59 17.5 -106.5t52.5 -75t86 -27.5q75 0 113.5 56zM766 385q-17 42 -51 67.5t-81 25.5q-46 0 -81.5 -22.5t-55.5 -64t-20 -97.5h306
q0 49 -17 91z" />
    <glyph glyph-name="Racute" unicode="&#x154;" horiz-adv-x="661" 
d="M507.5 670.5q48.5 -20.5 75.5 -61t27 -98.5q0 -69 -36 -116t-100 -60v-2q46 -8 70.5 -36t41 -92.5t37.5 -204.5h-69q-15 106 -27.5 163t-22.5 78.5t-24 35.5q-30 30 -88 30h-244v-307h-68v691h316q63 0 111.5 -20.5zM468 380.5q34 15.5 54.5 46t20.5 71.5q0 66 -39 100.5
t-110 34.5h-246v-268h246q40 0 74 15.5zM458 890l-129 -136h-50l101 136h78z" />
    <glyph glyph-name="racute" unicode="&#x155;" horiz-adv-x="327" 
d="M344 730l-129 -141h-51l102 141h78zM317 471q-13 3 -37 3q-48 0 -81.5 -22.5t-50.5 -61.5t-17 -90v-300h-63v516h63v-88h2q17 48 55.5 75.5t94.5 27.5q10 0 34 -2v-58z" />
    <glyph glyph-name="Rcommaaccent" unicode="&#x156;" horiz-adv-x="661" 
d="M374 -66q0 -28 -12 -69t-29 -68h-56q14 25 23 63t9 74v16h65v-16zM507.5 670.5q48.5 -20.5 75.5 -61t27 -98.5q0 -69 -36 -116t-100 -60v-2q46 -8 70.5 -36t41 -92.5t37.5 -204.5h-69q-15 106 -27.5 163t-22.5 78.5t-24 35.5q-30 30 -88 30h-244v-307h-68v691h316
q63 0 111.5 -20.5zM468 380.5q34 15.5 54.5 46t20.5 71.5q0 66 -39 100.5t-110 34.5h-246v-268h246q40 0 74 15.5z" />
    <glyph glyph-name="rcommaaccent" unicode="&#x157;" horiz-adv-x="327" 
d="M133 -66q0 -28 -12 -69t-29 -68h-56q14 25 23 63t9 74v16h65v-16zM317 471q-13 3 -37 3q-48 0 -81.5 -22.5t-50.5 -61.5t-17 -90v-300h-63v516h63v-88h2q17 48 55.5 75.5t94.5 27.5q10 0 34 -2v-58z" />
    <glyph glyph-name="Rcaron" unicode="&#x158;" horiz-adv-x="661" 
d="M230 890l83 -98l85 98h58l-111 -136h-68l-111 136h64zM507.5 670.5q48.5 -20.5 75.5 -61t27 -98.5q0 -69 -36 -116t-100 -60v-2q46 -8 70.5 -36t41 -92.5t37.5 -204.5h-69q-15 106 -27.5 163t-22.5 78.5t-24 35.5q-30 30 -88 30h-244v-307h-68v691h316q63 0 111.5 -20.5z
M468 380.5q34 15.5 54.5 46t20.5 71.5q0 66 -39 100.5t-110 34.5h-246v-268h246q40 0 74 15.5z" />
    <glyph glyph-name="rcaron" unicode="&#x159;" horiz-adv-x="327" 
d="M117 730l83 -102l85 102h57l-110 -141h-68l-111 141h64zM317 471q-13 3 -37 3q-48 0 -81.5 -22.5t-50.5 -61.5t-17 -90v-300h-63v516h63v-88h2q17 48 55.5 75.5t94.5 27.5q10 0 34 -2v-58z" />
    <glyph glyph-name="Sacute" unicode="&#x15a;" horiz-adv-x="632" 
d="M497 516q-6 66 -57.5 99t-132.5 33q-77 0 -125 -33t-48 -103q0 -34 14.5 -55.5t39 -33t62.5 -20.5l151 -36q67 -16 107.5 -40.5t59.5 -60t19 -83.5q0 -44 -21 -88.5t-80 -77t-164 -32.5q-87 0 -149 23.5t-94.5 69t-32.5 110.5v7h66v-5q0 -75 56 -110.5t155 -35.5
q88 0 143 34t55 104q0 49 -34.5 78t-104.5 46l-145 35q-61 15 -97.5 36.5t-54 54t-17.5 79.5q0 45 23 89.5t76.5 75t138.5 30.5q74 0 131 -22.5t90.5 -65t35.5 -102.5h-66zM461 890l-129 -136h-50l101 136h78z" />
    <glyph glyph-name="sacute" unicode="&#x15b;" horiz-adv-x="488" 
d="M392 730l-129 -141h-51l102 141h78zM368 385q-4 44 -38.5 68.5t-92.5 24.5q-48 0 -82.5 -21.5t-34.5 -67.5q0 -33 27 -54.5t84 -34.5l64 -15q39 -8 71 -22t56.5 -44t24.5 -79q0 -53 -29.5 -88t-75.5 -51t-96 -16q-93 0 -145.5 40t-60.5 122h61q4 -53 43 -81t105 -28
q34 0 65 10.5t50.5 32.5t19.5 54q0 39 -27.5 61t-89.5 36l-65 15q-75 18 -109.5 50t-34.5 89q0 50 27.5 82.5t70 47.5t90.5 15q53 0 93 -17.5t63 -50.5t27 -78h-61z" />
    <glyph glyph-name="Scircumflex" unicode="&#x15c;" horiz-adv-x="632" 
d="M497 516q-6 66 -57.5 99t-132.5 33q-77 0 -125 -33t-48 -103q0 -34 14.5 -55.5t39 -33t62.5 -20.5l151 -36q67 -16 107.5 -40.5t59.5 -60t19 -83.5q0 -44 -21 -88.5t-80 -77t-164 -32.5q-87 0 -149 23.5t-94.5 69t-32.5 110.5v7h66v-5q0 -75 56 -110.5t155 -35.5
q88 0 143 34t55 104q0 49 -34.5 78t-104.5 46l-145 35q-61 15 -97.5 36.5t-54 54t-17.5 79.5q0 45 23 89.5t76.5 75t138.5 30.5q74 0 131 -22.5t90.5 -65t35.5 -102.5h-66zM352 890l110 -136h-64l-83 98l-85 -98h-57l110 136h69z" />
    <glyph glyph-name="scircumflex" unicode="&#x15d;" horiz-adv-x="488" 
d="M284 730l110 -141h-64l-83 102l-85 -102h-57l110 141h69zM368 385q-4 44 -38.5 68.5t-92.5 24.5q-48 0 -82.5 -21.5t-34.5 -67.5q0 -33 27 -54.5t84 -34.5l64 -15q39 -8 71 -22t56.5 -44t24.5 -79q0 -53 -29.5 -88t-75.5 -51t-96 -16q-93 0 -145.5 40t-60.5 122h61
q4 -53 43 -81t105 -28q34 0 65 10.5t50.5 32.5t19.5 54q0 39 -27.5 61t-89.5 36l-65 15q-75 18 -109.5 50t-34.5 89q0 50 27.5 82.5t70 47.5t90.5 15q53 0 93 -17.5t63 -50.5t27 -78h-61z" />
    <glyph glyph-name="Scedilla" unicode="&#x15e;" horiz-adv-x="632" 
d="M566.5 96.5q-20.5 -43.5 -77.5 -76.5t-158 -35l-26 -36l1 -1q5 1 10 1.5t11 0.5q34 0 56.5 -18t22.5 -49q0 -28 -15 -47.5t-39.5 -29t-52.5 -9.5q-52 0 -91 21l13 32q12 -5 32.5 -9.5t40.5 -4.5q27 0 41 11.5t14 31.5q0 18 -13.5 28t-37.5 10q-23 0 -45 -10l-20 17l47 63
q-112 8 -173 60t-61 141v7h66v-5q0 -75 56 -110.5t155 -35.5q88 0 143 34t55 104q0 49 -34.5 78t-104.5 46l-145 35q-61 15 -97.5 36.5t-54 54t-17.5 79.5q0 45 23 89.5t76.5 75t138.5 30.5q74 0 131 -22.5t90.5 -65t35.5 -102.5h-66q-6 66 -57.5 99t-132.5 33
q-77 0 -125 -33t-48 -103q0 -34 14.5 -55.5t39 -33t62.5 -20.5l151 -36q67 -16 107.5 -40.5t59.5 -60t19 -83.5q0 -43 -20.5 -86.5z" />
    <glyph glyph-name="scedilla" unicode="&#x15f;" horiz-adv-x="488" 
d="M420 55q-27 -34 -70 -51t-91 -19l-26 -36l1 -1q5 1 10 1.5t11 0.5q34 0 56.5 -18t22.5 -49q0 -28 -15 -47.5t-39.5 -29t-52.5 -9.5q-52 0 -91 21l13 32q12 -5 32.5 -9.5t40.5 -4.5q27 0 41 11.5t14 31.5q0 18 -13.5 28t-37.5 10q-23 0 -45 -10l-20 17l47 63
q-153 15 -168 160h61q4 -53 43 -81t105 -28q34 0 65 10.5t50.5 32.5t19.5 54q0 39 -27.5 61t-89.5 36l-65 15q-75 18 -109.5 50t-34.5 89q0 50 27.5 82.5t70 47.5t90.5 15q53 0 93 -17.5t63 -50.5t27 -78h-61q-4 44 -38.5 68.5t-92.5 24.5q-48 0 -82.5 -21.5t-34.5 -67.5
q0 -33 27 -54.5t84 -34.5l64 -15q39 -8 71 -22t56.5 -44t24.5 -79q0 -51 -27 -85z" />
    <glyph glyph-name="Scaron" unicode="&#x160;" horiz-adv-x="632" 
d="M497 516q-6 66 -57.5 99t-132.5 33q-77 0 -125 -33t-48 -103q0 -34 14.5 -55.5t39 -33t62.5 -20.5l151 -36q67 -16 107.5 -40.5t59.5 -60t19 -83.5q0 -44 -21 -88.5t-80 -77t-164 -32.5q-87 0 -149 23.5t-94.5 69t-32.5 110.5v7h66v-5q0 -75 56 -110.5t155 -35.5
q88 0 143 34t55 104q0 49 -34.5 78t-104.5 46l-145 35q-61 15 -97.5 36.5t-54 54t-17.5 79.5q0 45 23 89.5t76.5 75t138.5 30.5q74 0 131 -22.5t90.5 -65t35.5 -102.5h-66zM235 890l83 -98l85 98h58l-111 -136h-68l-111 136h64z" />
    <glyph glyph-name="scaron" unicode="&#x161;" horiz-adv-x="488" 
d="M167 730l83 -102l85 102h57l-110 -141h-68l-111 141h64zM368 385q-4 44 -38.5 68.5t-92.5 24.5q-48 0 -82.5 -21.5t-34.5 -67.5q0 -33 27 -54.5t84 -34.5l64 -15q39 -8 71 -22t56.5 -44t24.5 -79q0 -53 -29.5 -88t-75.5 -51t-96 -16q-93 0 -145.5 40t-60.5 122h61
q4 -53 43 -81t105 -28q34 0 65 10.5t50.5 32.5t19.5 54q0 39 -27.5 61t-89.5 36l-65 15q-75 18 -109.5 50t-34.5 89q0 50 27.5 82.5t70 47.5t90.5 15q53 0 93 -17.5t63 -50.5t27 -78h-61z" />
    <glyph glyph-name="uni0162" unicode="&#x162;" horiz-adv-x="561" 
d="M312 -66q0 -28 -12 -69t-29 -68h-56q14 25 23 63t9 74v16h65v-16zM555 691v-58h-241v-633h-68v633h-240v58h549z" />
    <glyph glyph-name="uni0163" unicode="&#x163;" horiz-adv-x="308" 
d="M216 -66q0 -28 -12 -69t-29 -68h-56q14 25 23 63t9 74v16h65v-16zM167 516h105v-53h-105v-321q0 -52 15 -73.5t51 -21.5q23 0 45 7v-52q-28 -8 -53 -8q-62 0 -91.5 32.5t-29.5 110.5v326h-87v53h87v155h63v-155z" />
    <glyph glyph-name="Tcaron" unicode="&#x164;" horiz-adv-x="561" 
d="M201 890l83 -98l85 98h58l-111 -136h-68l-111 136h64zM555 691v-58h-241v-633h-68v633h-240v58h549z" />
    <glyph glyph-name="tcaron" unicode="&#x165;" horiz-adv-x="308" 
d="M357 714l-83 -141h-47l53 141h77zM167 516h105v-53h-105v-321q0 -52 15 -73.5t51 -21.5q23 0 45 7v-52q-28 -8 -53 -8q-62 0 -91.5 32.5t-29.5 110.5v326h-87v53h87v155h63v-155z" />
    <glyph glyph-name="Tbar" unicode="&#x166;" horiz-adv-x="561" 
d="M555 691v-58h-241v-163h160v-45h-160v-425h-68v425h-158v45h158v163h-240v58h549z" />
    <glyph glyph-name="tbar" unicode="&#x167;" horiz-adv-x="308" 
d="M167 516h105v-53h-105v-109h93v-45h-93v-167q0 -52 15 -73.5t51 -21.5q23 0 45 7v-52q-28 -8 -53 -8q-62 0 -91.5 32.5t-29.5 110.5v172h-83v45h83v109h-87v53h87v155h63v-155z" />
    <glyph glyph-name="Utilde" unicode="&#x168;" horiz-adv-x="686" 
d="M381.5 831q15.5 -6 25.5 -6q20 0 31.5 11t19.5 35h37q-9 -45 -31.5 -68.5t-53.5 -23.5q-17 0 -34 5.5t-39 16.5q-24 12 -36.5 17t-24.5 5q-38 0 -48 -49h-39q3 26 15 47.5t31 34t41 12.5q17 0 34 -5.5t39 -16.5q17 -9 32.5 -15zM141 262q0 -107 48 -163t154 -56
q104 0 153 54t49 166v428h68v-440q0 -82 -30.5 -141.5t-91 -92t-148.5 -32.5q-89 0 -149.5 33.5t-90.5 93.5t-30 139v440h68v-429z" />
    <glyph glyph-name="utilde" unicode="&#x169;" horiz-adv-x="542" 
d="M130 196q0 -77 33 -117.5t105 -40.5t108 41t36 117v320h63v-516h-63v78h-2q-38 -93 -149 -93q-194 0 -194 196v335h63v-320zM297 675q12 -6 22 -9.5t18 -3.5q19 0 31.5 11t19.5 37h37q-8 -45 -30.5 -70t-54.5 -25q-17 0 -33 5.5t-38 16.5q-5 2 -18 9t-24 11t-21 4
q-18 0 -30 -12t-18 -39h-39q5 41 28.5 68.5t58.5 27.5q16 0 34 -5.5t41 -17.5z" />
    <glyph glyph-name="Umacron" unicode="&#x16a;" horiz-adv-x="686" 
d="M503 845v-44h-320v44h320zM141 262q0 -107 48 -163t154 -56q104 0 153 54t49 166v428h68v-440q0 -82 -30.5 -141.5t-91 -92t-148.5 -32.5q-89 0 -149.5 33.5t-90.5 93.5t-30 139v440h68v-429z" />
    <glyph glyph-name="umacron" unicode="&#x16b;" horiz-adv-x="542" 
d="M130 196q0 -77 33 -117.5t105 -40.5t108 41t36 117v320h63v-516h-63v78h-2q-38 -93 -149 -93q-194 0 -194 196v335h63v-320zM432 683v-45h-319v45h319z" />
    <glyph glyph-name="Ubreve" unicode="&#x16c;" horiz-adv-x="686" 
d="M257 843q14 -18 36.5 -27.5t48.5 -9.5q39 0 68 21.5t35 57.5h38q-8 -57 -45 -90.5t-96 -33.5q-61 0 -97 33t-41 91h38q1 -24 15 -42zM141 262q0 -107 48 -163t154 -56q104 0 153 54t49 166v428h68v-440q0 -82 -30.5 -141.5t-91 -92t-148.5 -32.5q-89 0 -149.5 33.5
t-90.5 93.5t-30 139v440h68v-429z" />
    <glyph glyph-name="ubreve" unicode="&#x16d;" horiz-adv-x="542" 
d="M130 196q0 -77 33 -117.5t105 -40.5t108 41t36 117v320h63v-516h-63v78h-2q-38 -93 -149 -93q-194 0 -194 196v335h63v-320zM186 680.5q14 -18.5 36.5 -28.5t48.5 -10q40 0 69 22.5t34 59.5h38q-8 -59 -45 -93t-96 -34q-61 0 -97 34t-41 93h38q1 -25 15 -43.5z" />
    <glyph glyph-name="Uring" unicode="&#x16e;" horiz-adv-x="686" 
d="M141 262q0 -107 48 -163t154 -56q104 0 153 54t49 166v428h68v-440q0 -82 -30.5 -141.5t-91 -92t-148.5 -32.5q-89 0 -149.5 33.5t-90.5 93.5t-30 139v440h68v-429zM431 780.5q-14 -23.5 -38 -37.5t-52 -14t-52 14t-38 37.5t-14 51.5t14 52t38 38t52 14q29 0 53 -14
t37.5 -38t13.5 -52t-14 -51.5zM388.5 786q18.5 19 18.5 46q0 28 -18.5 47t-48.5 19q-27 0 -46 -18.5t-19 -47.5q0 -27 18.5 -46t47.5 -19t47.5 19z" />
    <glyph glyph-name="uring" unicode="&#x16f;" horiz-adv-x="542" 
d="M364.5 626.5q-14.5 -24.5 -39 -39t-53.5 -14.5q-30 0 -54.5 15t-38.5 39.5t-14 52.5q0 29 14.5 53.5t39 39t53.5 14.5t53.5 -14.5t39 -39t14.5 -53.5t-14.5 -53.5zM320.5 631.5q19.5 19.5 19.5 48.5q0 18 -8.5 33.5t-24 25t-36.5 9.5q-18 0 -33.5 -8.5t-24.5 -24
t-9 -35.5q0 -29 19 -48.5t49 -19.5q29 0 48.5 19.5zM130 196q0 -77 33 -117.5t105 -40.5t108 41t36 117v320h63v-516h-63v78h-2q-38 -93 -149 -93q-194 0 -194 196v335h63v-320z" />
    <glyph glyph-name="Uhungarumlaut" unicode="&#x170;" horiz-adv-x="686" 
d="M141 262q0 -107 48 -163t154 -56q104 0 153 54t49 166v428h68v-440q0 -82 -30.5 -141.5t-91 -92t-148.5 -32.5q-89 0 -149.5 33.5t-90.5 93.5t-30 139v440h68v-429zM409 890l-123 -136h-51l98 136h76zM561 890l-122 -136h-51l98 136h75z" />
    <glyph glyph-name="uhungarumlaut" unicode="&#x171;" horiz-adv-x="542" 
d="M130 196q0 -77 33 -117.5t105 -40.5t108 41t36 117v320h63v-516h-63v78h-2q-38 -93 -149 -93q-194 0 -194 196v335h63v-320zM338 730l-123 -141h-51l98 141h76zM490 730l-122 -141h-51l98 141h75z" />
    <glyph glyph-name="Uogonek" unicode="&#x172;" horiz-adv-x="686" 
d="M613 691v-440q0 -111 -56.5 -180.5t-164.5 -82.5q-31 -32 -47 -52t-22 -35t-6 -31q0 -17 13 -25.5t32 -8.5q15 0 29 10t25 31l28 -13q-15 -35 -38 -51t-57 -16q-40 0 -62.5 19t-22.5 51q0 26 16 52.5t56 65.5q-86 1 -145 35t-88.5 93.5t-29.5 137.5v440h68v-429
q0 -107 48 -163t154 -56q104 0 153 54t49 166v428h68z" />
    <glyph glyph-name="uogonek" unicode="&#x173;" horiz-adv-x="542" 
d="M504 -136q-15 -35 -38 -51t-57 -16q-40 0 -62.5 19t-22.5 51q0 28 19.5 57.5t68.5 75.5v78h-2q-38 -93 -149 -93q-194 0 -194 196v335h63v-320q0 -77 33 -117.5t105 -40.5t108 41t36 117v320h63v-516h-11q-36 -36 -54.5 -58.5t-25.5 -38.5t-7 -33t13 -25.5t32 -8.5
q15 0 29 10t25 31z" />
    <glyph glyph-name="Wcircumflex" unicode="&#x174;" horiz-adv-x="901" 
d="M83 691l156 -601h2l168 601h84l168 -601h2l157 601h68l-191 -691h-72l-174 615h-2l-173 -615h-74l-192 691h73zM486 890l110 -136h-64l-83 98l-85 -98h-57l110 136h69z" />
    <glyph glyph-name="wcircumflex" unicode="&#x175;" horiz-adv-x="740" 
d="M406 730l110 -141h-64l-83 102l-85 -102h-57l110 141h69zM85 516l127 -442h2l121 442h70l122 -442h2l127 442h67l-161 -516h-69l-122 434h-2l-122 -434h-68l-161 516h67z" />
    <glyph glyph-name="Ycircumflex" unicode="&#x176;" horiz-adv-x="614" 
d="M81 691l227 -348l225 348h81l-273 -407v-284h-68v284l-273 407h81zM345 890l110 -136h-64l-83 98l-85 -98h-57l110 136h69z" />
    <glyph glyph-name="ycircumflex" unicode="&#x177;" horiz-adv-x="470" 
d="M241 76h2l154 440h63l-197 -538q-23 -69 -54 -107.5t-67 -54.5t-85 -22v55q43 4 71 21t47 48.5t36 83.5l-200 514h67zM277 730l110 -141h-64l-83 102l-85 -102h-57l110 141h69z" />
    <glyph glyph-name="Ydieresis" unicode="&#x178;" horiz-adv-x="614" 
d="M81 691l227 -348l225 348h81l-273 -407v-284h-68v284l-273 407h81zM255 787q-13 -13 -33 -13t-32.5 13.5t-12.5 32.5t12.5 32.5t32.5 13.5t33 -13.5t13 -32.5q0 -20 -13 -33zM427 787q-13 -13 -33 -13t-32.5 13.5t-12.5 32.5t12.5 32.5t32.5 13.5t33 -13.5t13 -32.5
q0 -20 -13 -33z" />
    <glyph glyph-name="Zacute" unicode="&#x179;" horiz-adv-x="577" 
d="M544 633q-106 -120 -245.5 -297t-207.5 -278h463v-58h-539v58q78 113 216 288.5t235 286.5h-420v58h498v-58zM435 890l-129 -136h-50l101 136h78z" />
    <glyph glyph-name="zacute" unicode="&#x17a;" horiz-adv-x="470" 
d="M381 730l-129 -141h-51l102 141h78zM429 471q-80 -90 -177 -213t-153 -205h344v-53h-418v51q63 92 157.5 211t166.5 201h-302v53h382v-45z" />
    <glyph glyph-name="Zdotaccent" unicode="&#x17b;" horiz-adv-x="577" 
d="M324 787q-13 -13 -33 -13t-32.5 13.5t-12.5 32.5t12.5 32.5t32.5 13.5t33 -13.5t13 -32.5q0 -20 -13 -33zM544 633q-106 -120 -245.5 -297t-207.5 -278h463v-58h-539v58q78 113 216 288.5t235 286.5h-420v58h498v-58z" />
    <glyph glyph-name="zdotaccent" unicode="&#x17c;" horiz-adv-x="470" 
d="M429 471q-80 -90 -177 -213t-153 -205h344v-53h-418v51q63 92 157.5 211t166.5 201h-302v53h382v-45zM269 632q-13 -13 -33 -13t-32.5 13.5t-12.5 32.5t12.5 32.5t32.5 13.5t33 -13.5t13 -32.5q0 -20 -13 -33z" />
    <glyph glyph-name="Zcaron" unicode="&#x17d;" horiz-adv-x="577" 
d="M208 890l83 -98l85 98h58l-111 -136h-68l-111 136h64zM544 633q-106 -120 -245.5 -297t-207.5 -278h463v-58h-539v58q78 113 216 288.5t235 286.5h-420v58h498v-58z" />
    <glyph glyph-name="zcaron" unicode="&#x17e;" horiz-adv-x="470" 
d="M154 730l83 -102l85 102h57l-110 -141h-68l-111 141h64zM429 471q-80 -90 -177 -213t-153 -205h344v-53h-418v51q63 92 157.5 211t166.5 201h-302v53h382v-45z" />
    <glyph glyph-name="florin" unicode="&#x192;" horiz-adv-x="559" 
d="M471 642q-12 5 -20 6.5t-20 1.5q-36 0 -56 -17t-30 -45.5t-21 -81.5l-14 -67h109l-9 -53h-109l-68 -370q-13 -74 -35 -115t-53.5 -57.5t-77.5 -16.5q-15 0 -26 2t-16.5 3.5t-7.5 2.5l9 54q11 -5 20.5 -6.5t24.5 -1.5q38 0 61 31t34 91l71 383h-97l9 53h98l11 58
q15 74 32 116.5t50.5 66t93.5 23.5q28 0 48 -10z" />
    <glyph glyph-name="Scommaaccent" unicode="&#x218;" horiz-adv-x="632" 
d="M347 -66q0 -28 -12 -69t-29 -68h-56q14 25 23 63t9 74v16h65v-16zM497 516q-6 66 -57.5 99t-132.5 33q-77 0 -125 -33t-48 -103q0 -34 14.5 -55.5t39 -33t62.5 -20.5l151 -36q67 -16 107.5 -40.5t59.5 -60t19 -83.5q0 -44 -21 -88.5t-80 -77t-164 -32.5q-87 0 -149 23.5
t-94.5 69t-32.5 110.5v7h66v-5q0 -75 56 -110.5t155 -35.5q88 0 143 34t55 104q0 49 -34.5 78t-104.5 46l-145 35q-61 15 -97.5 36.5t-54 54t-17.5 79.5q0 45 23 89.5t76.5 75t138.5 30.5q74 0 131 -22.5t90.5 -65t35.5 -102.5h-66z" />
    <glyph glyph-name="scommaaccent" unicode="&#x219;" horiz-adv-x="488" 
d="M278 -66q0 -28 -12 -69t-29 -68h-56q14 25 23 63t9 74v16h65v-16zM368 385q-4 44 -38.5 68.5t-92.5 24.5q-48 0 -82.5 -21.5t-34.5 -67.5q0 -33 27 -54.5t84 -34.5l64 -15q39 -8 71 -22t56.5 -44t24.5 -79q0 -53 -29.5 -88t-75.5 -51t-96 -16q-93 0 -145.5 40t-60.5 122
h61q4 -53 43 -81t105 -28q34 0 65 10.5t50.5 32.5t19.5 54q0 39 -27.5 61t-89.5 36l-65 15q-75 18 -109.5 50t-34.5 89q0 50 27.5 82.5t70 47.5t90.5 15q53 0 93 -17.5t63 -50.5t27 -78h-61z" />
    <glyph glyph-name="uni021A" unicode="&#x21a;" horiz-adv-x="561" 
d="M312 -66q0 -28 -12 -69t-29 -68h-56q14 25 23 63t9 74v16h65v-16zM555 691v-58h-241v-633h-68v633h-240v58h549z" />
    <glyph glyph-name="uni021B" unicode="&#x21b;" horiz-adv-x="308" 
d="M216 -66q0 -28 -12 -69t-29 -68h-56q14 25 23 63t9 74v16h65v-16zM167 516h105v-53h-105v-321q0 -52 15 -73.5t51 -21.5q23 0 45 7v-52q-28 -8 -53 -8q-62 0 -91.5 32.5t-29.5 110.5v326h-87v53h87v155h63v-155z" />
    <glyph glyph-name="dotlessj" unicode="&#x237;" horiz-adv-x="202" 
d="M132 -18q0 -72 -14.5 -112.5t-48 -58t-92.5 -17.5v56q39 0 58.5 13.5t26.5 44t7 88.5v520h63v-534z" />
    <glyph glyph-name="circumflex" unicode="&#x2c6;" horiz-adv-x="201" 
d="M138 730l110 -141h-64l-83 102l-85 -102h-57l110 141h69z" />
    <glyph glyph-name="caron" unicode="&#x2c7;" horiz-adv-x="201" 
d="M16 730l83 -102l85 102h57l-110 -141h-68l-111 141h64z" />
    <glyph glyph-name="uni02C9" unicode="&#x2c9;" horiz-adv-x="201" 
d="M260 683v-45h-319v45h319z" />
    <glyph glyph-name="breve" unicode="&#x2d8;" horiz-adv-x="201" 
d="M14 680.5q14 -18.5 36.5 -28.5t48.5 -10q40 0 69 22.5t34 59.5h38q-8 -59 -45 -93t-96 -34q-61 0 -97 34t-41 93h38q1 -25 15 -43.5z" />
    <glyph glyph-name="dotaccent" unicode="&#x2d9;" horiz-adv-x="201" 
d="M133 632q-13 -13 -33 -13t-32.5 13.5t-12.5 32.5t12.5 32.5t32.5 13.5t33 -13.5t13 -32.5q0 -20 -13 -33z" />
    <glyph glyph-name="ring" unicode="&#x2da;" horiz-adv-x="201" 
d="M193.5 626.5q-14.5 -24.5 -39 -39t-53.5 -14.5q-30 0 -54.5 15t-38.5 39.5t-14 52.5q0 29 14.5 53.5t39 39t53.5 14.5t53.5 -14.5t39 -39t14.5 -53.5t-14.5 -53.5zM149.5 631.5q19.5 19.5 19.5 48.5q0 18 -8.5 33.5t-24 25t-36.5 9.5q-18 0 -33.5 -8.5t-24.5 -24
t-9 -35.5q0 -29 19 -48.5t49 -19.5q29 0 48.5 19.5z" />
    <glyph glyph-name="ogonek" unicode="&#x2db;" horiz-adv-x="201" 
d="M153.5 -58.5q-18.5 -22.5 -25.5 -38.5t-7 -33t13 -25.5t32 -8.5q15 0 29 10t25 31l28 -13q-15 -35 -38 -51t-57 -16q-40 0 -62.5 19t-22.5 51q0 28 19.5 57.5t68.5 75.5h52q-36 -36 -54.5 -58.5z" />
    <glyph glyph-name="tilde" unicode="&#x2dc;" horiz-adv-x="201" 
d="M125 675q12 -6 22 -9.5t18 -3.5q19 0 31.5 11t19.5 37h37q-8 -45 -30.5 -70t-54.5 -25q-17 0 -33 5.5t-38 16.5q-5 2 -18 9t-24 11t-21 4q-18 0 -30 -12t-18 -39h-39q5 41 28.5 68.5t58.5 27.5q16 0 34 -5.5t41 -17.5z" />
    <glyph glyph-name="hungarumlaut" unicode="&#x2dd;" horiz-adv-x="201" 
d="M151 730l-123 -141h-51l98 141h76zM303 730l-122 -141h-51l98 141h75z" />
    <glyph glyph-name="commaturnedabovecomb" unicode="&#x312;" horiz-adv-x="0" 
d="M-179 639q0 28 12 69t29 68h56q-14 -25 -23 -63t-9 -74v-16h-65v16z" />
    <glyph glyph-name="uni0313" unicode="&#x313;" horiz-adv-x="0" 
d="M-112 713q0 -28 -12 -69t-29 -68h-56q14 25 23 63t9 74v16h65v-16z" />
    <glyph glyph-name="commaaccent" unicode="&#x326;" horiz-adv-x="0" 
d="M-112 -66q0 -28 -12 -69t-29 -68h-56q14 25 23 63t9 74v16h65v-16z" />
    <glyph glyph-name="uni0394" unicode="&#x394;" horiz-adv-x="632" 
d="M358 691l271 -691h-626l279 691h76zM98 58h436l-216 564h-1z" />
    <glyph glyph-name="uni03A9" unicode="&#x3a9;" horiz-adv-x="757" 
d="M662 200q-42 -81 -124 -138v-4h176v-58h-257v60q91 63 134.5 140.5t43.5 178.5q0 76 -31.5 137t-89.5 96.5t-134 35.5q-78 0 -136.5 -33.5t-90.5 -94t-32 -140.5q0 -99 44.5 -178t136.5 -142v-60h-259v58h172v4q-79 55 -121 136t-42 181q0 93 41.5 167.5t116.5 117
t170 42.5t169 -45.5t114.5 -120.5t40.5 -161q0 -98 -42 -179z" />
    <glyph glyph-name="uni03BC" unicode="&#x3bc;" horiz-adv-x="542" 
d="M475 516v-516h-63v78h-2q-38 -93 -149 -93q-83 0 -131 37v-213h-63v707h63v-320q0 -77 33 -117.5t105 -40.5t108 41t36 117v320h63z" />
    <glyph glyph-name="pi" unicode="&#x3c0;" horiz-adv-x="596" 
d="M560 463h-81v-371q0 -18 10 -28.5t31 -10.5q8 0 15 1t11 3v-53q-19 -4 -50 -4q-43 0 -61.5 21.5t-18.5 66.5v375h-248v-463h-62v463h-74v53h528v-53z" />
    <glyph glyph-name="Wgrave" unicode="&#x1e80;" horiz-adv-x="901" 
d="M83 691l156 -601h2l168 601h84l168 -601h2l157 601h68l-191 -691h-72l-174 615h-2l-173 -615h-74l-192 691h73zM405 890l102 -136h-51l-128 136h77z" />
    <glyph glyph-name="wgrave" unicode="&#x1e81;" horiz-adv-x="740" 
d="M325 730l102 -141h-51l-128 141h77zM85 516l127 -442h2l121 442h70l122 -442h2l127 442h67l-161 -516h-69l-122 434h-2l-122 -434h-68l-161 516h67z" />
    <glyph glyph-name="Wacute" unicode="&#x1e82;" horiz-adv-x="901" 
d="M83 691l156 -601h2l168 601h84l168 -601h2l157 601h68l-191 -691h-72l-174 615h-2l-173 -615h-74l-192 691h73zM570 890l-129 -136h-50l101 136h78z" />
    <glyph glyph-name="wacute" unicode="&#x1e83;" horiz-adv-x="740" 
d="M490 730l-129 -141h-51l102 141h78zM85 516l127 -442h2l121 442h70l122 -442h2l127 442h67l-161 -516h-69l-122 434h-2l-122 -434h-68l-161 516h67z" />
    <glyph glyph-name="Wdieresis" unicode="&#x1e84;" horiz-adv-x="901" 
d="M83 691l156 -601h2l168 601h84l168 -601h2l157 601h68l-191 -691h-72l-174 615h-2l-173 -615h-74l-192 691h73zM395 787q-13 -13 -33 -13t-32.5 13.5t-12.5 32.5t12.5 32.5t32.5 13.5t33 -13.5t13 -32.5q0 -20 -13 -33zM567 787q-13 -13 -33 -13t-32.5 13.5t-12.5 32.5
t12.5 32.5t32.5 13.5t33 -13.5t13 -32.5q0 -20 -13 -33z" />
    <glyph glyph-name="wdieresis" unicode="&#x1e85;" horiz-adv-x="740" 
d="M317 632q-13 -13 -33 -13t-32.5 13.5t-12.5 32.5t12.5 32.5t32.5 13.5t33 -13.5t13 -32.5q0 -20 -13 -33zM485 632q-13 -13 -33 -13t-32.5 13.5t-12.5 32.5t12.5 32.5t32.5 13.5t33 -13.5t13 -32.5q0 -20 -13 -33zM85 516l127 -442h2l121 442h70l122 -442h2l127 442h67
l-161 -516h-69l-122 434h-2l-122 -434h-68l-161 516h67z" />
    <glyph glyph-name="Germandbls" unicode="&#x1e9e;" horiz-adv-x="668" 
d="M552.5 542q-7.5 -15 -27.5 -39l-103 -125q58 -3 103.5 -24.5t72 -62t26.5 -97.5q0 -69 -32.5 -114t-86.5 -66t-121 -21q-56 0 -122 13v63q26 -7 60.5 -12t59.5 -5q74 0 125 32.5t51 109.5q0 55 -30.5 84.5t-77.5 39.5t-107 10h-4v37l143 180q5 7 7.5 12t2.5 12
q0 20 -21 38t-61 29.5t-95 11.5q-97 0 -143 -46.5t-46 -135.5v-466h-68v470q0 71 28.5 124t87 82.5t144.5 29.5q69 0 124 -16t86.5 -46t31.5 -69q0 -18 -7.5 -33z" />
    <glyph glyph-name="Ygrave" unicode="&#x1ef2;" horiz-adv-x="614" 
d="M81 691l227 -348l225 348h81l-273 -407v-284h-68v284l-273 407h81zM265 890l102 -136h-51l-128 136h77z" />
    <glyph glyph-name="ygrave" unicode="&#x1ef3;" horiz-adv-x="470" 
d="M241 76h2l154 440h63l-197 -538q-23 -69 -54 -107.5t-67 -54.5t-85 -22v55q43 4 71 21t47 48.5t36 83.5l-200 514h67zM196 730l102 -141h-51l-128 141h77z" />
    <glyph glyph-name="uni2011" unicode="&#x2011;" horiz-adv-x="380" 
d="M312 304v-58h-244v58h244z" />
    <glyph glyph-name="endash" unicode="&#x2013;" horiz-adv-x="505" 
d="M495 304v-58h-485v58h485z" />
    <glyph glyph-name="emdash" unicode="&#x2014;" horiz-adv-x="990" 
d="M854 304v-58h-718v58h718z" />
    <glyph glyph-name="quoteleft" unicode="&#x2018;" horiz-adv-x="278" 
d="M90 503q0 45 17 107t43 104h54q-21 -40 -35.5 -98t-14.5 -113q0 -16 1 -24h-65v24z" />
    <glyph glyph-name="quoteright" unicode="&#x2019;" horiz-adv-x="278" 
d="M188 690q0 -45 -17 -107t-43 -104h-54q21 40 35.5 98t14.5 113q0 16 -1 24h65v-24z" />
    <glyph glyph-name="quotesinglbase" unicode="&#x201a;" horiz-adv-x="278" 
d="M174 82q0 -45 -17 -107t-43 -104h-54q21 40 35.5 98t14.5 113q0 16 -1 24h65v-24z" />
    <glyph glyph-name="quotedblleft" unicode="&#x201c;" horiz-adv-x="370" 
d="M60 503q0 45 17 107t43 104h54q-21 -40 -35.5 -98t-14.5 -113q0 -16 1 -24h-65v24zM206 503q0 45 17 107t43 104h54q-21 -40 -35.5 -98t-14.5 -113q0 -16 1 -24h-65v24z" />
    <glyph glyph-name="quotedblright" unicode="&#x201d;" horiz-adv-x="370" 
d="M164 690q0 -45 -17 -107t-43 -104h-54q21 40 35.5 98t14.5 113q0 16 -1 24h65v-24zM310 690q0 -45 -17 -107t-43 -104h-54q21 40 35.5 98t14.5 113q0 16 -1 24h65v-24z" />
    <glyph glyph-name="quotedblbase" unicode="&#x201e;" horiz-adv-x="370" 
d="M154 82q0 -45 -17 -107t-43 -104h-54q21 40 35.5 98t14.5 113q0 16 -1 24h65v-24zM300 82q0 -45 -17 -107t-43 -104h-54q21 40 35.5 98t14.5 113q0 16 -1 24h65v-24z" />
    <glyph glyph-name="dagger" unicode="&#x2020;" horiz-adv-x="560" 
d="M311 691v-213h193v-53h-193v-572h-63v572h-192v53h192v213h63z" />
    <glyph glyph-name="daggerdbl" unicode="&#x2021;" horiz-adv-x="560" 
d="M311 691v-192h193v-53h-193v-348h193v-53h-193v-192h-63v192h-192v53h192v348h-192v53h192v192h63z" />
    <glyph glyph-name="bullet" unicode="&#x2022;" horiz-adv-x="505" 
d="M402.5 267q-23.5 -41 -63 -65t-86.5 -24t-87 24t-63 65t-23 90q0 47 22.5 88t62 65.5t88.5 24.5q48 0 87.5 -24t62.5 -65t23 -89q0 -49 -23.5 -90z" />
    <glyph glyph-name="ellipsis" unicode="&#x2026;" horiz-adv-x="990" 
d="M205 89.5q15 -15.5 15 -38.5t-15 -38.5t-38 -15.5t-38 16t-15 38q0 23 14.5 38.5t38.5 15.5q23 0 38 -15.5zM528 89.5q15 -15.5 15 -38.5t-15 -38.5t-38 -15.5t-38 16t-15 38q0 23 14.5 38.5t38.5 15.5q23 0 38 -15.5zM851 89.5q15 -15.5 15 -38.5t-15 -38.5t-38 -15.5
t-38 16t-15 38q0 23 14.5 38.5t38.5 15.5q23 0 38 -15.5z" />
    <glyph glyph-name="perthousand" unicode="&#x2030;" horiz-adv-x="1098" 
d="M621 725l-438 -759h-47l438 759h47zM326 412.5q-36 -44.5 -108 -44.5q-70 0 -107.5 43.5t-37.5 125.5q0 77 35.5 123t109.5 46q71 0 107.5 -43.5t36.5 -125.5q0 -80 -36 -124.5zM287.5 445q22.5 32 22.5 92t-23 92t-70 32q-92 0 -92 -124q0 -64 23.5 -94t69.5 -30
q47 0 69.5 32zM649 28.5q-37 -43.5 -108 -43.5t-107.5 44t-36.5 125q0 80 36.5 124.5t108.5 44.5q70 0 107 -43.5t37 -125.5t-37 -125.5zM992.5 28.5q-36.5 -43.5 -107.5 -43.5q-73 0 -109 45t-36 124q0 81 37 125t108 44q72 0 108 -44t36 -125q0 -82 -36.5 -125.5z
M611 61.5q23 31.5 23 92.5q0 124 -93 124q-92 0 -92 -124t92 -124q47 0 70 31.5zM977 154q0 124 -93 124q-92 0 -92 -124q0 -63 23 -93.5t70 -30.5q92 0 92 124z" />
    <glyph glyph-name="guilsinglleft" unicode="&#x2039;" horiz-adv-x="271" 
d="M191 431v-67l-91 -89l91 -89v-67l-130 125v62z" />
    <glyph glyph-name="guilsinglright" unicode="&#x203a;" horiz-adv-x="271" 
d="M210 306v-62l-130 -125v67l91 89l-91 89v67z" />
    <glyph glyph-name="fraction" unicode="&#x2044;" horiz-adv-x="182" 
d="M-104 -34h-47l438 759h47z" />
    <glyph glyph-name="zero.superior" unicode="&#x2070;" 
d="M299 444q-37 -56 -109 -56t-109.5 55.5t-37.5 165.5q0 109 37.5 164.5t109.5 55.5t109 -56t37 -164q0 -109 -37 -165zM265.5 474q24.5 47 24.5 135t-25 134.5t-76 46.5q-50 0 -74.5 -47.5t-24.5 -133.5q0 -87 24 -134.5t76 -47.5q51 0 75.5 47z" />
    <glyph glyph-name="four.superior" unicode="&#x2074;" 
d="M241 820h45v-279h61v-40h-61v-104h-47v104h-185v45zM93 541h146v214h-1z" />
    <glyph glyph-name="five.superior" unicode="&#x2075;" 
d="M309 778h-180l-25 -134l1 -1q16 18 39 28t49 10q41 0 72 -18.5t48 -51.5t17 -76q0 -42 -18.5 -75.5t-51.5 -52.5t-75 -19q-58 0 -96 30t-44 85h46q4 -36 29.5 -56t64.5 -20q30 0 52.5 15t34.5 40t12 55t-13 54.5t-35.5 38t-51.5 13.5q-27 0 -49.5 -11t-36.5 -34h-42
l41 222h212v-42z" />
    <glyph glyph-name="six.superior" unicode="&#x2076;" 
d="M279 733q-14 58 -79 58q-52 0 -80 -46.5t-28 -134.5l1 -1q15 31 44.5 49.5t63.5 18.5q38 0 69 -17.5t48.5 -50t17.5 -74.5t-18.5 -75.5t-51 -52.5t-72.5 -19q-52 0 -84.5 23t-48 72.5t-15.5 129.5q0 51 14.5 100t49 82.5t91.5 33.5q56 0 85 -24.5t38 -71.5h-45z
M125.5 454.5q25.5 -27.5 71.5 -27.5q26 0 47.5 14t33.5 38t12 53q0 31 -11.5 55t-33 38t-50.5 14t-50.5 -14t-33 -38.5t-11.5 -54.5q0 -50 25.5 -77.5z" />
    <glyph glyph-name="seven.superior" unicode="&#x2077;" 
d="M324 779q-41 -73 -89.5 -185.5t-75.5 -196.5h-51q29 85 78 194.5t91 186.5h-224v42h271v-41z" />
    <glyph glyph-name="eight.superior" unicode="&#x2078;" 
d="M301 662.5q-17 -24.5 -49 -34.5v-2q40 -8 62 -37t22 -71q0 -41 -19 -70.5t-52 -44.5t-75 -15t-75.5 15.5t-52.5 44.5t-19 69q0 39 21.5 70t62.5 39v2q-33 10 -50 34t-17 59q0 33 17.5 57.5t47 37.5t64.5 13q34 0 63.5 -12.5t47.5 -37t18 -58.5t-17 -58.5zM250 664
q23 20 23 55q0 32 -22 52t-62 20q-22 0 -41.5 -8.5t-31 -25t-11.5 -38.5q0 -35 23 -55t60 -20q39 0 62 20zM262 450.5q27 24.5 27 67.5q0 26 -12 46t-34.5 31.5t-53.5 11.5q-46 0 -72.5 -24t-26.5 -65q0 -44 28 -68t72 -24q45 0 72 24.5z" />
    <glyph glyph-name="nine.superior" unicode="&#x2079;" 
d="M318.5 502q-14.5 -49 -49 -81.5t-90.5 -32.5q-55 0 -87 25.5t-39 69.5h45q5 -26 26.5 -41.5t54.5 -15.5q53 0 81 47.5t28 133.5l-1 1q-13 -30 -41 -49t-68 -19q-39 0 -70 18t-48 51t-17 74q0 43 17.5 76t49 51.5t71.5 18.5q79 0 115.5 -54.5t36.5 -170.5
q0 -53 -14.5 -102zM100 629.5q12 -24.5 33.5 -38t49.5 -13.5q30 0 52.5 14t34 38.5t11.5 54.5q0 48 -27.5 76.5t-74.5 28.5q-26 0 -47 -14t-32.5 -38t-11.5 -53q0 -31 12 -55.5z" />
    <glyph glyph-name="uni207A" unicode="&#x207a;" horiz-adv-x="404" 
d="M222 755v-135h130v-38h-130v-135h-39v135h-130v38h130v135h39z" />
    <glyph glyph-name="uni207B" unicode="&#x207b;" horiz-adv-x="404" 
d="M352 620v-38h-299v38h299z" />
    <glyph glyph-name="uni207C" unicode="&#x207c;" horiz-adv-x="404" 
d="M352 682v-38h-299v38h299zM352 560v-39h-299v39h299z" />
    <glyph glyph-name="uni207D" unicode="&#x207d;" horiz-adv-x="198" 
d="M119.5 757.5q-18.5 -74.5 -18.5 -157.5q0 -68 19.5 -139t54.5 -130h-38q-45 76 -64 142.5t-19 136.5q0 73 21 145t62 138h38q-37 -61 -55.5 -135.5z" />
    <glyph glyph-name="uni207E" unicode="&#x207e;" horiz-adv-x="198" 
d="M123 754.5q20 -66.5 20 -140.5t-21 -146.5t-61 -136.5h-38q37 64 55.5 138t18.5 155q0 66 -19.5 136.5t-54.5 132.5h38q42 -72 62 -138.5z" />
    <glyph glyph-name="zero.inferior" unicode="&#x2080;" 
d="M299 -73q-37 -56 -109 -56t-109.5 55.5t-37.5 165.5q0 109 37.5 164.5t109.5 55.5t109 -56t37 -164q0 -109 -37 -165zM265.5 -43q24.5 47 24.5 135t-25 134.5t-76 46.5q-50 0 -74.5 -47.5t-24.5 -133.5q0 -87 24 -134.5t76 -47.5q51 0 75.5 47z" />
    <glyph glyph-name="one.inferior" unicode="&#x2081;" 
d="M234 -120h-47v373q-17 -10 -49.5 -25t-50.5 -21v43q19 7 54 23.5t56 29.5h37v-423z" />
    <glyph glyph-name="two.inferior" unicode="&#x2082;" 
d="M293 103.5q-23 -39.5 -58.5 -74t-99.5 -88.5q-8 -6 -24 -20v-2h214v-39h-269v43q83 70 123 107.5t65 75.5t25 77q0 42 -22.5 65.5t-59.5 23.5q-38 0 -61.5 -22.5t-23.5 -60.5v-3h-46v3q0 37 17 65t47 43t68 15q59 0 93.5 -33.5t34.5 -91.5q0 -44 -23 -83.5z" />
    <glyph glyph-name="three.inferior" unicode="&#x2083;" 
d="M253.5 300q28.5 -12 46 -37t17.5 -61q0 -35 -17.5 -60t-48.5 -34v-1q39 -7 60 -35.5t21 -69.5t-19 -70.5t-51.5 -45t-71.5 -15.5q-63 0 -102 31t-39 90v8h47v-6q0 -24 11.5 -43t33 -30t49.5 -11q25 0 47 10.5t35 30.5t13 48q0 42 -24.5 64.5t-68.5 22.5h-27v37h27
q34 0 56.5 19.5t22.5 54.5q0 36 -21.5 56t-58.5 20q-39 0 -62.5 -20.5t-23.5 -60.5v-2h-46q0 38 17 65.5t47 42t69 14.5q33 0 61.5 -12z" />
    <glyph glyph-name="four.inferior" unicode="&#x2084;" 
d="M241 303h45v-279h61v-40h-61v-104h-47v104h-185v45zM93 24h146v214h-1z" />
    <glyph glyph-name="five.inferior" unicode="&#x2085;" 
d="M309 261h-180l-25 -134l1 -1q16 18 39 28t49 10q41 0 72 -18.5t48 -51.5t17 -76q0 -42 -18.5 -75.5t-51.5 -52.5t-75 -19q-58 0 -96 30t-44 85h46q4 -36 29.5 -56t64.5 -20q30 0 52.5 15t34.5 40t12 55t-13 54.5t-35.5 38t-51.5 13.5q-27 0 -49.5 -11t-36.5 -34h-42
l41 222h212v-42z" />
    <glyph glyph-name="six.inferior" unicode="&#x2086;" 
d="M279 216q-14 58 -79 58q-52 0 -80 -46.5t-28 -134.5l1 -1q15 31 44.5 49.5t63.5 18.5q38 0 69 -17.5t48.5 -50t17.5 -74.5t-18.5 -75.5t-51 -52.5t-72.5 -19q-52 0 -84.5 23t-48 72.5t-15.5 129.5q0 51 14.5 100t49 82.5t91.5 33.5q56 0 85 -24.5t38 -71.5h-45z
M125.5 -62.5q25.5 -27.5 71.5 -27.5q26 0 47.5 14t33.5 38t12 53q0 31 -11.5 55t-33 38t-50.5 14t-50.5 -14t-33 -38.5t-11.5 -54.5q0 -50 25.5 -77.5z" />
    <glyph glyph-name="seven.inferior" unicode="&#x2087;" 
d="M324 262q-41 -73 -89.5 -185.5t-75.5 -196.5h-51q29 85 78 194.5t91 186.5h-224v42h271v-41z" />
    <glyph glyph-name="eight.inferior" unicode="&#x2088;" 
d="M301 145.5q-17 -24.5 -49 -34.5v-2q40 -8 62 -37t22 -71q0 -41 -19 -70.5t-52 -44.5t-75 -15t-75.5 15.5t-52.5 44.5t-19 69q0 39 21.5 70t62.5 39v2q-33 10 -50 34t-17 59q0 33 17.5 57.5t47 37.5t64.5 13q34 0 63.5 -12.5t47.5 -37t18 -58.5t-17 -58.5zM250 147
q23 20 23 55q0 32 -22 52t-62 20q-22 0 -41.5 -8.5t-31 -25t-11.5 -38.5q0 -35 23 -55t60 -20q39 0 62 20zM262 -66.5q27 24.5 27 67.5q0 26 -12 46t-34.5 31.5t-53.5 11.5q-46 0 -72.5 -24t-26.5 -65q0 -44 28 -68t72 -24q45 0 72 24.5z" />
    <glyph glyph-name="nine.inferior" unicode="&#x2089;" 
d="M318.5 -15q-14.5 -49 -49 -81.5t-90.5 -32.5q-55 0 -87 25.5t-39 69.5h45q5 -26 26.5 -41.5t54.5 -15.5q53 0 81 47.5t28 133.5l-1 1q-13 -30 -41 -49t-68 -19q-39 0 -70 18t-48 51t-17 74q0 43 17.5 76t49 51.5t71.5 18.5q79 0 115.5 -54.5t36.5 -170.5
q0 -53 -14.5 -102zM100 112.5q12 -24.5 33.5 -38t49.5 -13.5q30 0 52.5 14t34 38.5t11.5 54.5q0 48 -27.5 76.5t-74.5 28.5q-26 0 -47 -14t-32.5 -38t-11.5 -53q0 -31 12 -55.5z" />
    <glyph glyph-name="uni208A" unicode="&#x208a;" horiz-adv-x="404" 
d="M222 238v-135h130v-38h-130v-135h-39v135h-130v38h130v135h39z" />
    <glyph glyph-name="uni208B" unicode="&#x208b;" horiz-adv-x="404" 
d="M352 103v-38h-299v38h299z" />
    <glyph glyph-name="uni208C" unicode="&#x208c;" horiz-adv-x="404" 
d="M352 165v-38h-299v38h299zM352 43v-39h-299v39h299z" />
    <glyph glyph-name="uni208D" unicode="&#x208d;" horiz-adv-x="198" 
d="M119.5 240.5q-18.5 -74.5 -18.5 -157.5q0 -68 19.5 -139t54.5 -130h-38q-45 76 -64 142.5t-19 136.5q0 73 21 145t62 138h38q-37 -61 -55.5 -135.5z" />
    <glyph glyph-name="uni208E" unicode="&#x208e;" horiz-adv-x="198" 
d="M123 237.5q20 -66.5 20 -140.5t-21 -146.5t-61 -136.5h-38q37 64 55.5 138t18.5 155q0 66 -19.5 136.5t-54.5 132.5h38q42 -72 62 -138.5z" />
    <glyph glyph-name="uni2099" unicode="&#x2099;" horiz-adv-x="443" 
d="M373 -120h-47v237q0 57 -24.5 87t-77.5 30t-80 -30.5t-27 -86.5v-237h-46v382h46v-58h2q28 69 110 69q144 0 144 -145v-248z" />
    <glyph glyph-name="Euro" unicode="&#x20ac;" horiz-adv-x="559" 
d="M524 570q-61 79 -145 79q-87 0 -143.5 -58t-76.5 -160h321l-18 -45h-309q-3 -25 -3 -36q0 -17 1 -23h293l-19 -45h-271q15 -116 71 -178.5t144 -62.5q54 0 92 16t74 44v-61q-31 -24 -69.5 -39.5t-97.5 -15.5q-77 0 -136.5 35.5t-96 102t-46.5 159.5h-64l18 45h43
q-1 8 -1 23l2 36h-62l17 45h50q15 82 52.5 144t97 96.5t137.5 34.5q60 0 102.5 -21t69.5 -56z" />
    <glyph glyph-name="uni20B9" unicode="&#x20b9;" horiz-adv-x="556" 
d="M544 646h-184q27 -22 42 -49.5t18 -62.5h124v-45h-122q-1 -40 -18.5 -71.5t-46 -52t-62.5 -29.5v-2q41 -8 64 -31.5t43.5 -89.5t52.5 -213h-69q-18 94 -31 147t-23.5 79t-22.5 42q-15 20 -41.5 29.5t-60.5 9.5h-150v53h120q53 0 94.5 14.5t64.5 44t23 70.5h-302v45h300
q-8 61 -50.5 86.5t-111.5 25.5h-138v45h487v-45z" />
    <glyph glyph-name="uni20BA" unicode="&#x20ba;" horiz-adv-x="559" 
d="M518 310q-9 -146 -87 -228t-226 -82h-78v336l-89 -44v50l89 44v90l-89 -44v50l89 44v165h58v-137l209 104v-50l-209 -104v-90l209 104v-50l-209 -104v-311h20q126 0 185.5 72.5t67.5 184.5h60z" />
    <glyph glyph-name="uni20BC" unicode="&#x20bc;" horiz-adv-x="695" 
d="M318 70v445q-79 -7 -129 -81t-72 -177t-22 -202v-55h-63v66q0 117 29.5 229.5t94 189t162.5 83.5v123h60v-123q98 -7 162 -83.5t93.5 -189t29.5 -229.5v-66h-63v55q0 99 -22 202t-72 177t-128 81v-445h-60z" />
    <glyph glyph-name="uni20BD" unicode="&#x20bd;" horiz-adv-x="559" 
d="M482 646q55 -45 55 -141q0 -64 -28.5 -107t-79.5 -63.5t-117 -20.5h-138v-78h188v-50h-188v-186h-63v186h-84v50h84v78h-84v50h84v327h215q101 0 156 -45zM430.5 397.5q43.5 33.5 43.5 107.5q0 72 -40.5 102.5t-118.5 30.5h-141v-274h130q83 0 126.5 33.5z" />
    <glyph glyph-name="uni2113" unicode="&#x2113;" horiz-adv-x="505" 
d="M222 277v-159q0 -45 20.5 -68.5t55.5 -23.5q22 0 44.5 10.5t41.5 29.5l21 -28q-54 -52 -118 -52q-54 0 -85 32.5t-31 90.5v131l-58 -65l-22 28l80 84v266q0 49 14 87t40.5 59.5t61.5 21.5q28 0 50 -14.5t34.5 -42t12.5 -66.5q0 -142 -162 -321zM310 465q31 70 31 128
q0 26 -7.5 47t-20 32.5t-27.5 11.5q-30 0 -47 -34.5t-17 -88.5v-236q57 70 88 140z" />
    <glyph glyph-name="uni2117" unicode="&#x2117;" horiz-adv-x="797" 
d="M712 164q-47 -83 -129.5 -131t-183.5 -48t-183.5 48t-130 130.5t-47.5 182.5t48 182.5t130.5 130t182.5 47.5q99 0 181.5 -47.5t130.5 -129.5t48 -183q0 -99 -47 -182zM554.5 77.5q69.5 41.5 109 112.5t39.5 156q0 86 -40 156.5t-110 111.5t-155 41q-86 0 -155.5 -41
t-109 -112t-39.5 -156t39.5 -156t109 -112.5t156.5 -41.5q86 0 155.5 41.5zM535 523.5q38 -30.5 38 -93.5q0 -67 -39 -99.5t-123 -32.5h-83v-161h-51v417h148q72 0 110 -30.5zM460 346.5q25 4.5 43 23t18 57.5q0 41 -28 62.5t-80 21.5h-85v-169h70q37 0 62 4.5z" />
    <glyph glyph-name="trademark" unicode="&#x2122;" horiz-adv-x="981" 
d="M401 691v-44h-130v-355h-52v355h-130v44h312zM555 691l128 -322h2l123 322h84v-399h-53v351h-2l-140 -351h-30l-141 351h-2v-351h-53v399h84z" />
    <glyph glyph-name="Omega" unicode="&#x2126;" horiz-adv-x="757" 
d="M662 200q-42 -81 -124 -138v-4h176v-58h-257v60q91 63 134.5 140.5t43.5 178.5q0 76 -31.5 137t-89.5 96.5t-134 35.5q-78 0 -136.5 -33.5t-90.5 -94t-32 -140.5q0 -99 44.5 -178t136.5 -142v-60h-259v58h172v4q-79 55 -121 136t-42 181q0 93 41.5 167.5t116.5 117
t170 42.5t169 -45.5t114.5 -120.5t40.5 -161q0 -98 -42 -179z" />
    <glyph glyph-name="estimated" unicode="&#x212e;" horiz-adv-x="904" 
d="M237.5 39q-91.5 48 -139.5 129t-48 176q0 97 49 182t140.5 136.5t212.5 51.5q145 0 235 -54.5t128.5 -138.5t38.5 -179h-652q-3 0 -4 -1t-1 -5v-184q0 -22 7 -30q41 -50 104.5 -77.5t142.5 -27.5t140 29.5t121 83.5h70q-41 -49 -85.5 -79t-103.5 -45t-141 -15
q-123 0 -214.5 48zM700 363q7 0 7 7v189q0 9 -12 26q-46 57 -114 81t-133 24q-63 0 -126.5 -25.5t-115.5 -77.5q-4 -5 -6.5 -13t-2.5 -15v-189q0 -3 1 -5t4 -2h498z" />
    <glyph glyph-name="partialdiff" unicode="&#x2202;" horiz-adv-x="517" 
d="M363.5 670q54.5 -51 78.5 -132.5t24 -176.5q0 -172 -55 -272.5t-170 -100.5q-59 0 -104.5 30.5t-70 82t-24.5 112.5q0 60 24 109t68.5 77t101.5 28q87 0 156 -75v44q0 61 -16.5 121t-54 100.5t-96.5 40.5q-28 0 -54 -11t-56 -36l-42 50q66 60 149 60q87 0 141.5 -51z
M345.5 111.5q33.5 63.5 42.5 168.5q-34 44 -69.5 64.5t-74.5 20.5t-68.5 -21t-45 -56.5t-15.5 -77.5q0 -40 14.5 -77t43 -61t68.5 -24q71 0 104.5 63.5z" />
    <glyph glyph-name="Delta" unicode="&#x2206;" horiz-adv-x="633" 
d="M358 691l271 -691h-626l279 691h76zM98 58h436l-216 564h-1z" />
    <glyph glyph-name="product" unicode="&#x220f;" horiz-adv-x="718" 
d="M641 786v-1000h-76v928h-412v-928h-77v1000h565z" />
    <glyph glyph-name="summation" unicode="&#x2211;" horiz-adv-x="618" 
d="M571 786v-72h-423l291 -424l-309 -432h453v-72h-549v64l312 440l-298 432v64h523z" />
    <glyph glyph-name="minus" unicode="&#x2212;" horiz-adv-x="602" 
d="M545 278v-53h-487v53h487z" />
    <glyph glyph-name="uni2215" unicode="&#x2215;" horiz-adv-x="182" 
d="M-104 -34h-47l438 759h47z" />
    <glyph glyph-name="uni2219" unicode="&#x2219;" horiz-adv-x="278" 
d="M177 355.5q15 -15.5 15 -38.5t-15 -38.5t-38 -15.5t-38 16t-15 38q0 23 14.5 38.5t38.5 15.5q23 0 38 -15.5z" />
    <glyph glyph-name="radical" unicode="&#x221a;" horiz-adv-x="510" 
d="M510 786l-205 -1000h-74l-156 334l-46 -22l-28 60l110 52l146 -317l178 893h75z" />
    <glyph glyph-name="infinity" unicode="&#x221e;" horiz-adv-x="758" 
d="M690 175q-17 -36 -49.5 -56.5t-76.5 -20.5q-42 0 -86.5 25t-97.5 84q-42 -40 -67 -60.5t-54.5 -34t-62.5 -13.5q-47 0 -79.5 21t-49 56t-16.5 76q0 44 17.5 79.5t49.5 56t74 20.5q30 0 57.5 -10.5t59 -35.5t71.5 -68q39 41 63 63t54.5 37.5t65.5 15.5q43 0 76 -20.5
t50.5 -56t17.5 -78.5q0 -44 -17 -80zM623 190.5q20 24.5 20 61.5q0 39 -20.5 64.5t-59.5 25.5q-30 0 -62 -22t-79 -69q47 -48 80 -66.5t65 -18.5q36 0 56 24.5zM337 251q-46 45 -81 67.5t-64 22.5q-24 0 -41.5 -12.5t-26.5 -33t-9 -43.5q0 -39 21.5 -62.5t58.5 -23.5
q60 0 142 85z" />
    <glyph glyph-name="integral" unicode="&#x222b;" horiz-adv-x="559" 
d="M408 702.5q-12 -10.5 -30 -10.5q-11 0 -18.5 6.5t-16.5 17.5q-6 9 -10.5 14t-8.5 5q-30 0 -30 -91l1 -51q1 -16 1 -45v-542q0 -108 -28.5 -163.5t-94.5 -55.5q-28 0 -48 14.5t-20 37.5q0 15 11 25.5t25 10.5q20 0 34 -25q6 -10 10 -13.5t7 -3.5q15 0 21.5 31.5t6.5 79.5
l-1 51v607q0 44 9 82t25 60q16 20 37 31t51 11q33 0 56 -14.5t23 -41.5q0 -17 -12 -27.5z" />
    <glyph glyph-name="approxequal" unicode="&#x2248;" horiz-adv-x="602" 
d="M383.5 350q27.5 -8 50.5 -8q27 0 47 20t27 55h50q-8 -58 -40 -93t-86 -35q-27 0 -57.5 8.5t-79.5 27.5q-48 19 -76 27t-50 8q-29 0 -48.5 -20t-26.5 -55h-50q8 60 41 94t85 34q25 0 56 -8t81 -28q49 -19 76.5 -27zM386.5 152q27.5 -7 46.5 -7q28 0 48 19t27 56h50
q-9 -63 -42 -95.5t-84 -32.5q-25 0 -57 8.5t-85 29.5q-50 20 -76.5 26.5t-45.5 6.5q-27 0 -47 -20t-27 -55h-50q8 58 40 93t86 35q25 0 56.5 -8t83.5 -29q49 -20 76.5 -27z" />
    <glyph glyph-name="notequal" unicode="&#x2260;" horiz-adv-x="602" 
d="M473 503l-69 -125h141v-53h-172l-80 -144h252v-53h-283l-86 -156l-46 25l72 131h-144v53h175l80 144h-255v53h285l84 150z" />
    <glyph glyph-name="lessequal" unicode="&#x2264;" horiz-adv-x="602" 
d="M545 473l-428 -166l428 -166v-55l-488 194v54l488 194v-55zM545 53v-53h-488v53h488z" />
    <glyph glyph-name="greaterequal" unicode="&#x2265;" horiz-adv-x="602" 
d="M58 528l487 -194v-54l-487 -194v55l427 166l-427 166v55zM545 53v-53h-487v53h487z" />
    <glyph glyph-name="lozenge" unicode="&#x25ca;" horiz-adv-x="595" 
d="M333 747l167 -391l-167 -391h-71l-167 391l167 391h71zM170 356l127 -315l128 315l-128 315z" />
    <glyph glyph-name="uniF8FF" unicode="&#xf8ff;" horiz-adv-x="517" 
d="M42 691h432v-691h-432v691zM405 648h-294l147 -259zM85 91l147 254l-147 255v-509zM431 91v509l-147 -255zM405 43l-147 258l-147 -258h294z" />
    <glyph glyph-name="uniFEFF" unicode="&#xfeff;" horiz-adv-x="0" 
 />
    <glyph glyph-name="f_i" horiz-adv-x="484" 
d="M101 463h-84v53h84v22q0 51 16.5 91t50.5 62.5t84 22.5q22 0 38 -3v-54q-17 4 -35 4q-49 0 -70 -33t-21 -99v-13h99v-53h-99v-463h-63v463zM416 638q-13 -13 -33 -13t-32.5 13.5t-12.5 32.5t12.5 32.5t32.5 13.5t33 -13.5t13 -32.5q0 -20 -13 -33zM415 516v-516h-63v516
h63z" />
    <glyph glyph-name="f_l" horiz-adv-x="484" 
d="M101 463h-84v53h84v22q0 51 16.5 91t50.5 62.5t84 22.5q22 0 38 -3v-54q-17 4 -35 4q-49 0 -70 -33t-21 -99v-13h99v-53h-99v-463h-63v463zM415 714v-714h-63v714h63z" />
    <glyph glyph-name="zero.dnom" 
d="M299 47q-37 -56 -109 -56t-109.5 55.5t-37.5 165.5q0 109 37.5 164.5t109.5 55.5t109 -56t37 -164q0 -109 -37 -165zM265.5 77q24.5 47 24.5 135t-25 134.5t-76 46.5q-50 0 -74.5 -47.5t-24.5 -133.5q0 -87 24 -134.5t76 -47.5q51 0 75.5 47z" />
    <glyph glyph-name="one.dnom" 
d="M234 0h-47v373q-17 -10 -49.5 -25t-50.5 -21v43q19 7 54 23.5t56 29.5h37v-423z" />
    <glyph glyph-name="two.dnom" 
d="M293 223.5q-23 -39.5 -58.5 -74t-99.5 -88.5q-8 -6 -24 -20v-2h214v-39h-269v43q83 70 123 107.5t65 75.5t25 77q0 42 -22.5 65.5t-59.5 23.5q-38 0 -61.5 -22.5t-23.5 -60.5v-3h-46v3q0 37 17 65t47 43t68 15q59 0 93.5 -33.5t34.5 -91.5q0 -44 -23 -83.5z" />
    <glyph glyph-name="three.dnom" 
d="M253.5 420q28.5 -12 46 -37t17.5 -61q0 -35 -17.5 -60t-48.5 -34v-1q39 -7 60 -35.5t21 -69.5t-19 -70.5t-51.5 -45t-71.5 -15.5q-63 0 -102 31t-39 90v8h47v-6q0 -24 11.5 -43t33 -30t49.5 -11q25 0 47 10.5t35 30.5t13 48q0 42 -24.5 64.5t-68.5 22.5h-27v37h27
q34 0 56.5 19.5t22.5 54.5q0 36 -21.5 56t-58.5 20q-39 0 -62.5 -20.5t-23.5 -60.5v-2h-46q0 38 17 65.5t47 42t69 14.5q33 0 61.5 -12z" />
    <glyph glyph-name="four.dnom" 
d="M241 423h45v-279h61v-40h-61v-104h-47v104h-185v45zM93 144h146v214h-1z" />
    <glyph glyph-name="five.dnom" 
d="M309 381h-180l-25 -134l1 -1q16 18 39 28t49 10q41 0 72 -18.5t48 -51.5t17 -76q0 -42 -18.5 -75.5t-51.5 -52.5t-75 -19q-58 0 -96 30t-44 85h46q4 -36 29.5 -56t64.5 -20q30 0 52.5 15t34.5 40t12 55t-13 54.5t-35.5 38t-51.5 13.5q-27 0 -49.5 -11t-36.5 -34h-42
l41 222h212v-42z" />
    <glyph glyph-name="six.dnom" 
d="M279 336q-14 58 -79 58q-52 0 -80 -46.5t-28 -134.5l1 -1q15 31 44.5 49.5t63.5 18.5q38 0 69 -17.5t48.5 -50t17.5 -74.5t-18.5 -75.5t-51 -52.5t-72.5 -19q-52 0 -84.5 23t-48 72.5t-15.5 129.5q0 51 14.5 100t49 82.5t91.5 33.5q56 0 85 -24.5t38 -71.5h-45z
M125.5 57.5q25.5 -27.5 71.5 -27.5q26 0 47.5 14t33.5 38t12 53q0 31 -11.5 55t-33 38t-50.5 14t-50.5 -14t-33 -38.5t-11.5 -54.5q0 -50 25.5 -77.5z" />
    <glyph glyph-name="seven.dnom" 
d="M324 382q-41 -73 -89.5 -185.5t-75.5 -196.5h-51q29 85 78 194.5t91 186.5h-224v42h271v-41z" />
    <glyph glyph-name="eight.dnom" 
d="M301 265.5q-17 -24.5 -49 -34.5v-2q40 -8 62 -37t22 -71q0 -41 -19 -70.5t-52 -44.5t-75 -15t-75.5 15.5t-52.5 44.5t-19 69q0 39 21.5 70t62.5 39v2q-33 10 -50 34t-17 59q0 33 17.5 57.5t47 37.5t64.5 13q34 0 63.5 -12.5t47.5 -37t18 -58.5t-17 -58.5zM250 267
q23 20 23 55q0 32 -22 52t-62 20q-22 0 -41.5 -8.5t-31 -25t-11.5 -38.5q0 -35 23 -55t60 -20q39 0 62 20zM262 53.5q27 24.5 27 67.5q0 26 -12 46t-34.5 31.5t-53.5 11.5q-46 0 -72.5 -24t-26.5 -65q0 -44 28 -68t72 -24q45 0 72 24.5z" />
    <glyph glyph-name="nine.dnom" 
d="M318.5 105q-14.5 -49 -49 -81.5t-90.5 -32.5q-55 0 -87 25.5t-39 69.5h45q5 -26 26.5 -41.5t54.5 -15.5q53 0 81 47.5t28 133.5l-1 1q-13 -30 -41 -49t-68 -19q-39 0 -70 18t-48 51t-17 74q0 43 17.5 76t49 51.5t71.5 18.5q79 0 115.5 -54.5t36.5 -170.5
q0 -53 -14.5 -102zM100 232.5q12 -24.5 33.5 -38t49.5 -13.5q30 0 52.5 14t34 38.5t11.5 54.5q0 48 -27.5 76.5t-74.5 28.5q-26 0 -47 -14t-32.5 -38t-11.5 -53q0 -31 12 -55.5z" />
    <glyph glyph-name="zero.numr" 
d="M299 315q-37 -56 -109 -56t-109.5 55.5t-37.5 165.5q0 109 37.5 164.5t109.5 55.5t109 -56t37 -164q0 -109 -37 -165zM265.5 345q24.5 47 24.5 135t-25 134.5t-76 46.5q-50 0 -74.5 -47.5t-24.5 -133.5q0 -87 24 -134.5t76 -47.5q51 0 75.5 47z" />
    <glyph glyph-name="one.numr" 
d="M234 268h-47v373q-17 -10 -49.5 -25t-50.5 -21v43q19 7 54 23.5t56 29.5h37v-423z" />
    <glyph glyph-name="two.numr" 
d="M293 491.5q-23 -39.5 -58.5 -74t-99.5 -88.5q-8 -6 -24 -20v-2h214v-39h-269v43q83 70 123 107.5t65 75.5t25 77q0 42 -22.5 65.5t-59.5 23.5q-38 0 -61.5 -22.5t-23.5 -60.5v-3h-46v3q0 37 17 65t47 43t68 15q59 0 93.5 -33.5t34.5 -91.5q0 -44 -23 -83.5z" />
    <glyph glyph-name="three.numr" 
d="M253.5 688q28.5 -12 46 -37t17.5 -61q0 -35 -17.5 -60t-48.5 -34v-1q39 -7 60 -35.5t21 -69.5t-19 -70.5t-51.5 -45t-71.5 -15.5q-63 0 -102 31t-39 90v8h47v-6q0 -24 11.5 -43t33 -30t49.5 -11q25 0 47 10.5t35 30.5t13 48q0 42 -24.5 64.5t-68.5 22.5h-27v37h27
q34 0 56.5 19.5t22.5 54.5q0 36 -21.5 56t-58.5 20q-39 0 -62.5 -20.5t-23.5 -60.5v-2h-46q0 38 17 65.5t47 42t69 14.5q33 0 61.5 -12z" />
    <glyph glyph-name="four.numr" 
d="M241 691h45v-279h61v-40h-61v-104h-47v104h-185v45zM93 412h146v214h-1z" />
    <glyph glyph-name="five.numr" 
d="M309 649h-180l-25 -134l1 -1q16 18 39 28t49 10q41 0 72 -18.5t48 -51.5t17 -76q0 -42 -18.5 -75.5t-51.5 -52.5t-75 -19q-58 0 -96 30t-44 85h46q4 -36 29.5 -56t64.5 -20q30 0 52.5 15t34.5 40t12 55t-13 54.5t-35.5 38t-51.5 13.5q-27 0 -49.5 -11t-36.5 -34h-42
l41 222h212v-42z" />
    <glyph glyph-name="six.numr" 
d="M279 604q-14 58 -79 58q-52 0 -80 -46.5t-28 -134.5l1 -1q15 31 44.5 49.5t63.5 18.5q38 0 69 -17.5t48.5 -50t17.5 -74.5t-18.5 -75.5t-51 -52.5t-72.5 -19q-52 0 -84.5 23t-48 72.5t-15.5 129.5q0 51 14.5 100t49 82.5t91.5 33.5q56 0 85 -24.5t38 -71.5h-45z
M125.5 325.5q25.5 -27.5 71.5 -27.5q26 0 47.5 14t33.5 38t12 53q0 31 -11.5 55t-33 38t-50.5 14t-50.5 -14t-33 -38.5t-11.5 -54.5q0 -50 25.5 -77.5z" />
    <glyph glyph-name="seven.numr" 
d="M324 650q-41 -73 -89.5 -185.5t-75.5 -196.5h-51q29 85 78 194.5t91 186.5h-224v42h271v-41z" />
    <glyph glyph-name="eight.numr" 
d="M301 533.5q-17 -24.5 -49 -34.5v-2q40 -8 62 -37t22 -71q0 -41 -19 -70.5t-52 -44.5t-75 -15t-75.5 15.5t-52.5 44.5t-19 69q0 39 21.5 70t62.5 39v2q-33 10 -50 34t-17 59q0 33 17.5 57.5t47 37.5t64.5 13q34 0 63.5 -12.5t47.5 -37t18 -58.5t-17 -58.5zM250 535
q23 20 23 55q0 32 -22 52t-62 20q-22 0 -41.5 -8.5t-31 -25t-11.5 -38.5q0 -35 23 -55t60 -20q39 0 62 20zM262 321.5q27 24.5 27 67.5q0 26 -12 46t-34.5 31.5t-53.5 11.5q-46 0 -72.5 -24t-26.5 -65q0 -44 28 -68t72 -24q45 0 72 24.5z" />
    <glyph glyph-name="nine.numr" 
d="M318.5 373q-14.5 -49 -49 -81.5t-90.5 -32.5q-55 0 -87 25.5t-39 69.5h45q5 -26 26.5 -41.5t54.5 -15.5q53 0 81 47.5t28 133.5l-1 1q-13 -30 -41 -49t-68 -19q-39 0 -70 18t-48 51t-17 74q0 43 17.5 76t49 51.5t71.5 18.5q79 0 115.5 -54.5t36.5 -170.5
q0 -53 -14.5 -102zM100 500.5q12 -24.5 33.5 -38t49.5 -13.5q30 0 52.5 14t34 38.5t11.5 54.5q0 48 -27.5 76.5t-74.5 28.5q-26 0 -47 -14t-32.5 -38t-11.5 -53q0 -31 12 -55.5z" />
    <glyph glyph-name="caroncomb.alt" horiz-adv-x="0" 
d="M24 714l-83 -141h-47l53 141h77z" />
    <glyph glyph-name="acute.cap" horiz-adv-x="201" 
d="M222 890l-129 -136h-50l101 136h78z" />
    <glyph glyph-name="breve.cap" horiz-adv-x="201" 
d="M14 843q14 -18 36.5 -27.5t48.5 -9.5q39 0 68 21.5t35 57.5h38q-8 -57 -45 -90.5t-96 -33.5q-61 0 -97 33t-41 91h38q1 -24 15 -42z" />
    <glyph glyph-name="caron.cap" horiz-adv-x="201" 
d="M16 890l83 -98l85 98h58l-111 -136h-68l-111 136h64z" />
    <glyph glyph-name="circumflex.cap" horiz-adv-x="201" 
d="M138 890l110 -136h-64l-83 98l-85 -98h-57l110 136h69z" />
    <glyph glyph-name="dieresis.cap" horiz-adv-x="201" 
d="M47 787q-13 -13 -33 -13t-32.5 13.5t-12.5 32.5t12.5 32.5t32.5 13.5t33 -13.5t13 -32.5q0 -20 -13 -33zM219 787q-13 -13 -33 -13t-32.5 13.5t-12.5 32.5t12.5 32.5t32.5 13.5t33 -13.5t13 -32.5q0 -20 -13 -33z" />
    <glyph glyph-name="dotaccent.cap" horiz-adv-x="201" 
d="M134 787q-13 -13 -33 -13t-32.5 13.5t-12.5 32.5t12.5 32.5t32.5 13.5t33 -13.5t13 -32.5q0 -20 -13 -33z" />
    <glyph glyph-name="grave.cap" horiz-adv-x="201" 
d="M57 890l102 -136h-51l-128 136h77z" />
    <glyph glyph-name="hungarumlaut.cap" horiz-adv-x="201" 
d="M151 890l-123 -136h-51l98 136h76zM303 890l-122 -136h-51l98 136h75z" />
    <glyph glyph-name="macron.cap" horiz-adv-x="201" 
d="M261 845v-44h-320v44h320z" />
    <glyph glyph-name="ring.cap" horiz-adv-x="201" 
d="M191 780.5q-14 -23.5 -38 -37.5t-52 -14t-52 14t-38 37.5t-14 51.5t14 52t38 38t52 14q29 0 53 -14t37.5 -38t13.5 -52t-14 -51.5zM148.5 786q18.5 19 18.5 46q0 28 -18.5 47t-48.5 19q-27 0 -46 -18.5t-19 -47.5q0 -27 18.5 -46t47.5 -19t47.5 19z" />
    <glyph glyph-name="tilde.cap" horiz-adv-x="201" 
d="M139.5 831q15.5 -6 25.5 -6q20 0 31.5 11t19.5 35h37q-9 -45 -31.5 -68.5t-53.5 -23.5q-17 0 -34 5.5t-39 16.5q-24 12 -36.5 17t-24.5 5q-38 0 -48 -49h-39q3 26 15 47.5t31 34t41 12.5q17 0 34 -5.5t39 -16.5q17 -9 32.5 -15z" />
    </font>
</defs>
</svg>
