<svg width="24" height="30" viewBox="0 0 24 30" fill="none" xmlns="http://www.w3.org/2000/svg">
<path fill-rule="evenodd" clip-rule="evenodd" d="M15.2 6.9999C15.2 5.2351 13.7648 3.7999 12 3.7999C10.2352 3.7999 8.80002 5.2351 8.80002 6.9999C8.80002 8.7647 10.2352 10.1999 12 10.1999C13.7648 10.1999 15.2 8.7647 15.2 6.9999ZM18.4 7C18.4 10.5296 15.5296 13.4 12 13.4C8.4704 13.4 5.6 10.5296 5.6 7C5.6 3.4704 8.4704 0.6 12 0.6C15.5296 0.6 18.4 3.4704 18.4 7ZM0.8 27.8C0.8 21.624 5.8256 16.6 12 16.6C18.1744 16.6 23.2 21.624 23.2 27.8C23.2 28.6832 22.4848 29.4 21.6 29.4C20.7152 29.4 20 28.6832 20 27.8C20 23.3888 16.4112 19.8 12 19.8C7.5888 19.8 4 23.3888 4 27.8C4 28.6832 3.2848 29.4 2.4 29.4C1.5152 29.4 0.8 28.6832 0.8 27.8Z" fill="#000093"/>
</svg>
